G75*
G70*
%OFA0B0*%
%FSLAX24Y24*%
%IPPOS*%
%LPD*%
%AMOC8*
5,1,8,0,0,1.08239X$1,22.5*
%
%ADD10C,0.0200*%
%ADD11C,0.0080*%
%ADD12C,0.0100*%
D10*
X005650Y008345D02*
X005650Y008695D01*
X005653Y008747D01*
X005661Y008799D01*
X005672Y008850D01*
X005687Y008900D01*
X005705Y008949D01*
X005727Y008996D01*
X005752Y009042D01*
X005780Y009086D01*
X005811Y009128D01*
X005845Y009167D01*
X005882Y009204D01*
X005921Y009239D01*
X005963Y009270D01*
X006007Y009298D01*
X006052Y009324D01*
X006100Y009345D01*
X006100Y009645D01*
X005200Y009645D01*
X012700Y009345D02*
X012700Y009045D01*
X013300Y009045D01*
X013334Y009043D01*
X013367Y009037D01*
X013399Y009028D01*
X013430Y009015D01*
X013460Y008999D01*
X013487Y008980D01*
X013512Y008957D01*
X013535Y008932D01*
X013554Y008905D01*
X013570Y008875D01*
X013583Y008844D01*
X013592Y008812D01*
X013598Y008779D01*
X013600Y008745D01*
X013598Y008711D01*
X013592Y008678D01*
X013583Y008646D01*
X013570Y008615D01*
X013554Y008585D01*
X013535Y008558D01*
X013512Y008533D01*
X013487Y008510D01*
X013460Y008491D01*
X013430Y008475D01*
X013399Y008462D01*
X013367Y008453D01*
X013334Y008447D01*
X013300Y008445D01*
X013000Y008445D01*
X012966Y008447D01*
X012933Y008453D01*
X012901Y008462D01*
X012870Y008475D01*
X012840Y008491D01*
X012813Y008510D01*
X012788Y008533D01*
X012765Y008558D01*
X012746Y008585D01*
X012730Y008615D01*
X012717Y008646D01*
X012708Y008678D01*
X012702Y008711D01*
X012700Y008745D01*
X012700Y009045D01*
X012700Y009345D02*
X012702Y009379D01*
X012708Y009412D01*
X012717Y009444D01*
X012730Y009475D01*
X012746Y009505D01*
X012765Y009532D01*
X012788Y009557D01*
X012813Y009580D01*
X012840Y009599D01*
X012870Y009615D01*
X012901Y009628D01*
X012933Y009637D01*
X012966Y009643D01*
X013000Y009645D01*
X013525Y009645D01*
X020200Y009645D02*
X020200Y009045D01*
X020800Y009045D01*
X021100Y008745D02*
X021098Y008711D01*
X021092Y008678D01*
X021083Y008646D01*
X021070Y008615D01*
X021054Y008585D01*
X021035Y008558D01*
X021012Y008533D01*
X020987Y008510D01*
X020960Y008491D01*
X020930Y008475D01*
X020899Y008462D01*
X020867Y008453D01*
X020834Y008447D01*
X020800Y008445D01*
X020200Y008445D01*
X020800Y009045D02*
X020834Y009043D01*
X020867Y009037D01*
X020899Y009028D01*
X020930Y009015D01*
X020960Y008999D01*
X020987Y008980D01*
X021012Y008957D01*
X021035Y008932D01*
X021054Y008905D01*
X021070Y008875D01*
X021083Y008844D01*
X021092Y008812D01*
X021098Y008779D01*
X021100Y008745D01*
X021025Y009645D02*
X020200Y009645D01*
X027700Y009645D02*
X027700Y009345D01*
X027702Y009311D01*
X027708Y009278D01*
X027717Y009246D01*
X027730Y009215D01*
X027746Y009185D01*
X027765Y009158D01*
X027788Y009133D01*
X027813Y009110D01*
X027840Y009091D01*
X027870Y009075D01*
X027901Y009062D01*
X027933Y009053D01*
X027966Y009047D01*
X028000Y009045D01*
X028600Y009045D01*
X028600Y008445D01*
X028600Y009045D02*
X028600Y009645D01*
X035200Y009645D02*
X035800Y009645D01*
X035834Y009643D01*
X035867Y009637D01*
X035899Y009628D01*
X035930Y009615D01*
X035960Y009599D01*
X035987Y009580D01*
X036012Y009557D01*
X036035Y009532D01*
X036054Y009505D01*
X036070Y009475D01*
X036083Y009444D01*
X036092Y009412D01*
X036098Y009379D01*
X036100Y009345D01*
X036100Y009045D01*
X035350Y009045D01*
X035800Y008445D02*
X035834Y008447D01*
X035867Y008453D01*
X035899Y008462D01*
X035930Y008475D01*
X035960Y008491D01*
X035987Y008510D01*
X036012Y008533D01*
X036035Y008558D01*
X036054Y008585D01*
X036070Y008615D01*
X036083Y008646D01*
X036092Y008678D01*
X036098Y008711D01*
X036100Y008745D01*
X036100Y009045D01*
X035800Y008445D02*
X035200Y008445D01*
X042700Y008445D02*
X043600Y008445D01*
X043300Y009045D02*
X043000Y009045D01*
X042966Y009043D01*
X042933Y009037D01*
X042901Y009028D01*
X042870Y009015D01*
X042840Y008999D01*
X042813Y008980D01*
X042788Y008957D01*
X042765Y008932D01*
X042746Y008905D01*
X042730Y008875D01*
X042717Y008844D01*
X042708Y008812D01*
X042702Y008779D01*
X042700Y008745D01*
X042700Y008445D01*
X043300Y009045D02*
X043334Y009047D01*
X043367Y009053D01*
X043399Y009062D01*
X043430Y009075D01*
X043460Y009091D01*
X043487Y009110D01*
X043512Y009133D01*
X043535Y009158D01*
X043554Y009185D01*
X043570Y009215D01*
X043583Y009246D01*
X043592Y009278D01*
X043598Y009311D01*
X043600Y009345D01*
X043598Y009379D01*
X043592Y009412D01*
X043583Y009444D01*
X043570Y009475D01*
X043554Y009505D01*
X043535Y009532D01*
X043512Y009557D01*
X043487Y009580D01*
X043460Y009599D01*
X043430Y009615D01*
X043399Y009628D01*
X043367Y009637D01*
X043334Y009643D01*
X043300Y009645D01*
X042775Y009645D01*
X050350Y009645D02*
X050650Y009645D01*
X050650Y008445D01*
X050950Y008445D01*
X050650Y008445D02*
X050350Y008445D01*
X057700Y008745D02*
X057700Y009345D01*
X057702Y009379D01*
X057708Y009412D01*
X057717Y009444D01*
X057730Y009475D01*
X057746Y009505D01*
X057765Y009532D01*
X057788Y009557D01*
X057813Y009580D01*
X057840Y009599D01*
X057870Y009615D01*
X057901Y009628D01*
X057933Y009637D01*
X057966Y009643D01*
X058000Y009645D01*
X058300Y009645D01*
X058334Y009643D01*
X058367Y009637D01*
X058399Y009628D01*
X058430Y009615D01*
X058460Y009599D01*
X058487Y009580D01*
X058512Y009557D01*
X058535Y009532D01*
X058554Y009505D01*
X058570Y009475D01*
X058583Y009444D01*
X058592Y009412D01*
X058598Y009379D01*
X058600Y009345D01*
X058600Y008745D01*
X058598Y008711D01*
X058592Y008678D01*
X058583Y008646D01*
X058570Y008615D01*
X058554Y008585D01*
X058535Y008558D01*
X058512Y008533D01*
X058487Y008510D01*
X058460Y008491D01*
X058430Y008475D01*
X058399Y008462D01*
X058367Y008453D01*
X058334Y008447D01*
X058300Y008445D01*
X058000Y008445D01*
X057966Y008447D01*
X057933Y008453D01*
X057901Y008462D01*
X057870Y008475D01*
X057840Y008491D01*
X057813Y008510D01*
X057788Y008533D01*
X057765Y008558D01*
X057746Y008585D01*
X057730Y008615D01*
X057717Y008646D01*
X057708Y008678D01*
X057702Y008711D01*
X057700Y008745D01*
D11*
X075950Y005701D02*
X076325Y005701D01*
X076513Y005701D02*
X077075Y005701D01*
X077294Y005701D02*
X077298Y005666D01*
X077309Y005633D01*
X077328Y005604D01*
X077353Y005579D01*
X077382Y005560D01*
X077415Y005549D01*
X077450Y005545D01*
X077485Y005549D01*
X077518Y005560D01*
X077547Y005579D01*
X077572Y005604D01*
X077591Y005633D01*
X077602Y005666D01*
X077606Y005701D01*
X077602Y005736D01*
X077591Y005769D01*
X077572Y005799D01*
X077547Y005823D01*
X077518Y005842D01*
X077485Y005854D01*
X077450Y005858D01*
X077415Y005854D01*
X077382Y005842D01*
X077353Y005823D01*
X077328Y005799D01*
X077309Y005769D01*
X077298Y005736D01*
X077294Y005701D01*
X077296Y005681D02*
X077604Y005681D01*
X077594Y005760D02*
X077306Y005760D01*
X077376Y005838D02*
X077524Y005838D01*
X077731Y005951D02*
X077704Y005978D01*
X077674Y006003D01*
X077642Y006024D01*
X077608Y006042D01*
X077572Y006057D01*
X077535Y006067D01*
X077497Y006074D01*
X077458Y006077D01*
X077420Y006076D01*
X077381Y006071D01*
X077344Y006062D01*
X077307Y006049D01*
X077272Y006032D01*
X077239Y006012D01*
X077209Y005989D01*
X077180Y005963D01*
X077155Y005934D01*
X077132Y005902D01*
X077113Y005869D01*
X077098Y005833D01*
X077086Y005797D01*
X077078Y005759D01*
X077074Y005720D01*
X077074Y005682D01*
X077078Y005643D01*
X077086Y005605D01*
X077098Y005569D01*
X077113Y005533D01*
X077132Y005500D01*
X077155Y005468D01*
X077180Y005439D01*
X077209Y005413D01*
X077239Y005390D01*
X077272Y005370D01*
X077307Y005353D01*
X077344Y005340D01*
X077381Y005331D01*
X077420Y005326D01*
X077458Y005325D01*
X077497Y005328D01*
X077535Y005335D01*
X077572Y005345D01*
X077608Y005360D01*
X077642Y005378D01*
X077674Y005399D01*
X077704Y005424D01*
X077731Y005451D01*
X077571Y005603D02*
X077329Y005603D01*
X077450Y005701D02*
X078388Y005701D01*
X078575Y005701D02*
X078763Y005701D01*
X078388Y005701D02*
X078390Y005740D01*
X078396Y005778D01*
X078406Y005815D01*
X078419Y005851D01*
X078437Y005886D01*
X078457Y005918D01*
X078481Y005949D01*
X078508Y005976D01*
X078538Y006001D01*
X078570Y006022D01*
X078604Y006041D01*
X078640Y006055D01*
X078677Y006066D01*
X078715Y006073D01*
X078753Y006076D01*
X078792Y006075D01*
X078830Y006070D01*
X078868Y006061D01*
X078904Y006048D01*
X078939Y006032D01*
X078972Y006012D01*
X079003Y005989D01*
X079032Y005963D01*
X079057Y005934D01*
X079079Y005902D01*
X079098Y005869D01*
X079114Y005833D01*
X079126Y005797D01*
X079134Y005759D01*
X079138Y005720D01*
X079138Y005682D01*
X079134Y005643D01*
X079126Y005605D01*
X079114Y005569D01*
X079098Y005533D01*
X079079Y005500D01*
X079057Y005468D01*
X079032Y005439D01*
X079003Y005413D01*
X078972Y005390D01*
X078939Y005370D01*
X078904Y005354D01*
X078868Y005341D01*
X078830Y005332D01*
X078792Y005327D01*
X078753Y005326D01*
X078715Y005329D01*
X078677Y005336D01*
X078640Y005347D01*
X078604Y005361D01*
X078570Y005380D01*
X078538Y005401D01*
X078508Y005426D01*
X078481Y005453D01*
X078457Y005484D01*
X078437Y005516D01*
X078419Y005551D01*
X078406Y005587D01*
X078396Y005624D01*
X078390Y005662D01*
X078388Y005701D01*
X078763Y005701D02*
X078763Y005514D01*
X078763Y005701D02*
X078763Y005889D01*
X078763Y005701D02*
X078950Y005701D01*
X075763Y005701D02*
X075765Y005740D01*
X075771Y005778D01*
X075781Y005815D01*
X075794Y005851D01*
X075812Y005886D01*
X075832Y005918D01*
X075856Y005949D01*
X075883Y005976D01*
X075913Y006001D01*
X075945Y006022D01*
X075979Y006041D01*
X076015Y006055D01*
X076052Y006066D01*
X076090Y006073D01*
X076128Y006076D01*
X076167Y006075D01*
X076205Y006070D01*
X076243Y006061D01*
X076279Y006048D01*
X076314Y006032D01*
X076347Y006012D01*
X076378Y005989D01*
X076407Y005963D01*
X076432Y005934D01*
X076454Y005902D01*
X076473Y005869D01*
X076489Y005833D01*
X076501Y005797D01*
X076509Y005759D01*
X076513Y005720D01*
X076513Y005682D01*
X076509Y005643D01*
X076501Y005605D01*
X076489Y005569D01*
X076473Y005533D01*
X076454Y005500D01*
X076432Y005468D01*
X076407Y005439D01*
X076378Y005413D01*
X076347Y005390D01*
X076314Y005370D01*
X076279Y005354D01*
X076243Y005341D01*
X076205Y005332D01*
X076167Y005327D01*
X076128Y005326D01*
X076090Y005329D01*
X076052Y005336D01*
X076015Y005347D01*
X075979Y005361D01*
X075945Y005380D01*
X075913Y005401D01*
X075883Y005426D01*
X075856Y005453D01*
X075832Y005484D01*
X075812Y005516D01*
X075794Y005551D01*
X075781Y005587D01*
X075771Y005624D01*
X075765Y005662D01*
X075763Y005701D01*
D12*
X075850Y006483D02*
X076250Y006483D01*
X076276Y006485D01*
X076302Y006490D01*
X076327Y006498D01*
X076350Y006510D01*
X076372Y006524D01*
X076391Y006542D01*
X076409Y006561D01*
X076423Y006583D01*
X076435Y006606D01*
X076443Y006631D01*
X076448Y006657D01*
X076450Y006683D01*
X076450Y007083D01*
X076448Y007109D01*
X076443Y007135D01*
X076435Y007160D01*
X076423Y007183D01*
X076409Y007205D01*
X076391Y007224D01*
X076372Y007242D01*
X076350Y007256D01*
X076327Y007268D01*
X076302Y007276D01*
X076276Y007281D01*
X076250Y007283D01*
X075850Y007283D01*
X075850Y006483D01*
X076700Y006683D02*
X076700Y007083D01*
X076702Y007109D01*
X076707Y007135D01*
X076715Y007160D01*
X076727Y007183D01*
X076741Y007205D01*
X076759Y007224D01*
X076778Y007242D01*
X076800Y007256D01*
X076823Y007268D01*
X076848Y007276D01*
X076874Y007281D01*
X076900Y007283D01*
X077100Y007283D01*
X077126Y007281D01*
X077152Y007276D01*
X077177Y007268D01*
X077200Y007256D01*
X077222Y007242D01*
X077241Y007224D01*
X077259Y007205D01*
X077273Y007183D01*
X077285Y007160D01*
X077293Y007135D01*
X077298Y007109D01*
X077300Y007083D01*
X077300Y006683D02*
X077298Y006657D01*
X077293Y006631D01*
X077285Y006606D01*
X077273Y006583D01*
X077259Y006561D01*
X077241Y006542D01*
X077222Y006524D01*
X077200Y006510D01*
X077177Y006498D01*
X077152Y006490D01*
X077126Y006485D01*
X077100Y006483D01*
X076900Y006483D01*
X076874Y006485D01*
X076848Y006490D01*
X076823Y006498D01*
X076800Y006510D01*
X076778Y006524D01*
X076759Y006542D01*
X076741Y006561D01*
X076727Y006583D01*
X076715Y006606D01*
X076707Y006631D01*
X076702Y006657D01*
X076700Y006683D01*
X077800Y006483D02*
X078000Y006483D01*
X078200Y006483D01*
X078000Y006483D02*
X078000Y007283D01*
X078200Y007283D01*
X078000Y007283D02*
X077800Y007283D01*
X077650Y007633D02*
X077050Y007633D01*
X077050Y007833D01*
X077052Y007859D01*
X077057Y007885D01*
X077065Y007910D01*
X077077Y007933D01*
X077091Y007955D01*
X077109Y007974D01*
X077128Y007992D01*
X077150Y008006D01*
X077173Y008018D01*
X077198Y008026D01*
X077224Y008031D01*
X077250Y008033D01*
X077450Y008033D01*
X077476Y008035D01*
X077502Y008040D01*
X077527Y008048D01*
X077550Y008060D01*
X077572Y008074D01*
X077591Y008092D01*
X077609Y008111D01*
X077623Y008133D01*
X077635Y008156D01*
X077643Y008181D01*
X077648Y008207D01*
X077650Y008233D01*
X078200Y007633D02*
X078242Y007666D01*
X078282Y007702D01*
X078319Y007741D01*
X078353Y007783D01*
X078383Y007827D01*
X078411Y007873D01*
X078435Y007921D01*
X078455Y007970D01*
X078472Y008021D01*
X078485Y008073D01*
X078494Y008126D01*
X078499Y008179D01*
X078500Y008233D01*
X078500Y008433D01*
X077900Y008233D02*
X077901Y008179D01*
X077906Y008126D01*
X077915Y008073D01*
X077928Y008021D01*
X077945Y007970D01*
X077965Y007921D01*
X077989Y007873D01*
X078017Y007827D01*
X078047Y007783D01*
X078081Y007741D01*
X078118Y007702D01*
X078158Y007666D01*
X078200Y007633D01*
X078450Y007283D02*
X079050Y006483D01*
X079050Y007283D01*
X078450Y007283D02*
X078450Y006483D01*
X076800Y007633D02*
X076600Y007633D01*
X076400Y007633D01*
X076600Y007633D02*
X076600Y008433D01*
X076400Y008333D01*
X077100Y008433D02*
X077450Y008433D01*
X077476Y008431D01*
X077502Y008426D01*
X077527Y008418D01*
X077550Y008406D01*
X077572Y008392D01*
X077591Y008374D01*
X077609Y008355D01*
X077623Y008333D01*
X077635Y008310D01*
X077643Y008285D01*
X077648Y008259D01*
X077650Y008233D01*
X077900Y008233D02*
X077900Y008433D01*
X068250Y007470D02*
X068050Y007870D01*
X067650Y007870D01*
X067650Y007470D01*
X067400Y007470D02*
X067000Y007470D01*
X066974Y007472D01*
X066948Y007477D01*
X066923Y007485D01*
X066900Y007497D01*
X066878Y007511D01*
X066859Y007529D01*
X066841Y007548D01*
X066827Y007570D01*
X066815Y007593D01*
X066807Y007618D01*
X066802Y007644D01*
X066800Y007670D01*
X066800Y007870D01*
X067300Y007870D01*
X067650Y007870D02*
X067650Y008270D01*
X068050Y008270D01*
X068250Y008070D02*
X068248Y008044D01*
X068243Y008018D01*
X068235Y007993D01*
X068223Y007970D01*
X068209Y007948D01*
X068191Y007929D01*
X068172Y007911D01*
X068150Y007897D01*
X068127Y007885D01*
X068102Y007877D01*
X068076Y007872D01*
X068050Y007870D01*
X068250Y008070D02*
X068248Y008096D01*
X068243Y008122D01*
X068235Y008147D01*
X068223Y008170D01*
X068209Y008192D01*
X068191Y008211D01*
X068172Y008229D01*
X068150Y008243D01*
X068127Y008255D01*
X068102Y008263D01*
X068076Y008268D01*
X068050Y008270D01*
X067400Y008270D02*
X067000Y008270D01*
X066974Y008268D01*
X066948Y008263D01*
X066923Y008255D01*
X066900Y008243D01*
X066878Y008229D01*
X066859Y008211D01*
X066841Y008192D01*
X066827Y008170D01*
X066815Y008147D01*
X066807Y008122D01*
X066802Y008096D01*
X066800Y008070D01*
X066800Y007870D01*
X066550Y007670D02*
X066550Y008270D01*
X066150Y008170D02*
X066150Y007470D01*
X066350Y007470D01*
X066376Y007472D01*
X066402Y007477D01*
X066427Y007485D01*
X066450Y007497D01*
X066472Y007511D01*
X066491Y007529D01*
X066509Y007548D01*
X066523Y007570D01*
X066535Y007593D01*
X066543Y007618D01*
X066548Y007644D01*
X066550Y007670D01*
X066150Y007470D02*
X065950Y007470D01*
X065924Y007472D01*
X065898Y007477D01*
X065873Y007485D01*
X065850Y007497D01*
X065828Y007511D01*
X065809Y007529D01*
X065791Y007548D01*
X065777Y007570D01*
X065765Y007593D01*
X065757Y007618D01*
X065752Y007644D01*
X065750Y007670D01*
X065750Y008270D01*
X065500Y008070D02*
X065500Y007670D01*
X065498Y007644D01*
X065493Y007618D01*
X065485Y007593D01*
X065473Y007570D01*
X065459Y007548D01*
X065441Y007529D01*
X065422Y007511D01*
X065400Y007497D01*
X065377Y007485D01*
X065352Y007477D01*
X065326Y007472D01*
X065300Y007470D01*
X065100Y007470D01*
X065074Y007472D01*
X065048Y007477D01*
X065023Y007485D01*
X065000Y007497D01*
X064978Y007511D01*
X064959Y007529D01*
X064941Y007548D01*
X064927Y007570D01*
X064915Y007593D01*
X064907Y007618D01*
X064902Y007644D01*
X064900Y007670D01*
X064900Y008070D01*
X064902Y008096D01*
X064907Y008122D01*
X064915Y008147D01*
X064927Y008170D01*
X064941Y008192D01*
X064959Y008211D01*
X064978Y008229D01*
X065000Y008243D01*
X065023Y008255D01*
X065048Y008263D01*
X065074Y008268D01*
X065100Y008270D01*
X065300Y008270D01*
X065326Y008268D01*
X065352Y008263D01*
X065377Y008255D01*
X065400Y008243D01*
X065422Y008229D01*
X065441Y008211D01*
X065459Y008192D01*
X065473Y008170D01*
X065485Y008147D01*
X065493Y008122D01*
X065498Y008096D01*
X065500Y008070D01*
X064650Y008070D02*
X064648Y008044D01*
X064643Y008018D01*
X064635Y007993D01*
X064623Y007970D01*
X064609Y007948D01*
X064591Y007929D01*
X064572Y007911D01*
X064550Y007897D01*
X064527Y007885D01*
X064502Y007877D01*
X064476Y007872D01*
X064450Y007870D01*
X064050Y007870D01*
X064050Y008270D01*
X064450Y008270D01*
X064476Y008268D01*
X064502Y008263D01*
X064527Y008255D01*
X064550Y008243D01*
X064572Y008229D01*
X064591Y008211D01*
X064609Y008192D01*
X064623Y008170D01*
X064635Y008147D01*
X064643Y008122D01*
X064648Y008096D01*
X064650Y008070D01*
X064050Y007870D02*
X064050Y007470D01*
X064300Y006270D02*
X064700Y006270D01*
X064900Y006070D02*
X064898Y006044D01*
X064893Y006018D01*
X064885Y005993D01*
X064873Y005970D01*
X064859Y005948D01*
X064841Y005929D01*
X064822Y005911D01*
X064800Y005897D01*
X064777Y005885D01*
X064752Y005877D01*
X064726Y005872D01*
X064700Y005870D01*
X064900Y005470D01*
X065150Y005670D02*
X065150Y005870D01*
X065650Y005870D01*
X065350Y006270D02*
X065324Y006268D01*
X065298Y006263D01*
X065273Y006255D01*
X065250Y006243D01*
X065228Y006229D01*
X065209Y006211D01*
X065191Y006192D01*
X065177Y006170D01*
X065165Y006147D01*
X065157Y006122D01*
X065152Y006096D01*
X065150Y006070D01*
X065150Y005870D01*
X065150Y005670D02*
X065152Y005644D01*
X065157Y005618D01*
X065165Y005593D01*
X065177Y005570D01*
X065191Y005548D01*
X065209Y005529D01*
X065228Y005511D01*
X065250Y005497D01*
X065273Y005485D01*
X065298Y005477D01*
X065324Y005472D01*
X065350Y005470D01*
X065750Y005470D01*
X066000Y005470D02*
X066350Y005470D01*
X066550Y005670D02*
X066548Y005696D01*
X066543Y005722D01*
X066535Y005747D01*
X066523Y005770D01*
X066509Y005792D01*
X066491Y005811D01*
X066472Y005829D01*
X066450Y005843D01*
X066427Y005855D01*
X066402Y005863D01*
X066376Y005868D01*
X066350Y005870D01*
X066150Y005870D01*
X065950Y006070D02*
X065952Y006096D01*
X065957Y006122D01*
X065965Y006147D01*
X065977Y006170D01*
X065991Y006192D01*
X066009Y006211D01*
X066028Y006229D01*
X066050Y006243D01*
X066073Y006255D01*
X066098Y006263D01*
X066124Y006268D01*
X066150Y006270D01*
X066500Y006270D01*
X066800Y006070D02*
X066800Y005870D01*
X067300Y005870D01*
X067000Y006270D02*
X066974Y006268D01*
X066948Y006263D01*
X066923Y006255D01*
X066900Y006243D01*
X066878Y006229D01*
X066859Y006211D01*
X066841Y006192D01*
X066827Y006170D01*
X066815Y006147D01*
X066807Y006122D01*
X066802Y006096D01*
X066800Y006070D01*
X066800Y005870D02*
X066800Y005670D01*
X066802Y005644D01*
X066807Y005618D01*
X066815Y005593D01*
X066827Y005570D01*
X066841Y005548D01*
X066859Y005529D01*
X066878Y005511D01*
X066900Y005497D01*
X066923Y005485D01*
X066948Y005477D01*
X066974Y005472D01*
X067000Y005470D01*
X067400Y005470D01*
X067950Y005470D02*
X067950Y006270D01*
X068250Y006270D01*
X067950Y006270D02*
X067650Y006270D01*
X067400Y006270D02*
X067000Y006270D01*
X066150Y005870D02*
X066124Y005872D01*
X066098Y005877D01*
X066073Y005885D01*
X066050Y005897D01*
X066028Y005911D01*
X066009Y005929D01*
X065991Y005948D01*
X065977Y005970D01*
X065965Y005993D01*
X065957Y006018D01*
X065952Y006044D01*
X065950Y006070D01*
X065750Y006270D02*
X065350Y006270D01*
X064900Y006070D02*
X064898Y006096D01*
X064893Y006122D01*
X064885Y006147D01*
X064873Y006170D01*
X064859Y006192D01*
X064841Y006211D01*
X064822Y006229D01*
X064800Y006243D01*
X064777Y006255D01*
X064752Y006263D01*
X064726Y006268D01*
X064700Y006270D01*
X064300Y006270D02*
X064300Y005870D01*
X064700Y005870D01*
X064300Y005870D02*
X064300Y005470D01*
X066350Y005470D02*
X066376Y005472D01*
X066402Y005477D01*
X066427Y005485D01*
X066450Y005497D01*
X066472Y005511D01*
X066491Y005529D01*
X066509Y005548D01*
X066523Y005570D01*
X066535Y005593D01*
X066543Y005618D01*
X066548Y005644D01*
X066550Y005670D01*
M02*
