G75*
G70*
%OFA0B0*%
%FSLAX24Y24*%
%IPPOS*%
%LPD*%
%AMOC8*
5,1,8,0,0,1.08239X$1,22.5*
%
%ADD10C,0.0100*%
D10*
X000318Y000668D02*
X000318Y010807D01*
X060470Y010807D01*
X060568Y010905D01*
X060568Y051057D01*
X080482Y051057D01*
X080482Y000668D01*
X000318Y000668D01*
X000318Y000697D02*
X080482Y000697D01*
X080482Y000796D02*
X000318Y000796D01*
X000318Y000894D02*
X080482Y000894D01*
X080482Y000993D02*
X000318Y000993D01*
X000318Y001091D02*
X080482Y001091D01*
X080482Y001190D02*
X000318Y001190D01*
X000318Y001288D02*
X080482Y001288D01*
X080482Y001387D02*
X000318Y001387D01*
X000318Y001485D02*
X080482Y001485D01*
X080482Y001584D02*
X000318Y001584D01*
X000318Y001682D02*
X080482Y001682D01*
X080482Y001781D02*
X000318Y001781D01*
X000318Y001879D02*
X080482Y001879D01*
X080482Y001978D02*
X000318Y001978D01*
X000318Y002076D02*
X080482Y002076D01*
X080482Y002175D02*
X000318Y002175D01*
X000318Y002273D02*
X080482Y002273D01*
X080482Y002372D02*
X000318Y002372D01*
X000318Y002470D02*
X080482Y002470D01*
X080482Y002569D02*
X000318Y002569D01*
X000318Y002667D02*
X080482Y002667D01*
X080482Y002766D02*
X000318Y002766D01*
X000318Y002864D02*
X080482Y002864D01*
X080482Y002963D02*
X000318Y002963D01*
X000318Y003061D02*
X080482Y003061D01*
X080482Y003160D02*
X000318Y003160D01*
X000318Y003258D02*
X080482Y003258D01*
X080482Y003357D02*
X000318Y003357D01*
X000318Y003455D02*
X080482Y003455D01*
X080482Y003554D02*
X000318Y003554D01*
X000318Y003652D02*
X080482Y003652D01*
X080482Y003751D02*
X000318Y003751D01*
X000318Y003849D02*
X080482Y003849D01*
X080482Y003948D02*
X000318Y003948D01*
X000318Y004046D02*
X080482Y004046D01*
X080482Y004145D02*
X000318Y004145D01*
X000318Y004243D02*
X080482Y004243D01*
X080482Y004342D02*
X000318Y004342D01*
X000318Y004440D02*
X080482Y004440D01*
X080482Y004539D02*
X000318Y004539D01*
X000318Y004637D02*
X080482Y004637D01*
X080482Y004736D02*
X000318Y004736D01*
X000318Y004834D02*
X080482Y004834D01*
X080482Y004933D02*
X000318Y004933D01*
X000318Y005031D02*
X069135Y005031D01*
X069167Y005018D02*
X069508Y005018D01*
X069823Y005148D01*
X070064Y005389D01*
X070195Y005705D01*
X070195Y006045D01*
X070064Y006360D01*
X069823Y006602D01*
X069508Y006732D01*
X069167Y006732D01*
X068852Y006602D01*
X068611Y006360D01*
X068480Y006045D01*
X068480Y005705D01*
X068611Y005389D01*
X068852Y005148D01*
X069167Y005018D01*
X068898Y005130D02*
X000318Y005130D01*
X000318Y005228D02*
X068772Y005228D01*
X068674Y005327D02*
X000318Y005327D01*
X000318Y005425D02*
X068596Y005425D01*
X068555Y005524D02*
X000318Y005524D01*
X000318Y005622D02*
X068515Y005622D01*
X068480Y005721D02*
X000318Y005721D01*
X000318Y005819D02*
X068480Y005819D01*
X068480Y005918D02*
X000318Y005918D01*
X000318Y006016D02*
X068480Y006016D01*
X068509Y006115D02*
X000318Y006115D01*
X000318Y006213D02*
X068550Y006213D01*
X068591Y006312D02*
X000318Y006312D01*
X000318Y006410D02*
X068660Y006410D01*
X068759Y006509D02*
X000318Y006509D01*
X000318Y006607D02*
X068865Y006607D01*
X069103Y006706D02*
X000318Y006706D01*
X000318Y006804D02*
X071746Y006804D01*
X071746Y006706D02*
X069572Y006706D01*
X069810Y006607D02*
X071755Y006607D01*
X071746Y006640D02*
X071872Y006172D01*
X072114Y005752D01*
X072457Y005409D01*
X072877Y005167D01*
X073345Y005042D01*
X073830Y005042D01*
X074298Y005167D01*
X074718Y005409D01*
X075061Y005752D01*
X075303Y006172D01*
X075429Y006640D01*
X075429Y007125D01*
X075303Y007594D01*
X075061Y008013D01*
X074718Y008356D01*
X074298Y008599D01*
X073830Y008724D01*
X073345Y008724D01*
X072877Y008599D01*
X072457Y008356D01*
X072114Y008013D01*
X071872Y007594D01*
X071746Y007125D01*
X071746Y006640D01*
X071782Y006509D02*
X069916Y006509D01*
X070015Y006410D02*
X071808Y006410D01*
X071834Y006312D02*
X070084Y006312D01*
X070125Y006213D02*
X071861Y006213D01*
X071905Y006115D02*
X070166Y006115D01*
X070195Y006016D02*
X071962Y006016D01*
X072019Y005918D02*
X070195Y005918D01*
X070195Y005819D02*
X072076Y005819D01*
X072146Y005721D02*
X070195Y005721D01*
X070160Y005622D02*
X072244Y005622D01*
X072343Y005524D02*
X070120Y005524D01*
X070079Y005425D02*
X072441Y005425D01*
X072601Y005327D02*
X070001Y005327D01*
X069903Y005228D02*
X072771Y005228D01*
X073017Y005130D02*
X069777Y005130D01*
X069540Y005031D02*
X080482Y005031D01*
X080482Y005130D02*
X074158Y005130D01*
X074404Y005228D02*
X080482Y005228D01*
X080482Y005327D02*
X074574Y005327D01*
X074734Y005425D02*
X080482Y005425D01*
X080482Y005524D02*
X074832Y005524D01*
X074931Y005622D02*
X080482Y005622D01*
X080482Y005721D02*
X075029Y005721D01*
X075099Y005819D02*
X080482Y005819D01*
X080482Y005918D02*
X075156Y005918D01*
X075213Y006016D02*
X080482Y006016D01*
X080482Y006115D02*
X075270Y006115D01*
X075314Y006213D02*
X080482Y006213D01*
X080482Y006312D02*
X075341Y006312D01*
X075367Y006410D02*
X080482Y006410D01*
X080482Y006509D02*
X075393Y006509D01*
X075420Y006607D02*
X080482Y006607D01*
X080482Y006706D02*
X075429Y006706D01*
X075429Y006804D02*
X080482Y006804D01*
X080482Y006903D02*
X075429Y006903D01*
X075429Y007001D02*
X080482Y007001D01*
X080482Y007100D02*
X075429Y007100D01*
X075409Y007198D02*
X080482Y007198D01*
X080482Y007297D02*
X075383Y007297D01*
X075357Y007395D02*
X080482Y007395D01*
X080482Y007494D02*
X075330Y007494D01*
X075304Y007592D02*
X080482Y007592D01*
X080482Y007691D02*
X075247Y007691D01*
X075191Y007789D02*
X080482Y007789D01*
X080482Y007888D02*
X075134Y007888D01*
X075077Y007986D02*
X080482Y007986D01*
X080482Y008085D02*
X074990Y008085D01*
X074891Y008183D02*
X080482Y008183D01*
X080482Y008282D02*
X074793Y008282D01*
X074677Y008380D02*
X080482Y008380D01*
X080482Y008479D02*
X074506Y008479D01*
X074336Y008577D02*
X080482Y008577D01*
X080482Y008676D02*
X074012Y008676D01*
X073163Y008676D02*
X069645Y008676D01*
X069508Y008732D02*
X069167Y008732D01*
X068852Y008602D01*
X068611Y008360D01*
X068480Y008045D01*
X068480Y007705D01*
X068611Y007389D01*
X068852Y007148D01*
X069167Y007018D01*
X069508Y007018D01*
X069823Y007148D01*
X070064Y007389D01*
X070195Y007705D01*
X070195Y008045D01*
X070064Y008360D01*
X069823Y008602D01*
X069508Y008732D01*
X069848Y008577D02*
X072839Y008577D01*
X072669Y008479D02*
X069946Y008479D01*
X070045Y008380D02*
X072498Y008380D01*
X072382Y008282D02*
X070097Y008282D01*
X070138Y008183D02*
X072284Y008183D01*
X072185Y008085D02*
X070178Y008085D01*
X070195Y007986D02*
X072098Y007986D01*
X072041Y007888D02*
X070195Y007888D01*
X070195Y007789D02*
X071984Y007789D01*
X071928Y007691D02*
X070189Y007691D01*
X070148Y007592D02*
X071871Y007592D01*
X071845Y007494D02*
X070107Y007494D01*
X070066Y007395D02*
X071818Y007395D01*
X071792Y007297D02*
X069971Y007297D01*
X069873Y007198D02*
X071766Y007198D01*
X071746Y007100D02*
X069705Y007100D01*
X068970Y007100D02*
X000318Y007100D01*
X000318Y007198D02*
X068802Y007198D01*
X068704Y007297D02*
X000318Y007297D01*
X000318Y007395D02*
X068609Y007395D01*
X068568Y007494D02*
X000318Y007494D01*
X000318Y007592D02*
X068527Y007592D01*
X068486Y007691D02*
X000318Y007691D01*
X000318Y007789D02*
X068480Y007789D01*
X068480Y007888D02*
X000318Y007888D01*
X000318Y007986D02*
X068480Y007986D01*
X068497Y008085D02*
X000318Y008085D01*
X000318Y008183D02*
X002433Y008183D01*
X002335Y008223D02*
X002661Y008088D01*
X003014Y008088D01*
X003340Y008223D01*
X003589Y008473D01*
X003724Y008799D01*
X003724Y009151D01*
X003589Y009477D01*
X003340Y009727D01*
X003014Y009862D01*
X002661Y009862D01*
X002335Y009727D01*
X002086Y009477D01*
X001951Y009151D01*
X001951Y008799D01*
X002086Y008473D01*
X002335Y008223D01*
X002277Y008282D02*
X000318Y008282D01*
X000318Y008380D02*
X002179Y008380D01*
X002083Y008479D02*
X000318Y008479D01*
X000318Y008577D02*
X002043Y008577D01*
X002002Y008676D02*
X000318Y008676D01*
X000318Y008774D02*
X001961Y008774D01*
X001951Y008873D02*
X000318Y008873D01*
X000318Y008971D02*
X001951Y008971D01*
X001951Y009070D02*
X000318Y009070D01*
X000318Y009168D02*
X001958Y009168D01*
X001999Y009267D02*
X000318Y009267D01*
X000318Y009365D02*
X002039Y009365D01*
X002080Y009464D02*
X000318Y009464D01*
X000318Y009562D02*
X002171Y009562D01*
X002269Y009661D02*
X000318Y009661D01*
X000318Y009759D02*
X002413Y009759D01*
X002651Y009858D02*
X000318Y009858D01*
X000318Y009956D02*
X080482Y009956D01*
X080482Y009858D02*
X055524Y009858D01*
X055514Y009862D02*
X055161Y009862D01*
X054835Y009727D01*
X054586Y009477D01*
X054451Y009151D01*
X054451Y008799D01*
X054586Y008473D01*
X054835Y008223D01*
X055161Y008088D01*
X055514Y008088D01*
X055840Y008223D01*
X056089Y008473D01*
X056224Y008799D01*
X056224Y009151D01*
X056089Y009477D01*
X055840Y009727D01*
X055514Y009862D01*
X055762Y009759D02*
X080482Y009759D01*
X080482Y009661D02*
X055906Y009661D01*
X056004Y009562D02*
X080482Y009562D01*
X080482Y009464D02*
X056095Y009464D01*
X056136Y009365D02*
X080482Y009365D01*
X080482Y009267D02*
X056176Y009267D01*
X056217Y009168D02*
X080482Y009168D01*
X080482Y009070D02*
X056224Y009070D01*
X056224Y008971D02*
X080482Y008971D01*
X080482Y008873D02*
X056224Y008873D01*
X056214Y008774D02*
X080482Y008774D01*
X080482Y010055D02*
X000318Y010055D01*
X000318Y010153D02*
X080482Y010153D01*
X080482Y010252D02*
X000318Y010252D01*
X000318Y010350D02*
X080482Y010350D01*
X080482Y010449D02*
X000318Y010449D01*
X000318Y010547D02*
X080482Y010547D01*
X080482Y010646D02*
X000318Y010646D01*
X000318Y010744D02*
X080482Y010744D01*
X080482Y010843D02*
X060505Y010843D01*
X060568Y010941D02*
X080482Y010941D01*
X080482Y011040D02*
X060568Y011040D01*
X060568Y011138D02*
X080482Y011138D01*
X080482Y011237D02*
X060568Y011237D01*
X060568Y011335D02*
X080482Y011335D01*
X080482Y011434D02*
X060568Y011434D01*
X060568Y011532D02*
X080482Y011532D01*
X080482Y011631D02*
X060568Y011631D01*
X060568Y011729D02*
X080482Y011729D01*
X080482Y011828D02*
X060568Y011828D01*
X060568Y011926D02*
X080482Y011926D01*
X080482Y012025D02*
X060568Y012025D01*
X060568Y012123D02*
X080482Y012123D01*
X080482Y012222D02*
X060568Y012222D01*
X060568Y012320D02*
X080482Y012320D01*
X080482Y012419D02*
X060568Y012419D01*
X060568Y012517D02*
X080482Y012517D01*
X080482Y012616D02*
X060568Y012616D01*
X060568Y012714D02*
X080482Y012714D01*
X080482Y012813D02*
X060568Y012813D01*
X060568Y012911D02*
X080482Y012911D01*
X080482Y013010D02*
X060568Y013010D01*
X060568Y013108D02*
X080482Y013108D01*
X080482Y013207D02*
X060568Y013207D01*
X060568Y013305D02*
X080482Y013305D01*
X080482Y013404D02*
X060568Y013404D01*
X060568Y013502D02*
X080482Y013502D01*
X080482Y013601D02*
X060568Y013601D01*
X060568Y013699D02*
X080482Y013699D01*
X080482Y013798D02*
X060568Y013798D01*
X060568Y013896D02*
X080482Y013896D01*
X080482Y013995D02*
X060568Y013995D01*
X060568Y014093D02*
X080482Y014093D01*
X080482Y014192D02*
X060568Y014192D01*
X060568Y014290D02*
X080482Y014290D01*
X080482Y014389D02*
X060568Y014389D01*
X060568Y014487D02*
X080482Y014487D01*
X080482Y014586D02*
X060568Y014586D01*
X060568Y014684D02*
X080482Y014684D01*
X080482Y014783D02*
X060568Y014783D01*
X060568Y014881D02*
X080482Y014881D01*
X080482Y014980D02*
X060568Y014980D01*
X060568Y015078D02*
X080482Y015078D01*
X080482Y015177D02*
X060568Y015177D01*
X060568Y015275D02*
X080482Y015275D01*
X080482Y015374D02*
X060568Y015374D01*
X060568Y015472D02*
X080482Y015472D01*
X080482Y015571D02*
X060568Y015571D01*
X060568Y015669D02*
X080482Y015669D01*
X080482Y015768D02*
X060568Y015768D01*
X060568Y015866D02*
X080482Y015866D01*
X080482Y015965D02*
X060568Y015965D01*
X060568Y016063D02*
X080482Y016063D01*
X080482Y016162D02*
X060568Y016162D01*
X060568Y016260D02*
X080482Y016260D01*
X080482Y016359D02*
X060568Y016359D01*
X060568Y016457D02*
X080482Y016457D01*
X080482Y016556D02*
X060568Y016556D01*
X060568Y016654D02*
X080482Y016654D01*
X080482Y016753D02*
X060568Y016753D01*
X060568Y016851D02*
X080482Y016851D01*
X080482Y016950D02*
X060568Y016950D01*
X060568Y017048D02*
X080482Y017048D01*
X080482Y017147D02*
X060568Y017147D01*
X060568Y017245D02*
X080482Y017245D01*
X080482Y017344D02*
X060568Y017344D01*
X060568Y017442D02*
X080482Y017442D01*
X080482Y017541D02*
X060568Y017541D01*
X060568Y017639D02*
X080482Y017639D01*
X080482Y017738D02*
X060568Y017738D01*
X060568Y017836D02*
X080482Y017836D01*
X080482Y017935D02*
X060568Y017935D01*
X060568Y018033D02*
X080482Y018033D01*
X080482Y018132D02*
X060568Y018132D01*
X060568Y018230D02*
X080482Y018230D01*
X080482Y018329D02*
X060568Y018329D01*
X060568Y018427D02*
X080482Y018427D01*
X080482Y018526D02*
X060568Y018526D01*
X060568Y018624D02*
X080482Y018624D01*
X080482Y018723D02*
X060568Y018723D01*
X060568Y018821D02*
X080482Y018821D01*
X080482Y018920D02*
X060568Y018920D01*
X060568Y019018D02*
X080482Y019018D01*
X080482Y019117D02*
X060568Y019117D01*
X060568Y019215D02*
X080482Y019215D01*
X080482Y019314D02*
X060568Y019314D01*
X060568Y019412D02*
X080482Y019412D01*
X080482Y019511D02*
X060568Y019511D01*
X060568Y019609D02*
X080482Y019609D01*
X080482Y019708D02*
X060568Y019708D01*
X060568Y019806D02*
X080482Y019806D01*
X080482Y019905D02*
X060568Y019905D01*
X060568Y020003D02*
X080482Y020003D01*
X080482Y020102D02*
X060568Y020102D01*
X060568Y020200D02*
X080482Y020200D01*
X080482Y020299D02*
X060568Y020299D01*
X060568Y020397D02*
X080482Y020397D01*
X080482Y020496D02*
X060568Y020496D01*
X060568Y020594D02*
X080482Y020594D01*
X080482Y020693D02*
X060568Y020693D01*
X060568Y020791D02*
X080482Y020791D01*
X080482Y020890D02*
X060568Y020890D01*
X060568Y020988D02*
X080482Y020988D01*
X080482Y021087D02*
X060568Y021087D01*
X060568Y021185D02*
X080482Y021185D01*
X080482Y021284D02*
X060568Y021284D01*
X060568Y021382D02*
X080482Y021382D01*
X080482Y021481D02*
X060568Y021481D01*
X060568Y021579D02*
X080482Y021579D01*
X080482Y021678D02*
X060568Y021678D01*
X060568Y021776D02*
X080482Y021776D01*
X080482Y021875D02*
X060568Y021875D01*
X060568Y021973D02*
X080482Y021973D01*
X080482Y022072D02*
X060568Y022072D01*
X060568Y022170D02*
X080482Y022170D01*
X080482Y022269D02*
X060568Y022269D01*
X060568Y022367D02*
X080482Y022367D01*
X080482Y022466D02*
X060568Y022466D01*
X060568Y022564D02*
X080482Y022564D01*
X080482Y022663D02*
X060568Y022663D01*
X060568Y022761D02*
X080482Y022761D01*
X080482Y022860D02*
X060568Y022860D01*
X060568Y022958D02*
X080482Y022958D01*
X080482Y023057D02*
X060568Y023057D01*
X060568Y023155D02*
X080482Y023155D01*
X080482Y023254D02*
X060568Y023254D01*
X060568Y023352D02*
X080482Y023352D01*
X080482Y023451D02*
X060568Y023451D01*
X060568Y023549D02*
X080482Y023549D01*
X080482Y023648D02*
X060568Y023648D01*
X060568Y023746D02*
X080482Y023746D01*
X080482Y023845D02*
X060568Y023845D01*
X060568Y023943D02*
X080482Y023943D01*
X080482Y024042D02*
X060568Y024042D01*
X060568Y024140D02*
X080482Y024140D01*
X080482Y024239D02*
X060568Y024239D01*
X060568Y024337D02*
X080482Y024337D01*
X080482Y024436D02*
X060568Y024436D01*
X060568Y024534D02*
X080482Y024534D01*
X080482Y024633D02*
X060568Y024633D01*
X060568Y024731D02*
X080482Y024731D01*
X080482Y024830D02*
X060568Y024830D01*
X060568Y024928D02*
X080482Y024928D01*
X080482Y025027D02*
X060568Y025027D01*
X060568Y025125D02*
X080482Y025125D01*
X080482Y025224D02*
X060568Y025224D01*
X060568Y025322D02*
X080482Y025322D01*
X080482Y025421D02*
X060568Y025421D01*
X060568Y025519D02*
X080482Y025519D01*
X080482Y025618D02*
X060568Y025618D01*
X060568Y025716D02*
X080482Y025716D01*
X080482Y025815D02*
X060568Y025815D01*
X060568Y025913D02*
X080482Y025913D01*
X080482Y026012D02*
X060568Y026012D01*
X060568Y026110D02*
X080482Y026110D01*
X080482Y026209D02*
X060568Y026209D01*
X060568Y026307D02*
X080482Y026307D01*
X080482Y026406D02*
X060568Y026406D01*
X060568Y026504D02*
X080482Y026504D01*
X080482Y026603D02*
X060568Y026603D01*
X060568Y026701D02*
X080482Y026701D01*
X080482Y026800D02*
X060568Y026800D01*
X060568Y026898D02*
X080482Y026898D01*
X080482Y026997D02*
X060568Y026997D01*
X060568Y027095D02*
X080482Y027095D01*
X080482Y027194D02*
X060568Y027194D01*
X060568Y027292D02*
X080482Y027292D01*
X080482Y027391D02*
X060568Y027391D01*
X060568Y027489D02*
X080482Y027489D01*
X080482Y027588D02*
X060568Y027588D01*
X060568Y027686D02*
X080482Y027686D01*
X080482Y027785D02*
X060568Y027785D01*
X060568Y027883D02*
X080482Y027883D01*
X080482Y027982D02*
X060568Y027982D01*
X060568Y028080D02*
X080482Y028080D01*
X080482Y028179D02*
X060568Y028179D01*
X060568Y028277D02*
X080482Y028277D01*
X080482Y028376D02*
X060568Y028376D01*
X060568Y028474D02*
X080482Y028474D01*
X080482Y028573D02*
X060568Y028573D01*
X060568Y028671D02*
X080482Y028671D01*
X080482Y028770D02*
X060568Y028770D01*
X060568Y028868D02*
X080482Y028868D01*
X080482Y028967D02*
X060568Y028967D01*
X060568Y029065D02*
X080482Y029065D01*
X080482Y029164D02*
X060568Y029164D01*
X060568Y029262D02*
X080482Y029262D01*
X080482Y029361D02*
X060568Y029361D01*
X060568Y029459D02*
X080482Y029459D01*
X080482Y029558D02*
X060568Y029558D01*
X060568Y029656D02*
X080482Y029656D01*
X080482Y029755D02*
X060568Y029755D01*
X060568Y029853D02*
X080482Y029853D01*
X080482Y029952D02*
X060568Y029952D01*
X060568Y030050D02*
X080482Y030050D01*
X080482Y030149D02*
X071755Y030149D01*
X072068Y030191D02*
X072068Y030191D01*
X071043Y030052D01*
X070007Y030052D01*
X068982Y030191D01*
X068982Y030191D01*
X067984Y030466D01*
X067984Y030466D01*
X067032Y030873D01*
X067032Y030873D01*
X066144Y031404D01*
X066144Y031404D01*
X065794Y031684D01*
X065781Y031684D01*
X065731Y031734D01*
X065675Y031778D01*
X065674Y031791D01*
X065665Y031800D01*
X065665Y031871D01*
X065657Y031941D01*
X065665Y031951D01*
X065665Y031964D01*
X065715Y032014D01*
X065759Y032069D01*
X065772Y032070D01*
X068401Y034699D01*
X068432Y034750D01*
X068457Y034755D01*
X068475Y034773D01*
X068534Y034773D01*
X068592Y034786D01*
X068613Y034773D01*
X068638Y034773D01*
X068678Y034734D01*
X068947Y034583D01*
X069556Y034345D01*
X070198Y034224D01*
X070852Y034224D01*
X071494Y034345D01*
X072103Y034583D01*
X072372Y034734D01*
X072412Y034773D01*
X072437Y034773D01*
X072458Y034786D01*
X072516Y034773D01*
X072575Y034773D01*
X072593Y034755D01*
X072618Y034750D01*
X072649Y034699D01*
X075278Y032070D01*
X075291Y032069D01*
X075335Y032014D01*
X075385Y031964D01*
X075385Y031951D01*
X075393Y031941D01*
X075385Y031871D01*
X075385Y031800D01*
X075376Y031791D01*
X075374Y031778D01*
X075319Y031734D01*
X075269Y031684D01*
X075256Y031684D01*
X074906Y031404D01*
X074906Y031404D01*
X074018Y030873D01*
X074018Y030873D01*
X073066Y030466D01*
X073066Y030466D01*
X072068Y030191D01*
X072271Y030247D02*
X080482Y030247D01*
X080482Y030346D02*
X072628Y030346D01*
X072985Y030444D02*
X076568Y030444D01*
X076691Y030411D02*
X076958Y030411D01*
X077216Y030480D01*
X077447Y030614D01*
X077636Y030803D01*
X077770Y031034D01*
X077839Y031292D01*
X077839Y031559D01*
X077770Y031817D01*
X077636Y032049D01*
X077447Y032238D01*
X077216Y032371D01*
X076958Y032440D01*
X076691Y032440D01*
X076433Y032371D01*
X076201Y032238D01*
X076012Y032049D01*
X075879Y031817D01*
X075810Y031559D01*
X075810Y031292D01*
X075879Y031034D01*
X076012Y030803D01*
X076201Y030614D01*
X076433Y030480D01*
X076691Y030411D01*
X076325Y030543D02*
X073244Y030543D01*
X073474Y030641D02*
X076174Y030641D01*
X076076Y030740D02*
X073705Y030740D01*
X073935Y030838D02*
X075992Y030838D01*
X075935Y030937D02*
X074123Y030937D01*
X074288Y031035D02*
X075879Y031035D01*
X075852Y031134D02*
X074453Y031134D01*
X074618Y031232D02*
X075826Y031232D01*
X075810Y031331D02*
X074782Y031331D01*
X074937Y031429D02*
X075810Y031429D01*
X075810Y031528D02*
X075060Y031528D01*
X075184Y031626D02*
X075828Y031626D01*
X075854Y031725D02*
X075310Y031725D01*
X075385Y031823D02*
X075882Y031823D01*
X075939Y031922D02*
X075391Y031922D01*
X075330Y032020D02*
X075996Y032020D01*
X076082Y032119D02*
X075230Y032119D01*
X075131Y032217D02*
X076181Y032217D01*
X076336Y032316D02*
X075033Y032316D01*
X074934Y032414D02*
X076593Y032414D01*
X077056Y032414D02*
X080482Y032414D01*
X080482Y032316D02*
X077312Y032316D01*
X077468Y032217D02*
X080482Y032217D01*
X080482Y032119D02*
X077566Y032119D01*
X077653Y032020D02*
X080482Y032020D01*
X080482Y031922D02*
X077709Y031922D01*
X077766Y031823D02*
X080482Y031823D01*
X080482Y031725D02*
X077795Y031725D01*
X077821Y031626D02*
X080482Y031626D01*
X080482Y031528D02*
X077839Y031528D01*
X077839Y031429D02*
X080482Y031429D01*
X080482Y031331D02*
X077839Y031331D01*
X077823Y031232D02*
X080482Y031232D01*
X080482Y031134D02*
X077796Y031134D01*
X077770Y031035D02*
X080482Y031035D01*
X080482Y030937D02*
X077713Y030937D01*
X077656Y030838D02*
X080482Y030838D01*
X080482Y030740D02*
X077573Y030740D01*
X077474Y030641D02*
X080482Y030641D01*
X080482Y030543D02*
X077324Y030543D01*
X077080Y030444D02*
X080482Y030444D01*
X080482Y032513D02*
X074836Y032513D01*
X074737Y032611D02*
X080482Y032611D01*
X080482Y032710D02*
X074639Y032710D01*
X074540Y032808D02*
X080482Y032808D01*
X080482Y032907D02*
X076497Y032907D01*
X076516Y032931D02*
X076566Y032981D01*
X076566Y032994D01*
X076846Y033344D01*
X077377Y034232D01*
X077377Y034232D01*
X077784Y035184D01*
X078059Y036182D01*
X078198Y037207D01*
X078198Y038243D01*
X078059Y039268D01*
X077784Y040266D01*
X077377Y041218D01*
X076846Y042106D01*
X076566Y042456D01*
X076566Y042469D01*
X076516Y042519D01*
X076472Y042574D01*
X076459Y042576D01*
X076450Y042585D01*
X076379Y042585D01*
X076309Y042593D01*
X076299Y042585D01*
X076286Y042585D01*
X076236Y042535D01*
X076181Y042491D01*
X076180Y042478D01*
X073551Y039849D01*
X073500Y039818D01*
X073495Y039793D01*
X073477Y039775D01*
X073477Y039716D01*
X073464Y039658D01*
X073477Y039637D01*
X073477Y039612D01*
X073516Y039572D01*
X073667Y039303D01*
X073905Y038694D01*
X074026Y038052D01*
X074026Y037398D01*
X073905Y036756D01*
X073667Y036147D01*
X073516Y035878D01*
X073477Y035838D01*
X073477Y035813D01*
X073464Y035792D01*
X073477Y035734D01*
X073477Y035675D01*
X073495Y035657D01*
X073500Y035632D01*
X073551Y035601D01*
X076180Y032972D01*
X076181Y032959D01*
X076236Y032915D01*
X076286Y032865D01*
X076299Y032865D01*
X076309Y032857D01*
X076379Y032865D01*
X076450Y032865D01*
X076459Y032874D01*
X076472Y032875D01*
X076516Y032931D01*
X076575Y033005D02*
X080482Y033005D01*
X080482Y033104D02*
X076654Y033104D01*
X076732Y033202D02*
X080482Y033202D01*
X080482Y033301D02*
X076811Y033301D01*
X076846Y033344D02*
X076846Y033344D01*
X076879Y033399D02*
X080482Y033399D01*
X080482Y033498D02*
X076937Y033498D01*
X076996Y033596D02*
X080482Y033596D01*
X080482Y033695D02*
X077055Y033695D01*
X077114Y033793D02*
X080482Y033793D01*
X080482Y033892D02*
X077173Y033892D01*
X077232Y033990D02*
X080482Y033990D01*
X080482Y034089D02*
X077291Y034089D01*
X077350Y034187D02*
X080482Y034187D01*
X080482Y034286D02*
X077399Y034286D01*
X077441Y034384D02*
X080482Y034384D01*
X080482Y034483D02*
X077484Y034483D01*
X077526Y034581D02*
X080482Y034581D01*
X080482Y034680D02*
X077568Y034680D01*
X077610Y034778D02*
X080482Y034778D01*
X080482Y034877D02*
X077652Y034877D01*
X077694Y034975D02*
X080482Y034975D01*
X080482Y035074D02*
X077736Y035074D01*
X077778Y035172D02*
X080482Y035172D01*
X080482Y035271D02*
X077807Y035271D01*
X077784Y035184D02*
X077784Y035184D01*
X077835Y035369D02*
X080482Y035369D01*
X080482Y035468D02*
X077862Y035468D01*
X077889Y035566D02*
X080482Y035566D01*
X080482Y035665D02*
X077916Y035665D01*
X077943Y035763D02*
X080482Y035763D01*
X080482Y035862D02*
X077971Y035862D01*
X077998Y035960D02*
X080482Y035960D01*
X080482Y036059D02*
X078025Y036059D01*
X078052Y036157D02*
X080482Y036157D01*
X080482Y036256D02*
X078069Y036256D01*
X078059Y036182D02*
X078059Y036182D01*
X078082Y036354D02*
X080482Y036354D01*
X080482Y036453D02*
X078096Y036453D01*
X078109Y036551D02*
X080482Y036551D01*
X080482Y036650D02*
X078122Y036650D01*
X078136Y036748D02*
X080482Y036748D01*
X080482Y036847D02*
X078149Y036847D01*
X078162Y036945D02*
X080482Y036945D01*
X080482Y037044D02*
X078176Y037044D01*
X078189Y037142D02*
X080482Y037142D01*
X080482Y037241D02*
X078198Y037241D01*
X078198Y037339D02*
X080482Y037339D01*
X080482Y037438D02*
X078198Y037438D01*
X078198Y037536D02*
X080482Y037536D01*
X080482Y037635D02*
X078198Y037635D01*
X078198Y037733D02*
X080482Y037733D01*
X080482Y037832D02*
X078198Y037832D01*
X078198Y037930D02*
X080482Y037930D01*
X080482Y038029D02*
X078198Y038029D01*
X078198Y038127D02*
X080482Y038127D01*
X080482Y038226D02*
X078198Y038226D01*
X078187Y038324D02*
X080482Y038324D01*
X080482Y038423D02*
X078174Y038423D01*
X078160Y038521D02*
X080482Y038521D01*
X080482Y038620D02*
X078147Y038620D01*
X078134Y038718D02*
X080482Y038718D01*
X080482Y038817D02*
X078120Y038817D01*
X078107Y038915D02*
X080482Y038915D01*
X080482Y039014D02*
X078094Y039014D01*
X078080Y039112D02*
X080482Y039112D01*
X080482Y039211D02*
X078067Y039211D01*
X078059Y039268D02*
X078059Y039268D01*
X078048Y039309D02*
X080482Y039309D01*
X080482Y039408D02*
X078021Y039408D01*
X077993Y039506D02*
X080482Y039506D01*
X080482Y039605D02*
X077966Y039605D01*
X077939Y039703D02*
X080482Y039703D01*
X080482Y039802D02*
X077912Y039802D01*
X077885Y039900D02*
X080482Y039900D01*
X080482Y039999D02*
X077857Y039999D01*
X077830Y040097D02*
X080482Y040097D01*
X080482Y040196D02*
X077803Y040196D01*
X077772Y040294D02*
X080482Y040294D01*
X080482Y040393D02*
X077729Y040393D01*
X077687Y040491D02*
X080482Y040491D01*
X080482Y040590D02*
X077645Y040590D01*
X077603Y040688D02*
X080482Y040688D01*
X080482Y040787D02*
X077561Y040787D01*
X077519Y040885D02*
X080482Y040885D01*
X080482Y040984D02*
X077477Y040984D01*
X077435Y041082D02*
X080482Y041082D01*
X080482Y041181D02*
X077392Y041181D01*
X077340Y041279D02*
X080482Y041279D01*
X080482Y041378D02*
X077281Y041378D01*
X077222Y041476D02*
X080482Y041476D01*
X080482Y041575D02*
X077163Y041575D01*
X077104Y041673D02*
X080482Y041673D01*
X080482Y041772D02*
X077045Y041772D01*
X076987Y041870D02*
X080482Y041870D01*
X080482Y041969D02*
X076928Y041969D01*
X076869Y042067D02*
X080482Y042067D01*
X080482Y042166D02*
X076798Y042166D01*
X076719Y042264D02*
X080482Y042264D01*
X080482Y042363D02*
X076641Y042363D01*
X076566Y042461D02*
X080482Y042461D01*
X080482Y042560D02*
X076484Y042560D01*
X076261Y042560D02*
X074458Y042560D01*
X074557Y042658D02*
X080482Y042658D01*
X080482Y042757D02*
X074655Y042757D01*
X074754Y042855D02*
X080482Y042855D01*
X080482Y042954D02*
X074852Y042954D01*
X074951Y043052D02*
X076532Y043052D01*
X076433Y043079D02*
X076691Y043010D01*
X076958Y043010D01*
X077216Y043079D01*
X077447Y043212D01*
X077636Y043401D01*
X077770Y043633D01*
X077839Y043891D01*
X077839Y044158D01*
X077770Y044416D01*
X077636Y044647D01*
X077447Y044836D01*
X077216Y044970D01*
X076958Y045039D01*
X076691Y045039D01*
X076433Y044970D01*
X076201Y044836D01*
X076012Y044647D01*
X075879Y044416D01*
X075810Y044158D01*
X075810Y043891D01*
X075879Y043633D01*
X076012Y043401D01*
X076201Y043212D01*
X076433Y043079D01*
X076308Y043151D02*
X075049Y043151D01*
X075148Y043249D02*
X076165Y043249D01*
X076066Y043348D02*
X075246Y043348D01*
X075278Y043380D02*
X075291Y043381D01*
X075335Y043436D01*
X075385Y043486D01*
X075385Y043499D01*
X075393Y043509D01*
X075385Y043579D01*
X075385Y043650D01*
X075376Y043659D01*
X075374Y043672D01*
X075319Y043716D01*
X075269Y043766D01*
X075256Y043766D01*
X074906Y044046D01*
X074018Y044577D01*
X074018Y044577D01*
X073066Y044984D01*
X073066Y044984D01*
X072068Y045259D01*
X071043Y045398D01*
X070007Y045398D01*
X068982Y045259D01*
X068982Y045259D01*
X067984Y044984D01*
X067032Y044577D01*
X066144Y044046D01*
X065794Y043766D01*
X065781Y043766D01*
X065731Y043716D01*
X065675Y043672D01*
X065674Y043659D01*
X065665Y043650D01*
X065665Y043579D01*
X065657Y043509D01*
X065665Y043499D01*
X065665Y043486D01*
X065715Y043436D01*
X065759Y043381D01*
X065772Y043380D01*
X068401Y040751D01*
X068432Y040700D01*
X068457Y040695D01*
X068475Y040677D01*
X068534Y040677D01*
X068592Y040664D01*
X068613Y040677D01*
X068638Y040677D01*
X068678Y040716D01*
X068947Y040867D01*
X069556Y041105D01*
X070198Y041226D01*
X070852Y041226D01*
X071494Y041105D01*
X072103Y040867D01*
X072372Y040716D01*
X072412Y040677D01*
X072437Y040677D01*
X072458Y040664D01*
X072516Y040677D01*
X072575Y040677D01*
X072593Y040695D01*
X072618Y040700D01*
X072649Y040751D01*
X075278Y043380D01*
X075345Y043446D02*
X075986Y043446D01*
X075930Y043545D02*
X075389Y043545D01*
X075385Y043643D02*
X075876Y043643D01*
X075850Y043742D02*
X075293Y043742D01*
X075164Y043840D02*
X075823Y043840D01*
X075810Y043939D02*
X075040Y043939D01*
X074917Y044037D02*
X075810Y044037D01*
X075810Y044136D02*
X074755Y044136D01*
X074906Y044046D02*
X074906Y044046D01*
X074591Y044234D02*
X075830Y044234D01*
X075856Y044333D02*
X074426Y044333D01*
X074261Y044431D02*
X075888Y044431D01*
X075944Y044530D02*
X074096Y044530D01*
X073897Y044628D02*
X076001Y044628D01*
X076092Y044727D02*
X073667Y044727D01*
X073436Y044825D02*
X076190Y044825D01*
X076353Y044924D02*
X073206Y044924D01*
X072926Y045022D02*
X076628Y045022D01*
X077020Y045022D02*
X080482Y045022D01*
X080482Y044924D02*
X077296Y044924D01*
X077458Y044825D02*
X080482Y044825D01*
X080482Y044727D02*
X077557Y044727D01*
X077647Y044628D02*
X080482Y044628D01*
X080482Y044530D02*
X077704Y044530D01*
X077761Y044431D02*
X080482Y044431D01*
X080482Y044333D02*
X077792Y044333D01*
X077818Y044234D02*
X080482Y044234D01*
X080482Y044136D02*
X077839Y044136D01*
X077839Y044037D02*
X080482Y044037D01*
X080482Y043939D02*
X077839Y043939D01*
X077825Y043840D02*
X080482Y043840D01*
X080482Y043742D02*
X077799Y043742D01*
X077772Y043643D02*
X080482Y043643D01*
X080482Y043545D02*
X077719Y043545D01*
X077662Y043446D02*
X080482Y043446D01*
X080482Y043348D02*
X077582Y043348D01*
X077484Y043249D02*
X080482Y043249D01*
X080482Y043151D02*
X077340Y043151D01*
X077116Y043052D02*
X080482Y043052D01*
X080482Y045121D02*
X072570Y045121D01*
X072213Y045219D02*
X080482Y045219D01*
X080482Y045318D02*
X071636Y045318D01*
X072068Y045259D02*
X072068Y045259D01*
X069414Y045318D02*
X060568Y045318D01*
X060568Y045416D02*
X080482Y045416D01*
X080482Y045515D02*
X060568Y045515D01*
X060568Y045613D02*
X080482Y045613D01*
X080482Y045712D02*
X060568Y045712D01*
X060568Y045810D02*
X080482Y045810D01*
X080482Y045909D02*
X060568Y045909D01*
X060568Y046007D02*
X080482Y046007D01*
X080482Y046106D02*
X060568Y046106D01*
X060568Y046204D02*
X080482Y046204D01*
X080482Y046303D02*
X060568Y046303D01*
X060568Y046401D02*
X080482Y046401D01*
X080482Y046500D02*
X060568Y046500D01*
X060568Y046598D02*
X080482Y046598D01*
X080482Y046697D02*
X060568Y046697D01*
X060568Y046795D02*
X080482Y046795D01*
X080482Y046894D02*
X060568Y046894D01*
X060568Y046992D02*
X080482Y046992D01*
X080482Y047091D02*
X060568Y047091D01*
X060568Y047189D02*
X080482Y047189D01*
X080482Y047288D02*
X060568Y047288D01*
X060568Y047386D02*
X080482Y047386D01*
X080482Y047485D02*
X060568Y047485D01*
X060568Y047583D02*
X080482Y047583D01*
X080482Y047682D02*
X060568Y047682D01*
X060568Y047780D02*
X080482Y047780D01*
X080482Y047879D02*
X060568Y047879D01*
X060568Y047977D02*
X080482Y047977D01*
X080482Y048076D02*
X060568Y048076D01*
X060568Y048174D02*
X080482Y048174D01*
X080482Y048273D02*
X060568Y048273D01*
X060568Y048371D02*
X080482Y048371D01*
X080482Y048470D02*
X060568Y048470D01*
X060568Y048568D02*
X080482Y048568D01*
X080482Y048667D02*
X060568Y048667D01*
X060568Y048765D02*
X080482Y048765D01*
X080482Y048864D02*
X060568Y048864D01*
X060568Y048962D02*
X080482Y048962D01*
X080482Y049061D02*
X060568Y049061D01*
X060568Y049159D02*
X080482Y049159D01*
X080482Y049258D02*
X060568Y049258D01*
X060568Y049356D02*
X080482Y049356D01*
X080482Y049455D02*
X060568Y049455D01*
X060568Y049553D02*
X080482Y049553D01*
X080482Y049652D02*
X060568Y049652D01*
X060568Y049750D02*
X080482Y049750D01*
X080482Y049849D02*
X060568Y049849D01*
X060568Y049947D02*
X080482Y049947D01*
X080482Y050046D02*
X060568Y050046D01*
X060568Y050144D02*
X080482Y050144D01*
X080482Y050243D02*
X060568Y050243D01*
X060568Y050341D02*
X080482Y050341D01*
X080482Y050440D02*
X060568Y050440D01*
X060568Y050538D02*
X080482Y050538D01*
X080482Y050637D02*
X060568Y050637D01*
X060568Y050735D02*
X080482Y050735D01*
X080482Y050834D02*
X060568Y050834D01*
X060568Y050932D02*
X080482Y050932D01*
X080482Y051031D02*
X060568Y051031D01*
X060568Y045219D02*
X068837Y045219D01*
X068480Y045121D02*
X060568Y045121D01*
X060568Y045022D02*
X064030Y045022D01*
X064092Y045039D02*
X063834Y044970D01*
X063603Y044836D01*
X063414Y044647D01*
X063280Y044416D01*
X063211Y044158D01*
X063211Y043891D01*
X063280Y043633D01*
X063414Y043401D01*
X063603Y043212D01*
X063834Y043079D01*
X064092Y043010D01*
X064359Y043010D01*
X064617Y043079D01*
X064849Y043212D01*
X065038Y043401D01*
X065171Y043633D01*
X065240Y043891D01*
X065240Y044158D01*
X065171Y044416D01*
X065038Y044647D01*
X064849Y044836D01*
X064617Y044970D01*
X064359Y045039D01*
X064092Y045039D01*
X064422Y045022D02*
X068124Y045022D01*
X067984Y044984D02*
X067984Y044984D01*
X067844Y044924D02*
X064697Y044924D01*
X064860Y044825D02*
X067614Y044825D01*
X067383Y044727D02*
X064958Y044727D01*
X065049Y044628D02*
X067153Y044628D01*
X067032Y044577D02*
X067032Y044577D01*
X066954Y044530D02*
X065106Y044530D01*
X065162Y044431D02*
X066789Y044431D01*
X066624Y044333D02*
X065194Y044333D01*
X065220Y044234D02*
X066459Y044234D01*
X066295Y044136D02*
X065240Y044136D01*
X065240Y044037D02*
X066133Y044037D01*
X066144Y044046D02*
X066144Y044046D01*
X066010Y043939D02*
X065240Y043939D01*
X065227Y043840D02*
X065886Y043840D01*
X065757Y043742D02*
X065200Y043742D01*
X065174Y043643D02*
X065665Y043643D01*
X065661Y043545D02*
X065120Y043545D01*
X065064Y043446D02*
X065705Y043446D01*
X065804Y043348D02*
X064984Y043348D01*
X064885Y043249D02*
X065902Y043249D01*
X066001Y043151D02*
X064742Y043151D01*
X064518Y043052D02*
X066099Y043052D01*
X066198Y042954D02*
X060568Y042954D01*
X060568Y043052D02*
X063934Y043052D01*
X063710Y043151D02*
X060568Y043151D01*
X060568Y043249D02*
X063566Y043249D01*
X063468Y043348D02*
X060568Y043348D01*
X060568Y043446D02*
X063388Y043446D01*
X063331Y043545D02*
X060568Y043545D01*
X060568Y043643D02*
X063278Y043643D01*
X063251Y043742D02*
X060568Y043742D01*
X060568Y043840D02*
X063225Y043840D01*
X063211Y043939D02*
X060568Y043939D01*
X060568Y044037D02*
X063211Y044037D01*
X063211Y044136D02*
X060568Y044136D01*
X060568Y044234D02*
X063232Y044234D01*
X063258Y044333D02*
X060568Y044333D01*
X060568Y044431D02*
X063289Y044431D01*
X063346Y044530D02*
X060568Y044530D01*
X060568Y044628D02*
X063403Y044628D01*
X063493Y044727D02*
X060568Y044727D01*
X060568Y044825D02*
X063592Y044825D01*
X063754Y044924D02*
X060568Y044924D01*
X060568Y042855D02*
X066296Y042855D01*
X066395Y042757D02*
X060568Y042757D01*
X060568Y042658D02*
X066493Y042658D01*
X066592Y042560D02*
X064789Y042560D01*
X064814Y042535D02*
X064764Y042585D01*
X064751Y042585D01*
X064741Y042593D01*
X064671Y042585D01*
X064600Y042585D01*
X064591Y042576D01*
X064578Y042574D01*
X064534Y042519D01*
X064484Y042469D01*
X064484Y042456D01*
X064204Y042106D01*
X063673Y041218D01*
X063266Y040266D01*
X062991Y039268D01*
X062852Y038243D01*
X062852Y037207D01*
X062991Y036182D01*
X062991Y036182D01*
X063266Y035184D01*
X063673Y034232D01*
X064204Y033344D01*
X064484Y032994D01*
X064484Y032981D01*
X064534Y032931D01*
X064578Y032875D01*
X064591Y032874D01*
X064600Y032865D01*
X064671Y032865D01*
X064741Y032857D01*
X064751Y032865D01*
X064764Y032865D01*
X064814Y032915D01*
X064869Y032959D01*
X064870Y032972D01*
X067499Y035601D01*
X067550Y035632D01*
X067555Y035657D01*
X067573Y035675D01*
X067573Y035734D01*
X067586Y035792D01*
X067573Y035813D01*
X067573Y035838D01*
X067534Y035878D01*
X067383Y036147D01*
X067145Y036756D01*
X067024Y037398D01*
X067024Y038052D01*
X067145Y038694D01*
X067383Y039303D01*
X067534Y039572D01*
X067573Y039612D01*
X067573Y039637D01*
X067586Y039658D01*
X067573Y039716D01*
X067573Y039775D01*
X067555Y039793D01*
X067550Y039818D01*
X067499Y039849D01*
X064870Y042478D01*
X064869Y042491D01*
X064814Y042535D01*
X064887Y042461D02*
X066690Y042461D01*
X066789Y042363D02*
X064986Y042363D01*
X065084Y042264D02*
X066887Y042264D01*
X066986Y042166D02*
X065183Y042166D01*
X065281Y042067D02*
X067084Y042067D01*
X067183Y041969D02*
X065380Y041969D01*
X065478Y041870D02*
X067281Y041870D01*
X067380Y041772D02*
X065577Y041772D01*
X065675Y041673D02*
X067478Y041673D01*
X067577Y041575D02*
X065774Y041575D01*
X065872Y041476D02*
X067675Y041476D01*
X067774Y041378D02*
X065971Y041378D01*
X066069Y041279D02*
X067872Y041279D01*
X067971Y041181D02*
X066168Y041181D01*
X066266Y041082D02*
X068069Y041082D01*
X068168Y040984D02*
X066365Y040984D01*
X066463Y040885D02*
X068266Y040885D01*
X068365Y040787D02*
X066562Y040787D01*
X066660Y040688D02*
X068463Y040688D01*
X068649Y040688D02*
X072401Y040688D01*
X072247Y040787D02*
X068803Y040787D01*
X068992Y040885D02*
X072058Y040885D01*
X071806Y040984D02*
X069244Y040984D01*
X069496Y041082D02*
X071554Y041082D01*
X071094Y041181D02*
X069956Y041181D01*
X072586Y040688D02*
X074390Y040688D01*
X074488Y040787D02*
X072685Y040787D01*
X072783Y040885D02*
X074587Y040885D01*
X074685Y040984D02*
X072882Y040984D01*
X072980Y041082D02*
X074784Y041082D01*
X074882Y041181D02*
X073079Y041181D01*
X073178Y041279D02*
X074981Y041279D01*
X075079Y041378D02*
X073276Y041378D01*
X073375Y041476D02*
X075178Y041476D01*
X075276Y041575D02*
X073473Y041575D01*
X073572Y041673D02*
X075375Y041673D01*
X075473Y041772D02*
X073670Y041772D01*
X073769Y041870D02*
X075572Y041870D01*
X075670Y041969D02*
X073867Y041969D01*
X073966Y042067D02*
X075769Y042067D01*
X075867Y042166D02*
X074064Y042166D01*
X074163Y042264D02*
X075966Y042264D01*
X076064Y042363D02*
X074261Y042363D01*
X074360Y042461D02*
X076163Y042461D01*
X074291Y040590D02*
X066759Y040590D01*
X066857Y040491D02*
X074193Y040491D01*
X074094Y040393D02*
X066956Y040393D01*
X067054Y040294D02*
X073996Y040294D01*
X073897Y040196D02*
X067153Y040196D01*
X067251Y040097D02*
X073799Y040097D01*
X073700Y039999D02*
X067350Y039999D01*
X067448Y039900D02*
X073602Y039900D01*
X073497Y039802D02*
X067553Y039802D01*
X067576Y039703D02*
X073474Y039703D01*
X073484Y039605D02*
X067566Y039605D01*
X067497Y039506D02*
X073553Y039506D01*
X073609Y039408D02*
X067441Y039408D01*
X067386Y039309D02*
X073664Y039309D01*
X073704Y039211D02*
X067346Y039211D01*
X067308Y039112D02*
X073742Y039112D01*
X073781Y039014D02*
X067269Y039014D01*
X067231Y038915D02*
X073819Y038915D01*
X073858Y038817D02*
X067192Y038817D01*
X067154Y038718D02*
X073896Y038718D01*
X073919Y038620D02*
X067131Y038620D01*
X067112Y038521D02*
X073938Y038521D01*
X073956Y038423D02*
X067094Y038423D01*
X067075Y038324D02*
X073975Y038324D01*
X073994Y038226D02*
X067056Y038226D01*
X067038Y038127D02*
X074012Y038127D01*
X074026Y038029D02*
X067024Y038029D01*
X067024Y037930D02*
X074026Y037930D01*
X074026Y037832D02*
X067024Y037832D01*
X067024Y037733D02*
X074026Y037733D01*
X074026Y037635D02*
X067024Y037635D01*
X067024Y037536D02*
X074026Y037536D01*
X074026Y037438D02*
X067024Y037438D01*
X067035Y037339D02*
X074015Y037339D01*
X073997Y037241D02*
X067053Y037241D01*
X067072Y037142D02*
X073978Y037142D01*
X073960Y037044D02*
X067090Y037044D01*
X067109Y036945D02*
X073941Y036945D01*
X073922Y036847D02*
X067128Y036847D01*
X067148Y036748D02*
X073902Y036748D01*
X073864Y036650D02*
X067186Y036650D01*
X067225Y036551D02*
X073825Y036551D01*
X073787Y036453D02*
X067263Y036453D01*
X067302Y036354D02*
X073748Y036354D01*
X073710Y036256D02*
X067340Y036256D01*
X067379Y036157D02*
X073671Y036157D01*
X073667Y036147D02*
X073667Y036147D01*
X073618Y036059D02*
X067432Y036059D01*
X067487Y035960D02*
X073563Y035960D01*
X073500Y035862D02*
X067550Y035862D01*
X067580Y035763D02*
X073470Y035763D01*
X073487Y035665D02*
X067563Y035665D01*
X067464Y035566D02*
X073586Y035566D01*
X073684Y035468D02*
X067366Y035468D01*
X067267Y035369D02*
X073783Y035369D01*
X073881Y035271D02*
X067169Y035271D01*
X067070Y035172D02*
X073980Y035172D01*
X074078Y035074D02*
X066972Y035074D01*
X066873Y034975D02*
X074177Y034975D01*
X074275Y034877D02*
X066775Y034877D01*
X066676Y034778D02*
X068556Y034778D01*
X068605Y034778D02*
X072445Y034778D01*
X072494Y034778D02*
X074374Y034778D01*
X074472Y034680D02*
X072669Y034680D01*
X072767Y034581D02*
X074571Y034581D01*
X074669Y034483D02*
X072866Y034483D01*
X072964Y034384D02*
X074768Y034384D01*
X074866Y034286D02*
X073063Y034286D01*
X073161Y034187D02*
X074965Y034187D01*
X075063Y034089D02*
X073260Y034089D01*
X073358Y033990D02*
X075162Y033990D01*
X075260Y033892D02*
X073457Y033892D01*
X073555Y033793D02*
X075359Y033793D01*
X075457Y033695D02*
X073654Y033695D01*
X073752Y033596D02*
X075556Y033596D01*
X075654Y033498D02*
X073851Y033498D01*
X073949Y033399D02*
X075753Y033399D01*
X075851Y033301D02*
X074048Y033301D01*
X074146Y033202D02*
X075950Y033202D01*
X076048Y033104D02*
X074245Y033104D01*
X074343Y033005D02*
X076147Y033005D01*
X076245Y032907D02*
X074442Y032907D01*
X072099Y034581D02*
X068951Y034581D01*
X068774Y034680D02*
X072276Y034680D01*
X071847Y034483D02*
X069203Y034483D01*
X069455Y034384D02*
X071595Y034384D01*
X071180Y034286D02*
X069870Y034286D01*
X068381Y034680D02*
X066578Y034680D01*
X066479Y034581D02*
X068283Y034581D01*
X068184Y034483D02*
X066381Y034483D01*
X066282Y034384D02*
X068086Y034384D01*
X067987Y034286D02*
X066184Y034286D01*
X066085Y034187D02*
X067889Y034187D01*
X067790Y034089D02*
X065987Y034089D01*
X065888Y033990D02*
X067692Y033990D01*
X067593Y033892D02*
X065790Y033892D01*
X065691Y033793D02*
X067495Y033793D01*
X067396Y033695D02*
X065593Y033695D01*
X065494Y033596D02*
X067298Y033596D01*
X067199Y033498D02*
X065396Y033498D01*
X065297Y033399D02*
X067101Y033399D01*
X067002Y033301D02*
X065199Y033301D01*
X065100Y033202D02*
X066904Y033202D01*
X066805Y033104D02*
X065002Y033104D01*
X064903Y033005D02*
X066707Y033005D01*
X066608Y032907D02*
X064805Y032907D01*
X064553Y032907D02*
X060568Y032907D01*
X060568Y033005D02*
X064475Y033005D01*
X064396Y033104D02*
X060568Y033104D01*
X060568Y033202D02*
X064318Y033202D01*
X064239Y033301D02*
X060568Y033301D01*
X060568Y033399D02*
X064171Y033399D01*
X064204Y033344D02*
X064204Y033344D01*
X064113Y033498D02*
X060568Y033498D01*
X060568Y033596D02*
X064054Y033596D01*
X063995Y033695D02*
X060568Y033695D01*
X060568Y033793D02*
X063936Y033793D01*
X063877Y033892D02*
X060568Y033892D01*
X060568Y033990D02*
X063818Y033990D01*
X063759Y034089D02*
X060568Y034089D01*
X060568Y034187D02*
X063700Y034187D01*
X063673Y034232D02*
X063673Y034232D01*
X063651Y034286D02*
X060568Y034286D01*
X060568Y034384D02*
X063609Y034384D01*
X063566Y034483D02*
X060568Y034483D01*
X060568Y034581D02*
X063524Y034581D01*
X063482Y034680D02*
X060568Y034680D01*
X060568Y034778D02*
X063440Y034778D01*
X063398Y034877D02*
X060568Y034877D01*
X060568Y034975D02*
X063356Y034975D01*
X063314Y035074D02*
X060568Y035074D01*
X060568Y035172D02*
X063272Y035172D01*
X063266Y035184D02*
X063266Y035184D01*
X063243Y035271D02*
X060568Y035271D01*
X060568Y035369D02*
X063215Y035369D01*
X063188Y035468D02*
X060568Y035468D01*
X060568Y035566D02*
X063161Y035566D01*
X063134Y035665D02*
X060568Y035665D01*
X060568Y035763D02*
X063107Y035763D01*
X063079Y035862D02*
X060568Y035862D01*
X060568Y035960D02*
X063052Y035960D01*
X063025Y036059D02*
X060568Y036059D01*
X060568Y036157D02*
X062998Y036157D01*
X062981Y036256D02*
X060568Y036256D01*
X060568Y036354D02*
X062968Y036354D01*
X062954Y036453D02*
X060568Y036453D01*
X060568Y036551D02*
X062941Y036551D01*
X062928Y036650D02*
X060568Y036650D01*
X060568Y036748D02*
X062914Y036748D01*
X062901Y036847D02*
X060568Y036847D01*
X060568Y036945D02*
X062888Y036945D01*
X062874Y037044D02*
X060568Y037044D01*
X060568Y037142D02*
X062861Y037142D01*
X062852Y037241D02*
X060568Y037241D01*
X060568Y037339D02*
X062852Y037339D01*
X062852Y037438D02*
X060568Y037438D01*
X060568Y037536D02*
X062852Y037536D01*
X062852Y037635D02*
X060568Y037635D01*
X060568Y037733D02*
X062852Y037733D01*
X062852Y037832D02*
X060568Y037832D01*
X060568Y037930D02*
X062852Y037930D01*
X062852Y038029D02*
X060568Y038029D01*
X060568Y038127D02*
X062852Y038127D01*
X062852Y038226D02*
X060568Y038226D01*
X060568Y038324D02*
X062863Y038324D01*
X062876Y038423D02*
X060568Y038423D01*
X060568Y038521D02*
X062890Y038521D01*
X062903Y038620D02*
X060568Y038620D01*
X060568Y038718D02*
X062916Y038718D01*
X062930Y038817D02*
X060568Y038817D01*
X060568Y038915D02*
X062943Y038915D01*
X062956Y039014D02*
X060568Y039014D01*
X060568Y039112D02*
X062970Y039112D01*
X062983Y039211D02*
X060568Y039211D01*
X060568Y039309D02*
X063002Y039309D01*
X063029Y039408D02*
X060568Y039408D01*
X060568Y039506D02*
X063057Y039506D01*
X063084Y039605D02*
X060568Y039605D01*
X060568Y039703D02*
X063111Y039703D01*
X063138Y039802D02*
X060568Y039802D01*
X060568Y039900D02*
X063165Y039900D01*
X063193Y039999D02*
X060568Y039999D01*
X060568Y040097D02*
X063220Y040097D01*
X063247Y040196D02*
X060568Y040196D01*
X060568Y040294D02*
X063278Y040294D01*
X063321Y040393D02*
X060568Y040393D01*
X060568Y040491D02*
X063363Y040491D01*
X063405Y040590D02*
X060568Y040590D01*
X060568Y040688D02*
X063447Y040688D01*
X063489Y040787D02*
X060568Y040787D01*
X060568Y040885D02*
X063531Y040885D01*
X063573Y040984D02*
X060568Y040984D01*
X060568Y041082D02*
X063615Y041082D01*
X063658Y041181D02*
X060568Y041181D01*
X060568Y041279D02*
X063710Y041279D01*
X063769Y041378D02*
X060568Y041378D01*
X060568Y041476D02*
X063828Y041476D01*
X063887Y041575D02*
X060568Y041575D01*
X060568Y041673D02*
X063946Y041673D01*
X064005Y041772D02*
X060568Y041772D01*
X060568Y041870D02*
X064063Y041870D01*
X064122Y041969D02*
X060568Y041969D01*
X060568Y042067D02*
X064181Y042067D01*
X064252Y042166D02*
X060568Y042166D01*
X060568Y042264D02*
X064331Y042264D01*
X064409Y042363D02*
X060568Y042363D01*
X060568Y042461D02*
X064484Y042461D01*
X064566Y042560D02*
X060568Y042560D01*
X060568Y032808D02*
X066510Y032808D01*
X066411Y032710D02*
X060568Y032710D01*
X060568Y032611D02*
X066313Y032611D01*
X066214Y032513D02*
X060568Y032513D01*
X060568Y032414D02*
X063994Y032414D01*
X064092Y032440D02*
X063834Y032371D01*
X063603Y032238D01*
X063414Y032049D01*
X063280Y031817D01*
X063211Y031559D01*
X063211Y031292D01*
X063280Y031034D01*
X063414Y030803D01*
X063603Y030614D01*
X063834Y030480D01*
X064092Y030411D01*
X064359Y030411D01*
X064617Y030480D01*
X064849Y030614D01*
X065038Y030803D01*
X065171Y031034D01*
X065240Y031292D01*
X065240Y031559D01*
X065171Y031817D01*
X065038Y032049D01*
X064849Y032238D01*
X064617Y032371D01*
X064359Y032440D01*
X064092Y032440D01*
X064457Y032414D02*
X066116Y032414D01*
X066017Y032316D02*
X064714Y032316D01*
X064869Y032217D02*
X065919Y032217D01*
X065820Y032119D02*
X064968Y032119D01*
X065054Y032020D02*
X065720Y032020D01*
X065659Y031922D02*
X065111Y031922D01*
X065168Y031823D02*
X065665Y031823D01*
X065740Y031725D02*
X065196Y031725D01*
X065222Y031626D02*
X065866Y031626D01*
X065990Y031528D02*
X065240Y031528D01*
X065240Y031429D02*
X066113Y031429D01*
X066268Y031331D02*
X065240Y031331D01*
X065224Y031232D02*
X066432Y031232D01*
X066597Y031134D02*
X065198Y031134D01*
X065171Y031035D02*
X066762Y031035D01*
X066927Y030937D02*
X065115Y030937D01*
X065058Y030838D02*
X067115Y030838D01*
X067345Y030740D02*
X064974Y030740D01*
X064876Y030641D02*
X067576Y030641D01*
X067806Y030543D02*
X064725Y030543D01*
X064482Y030444D02*
X068065Y030444D01*
X068422Y030346D02*
X060568Y030346D01*
X060568Y030444D02*
X063970Y030444D01*
X063726Y030543D02*
X060568Y030543D01*
X060568Y030641D02*
X063576Y030641D01*
X063477Y030740D02*
X060568Y030740D01*
X060568Y030838D02*
X063394Y030838D01*
X063337Y030937D02*
X060568Y030937D01*
X060568Y031035D02*
X063280Y031035D01*
X063254Y031134D02*
X060568Y031134D01*
X060568Y031232D02*
X063227Y031232D01*
X063211Y031331D02*
X060568Y031331D01*
X060568Y031429D02*
X063211Y031429D01*
X063211Y031528D02*
X060568Y031528D01*
X060568Y031626D02*
X063229Y031626D01*
X063255Y031725D02*
X060568Y031725D01*
X060568Y031823D02*
X063284Y031823D01*
X063341Y031922D02*
X060568Y031922D01*
X060568Y032020D02*
X063397Y032020D01*
X063484Y032119D02*
X060568Y032119D01*
X060568Y032217D02*
X063582Y032217D01*
X063738Y032316D02*
X060568Y032316D01*
X060568Y030247D02*
X068779Y030247D01*
X069295Y030149D02*
X060568Y030149D01*
X055151Y009858D02*
X048024Y009858D01*
X048014Y009862D02*
X047661Y009862D01*
X047335Y009727D01*
X047086Y009477D01*
X046951Y009151D01*
X046951Y008799D01*
X047086Y008473D01*
X047335Y008223D01*
X047661Y008088D01*
X048014Y008088D01*
X048340Y008223D01*
X048589Y008473D01*
X048724Y008799D01*
X048724Y009151D01*
X048589Y009477D01*
X048340Y009727D01*
X048014Y009862D01*
X048262Y009759D02*
X054913Y009759D01*
X054769Y009661D02*
X048406Y009661D01*
X048504Y009562D02*
X054671Y009562D01*
X054580Y009464D02*
X048595Y009464D01*
X048636Y009365D02*
X054539Y009365D01*
X054499Y009267D02*
X048676Y009267D01*
X048717Y009168D02*
X054458Y009168D01*
X054451Y009070D02*
X048724Y009070D01*
X048724Y008971D02*
X054451Y008971D01*
X054451Y008873D02*
X048724Y008873D01*
X048714Y008774D02*
X054461Y008774D01*
X054502Y008676D02*
X048673Y008676D01*
X048632Y008577D02*
X054543Y008577D01*
X054583Y008479D02*
X048592Y008479D01*
X048496Y008380D02*
X054679Y008380D01*
X054777Y008282D02*
X048398Y008282D01*
X048242Y008183D02*
X054933Y008183D01*
X055742Y008183D02*
X068537Y008183D01*
X068578Y008282D02*
X055898Y008282D01*
X055996Y008380D02*
X068630Y008380D01*
X068729Y008479D02*
X056092Y008479D01*
X056132Y008577D02*
X068827Y008577D01*
X069030Y008676D02*
X056173Y008676D01*
X047651Y009858D02*
X040524Y009858D01*
X040514Y009862D02*
X040161Y009862D01*
X039835Y009727D01*
X039586Y009477D01*
X039451Y009151D01*
X039451Y008799D01*
X039586Y008473D01*
X039835Y008223D01*
X040161Y008088D01*
X040514Y008088D01*
X040840Y008223D01*
X041089Y008473D01*
X041224Y008799D01*
X041224Y009151D01*
X041089Y009477D01*
X040840Y009727D01*
X040514Y009862D01*
X040762Y009759D02*
X047413Y009759D01*
X047269Y009661D02*
X040906Y009661D01*
X041004Y009562D02*
X047171Y009562D01*
X047080Y009464D02*
X041095Y009464D01*
X041136Y009365D02*
X047039Y009365D01*
X046999Y009267D02*
X041176Y009267D01*
X041217Y009168D02*
X046958Y009168D01*
X046951Y009070D02*
X041224Y009070D01*
X041224Y008971D02*
X046951Y008971D01*
X046951Y008873D02*
X041224Y008873D01*
X041214Y008774D02*
X046961Y008774D01*
X047002Y008676D02*
X041173Y008676D01*
X041132Y008577D02*
X047043Y008577D01*
X047083Y008479D02*
X041092Y008479D01*
X040996Y008380D02*
X047179Y008380D01*
X047277Y008282D02*
X040898Y008282D01*
X040742Y008183D02*
X047433Y008183D01*
X040151Y009858D02*
X033024Y009858D01*
X033014Y009862D02*
X032661Y009862D01*
X032335Y009727D01*
X032086Y009477D01*
X031951Y009151D01*
X031951Y008799D01*
X032086Y008473D01*
X032335Y008223D01*
X032661Y008088D01*
X033014Y008088D01*
X033340Y008223D01*
X033589Y008473D01*
X033724Y008799D01*
X033724Y009151D01*
X033589Y009477D01*
X033340Y009727D01*
X033014Y009862D01*
X033262Y009759D02*
X039913Y009759D01*
X039769Y009661D02*
X033406Y009661D01*
X033504Y009562D02*
X039671Y009562D01*
X039580Y009464D02*
X033595Y009464D01*
X033636Y009365D02*
X039539Y009365D01*
X039499Y009267D02*
X033676Y009267D01*
X033717Y009168D02*
X039458Y009168D01*
X039451Y009070D02*
X033724Y009070D01*
X033724Y008971D02*
X039451Y008971D01*
X039451Y008873D02*
X033724Y008873D01*
X033714Y008774D02*
X039461Y008774D01*
X039502Y008676D02*
X033673Y008676D01*
X033632Y008577D02*
X039543Y008577D01*
X039583Y008479D02*
X033592Y008479D01*
X033496Y008380D02*
X039679Y008380D01*
X039777Y008282D02*
X033398Y008282D01*
X033242Y008183D02*
X039933Y008183D01*
X032651Y009858D02*
X025524Y009858D01*
X025514Y009862D02*
X025161Y009862D01*
X024835Y009727D01*
X024586Y009477D01*
X024451Y009151D01*
X024451Y008799D01*
X024586Y008473D01*
X024835Y008223D01*
X025161Y008088D01*
X025514Y008088D01*
X025840Y008223D01*
X026089Y008473D01*
X026224Y008799D01*
X026224Y009151D01*
X026089Y009477D01*
X025840Y009727D01*
X025514Y009862D01*
X025762Y009759D02*
X032413Y009759D01*
X032269Y009661D02*
X025906Y009661D01*
X026004Y009562D02*
X032171Y009562D01*
X032080Y009464D02*
X026095Y009464D01*
X026136Y009365D02*
X032039Y009365D01*
X031999Y009267D02*
X026176Y009267D01*
X026217Y009168D02*
X031958Y009168D01*
X031951Y009070D02*
X026224Y009070D01*
X026224Y008971D02*
X031951Y008971D01*
X031951Y008873D02*
X026224Y008873D01*
X026214Y008774D02*
X031961Y008774D01*
X032002Y008676D02*
X026173Y008676D01*
X026132Y008577D02*
X032043Y008577D01*
X032083Y008479D02*
X026092Y008479D01*
X025996Y008380D02*
X032179Y008380D01*
X032277Y008282D02*
X025898Y008282D01*
X025742Y008183D02*
X032433Y008183D01*
X025151Y009858D02*
X018024Y009858D01*
X018014Y009862D02*
X017661Y009862D01*
X017335Y009727D01*
X017086Y009477D01*
X016951Y009151D01*
X016951Y008799D01*
X017086Y008473D01*
X017335Y008223D01*
X017661Y008088D01*
X018014Y008088D01*
X018340Y008223D01*
X018589Y008473D01*
X018724Y008799D01*
X018724Y009151D01*
X018589Y009477D01*
X018340Y009727D01*
X018014Y009862D01*
X018262Y009759D02*
X024913Y009759D01*
X024769Y009661D02*
X018406Y009661D01*
X018504Y009562D02*
X024671Y009562D01*
X024580Y009464D02*
X018595Y009464D01*
X018636Y009365D02*
X024539Y009365D01*
X024499Y009267D02*
X018676Y009267D01*
X018717Y009168D02*
X024458Y009168D01*
X024451Y009070D02*
X018724Y009070D01*
X018724Y008971D02*
X024451Y008971D01*
X024451Y008873D02*
X018724Y008873D01*
X018714Y008774D02*
X024461Y008774D01*
X024502Y008676D02*
X018673Y008676D01*
X018632Y008577D02*
X024543Y008577D01*
X024583Y008479D02*
X018592Y008479D01*
X018496Y008380D02*
X024679Y008380D01*
X024777Y008282D02*
X018398Y008282D01*
X018242Y008183D02*
X024933Y008183D01*
X017651Y009858D02*
X010524Y009858D01*
X010514Y009862D02*
X010161Y009862D01*
X009835Y009727D01*
X009586Y009477D01*
X009451Y009151D01*
X009451Y008799D01*
X009586Y008473D01*
X009835Y008223D01*
X010161Y008088D01*
X010514Y008088D01*
X010840Y008223D01*
X011089Y008473D01*
X011224Y008799D01*
X011224Y009151D01*
X011089Y009477D01*
X010840Y009727D01*
X010514Y009862D01*
X010762Y009759D02*
X017413Y009759D01*
X017269Y009661D02*
X010906Y009661D01*
X011004Y009562D02*
X017171Y009562D01*
X017080Y009464D02*
X011095Y009464D01*
X011136Y009365D02*
X017039Y009365D01*
X016999Y009267D02*
X011176Y009267D01*
X011217Y009168D02*
X016958Y009168D01*
X016951Y009070D02*
X011224Y009070D01*
X011224Y008971D02*
X016951Y008971D01*
X016951Y008873D02*
X011224Y008873D01*
X011214Y008774D02*
X016961Y008774D01*
X017002Y008676D02*
X011173Y008676D01*
X011132Y008577D02*
X017043Y008577D01*
X017083Y008479D02*
X011092Y008479D01*
X010996Y008380D02*
X017179Y008380D01*
X017277Y008282D02*
X010898Y008282D01*
X010742Y008183D02*
X017433Y008183D01*
X010151Y009858D02*
X003024Y009858D01*
X003262Y009759D02*
X009913Y009759D01*
X009769Y009661D02*
X003406Y009661D01*
X003504Y009562D02*
X009671Y009562D01*
X009580Y009464D02*
X003595Y009464D01*
X003636Y009365D02*
X009539Y009365D01*
X009499Y009267D02*
X003676Y009267D01*
X003717Y009168D02*
X009458Y009168D01*
X009451Y009070D02*
X003724Y009070D01*
X003724Y008971D02*
X009451Y008971D01*
X009451Y008873D02*
X003724Y008873D01*
X003714Y008774D02*
X009461Y008774D01*
X009502Y008676D02*
X003673Y008676D01*
X003632Y008577D02*
X009543Y008577D01*
X009583Y008479D02*
X003592Y008479D01*
X003496Y008380D02*
X009679Y008380D01*
X009777Y008282D02*
X003398Y008282D01*
X003242Y008183D02*
X009933Y008183D01*
X000318Y007001D02*
X071746Y007001D01*
X071746Y006903D02*
X000318Y006903D01*
M02*
