G75*
G70*
%OFA0B0*%
%FSLAX24Y24*%
%IPPOS*%
%LPD*%
%AMOC8*
5,1,8,0,0,1.08239X$1,22.5*
%
%ADD10C,0.0000*%
%ADD11C,0.0059*%
D10*
X000150Y000500D02*
X000150Y010975D01*
X060400Y010975D01*
X060400Y051225D01*
X080650Y051225D01*
X080650Y000500D01*
X000150Y000500D01*
X002119Y008975D02*
X002121Y009028D01*
X002127Y009081D01*
X002137Y009133D01*
X002150Y009185D01*
X002168Y009235D01*
X002189Y009284D01*
X002213Y009331D01*
X002241Y009376D01*
X002272Y009419D01*
X002307Y009459D01*
X002344Y009497D01*
X002384Y009532D01*
X002426Y009564D01*
X002471Y009593D01*
X002518Y009619D01*
X002566Y009641D01*
X002616Y009659D01*
X002667Y009673D01*
X002719Y009684D01*
X002772Y009691D01*
X002825Y009694D01*
X002878Y009693D01*
X002931Y009688D01*
X002983Y009679D01*
X003035Y009667D01*
X003085Y009650D01*
X003134Y009630D01*
X003182Y009606D01*
X003228Y009579D01*
X003271Y009549D01*
X003312Y009515D01*
X003351Y009479D01*
X003387Y009439D01*
X003420Y009398D01*
X003449Y009354D01*
X003476Y009307D01*
X003498Y009259D01*
X003518Y009210D01*
X003533Y009159D01*
X003545Y009107D01*
X003553Y009055D01*
X003557Y009002D01*
X003557Y008948D01*
X003553Y008895D01*
X003545Y008843D01*
X003533Y008791D01*
X003518Y008740D01*
X003498Y008691D01*
X003476Y008643D01*
X003449Y008596D01*
X003420Y008552D01*
X003387Y008511D01*
X003351Y008471D01*
X003312Y008435D01*
X003271Y008401D01*
X003228Y008371D01*
X003182Y008344D01*
X003134Y008320D01*
X003085Y008300D01*
X003035Y008283D01*
X002983Y008271D01*
X002931Y008262D01*
X002878Y008257D01*
X002825Y008256D01*
X002772Y008259D01*
X002719Y008266D01*
X002667Y008277D01*
X002616Y008291D01*
X002566Y008309D01*
X002518Y008331D01*
X002471Y008357D01*
X002426Y008386D01*
X002384Y008418D01*
X002344Y008453D01*
X002307Y008491D01*
X002272Y008531D01*
X002241Y008574D01*
X002213Y008619D01*
X002189Y008666D01*
X002168Y008715D01*
X002150Y008765D01*
X002137Y008817D01*
X002127Y008869D01*
X002121Y008922D01*
X002119Y008975D01*
X009619Y008975D02*
X009621Y009028D01*
X009627Y009081D01*
X009637Y009133D01*
X009650Y009185D01*
X009668Y009235D01*
X009689Y009284D01*
X009713Y009331D01*
X009741Y009376D01*
X009772Y009419D01*
X009807Y009459D01*
X009844Y009497D01*
X009884Y009532D01*
X009926Y009564D01*
X009971Y009593D01*
X010018Y009619D01*
X010066Y009641D01*
X010116Y009659D01*
X010167Y009673D01*
X010219Y009684D01*
X010272Y009691D01*
X010325Y009694D01*
X010378Y009693D01*
X010431Y009688D01*
X010483Y009679D01*
X010535Y009667D01*
X010585Y009650D01*
X010634Y009630D01*
X010682Y009606D01*
X010728Y009579D01*
X010771Y009549D01*
X010812Y009515D01*
X010851Y009479D01*
X010887Y009439D01*
X010920Y009398D01*
X010949Y009354D01*
X010976Y009307D01*
X010998Y009259D01*
X011018Y009210D01*
X011033Y009159D01*
X011045Y009107D01*
X011053Y009055D01*
X011057Y009002D01*
X011057Y008948D01*
X011053Y008895D01*
X011045Y008843D01*
X011033Y008791D01*
X011018Y008740D01*
X010998Y008691D01*
X010976Y008643D01*
X010949Y008596D01*
X010920Y008552D01*
X010887Y008511D01*
X010851Y008471D01*
X010812Y008435D01*
X010771Y008401D01*
X010728Y008371D01*
X010682Y008344D01*
X010634Y008320D01*
X010585Y008300D01*
X010535Y008283D01*
X010483Y008271D01*
X010431Y008262D01*
X010378Y008257D01*
X010325Y008256D01*
X010272Y008259D01*
X010219Y008266D01*
X010167Y008277D01*
X010116Y008291D01*
X010066Y008309D01*
X010018Y008331D01*
X009971Y008357D01*
X009926Y008386D01*
X009884Y008418D01*
X009844Y008453D01*
X009807Y008491D01*
X009772Y008531D01*
X009741Y008574D01*
X009713Y008619D01*
X009689Y008666D01*
X009668Y008715D01*
X009650Y008765D01*
X009637Y008817D01*
X009627Y008869D01*
X009621Y008922D01*
X009619Y008975D01*
X017119Y008975D02*
X017121Y009028D01*
X017127Y009081D01*
X017137Y009133D01*
X017150Y009185D01*
X017168Y009235D01*
X017189Y009284D01*
X017213Y009331D01*
X017241Y009376D01*
X017272Y009419D01*
X017307Y009459D01*
X017344Y009497D01*
X017384Y009532D01*
X017426Y009564D01*
X017471Y009593D01*
X017518Y009619D01*
X017566Y009641D01*
X017616Y009659D01*
X017667Y009673D01*
X017719Y009684D01*
X017772Y009691D01*
X017825Y009694D01*
X017878Y009693D01*
X017931Y009688D01*
X017983Y009679D01*
X018035Y009667D01*
X018085Y009650D01*
X018134Y009630D01*
X018182Y009606D01*
X018228Y009579D01*
X018271Y009549D01*
X018312Y009515D01*
X018351Y009479D01*
X018387Y009439D01*
X018420Y009398D01*
X018449Y009354D01*
X018476Y009307D01*
X018498Y009259D01*
X018518Y009210D01*
X018533Y009159D01*
X018545Y009107D01*
X018553Y009055D01*
X018557Y009002D01*
X018557Y008948D01*
X018553Y008895D01*
X018545Y008843D01*
X018533Y008791D01*
X018518Y008740D01*
X018498Y008691D01*
X018476Y008643D01*
X018449Y008596D01*
X018420Y008552D01*
X018387Y008511D01*
X018351Y008471D01*
X018312Y008435D01*
X018271Y008401D01*
X018228Y008371D01*
X018182Y008344D01*
X018134Y008320D01*
X018085Y008300D01*
X018035Y008283D01*
X017983Y008271D01*
X017931Y008262D01*
X017878Y008257D01*
X017825Y008256D01*
X017772Y008259D01*
X017719Y008266D01*
X017667Y008277D01*
X017616Y008291D01*
X017566Y008309D01*
X017518Y008331D01*
X017471Y008357D01*
X017426Y008386D01*
X017384Y008418D01*
X017344Y008453D01*
X017307Y008491D01*
X017272Y008531D01*
X017241Y008574D01*
X017213Y008619D01*
X017189Y008666D01*
X017168Y008715D01*
X017150Y008765D01*
X017137Y008817D01*
X017127Y008869D01*
X017121Y008922D01*
X017119Y008975D01*
X024619Y008975D02*
X024621Y009028D01*
X024627Y009081D01*
X024637Y009133D01*
X024650Y009185D01*
X024668Y009235D01*
X024689Y009284D01*
X024713Y009331D01*
X024741Y009376D01*
X024772Y009419D01*
X024807Y009459D01*
X024844Y009497D01*
X024884Y009532D01*
X024926Y009564D01*
X024971Y009593D01*
X025018Y009619D01*
X025066Y009641D01*
X025116Y009659D01*
X025167Y009673D01*
X025219Y009684D01*
X025272Y009691D01*
X025325Y009694D01*
X025378Y009693D01*
X025431Y009688D01*
X025483Y009679D01*
X025535Y009667D01*
X025585Y009650D01*
X025634Y009630D01*
X025682Y009606D01*
X025728Y009579D01*
X025771Y009549D01*
X025812Y009515D01*
X025851Y009479D01*
X025887Y009439D01*
X025920Y009398D01*
X025949Y009354D01*
X025976Y009307D01*
X025998Y009259D01*
X026018Y009210D01*
X026033Y009159D01*
X026045Y009107D01*
X026053Y009055D01*
X026057Y009002D01*
X026057Y008948D01*
X026053Y008895D01*
X026045Y008843D01*
X026033Y008791D01*
X026018Y008740D01*
X025998Y008691D01*
X025976Y008643D01*
X025949Y008596D01*
X025920Y008552D01*
X025887Y008511D01*
X025851Y008471D01*
X025812Y008435D01*
X025771Y008401D01*
X025728Y008371D01*
X025682Y008344D01*
X025634Y008320D01*
X025585Y008300D01*
X025535Y008283D01*
X025483Y008271D01*
X025431Y008262D01*
X025378Y008257D01*
X025325Y008256D01*
X025272Y008259D01*
X025219Y008266D01*
X025167Y008277D01*
X025116Y008291D01*
X025066Y008309D01*
X025018Y008331D01*
X024971Y008357D01*
X024926Y008386D01*
X024884Y008418D01*
X024844Y008453D01*
X024807Y008491D01*
X024772Y008531D01*
X024741Y008574D01*
X024713Y008619D01*
X024689Y008666D01*
X024668Y008715D01*
X024650Y008765D01*
X024637Y008817D01*
X024627Y008869D01*
X024621Y008922D01*
X024619Y008975D01*
X032119Y008975D02*
X032121Y009028D01*
X032127Y009081D01*
X032137Y009133D01*
X032150Y009185D01*
X032168Y009235D01*
X032189Y009284D01*
X032213Y009331D01*
X032241Y009376D01*
X032272Y009419D01*
X032307Y009459D01*
X032344Y009497D01*
X032384Y009532D01*
X032426Y009564D01*
X032471Y009593D01*
X032518Y009619D01*
X032566Y009641D01*
X032616Y009659D01*
X032667Y009673D01*
X032719Y009684D01*
X032772Y009691D01*
X032825Y009694D01*
X032878Y009693D01*
X032931Y009688D01*
X032983Y009679D01*
X033035Y009667D01*
X033085Y009650D01*
X033134Y009630D01*
X033182Y009606D01*
X033228Y009579D01*
X033271Y009549D01*
X033312Y009515D01*
X033351Y009479D01*
X033387Y009439D01*
X033420Y009398D01*
X033449Y009354D01*
X033476Y009307D01*
X033498Y009259D01*
X033518Y009210D01*
X033533Y009159D01*
X033545Y009107D01*
X033553Y009055D01*
X033557Y009002D01*
X033557Y008948D01*
X033553Y008895D01*
X033545Y008843D01*
X033533Y008791D01*
X033518Y008740D01*
X033498Y008691D01*
X033476Y008643D01*
X033449Y008596D01*
X033420Y008552D01*
X033387Y008511D01*
X033351Y008471D01*
X033312Y008435D01*
X033271Y008401D01*
X033228Y008371D01*
X033182Y008344D01*
X033134Y008320D01*
X033085Y008300D01*
X033035Y008283D01*
X032983Y008271D01*
X032931Y008262D01*
X032878Y008257D01*
X032825Y008256D01*
X032772Y008259D01*
X032719Y008266D01*
X032667Y008277D01*
X032616Y008291D01*
X032566Y008309D01*
X032518Y008331D01*
X032471Y008357D01*
X032426Y008386D01*
X032384Y008418D01*
X032344Y008453D01*
X032307Y008491D01*
X032272Y008531D01*
X032241Y008574D01*
X032213Y008619D01*
X032189Y008666D01*
X032168Y008715D01*
X032150Y008765D01*
X032137Y008817D01*
X032127Y008869D01*
X032121Y008922D01*
X032119Y008975D01*
X039619Y008975D02*
X039621Y009028D01*
X039627Y009081D01*
X039637Y009133D01*
X039650Y009185D01*
X039668Y009235D01*
X039689Y009284D01*
X039713Y009331D01*
X039741Y009376D01*
X039772Y009419D01*
X039807Y009459D01*
X039844Y009497D01*
X039884Y009532D01*
X039926Y009564D01*
X039971Y009593D01*
X040018Y009619D01*
X040066Y009641D01*
X040116Y009659D01*
X040167Y009673D01*
X040219Y009684D01*
X040272Y009691D01*
X040325Y009694D01*
X040378Y009693D01*
X040431Y009688D01*
X040483Y009679D01*
X040535Y009667D01*
X040585Y009650D01*
X040634Y009630D01*
X040682Y009606D01*
X040728Y009579D01*
X040771Y009549D01*
X040812Y009515D01*
X040851Y009479D01*
X040887Y009439D01*
X040920Y009398D01*
X040949Y009354D01*
X040976Y009307D01*
X040998Y009259D01*
X041018Y009210D01*
X041033Y009159D01*
X041045Y009107D01*
X041053Y009055D01*
X041057Y009002D01*
X041057Y008948D01*
X041053Y008895D01*
X041045Y008843D01*
X041033Y008791D01*
X041018Y008740D01*
X040998Y008691D01*
X040976Y008643D01*
X040949Y008596D01*
X040920Y008552D01*
X040887Y008511D01*
X040851Y008471D01*
X040812Y008435D01*
X040771Y008401D01*
X040728Y008371D01*
X040682Y008344D01*
X040634Y008320D01*
X040585Y008300D01*
X040535Y008283D01*
X040483Y008271D01*
X040431Y008262D01*
X040378Y008257D01*
X040325Y008256D01*
X040272Y008259D01*
X040219Y008266D01*
X040167Y008277D01*
X040116Y008291D01*
X040066Y008309D01*
X040018Y008331D01*
X039971Y008357D01*
X039926Y008386D01*
X039884Y008418D01*
X039844Y008453D01*
X039807Y008491D01*
X039772Y008531D01*
X039741Y008574D01*
X039713Y008619D01*
X039689Y008666D01*
X039668Y008715D01*
X039650Y008765D01*
X039637Y008817D01*
X039627Y008869D01*
X039621Y008922D01*
X039619Y008975D01*
X047119Y008975D02*
X047121Y009028D01*
X047127Y009081D01*
X047137Y009133D01*
X047150Y009185D01*
X047168Y009235D01*
X047189Y009284D01*
X047213Y009331D01*
X047241Y009376D01*
X047272Y009419D01*
X047307Y009459D01*
X047344Y009497D01*
X047384Y009532D01*
X047426Y009564D01*
X047471Y009593D01*
X047518Y009619D01*
X047566Y009641D01*
X047616Y009659D01*
X047667Y009673D01*
X047719Y009684D01*
X047772Y009691D01*
X047825Y009694D01*
X047878Y009693D01*
X047931Y009688D01*
X047983Y009679D01*
X048035Y009667D01*
X048085Y009650D01*
X048134Y009630D01*
X048182Y009606D01*
X048228Y009579D01*
X048271Y009549D01*
X048312Y009515D01*
X048351Y009479D01*
X048387Y009439D01*
X048420Y009398D01*
X048449Y009354D01*
X048476Y009307D01*
X048498Y009259D01*
X048518Y009210D01*
X048533Y009159D01*
X048545Y009107D01*
X048553Y009055D01*
X048557Y009002D01*
X048557Y008948D01*
X048553Y008895D01*
X048545Y008843D01*
X048533Y008791D01*
X048518Y008740D01*
X048498Y008691D01*
X048476Y008643D01*
X048449Y008596D01*
X048420Y008552D01*
X048387Y008511D01*
X048351Y008471D01*
X048312Y008435D01*
X048271Y008401D01*
X048228Y008371D01*
X048182Y008344D01*
X048134Y008320D01*
X048085Y008300D01*
X048035Y008283D01*
X047983Y008271D01*
X047931Y008262D01*
X047878Y008257D01*
X047825Y008256D01*
X047772Y008259D01*
X047719Y008266D01*
X047667Y008277D01*
X047616Y008291D01*
X047566Y008309D01*
X047518Y008331D01*
X047471Y008357D01*
X047426Y008386D01*
X047384Y008418D01*
X047344Y008453D01*
X047307Y008491D01*
X047272Y008531D01*
X047241Y008574D01*
X047213Y008619D01*
X047189Y008666D01*
X047168Y008715D01*
X047150Y008765D01*
X047137Y008817D01*
X047127Y008869D01*
X047121Y008922D01*
X047119Y008975D01*
X054619Y008975D02*
X054621Y009028D01*
X054627Y009081D01*
X054637Y009133D01*
X054650Y009185D01*
X054668Y009235D01*
X054689Y009284D01*
X054713Y009331D01*
X054741Y009376D01*
X054772Y009419D01*
X054807Y009459D01*
X054844Y009497D01*
X054884Y009532D01*
X054926Y009564D01*
X054971Y009593D01*
X055018Y009619D01*
X055066Y009641D01*
X055116Y009659D01*
X055167Y009673D01*
X055219Y009684D01*
X055272Y009691D01*
X055325Y009694D01*
X055378Y009693D01*
X055431Y009688D01*
X055483Y009679D01*
X055535Y009667D01*
X055585Y009650D01*
X055634Y009630D01*
X055682Y009606D01*
X055728Y009579D01*
X055771Y009549D01*
X055812Y009515D01*
X055851Y009479D01*
X055887Y009439D01*
X055920Y009398D01*
X055949Y009354D01*
X055976Y009307D01*
X055998Y009259D01*
X056018Y009210D01*
X056033Y009159D01*
X056045Y009107D01*
X056053Y009055D01*
X056057Y009002D01*
X056057Y008948D01*
X056053Y008895D01*
X056045Y008843D01*
X056033Y008791D01*
X056018Y008740D01*
X055998Y008691D01*
X055976Y008643D01*
X055949Y008596D01*
X055920Y008552D01*
X055887Y008511D01*
X055851Y008471D01*
X055812Y008435D01*
X055771Y008401D01*
X055728Y008371D01*
X055682Y008344D01*
X055634Y008320D01*
X055585Y008300D01*
X055535Y008283D01*
X055483Y008271D01*
X055431Y008262D01*
X055378Y008257D01*
X055325Y008256D01*
X055272Y008259D01*
X055219Y008266D01*
X055167Y008277D01*
X055116Y008291D01*
X055066Y008309D01*
X055018Y008331D01*
X054971Y008357D01*
X054926Y008386D01*
X054884Y008418D01*
X054844Y008453D01*
X054807Y008491D01*
X054772Y008531D01*
X054741Y008574D01*
X054713Y008619D01*
X054689Y008666D01*
X054668Y008715D01*
X054650Y008765D01*
X054637Y008817D01*
X054627Y008869D01*
X054621Y008922D01*
X054619Y008975D01*
X068649Y007875D02*
X068651Y007927D01*
X068657Y007979D01*
X068667Y008030D01*
X068680Y008080D01*
X068698Y008130D01*
X068719Y008177D01*
X068743Y008223D01*
X068772Y008267D01*
X068803Y008309D01*
X068837Y008348D01*
X068874Y008385D01*
X068914Y008418D01*
X068957Y008449D01*
X069001Y008476D01*
X069047Y008500D01*
X069096Y008520D01*
X069145Y008536D01*
X069196Y008549D01*
X069247Y008558D01*
X069299Y008563D01*
X069351Y008564D01*
X069403Y008561D01*
X069455Y008554D01*
X069506Y008543D01*
X069556Y008529D01*
X069605Y008510D01*
X069652Y008488D01*
X069697Y008463D01*
X069741Y008434D01*
X069782Y008402D01*
X069821Y008367D01*
X069856Y008329D01*
X069889Y008288D01*
X069919Y008246D01*
X069945Y008201D01*
X069968Y008154D01*
X069987Y008105D01*
X070003Y008055D01*
X070015Y008005D01*
X070023Y007953D01*
X070027Y007901D01*
X070027Y007849D01*
X070023Y007797D01*
X070015Y007745D01*
X070003Y007695D01*
X069987Y007645D01*
X069968Y007596D01*
X069945Y007549D01*
X069919Y007504D01*
X069889Y007462D01*
X069856Y007421D01*
X069821Y007383D01*
X069782Y007348D01*
X069741Y007316D01*
X069697Y007287D01*
X069652Y007262D01*
X069605Y007240D01*
X069556Y007221D01*
X069506Y007207D01*
X069455Y007196D01*
X069403Y007189D01*
X069351Y007186D01*
X069299Y007187D01*
X069247Y007192D01*
X069196Y007201D01*
X069145Y007214D01*
X069096Y007230D01*
X069047Y007250D01*
X069001Y007274D01*
X068957Y007301D01*
X068914Y007332D01*
X068874Y007365D01*
X068837Y007402D01*
X068803Y007441D01*
X068772Y007483D01*
X068743Y007527D01*
X068719Y007573D01*
X068698Y007620D01*
X068680Y007670D01*
X068667Y007720D01*
X068657Y007771D01*
X068651Y007823D01*
X068649Y007875D01*
X068649Y005875D02*
X068651Y005927D01*
X068657Y005979D01*
X068667Y006030D01*
X068680Y006080D01*
X068698Y006130D01*
X068719Y006177D01*
X068743Y006223D01*
X068772Y006267D01*
X068803Y006309D01*
X068837Y006348D01*
X068874Y006385D01*
X068914Y006418D01*
X068957Y006449D01*
X069001Y006476D01*
X069047Y006500D01*
X069096Y006520D01*
X069145Y006536D01*
X069196Y006549D01*
X069247Y006558D01*
X069299Y006563D01*
X069351Y006564D01*
X069403Y006561D01*
X069455Y006554D01*
X069506Y006543D01*
X069556Y006529D01*
X069605Y006510D01*
X069652Y006488D01*
X069697Y006463D01*
X069741Y006434D01*
X069782Y006402D01*
X069821Y006367D01*
X069856Y006329D01*
X069889Y006288D01*
X069919Y006246D01*
X069945Y006201D01*
X069968Y006154D01*
X069987Y006105D01*
X070003Y006055D01*
X070015Y006005D01*
X070023Y005953D01*
X070027Y005901D01*
X070027Y005849D01*
X070023Y005797D01*
X070015Y005745D01*
X070003Y005695D01*
X069987Y005645D01*
X069968Y005596D01*
X069945Y005549D01*
X069919Y005504D01*
X069889Y005462D01*
X069856Y005421D01*
X069821Y005383D01*
X069782Y005348D01*
X069741Y005316D01*
X069697Y005287D01*
X069652Y005262D01*
X069605Y005240D01*
X069556Y005221D01*
X069506Y005207D01*
X069455Y005196D01*
X069403Y005189D01*
X069351Y005186D01*
X069299Y005187D01*
X069247Y005192D01*
X069196Y005201D01*
X069145Y005214D01*
X069096Y005230D01*
X069047Y005250D01*
X069001Y005274D01*
X068957Y005301D01*
X068914Y005332D01*
X068874Y005365D01*
X068837Y005402D01*
X068803Y005441D01*
X068772Y005483D01*
X068743Y005527D01*
X068719Y005573D01*
X068698Y005620D01*
X068680Y005670D01*
X068667Y005720D01*
X068657Y005771D01*
X068651Y005823D01*
X068649Y005875D01*
X071915Y006883D02*
X071917Y006965D01*
X071923Y007047D01*
X071933Y007128D01*
X071947Y007209D01*
X071965Y007290D01*
X071987Y007369D01*
X072013Y007447D01*
X072042Y007523D01*
X072076Y007598D01*
X072113Y007672D01*
X072153Y007743D01*
X072197Y007812D01*
X072244Y007880D01*
X072295Y007944D01*
X072348Y008007D01*
X072405Y008066D01*
X072464Y008123D01*
X072527Y008176D01*
X072591Y008227D01*
X072659Y008274D01*
X072728Y008318D01*
X072799Y008358D01*
X072873Y008395D01*
X072948Y008429D01*
X073024Y008458D01*
X073102Y008484D01*
X073181Y008506D01*
X073262Y008524D01*
X073343Y008538D01*
X073424Y008548D01*
X073506Y008554D01*
X073588Y008556D01*
X073670Y008554D01*
X073752Y008548D01*
X073833Y008538D01*
X073914Y008524D01*
X073995Y008506D01*
X074074Y008484D01*
X074152Y008458D01*
X074228Y008429D01*
X074303Y008395D01*
X074377Y008358D01*
X074448Y008318D01*
X074517Y008274D01*
X074585Y008227D01*
X074649Y008176D01*
X074712Y008123D01*
X074771Y008066D01*
X074828Y008007D01*
X074881Y007944D01*
X074932Y007880D01*
X074979Y007812D01*
X075023Y007743D01*
X075063Y007672D01*
X075100Y007598D01*
X075134Y007523D01*
X075163Y007447D01*
X075189Y007369D01*
X075211Y007290D01*
X075229Y007209D01*
X075243Y007128D01*
X075253Y007047D01*
X075259Y006965D01*
X075261Y006883D01*
X075259Y006801D01*
X075253Y006719D01*
X075243Y006638D01*
X075229Y006557D01*
X075211Y006476D01*
X075189Y006397D01*
X075163Y006319D01*
X075134Y006243D01*
X075100Y006168D01*
X075063Y006094D01*
X075023Y006023D01*
X074979Y005954D01*
X074932Y005886D01*
X074881Y005822D01*
X074828Y005759D01*
X074771Y005700D01*
X074712Y005643D01*
X074649Y005590D01*
X074585Y005539D01*
X074517Y005492D01*
X074448Y005448D01*
X074377Y005408D01*
X074303Y005371D01*
X074228Y005337D01*
X074152Y005308D01*
X074074Y005282D01*
X073995Y005260D01*
X073914Y005242D01*
X073833Y005228D01*
X073752Y005218D01*
X073670Y005212D01*
X073588Y005210D01*
X073506Y005212D01*
X073424Y005218D01*
X073343Y005228D01*
X073262Y005242D01*
X073181Y005260D01*
X073102Y005282D01*
X073024Y005308D01*
X072948Y005337D01*
X072873Y005371D01*
X072799Y005408D01*
X072728Y005448D01*
X072659Y005492D01*
X072591Y005539D01*
X072527Y005590D01*
X072464Y005643D01*
X072405Y005700D01*
X072348Y005759D01*
X072295Y005822D01*
X072244Y005886D01*
X072197Y005954D01*
X072153Y006023D01*
X072113Y006094D01*
X072076Y006168D01*
X072042Y006243D01*
X072013Y006319D01*
X071987Y006397D01*
X071965Y006476D01*
X071947Y006557D01*
X071933Y006638D01*
X071923Y006719D01*
X071917Y006801D01*
X071915Y006883D01*
X075978Y031426D02*
X075980Y031484D01*
X075986Y031541D01*
X075996Y031598D01*
X076009Y031654D01*
X076027Y031709D01*
X076048Y031763D01*
X076073Y031815D01*
X076101Y031866D01*
X076133Y031914D01*
X076168Y031960D01*
X076206Y032003D01*
X076247Y032044D01*
X076290Y032082D01*
X076336Y032117D01*
X076384Y032149D01*
X076435Y032177D01*
X076487Y032202D01*
X076541Y032223D01*
X076596Y032241D01*
X076652Y032254D01*
X076709Y032264D01*
X076766Y032270D01*
X076824Y032272D01*
X076882Y032270D01*
X076939Y032264D01*
X076996Y032254D01*
X077052Y032241D01*
X077107Y032223D01*
X077161Y032202D01*
X077213Y032177D01*
X077264Y032149D01*
X077312Y032117D01*
X077358Y032082D01*
X077401Y032044D01*
X077442Y032003D01*
X077480Y031960D01*
X077515Y031914D01*
X077547Y031866D01*
X077575Y031815D01*
X077600Y031763D01*
X077621Y031709D01*
X077639Y031654D01*
X077652Y031598D01*
X077662Y031541D01*
X077668Y031484D01*
X077670Y031426D01*
X077668Y031368D01*
X077662Y031311D01*
X077652Y031254D01*
X077639Y031198D01*
X077621Y031143D01*
X077600Y031089D01*
X077575Y031037D01*
X077547Y030986D01*
X077515Y030938D01*
X077480Y030892D01*
X077442Y030849D01*
X077401Y030808D01*
X077358Y030770D01*
X077312Y030735D01*
X077264Y030703D01*
X077213Y030675D01*
X077161Y030650D01*
X077107Y030629D01*
X077052Y030611D01*
X076996Y030598D01*
X076939Y030588D01*
X076882Y030582D01*
X076824Y030580D01*
X076766Y030582D01*
X076709Y030588D01*
X076652Y030598D01*
X076596Y030611D01*
X076541Y030629D01*
X076487Y030650D01*
X076435Y030675D01*
X076384Y030703D01*
X076336Y030735D01*
X076290Y030770D01*
X076247Y030808D01*
X076206Y030849D01*
X076168Y030892D01*
X076133Y030938D01*
X076101Y030986D01*
X076073Y031037D01*
X076048Y031089D01*
X076027Y031143D01*
X076009Y031198D01*
X075996Y031254D01*
X075986Y031311D01*
X075980Y031368D01*
X075978Y031426D01*
X063380Y031426D02*
X063382Y031484D01*
X063388Y031541D01*
X063398Y031598D01*
X063411Y031654D01*
X063429Y031709D01*
X063450Y031763D01*
X063475Y031815D01*
X063503Y031866D01*
X063535Y031914D01*
X063570Y031960D01*
X063608Y032003D01*
X063649Y032044D01*
X063692Y032082D01*
X063738Y032117D01*
X063786Y032149D01*
X063837Y032177D01*
X063889Y032202D01*
X063943Y032223D01*
X063998Y032241D01*
X064054Y032254D01*
X064111Y032264D01*
X064168Y032270D01*
X064226Y032272D01*
X064284Y032270D01*
X064341Y032264D01*
X064398Y032254D01*
X064454Y032241D01*
X064509Y032223D01*
X064563Y032202D01*
X064615Y032177D01*
X064666Y032149D01*
X064714Y032117D01*
X064760Y032082D01*
X064803Y032044D01*
X064844Y032003D01*
X064882Y031960D01*
X064917Y031914D01*
X064949Y031866D01*
X064977Y031815D01*
X065002Y031763D01*
X065023Y031709D01*
X065041Y031654D01*
X065054Y031598D01*
X065064Y031541D01*
X065070Y031484D01*
X065072Y031426D01*
X065070Y031368D01*
X065064Y031311D01*
X065054Y031254D01*
X065041Y031198D01*
X065023Y031143D01*
X065002Y031089D01*
X064977Y031037D01*
X064949Y030986D01*
X064917Y030938D01*
X064882Y030892D01*
X064844Y030849D01*
X064803Y030808D01*
X064760Y030770D01*
X064714Y030735D01*
X064666Y030703D01*
X064615Y030675D01*
X064563Y030650D01*
X064509Y030629D01*
X064454Y030611D01*
X064398Y030598D01*
X064341Y030588D01*
X064284Y030582D01*
X064226Y030580D01*
X064168Y030582D01*
X064111Y030588D01*
X064054Y030598D01*
X063998Y030611D01*
X063943Y030629D01*
X063889Y030650D01*
X063837Y030675D01*
X063786Y030703D01*
X063738Y030735D01*
X063692Y030770D01*
X063649Y030808D01*
X063608Y030849D01*
X063570Y030892D01*
X063535Y030938D01*
X063503Y030986D01*
X063475Y031037D01*
X063450Y031089D01*
X063429Y031143D01*
X063411Y031198D01*
X063398Y031254D01*
X063388Y031311D01*
X063382Y031368D01*
X063380Y031426D01*
X063380Y044024D02*
X063382Y044082D01*
X063388Y044139D01*
X063398Y044196D01*
X063411Y044252D01*
X063429Y044307D01*
X063450Y044361D01*
X063475Y044413D01*
X063503Y044464D01*
X063535Y044512D01*
X063570Y044558D01*
X063608Y044601D01*
X063649Y044642D01*
X063692Y044680D01*
X063738Y044715D01*
X063786Y044747D01*
X063837Y044775D01*
X063889Y044800D01*
X063943Y044821D01*
X063998Y044839D01*
X064054Y044852D01*
X064111Y044862D01*
X064168Y044868D01*
X064226Y044870D01*
X064284Y044868D01*
X064341Y044862D01*
X064398Y044852D01*
X064454Y044839D01*
X064509Y044821D01*
X064563Y044800D01*
X064615Y044775D01*
X064666Y044747D01*
X064714Y044715D01*
X064760Y044680D01*
X064803Y044642D01*
X064844Y044601D01*
X064882Y044558D01*
X064917Y044512D01*
X064949Y044464D01*
X064977Y044413D01*
X065002Y044361D01*
X065023Y044307D01*
X065041Y044252D01*
X065054Y044196D01*
X065064Y044139D01*
X065070Y044082D01*
X065072Y044024D01*
X065070Y043966D01*
X065064Y043909D01*
X065054Y043852D01*
X065041Y043796D01*
X065023Y043741D01*
X065002Y043687D01*
X064977Y043635D01*
X064949Y043584D01*
X064917Y043536D01*
X064882Y043490D01*
X064844Y043447D01*
X064803Y043406D01*
X064760Y043368D01*
X064714Y043333D01*
X064666Y043301D01*
X064615Y043273D01*
X064563Y043248D01*
X064509Y043227D01*
X064454Y043209D01*
X064398Y043196D01*
X064341Y043186D01*
X064284Y043180D01*
X064226Y043178D01*
X064168Y043180D01*
X064111Y043186D01*
X064054Y043196D01*
X063998Y043209D01*
X063943Y043227D01*
X063889Y043248D01*
X063837Y043273D01*
X063786Y043301D01*
X063738Y043333D01*
X063692Y043368D01*
X063649Y043406D01*
X063608Y043447D01*
X063570Y043490D01*
X063535Y043536D01*
X063503Y043584D01*
X063475Y043635D01*
X063450Y043687D01*
X063429Y043741D01*
X063411Y043796D01*
X063398Y043852D01*
X063388Y043909D01*
X063382Y043966D01*
X063380Y044024D01*
X075978Y044024D02*
X075980Y044082D01*
X075986Y044139D01*
X075996Y044196D01*
X076009Y044252D01*
X076027Y044307D01*
X076048Y044361D01*
X076073Y044413D01*
X076101Y044464D01*
X076133Y044512D01*
X076168Y044558D01*
X076206Y044601D01*
X076247Y044642D01*
X076290Y044680D01*
X076336Y044715D01*
X076384Y044747D01*
X076435Y044775D01*
X076487Y044800D01*
X076541Y044821D01*
X076596Y044839D01*
X076652Y044852D01*
X076709Y044862D01*
X076766Y044868D01*
X076824Y044870D01*
X076882Y044868D01*
X076939Y044862D01*
X076996Y044852D01*
X077052Y044839D01*
X077107Y044821D01*
X077161Y044800D01*
X077213Y044775D01*
X077264Y044747D01*
X077312Y044715D01*
X077358Y044680D01*
X077401Y044642D01*
X077442Y044601D01*
X077480Y044558D01*
X077515Y044512D01*
X077547Y044464D01*
X077575Y044413D01*
X077600Y044361D01*
X077621Y044307D01*
X077639Y044252D01*
X077652Y044196D01*
X077662Y044139D01*
X077668Y044082D01*
X077670Y044024D01*
X077668Y043966D01*
X077662Y043909D01*
X077652Y043852D01*
X077639Y043796D01*
X077621Y043741D01*
X077600Y043687D01*
X077575Y043635D01*
X077547Y043584D01*
X077515Y043536D01*
X077480Y043490D01*
X077442Y043447D01*
X077401Y043406D01*
X077358Y043368D01*
X077312Y043333D01*
X077264Y043301D01*
X077213Y043273D01*
X077161Y043248D01*
X077107Y043227D01*
X077052Y043209D01*
X076996Y043196D01*
X076939Y043186D01*
X076882Y043180D01*
X076824Y043178D01*
X076766Y043180D01*
X076709Y043186D01*
X076652Y043196D01*
X076596Y043209D01*
X076541Y043227D01*
X076487Y043248D01*
X076435Y043273D01*
X076384Y043301D01*
X076336Y043333D01*
X076290Y043368D01*
X076247Y043406D01*
X076206Y043447D01*
X076168Y043490D01*
X076133Y043536D01*
X076101Y043584D01*
X076073Y043635D01*
X076048Y043687D01*
X076027Y043741D01*
X076009Y043796D01*
X075996Y043852D01*
X075986Y043909D01*
X075980Y043966D01*
X075978Y044024D01*
D11*
X075187Y043568D02*
X072494Y040875D01*
X073675Y039694D02*
X076368Y042387D01*
X076585Y042101D01*
X076789Y041804D01*
X076978Y041498D01*
X077152Y041184D01*
X077310Y040861D01*
X077453Y040531D01*
X077580Y040195D01*
X077691Y039853D01*
X077785Y039506D01*
X077862Y039154D01*
X077922Y038800D01*
X077965Y038443D01*
X077991Y038084D01*
X078000Y037725D01*
X077991Y037366D01*
X077965Y037007D01*
X077922Y036650D01*
X077862Y036296D01*
X077785Y035944D01*
X077691Y035597D01*
X077580Y035255D01*
X077453Y034919D01*
X077310Y034589D01*
X077152Y034266D01*
X076978Y033952D01*
X076789Y033646D01*
X076585Y033349D01*
X076368Y033063D01*
X073675Y035756D01*
X072494Y034575D02*
X075187Y031882D01*
X068556Y034575D02*
X065863Y031882D01*
X064682Y033063D02*
X067375Y035756D01*
X065863Y043568D02*
X066149Y043785D01*
X066446Y043989D01*
X066752Y044178D01*
X067066Y044352D01*
X067389Y044510D01*
X067719Y044653D01*
X068055Y044780D01*
X068397Y044891D01*
X068744Y044985D01*
X069096Y045062D01*
X069450Y045122D01*
X069807Y045165D01*
X070166Y045191D01*
X070525Y045200D01*
X070884Y045191D01*
X071243Y045165D01*
X071600Y045122D01*
X071954Y045062D01*
X072306Y044985D01*
X072653Y044891D01*
X072995Y044780D01*
X073331Y044653D01*
X073661Y044510D01*
X073984Y044352D01*
X074298Y044178D01*
X074604Y043989D01*
X074901Y043785D01*
X075187Y043568D01*
X068556Y040875D02*
X065863Y043568D01*
X064682Y042387D02*
X067375Y039694D01*
X064682Y042387D02*
X064465Y042101D01*
X064261Y041804D01*
X064072Y041498D01*
X063898Y041184D01*
X063740Y040861D01*
X063597Y040531D01*
X063470Y040195D01*
X063359Y039853D01*
X063265Y039506D01*
X063188Y039154D01*
X063128Y038800D01*
X063085Y038443D01*
X063059Y038084D01*
X063050Y037725D01*
X063059Y037366D01*
X063085Y037007D01*
X063128Y036650D01*
X063188Y036296D01*
X063265Y035944D01*
X063359Y035597D01*
X063470Y035255D01*
X063597Y034919D01*
X063740Y034589D01*
X063898Y034266D01*
X064072Y033952D01*
X064261Y033646D01*
X064465Y033349D01*
X064682Y033063D01*
X073674Y035757D02*
X073766Y035912D01*
X073851Y036071D01*
X073927Y036235D01*
X073995Y036402D01*
X074055Y036572D01*
X074107Y036745D01*
X074151Y036920D01*
X074185Y037097D01*
X074212Y037275D01*
X074229Y037455D01*
X074238Y037635D01*
X074238Y037815D01*
X074229Y037995D01*
X074212Y038175D01*
X074185Y038353D01*
X074151Y038530D01*
X074107Y038705D01*
X074055Y038878D01*
X073995Y039048D01*
X073927Y039215D01*
X073851Y039379D01*
X073766Y039538D01*
X073674Y039693D01*
X075187Y031882D02*
X074901Y031665D01*
X074604Y031461D01*
X074298Y031272D01*
X073984Y031098D01*
X073661Y030940D01*
X073331Y030797D01*
X072995Y030670D01*
X072653Y030559D01*
X072306Y030465D01*
X071954Y030388D01*
X071600Y030328D01*
X071243Y030285D01*
X070884Y030259D01*
X070525Y030250D01*
X070166Y030259D01*
X069807Y030285D01*
X069450Y030328D01*
X069096Y030388D01*
X068744Y030465D01*
X068397Y030559D01*
X068055Y030670D01*
X067719Y030797D01*
X067389Y030940D01*
X067066Y031098D01*
X066752Y031272D01*
X066446Y031461D01*
X066149Y031665D01*
X065863Y031882D01*
X068557Y040874D02*
X068712Y040966D01*
X068871Y041051D01*
X069035Y041127D01*
X069202Y041195D01*
X069372Y041255D01*
X069545Y041307D01*
X069720Y041351D01*
X069897Y041385D01*
X070075Y041412D01*
X070255Y041429D01*
X070435Y041438D01*
X070615Y041438D01*
X070795Y041429D01*
X070975Y041412D01*
X071153Y041385D01*
X071330Y041351D01*
X071505Y041307D01*
X071678Y041255D01*
X071848Y041195D01*
X072015Y041127D01*
X072179Y041051D01*
X072338Y040966D01*
X072493Y040874D01*
X067376Y039693D02*
X067284Y039538D01*
X067199Y039379D01*
X067123Y039215D01*
X067055Y039048D01*
X066995Y038878D01*
X066943Y038705D01*
X066899Y038530D01*
X066865Y038353D01*
X066838Y038175D01*
X066821Y037995D01*
X066812Y037815D01*
X066812Y037635D01*
X066821Y037455D01*
X066838Y037275D01*
X066865Y037097D01*
X066899Y036920D01*
X066943Y036745D01*
X066995Y036572D01*
X067055Y036402D01*
X067123Y036235D01*
X067199Y036071D01*
X067284Y035912D01*
X067376Y035757D01*
X068557Y034576D02*
X068712Y034484D01*
X068871Y034399D01*
X069035Y034323D01*
X069202Y034255D01*
X069372Y034195D01*
X069545Y034143D01*
X069720Y034099D01*
X069897Y034065D01*
X070075Y034038D01*
X070255Y034021D01*
X070435Y034012D01*
X070615Y034012D01*
X070795Y034021D01*
X070975Y034038D01*
X071153Y034065D01*
X071330Y034099D01*
X071505Y034143D01*
X071678Y034195D01*
X071848Y034255D01*
X072015Y034323D01*
X072179Y034399D01*
X072338Y034484D01*
X072493Y034576D01*
M02*
