%
M48
M72
T01C0.0236
T02C0.1575
%
T01
X3413Y600
X3413Y5600
X3413Y6600
X3413Y11600
X3413Y12600
X3413Y17600
X3413Y18600
X3413Y23600
X3413Y24600
X3413Y29600
X3413Y30600
X3413Y35600
X3413Y36600
X3413Y41600
X3413Y42600
X3413Y47600
X3413Y48600
X3413Y53600
X3413Y54600
X3413Y59600
T02
X1913Y3100
X1913Y9100
X1913Y15100
X1913Y21100
X1913Y27100
X1913Y33100
X1913Y39100
X1913Y45100
X1913Y51100
X1913Y57100
X4913Y57100
X4913Y51100
X4913Y45100
X4913Y39100
X4913Y33100
X4913Y27100
X4913Y21100
X4913Y15100
X4913Y9100
X4913Y3100
M30
