G75*
G70*
%OFA0B0*%
%FSLAX24Y24*%
%IPPOS*%
%LPD*%
%AMOC8*
5,1,8,0,0,1.08239X$1,22.5*
%
%ADD10C,0.0000*%
D10*
X000688Y000100D02*
X000100Y001463D01*
X000100Y004738D01*
X000688Y006100D01*
X000100Y007463D01*
X000100Y010738D01*
X000688Y012100D01*
X000100Y013463D01*
X000100Y016738D01*
X000688Y018100D01*
X000100Y019463D01*
X000100Y022738D01*
X000688Y024100D01*
X000100Y025463D01*
X000100Y028738D01*
X000688Y030100D01*
X000100Y031463D01*
X000100Y034738D01*
X000688Y036100D01*
X000100Y037463D01*
X000100Y040738D01*
X000688Y042100D01*
X000100Y043463D01*
X000100Y046738D01*
X000688Y048100D01*
X000100Y049463D01*
X000100Y052738D01*
X000688Y054100D01*
X000100Y055463D01*
X000100Y058738D01*
X000688Y060100D01*
X006138Y060100D01*
X006725Y058738D01*
X006725Y055463D01*
X006138Y054100D01*
X006725Y052738D01*
X006725Y049463D01*
X006138Y048100D01*
X006725Y046738D01*
X006725Y043463D01*
X006138Y042100D01*
X006725Y040738D01*
X006725Y037463D01*
X006138Y036100D01*
X006725Y034738D01*
X006725Y031463D01*
X006138Y030100D01*
X006725Y028738D01*
X006725Y025463D01*
X006138Y024100D01*
X006725Y022738D01*
X006725Y019463D01*
X006138Y018100D01*
X006725Y016738D01*
X006725Y013463D01*
X006138Y012100D01*
X006725Y010738D01*
X006725Y007463D01*
X006138Y006100D01*
X006725Y004738D01*
X006725Y001463D01*
X006138Y000100D01*
X000688Y000100D01*
M02*
