G75*
G70*
%OFA0B0*%
%FSLAX24Y24*%
%IPPOS*%
%LPD*%
%AMOC8*
5,1,8,0,0,1.08239X$1,22.5*
%
%ADD10C,0.0060*%
%ADD11C,0.0050*%
D10*
X007911Y016840D02*
X008209Y017930D01*
X008425Y017710D01*
X009091Y017710D01*
X009019Y017460D01*
X008349Y017460D01*
X008419Y017700D01*
X008209Y017930D01*
X009234Y017930D01*
X009255Y017927D01*
X009274Y017920D01*
X009302Y017899D01*
X009316Y017884D01*
X009328Y017867D01*
X009334Y017855D01*
X009348Y017819D01*
X009351Y017811D01*
X009358Y017782D01*
X009360Y017767D01*
X009360Y017733D01*
X009359Y017722D01*
X009351Y017675D01*
X009348Y017660D01*
X009294Y017479D01*
X009283Y017452D01*
X009261Y017414D01*
X009241Y017388D01*
X009193Y017340D01*
X009129Y017292D01*
X009092Y017272D01*
X009044Y017256D01*
X009015Y017252D01*
X008995Y017250D01*
X008291Y017250D01*
X008171Y016840D01*
X007911Y016840D01*
X007920Y016871D02*
X008180Y016871D01*
X008197Y016930D02*
X007936Y016930D01*
X007952Y016988D02*
X008215Y016988D01*
X008232Y017047D02*
X007968Y017047D01*
X007984Y017105D02*
X008249Y017105D01*
X008266Y017164D02*
X008000Y017164D01*
X008016Y017222D02*
X008283Y017222D01*
X008031Y017281D02*
X009108Y017281D01*
X009191Y017339D02*
X008047Y017339D01*
X008063Y017398D02*
X009248Y017398D01*
X009284Y017456D02*
X008079Y017456D01*
X008095Y017515D02*
X008365Y017515D01*
X008382Y017573D02*
X008111Y017573D01*
X008127Y017632D02*
X008399Y017632D01*
X008416Y017690D02*
X008143Y017690D01*
X008159Y017749D02*
X008374Y017749D01*
X008387Y017749D02*
X009360Y017749D01*
X009352Y017807D02*
X008330Y017807D01*
X008321Y017807D02*
X008175Y017807D01*
X008191Y017866D02*
X008268Y017866D01*
X008272Y017866D02*
X009328Y017866D01*
X009262Y017924D02*
X008215Y017924D01*
X008214Y017924D02*
X008207Y017924D01*
X009085Y017690D02*
X009354Y017690D01*
X009339Y017632D02*
X009069Y017632D01*
X009052Y017573D02*
X009322Y017573D01*
X009305Y017515D02*
X009035Y017515D01*
X009505Y017398D02*
X009777Y017398D01*
X009793Y017456D02*
X009521Y017456D01*
X009538Y017515D02*
X009809Y017515D01*
X009825Y017573D02*
X009554Y017573D01*
X009570Y017632D02*
X009840Y017632D01*
X009856Y017690D02*
X009586Y017690D01*
X009595Y017713D01*
X009624Y017772D01*
X009639Y017794D01*
X009671Y017835D01*
X009719Y017882D01*
X009752Y017906D01*
X009769Y017915D01*
X009801Y017925D01*
X009836Y017930D01*
X009859Y017700D01*
X009689Y017070D01*
X010359Y017070D01*
X010531Y017710D01*
X009868Y017710D01*
X009838Y017930D01*
X010675Y017930D01*
X010697Y017926D01*
X010705Y017923D01*
X010721Y017915D01*
X010742Y017899D01*
X010758Y017883D01*
X010773Y017859D01*
X010789Y017821D01*
X010797Y017789D01*
X010800Y017760D01*
X010800Y017734D01*
X010798Y017713D01*
X010791Y017671D01*
X010788Y017659D01*
X010622Y017063D01*
X010616Y017048D01*
X010589Y017003D01*
X010570Y016977D01*
X010526Y016934D01*
X010515Y016924D01*
X010460Y016883D01*
X010422Y016864D01*
X010359Y016844D01*
X010330Y016840D01*
X009541Y016840D01*
X009524Y016842D01*
X009508Y016847D01*
X009487Y016857D01*
X009468Y016872D01*
X009453Y016889D01*
X009434Y016920D01*
X009427Y016938D01*
X009422Y016959D01*
X009420Y016973D01*
X009420Y017056D01*
X009422Y017077D01*
X009430Y017125D01*
X009586Y017690D01*
X009613Y017749D02*
X009854Y017749D01*
X009862Y017749D02*
X010800Y017749D01*
X010792Y017807D02*
X009854Y017807D01*
X009848Y017807D02*
X009649Y017807D01*
X009671Y017835D02*
X009671Y017835D01*
X009702Y017866D02*
X009843Y017866D01*
X009846Y017866D02*
X010768Y017866D01*
X010703Y017924D02*
X009838Y017924D01*
X009837Y017924D02*
X009798Y017924D01*
X009761Y017339D02*
X009489Y017339D01*
X009473Y017281D02*
X009746Y017281D01*
X009730Y017222D02*
X009457Y017222D01*
X009441Y017164D02*
X009714Y017164D01*
X009698Y017105D02*
X009427Y017105D01*
X009420Y017047D02*
X010615Y017047D01*
X010634Y017105D02*
X010368Y017105D01*
X010384Y017164D02*
X010650Y017164D01*
X010667Y017222D02*
X010400Y017222D01*
X010416Y017281D02*
X010683Y017281D01*
X010699Y017339D02*
X010431Y017339D01*
X010447Y017398D02*
X010715Y017398D01*
X010732Y017456D02*
X010463Y017456D01*
X010479Y017515D02*
X010748Y017515D01*
X010764Y017573D02*
X010494Y017573D01*
X010510Y017632D02*
X010781Y017632D01*
X010794Y017690D02*
X010526Y017690D01*
X010991Y017573D02*
X011249Y017573D01*
X011233Y017515D02*
X010975Y017515D01*
X010959Y017456D02*
X011216Y017456D01*
X011200Y017398D02*
X010943Y017398D01*
X010927Y017339D02*
X011184Y017339D01*
X011168Y017281D02*
X010911Y017281D01*
X010896Y017222D02*
X011151Y017222D01*
X011135Y017164D02*
X010880Y017164D01*
X010864Y017105D02*
X011119Y017105D01*
X011109Y017070D02*
X011479Y017070D01*
X011719Y017930D01*
X011979Y017930D01*
X011739Y017070D01*
X012109Y017070D01*
X012349Y017930D01*
X012609Y017930D01*
X012373Y017068D01*
X012364Y017045D01*
X012337Y016998D01*
X012320Y016977D01*
X012275Y016932D01*
X012265Y016924D01*
X012208Y016881D01*
X012166Y016859D01*
X012128Y016847D01*
X012089Y016841D01*
X012071Y016840D01*
X010791Y016840D01*
X011089Y017930D01*
X011349Y017930D01*
X011109Y017070D01*
X010848Y017047D02*
X012364Y017047D01*
X012383Y017105D02*
X012119Y017105D01*
X012135Y017164D02*
X012399Y017164D01*
X012415Y017222D02*
X012151Y017222D01*
X012168Y017281D02*
X012431Y017281D01*
X012447Y017339D02*
X012184Y017339D01*
X012200Y017398D02*
X012463Y017398D01*
X012479Y017456D02*
X012216Y017456D01*
X012233Y017515D02*
X012495Y017515D01*
X012511Y017573D02*
X012249Y017573D01*
X012265Y017632D02*
X012527Y017632D01*
X012543Y017690D02*
X012282Y017690D01*
X012298Y017749D02*
X012559Y017749D01*
X012575Y017807D02*
X012314Y017807D01*
X012331Y017866D02*
X012591Y017866D01*
X012607Y017924D02*
X012347Y017924D01*
X011977Y017924D02*
X011717Y017924D01*
X011701Y017866D02*
X011961Y017866D01*
X011944Y017807D02*
X011684Y017807D01*
X011668Y017749D02*
X011928Y017749D01*
X011912Y017690D02*
X011652Y017690D01*
X011635Y017632D02*
X011895Y017632D01*
X011879Y017573D02*
X011619Y017573D01*
X011603Y017515D02*
X011863Y017515D01*
X011846Y017456D02*
X011586Y017456D01*
X011570Y017398D02*
X011830Y017398D01*
X011814Y017339D02*
X011554Y017339D01*
X011538Y017281D02*
X011798Y017281D01*
X011781Y017222D02*
X011521Y017222D01*
X011505Y017164D02*
X011765Y017164D01*
X011749Y017105D02*
X011489Y017105D01*
X011265Y017632D02*
X011007Y017632D01*
X011023Y017690D02*
X011282Y017690D01*
X011298Y017749D02*
X011039Y017749D01*
X011055Y017807D02*
X011314Y017807D01*
X011331Y017866D02*
X011071Y017866D01*
X011087Y017924D02*
X011347Y017924D01*
X010832Y016988D02*
X012329Y016988D01*
X012272Y016930D02*
X010816Y016930D01*
X010800Y016871D02*
X012189Y016871D01*
X012612Y016959D02*
X012611Y016966D01*
X012610Y016982D01*
X012610Y017049D01*
X012610Y017060D01*
X012612Y017075D01*
X012619Y017118D01*
X012622Y017130D01*
X012777Y017692D01*
X012785Y017714D01*
X012813Y017770D01*
X012827Y017793D01*
X012855Y017828D01*
X012905Y017879D01*
X012938Y017904D01*
X012956Y017913D01*
X012995Y017927D01*
X013005Y017928D01*
X013026Y017930D01*
X014049Y017930D01*
X013991Y017710D01*
X013051Y017710D01*
X012988Y017490D01*
X013859Y017490D01*
X013801Y017280D01*
X012931Y017280D01*
X012878Y017070D01*
X013819Y017070D01*
X013751Y016840D01*
X012738Y016840D01*
X012713Y016843D01*
X012699Y016847D01*
X012676Y016858D01*
X012658Y016872D01*
X012643Y016889D01*
X012625Y016918D01*
X012618Y016935D01*
X012612Y016959D01*
X012610Y016988D02*
X013795Y016988D01*
X013812Y017047D02*
X012610Y017047D01*
X012617Y017105D02*
X012886Y017105D01*
X012901Y017164D02*
X012631Y017164D01*
X012647Y017222D02*
X012916Y017222D01*
X012663Y017281D02*
X013801Y017281D01*
X013817Y017339D02*
X012679Y017339D01*
X012696Y017398D02*
X013833Y017398D01*
X013849Y017456D02*
X012712Y017456D01*
X012728Y017515D02*
X012995Y017515D01*
X013012Y017573D02*
X012744Y017573D01*
X012760Y017632D02*
X013029Y017632D01*
X013045Y017690D02*
X012776Y017690D01*
X012802Y017749D02*
X014001Y017749D01*
X014017Y017807D02*
X012839Y017807D01*
X012892Y017866D02*
X014032Y017866D01*
X014047Y017924D02*
X012988Y017924D01*
X014181Y017573D02*
X014452Y017573D01*
X014469Y017632D02*
X014197Y017632D01*
X014213Y017690D02*
X014486Y017690D01*
X014490Y017705D02*
X014419Y017460D01*
X015089Y017460D01*
X015161Y017710D01*
X014495Y017710D01*
X014279Y017930D01*
X014490Y017705D01*
X014457Y017749D02*
X015430Y017749D01*
X015430Y017761D02*
X015430Y017732D01*
X015429Y017715D01*
X015421Y017672D01*
X015418Y017661D01*
X015363Y017477D01*
X015354Y017456D01*
X014149Y017456D01*
X014133Y017398D02*
X015318Y017398D01*
X015312Y017389D02*
X015268Y017346D01*
X015256Y017335D01*
X015196Y017289D01*
X015166Y017273D01*
X015110Y017255D01*
X015079Y017250D01*
X015028Y017250D01*
X015159Y016840D01*
X014889Y016840D01*
X014769Y017250D01*
X014361Y017250D01*
X014251Y016840D01*
X013981Y016840D01*
X014279Y017930D01*
X015304Y017930D01*
X015323Y017927D01*
X015334Y017923D01*
X015352Y017914D01*
X015373Y017897D01*
X015387Y017883D01*
X015394Y017873D01*
X015404Y017854D01*
X015420Y017814D01*
X015427Y017786D01*
X015430Y017761D01*
X015422Y017807D02*
X014400Y017807D01*
X014394Y017807D02*
X014245Y017807D01*
X014229Y017749D02*
X014449Y017749D01*
X014342Y017866D02*
X015398Y017866D01*
X015332Y017924D02*
X014285Y017924D01*
X014284Y017924D02*
X014277Y017924D01*
X014261Y017866D02*
X014339Y017866D01*
X014435Y017515D02*
X014165Y017515D01*
X014117Y017339D02*
X015261Y017339D01*
X015312Y017389D02*
X015328Y017410D01*
X015354Y017456D01*
X015374Y017515D02*
X015105Y017515D01*
X015122Y017573D02*
X015392Y017573D01*
X015410Y017632D02*
X015139Y017632D01*
X015155Y017690D02*
X015424Y017690D01*
X015180Y017281D02*
X014101Y017281D01*
X014086Y017222D02*
X014354Y017222D01*
X014338Y017164D02*
X014070Y017164D01*
X014054Y017105D02*
X014322Y017105D01*
X014307Y017047D02*
X014038Y017047D01*
X014022Y016988D02*
X014291Y016988D01*
X014275Y016930D02*
X014006Y016930D01*
X013990Y016871D02*
X014260Y016871D01*
X013778Y016930D02*
X012620Y016930D01*
X012659Y016871D02*
X013760Y016871D01*
X014794Y017164D02*
X015055Y017164D01*
X015036Y017222D02*
X014777Y017222D01*
X014811Y017105D02*
X015074Y017105D01*
X015093Y017047D02*
X014828Y017047D01*
X014845Y016988D02*
X015111Y016988D01*
X015130Y016930D02*
X014863Y016930D01*
X014880Y016871D02*
X015149Y016871D01*
X010578Y016988D02*
X009420Y016988D01*
X009430Y016930D02*
X010521Y016930D01*
X010436Y016871D02*
X009469Y016871D01*
X041068Y042130D02*
X042733Y042130D01*
X044324Y043585D01*
X045138Y042130D01*
X046818Y042130D01*
X045438Y044604D01*
X045865Y044995D01*
X043535Y044995D01*
X043760Y044593D01*
X041068Y042130D01*
X041082Y042143D02*
X042747Y042143D01*
X042811Y042202D02*
X041146Y042202D01*
X041210Y042260D02*
X042875Y042260D01*
X042939Y042319D02*
X041274Y042319D01*
X041338Y042377D02*
X043003Y042377D01*
X043067Y042436D02*
X041402Y042436D01*
X041466Y042494D02*
X043131Y042494D01*
X043195Y042553D02*
X041530Y042553D01*
X041594Y042611D02*
X043259Y042611D01*
X043323Y042670D02*
X041658Y042670D01*
X041722Y042728D02*
X043387Y042728D01*
X043451Y042787D02*
X041786Y042787D01*
X041849Y042845D02*
X043515Y042845D01*
X043579Y042904D02*
X041913Y042904D01*
X041977Y042962D02*
X043643Y042962D01*
X043707Y043021D02*
X042041Y043021D01*
X042105Y043079D02*
X043771Y043079D01*
X043835Y043138D02*
X042169Y043138D01*
X042233Y043196D02*
X043899Y043196D01*
X043962Y043255D02*
X042297Y043255D01*
X042361Y043313D02*
X044026Y043313D01*
X044090Y043372D02*
X042425Y043372D01*
X042489Y043430D02*
X044154Y043430D01*
X044218Y043489D02*
X042553Y043489D01*
X042617Y043547D02*
X044282Y043547D01*
X044345Y043547D02*
X046027Y043547D01*
X046060Y043489D02*
X044378Y043489D01*
X044410Y043430D02*
X046092Y043430D01*
X046125Y043372D02*
X044443Y043372D01*
X044476Y043313D02*
X046157Y043313D01*
X046190Y043255D02*
X044508Y043255D01*
X044541Y043196D02*
X046223Y043196D01*
X046255Y043138D02*
X044574Y043138D01*
X044607Y043079D02*
X046288Y043079D01*
X046321Y043021D02*
X044639Y043021D01*
X044672Y042962D02*
X046353Y042962D01*
X046386Y042904D02*
X044705Y042904D01*
X044738Y042845D02*
X046419Y042845D01*
X046451Y042787D02*
X044770Y042787D01*
X044803Y042728D02*
X046484Y042728D01*
X046516Y042670D02*
X044836Y042670D01*
X044868Y042611D02*
X046549Y042611D01*
X046582Y042553D02*
X044901Y042553D01*
X044934Y042494D02*
X046614Y042494D01*
X046647Y042436D02*
X044967Y042436D01*
X044999Y042377D02*
X046680Y042377D01*
X046712Y042319D02*
X045032Y042319D01*
X045065Y042260D02*
X046745Y042260D01*
X046778Y042202D02*
X045097Y042202D01*
X045130Y042143D02*
X046810Y042143D01*
X047433Y042130D02*
X048881Y042130D01*
X049645Y044995D01*
X048196Y044995D01*
X047433Y042130D01*
X047436Y042143D02*
X048885Y042143D01*
X048900Y042202D02*
X047452Y042202D01*
X047467Y042260D02*
X048916Y042260D01*
X048932Y042319D02*
X047483Y042319D01*
X047498Y042377D02*
X048947Y042377D01*
X048963Y042436D02*
X047514Y042436D01*
X047530Y042494D02*
X048978Y042494D01*
X048994Y042553D02*
X047545Y042553D01*
X047561Y042611D02*
X049010Y042611D01*
X049025Y042670D02*
X047576Y042670D01*
X047592Y042728D02*
X049041Y042728D01*
X049056Y042787D02*
X047608Y042787D01*
X047623Y042845D02*
X049072Y042845D01*
X049087Y042904D02*
X047639Y042904D01*
X047654Y042962D02*
X049103Y042962D01*
X049119Y043021D02*
X047670Y043021D01*
X047686Y043079D02*
X049134Y043079D01*
X049150Y043138D02*
X047701Y043138D01*
X047717Y043196D02*
X049165Y043196D01*
X049181Y043255D02*
X047732Y043255D01*
X047748Y043313D02*
X049197Y043313D01*
X049212Y043372D02*
X047764Y043372D01*
X047779Y043430D02*
X049228Y043430D01*
X049243Y043489D02*
X047795Y043489D01*
X047810Y043547D02*
X049259Y043547D01*
X049275Y043606D02*
X047826Y043606D01*
X047841Y043664D02*
X049290Y043664D01*
X049306Y043723D02*
X047857Y043723D01*
X047873Y043781D02*
X049321Y043781D01*
X049337Y043840D02*
X047888Y043840D01*
X047904Y043898D02*
X049353Y043898D01*
X049368Y043957D02*
X047919Y043957D01*
X047935Y044015D02*
X049384Y044015D01*
X049399Y044074D02*
X047951Y044074D01*
X047966Y044132D02*
X049415Y044132D01*
X049431Y044191D02*
X047982Y044191D01*
X047997Y044249D02*
X049446Y044249D01*
X049462Y044308D02*
X048013Y044308D01*
X048029Y044366D02*
X049477Y044366D01*
X049493Y044425D02*
X048044Y044425D01*
X048060Y044483D02*
X049509Y044483D01*
X049524Y044542D02*
X048075Y044542D01*
X048091Y044600D02*
X049540Y044600D01*
X049555Y044659D02*
X048107Y044659D01*
X048122Y044717D02*
X049571Y044717D01*
X049587Y044776D02*
X048138Y044776D01*
X048153Y044834D02*
X049602Y044834D01*
X049618Y044893D02*
X048169Y044893D01*
X048185Y044951D02*
X049633Y044951D01*
X049680Y045125D02*
X048231Y045125D01*
X048294Y045360D01*
X049743Y045360D01*
X049680Y045125D01*
X049680Y045127D02*
X048232Y045127D01*
X048247Y045185D02*
X049696Y045185D01*
X049712Y045244D02*
X048263Y045244D01*
X048278Y045302D02*
X049727Y045302D01*
X049783Y045510D02*
X048333Y045510D01*
X048384Y045700D01*
X049834Y045700D01*
X049783Y045510D01*
X049790Y045536D02*
X048340Y045536D01*
X048355Y045595D02*
X049805Y045595D01*
X049821Y045653D02*
X048371Y045653D01*
X048440Y045910D02*
X048474Y046040D01*
X055823Y046040D01*
X055800Y045910D01*
X048440Y045910D01*
X048449Y045946D02*
X055806Y045946D01*
X055816Y046004D02*
X048464Y046004D01*
X048544Y046300D02*
X048565Y046380D01*
X055821Y046380D01*
X055830Y046300D01*
X048544Y046300D01*
X048558Y046355D02*
X055824Y046355D01*
X055726Y046690D02*
X048648Y046690D01*
X048659Y046730D01*
X055703Y046730D01*
X055726Y046690D01*
X055717Y046706D02*
X048652Y046706D01*
X048748Y047070D02*
X055238Y047070D01*
X056798Y046690D02*
X056809Y046730D01*
X058258Y046730D01*
X058248Y046690D01*
X056798Y046690D01*
X056802Y046706D02*
X058252Y046706D01*
X058165Y046380D02*
X058144Y046300D01*
X056694Y046300D01*
X056715Y046380D01*
X058165Y046380D01*
X058158Y046355D02*
X056708Y046355D01*
X056625Y046040D02*
X056590Y045909D01*
X058039Y045910D01*
X058074Y046040D01*
X056625Y046040D01*
X056615Y046004D02*
X058064Y046004D01*
X058048Y045946D02*
X056600Y045946D01*
X056534Y045700D02*
X057984Y045700D01*
X057933Y045510D01*
X056483Y045510D01*
X056534Y045700D01*
X056521Y045653D02*
X057971Y045653D01*
X057955Y045595D02*
X056505Y045595D01*
X056490Y045536D02*
X057940Y045536D01*
X057893Y045360D02*
X056443Y045360D01*
X056380Y045125D01*
X057830Y045125D01*
X057893Y045360D01*
X057877Y045302D02*
X056427Y045302D01*
X056412Y045244D02*
X057862Y045244D01*
X057846Y045185D02*
X056396Y045185D01*
X056380Y045127D02*
X057830Y045127D01*
X057795Y044995D02*
X057031Y042130D01*
X055581Y042130D01*
X056346Y044995D01*
X057795Y044995D01*
X057783Y044951D02*
X056335Y044951D01*
X056319Y044893D02*
X057768Y044893D01*
X057752Y044834D02*
X056303Y044834D01*
X056288Y044776D02*
X057737Y044776D01*
X057721Y044717D02*
X056272Y044717D01*
X056256Y044659D02*
X057705Y044659D01*
X057690Y044600D02*
X056241Y044600D01*
X056225Y044542D02*
X057674Y044542D01*
X057659Y044483D02*
X056210Y044483D01*
X056194Y044425D02*
X057643Y044425D01*
X057627Y044366D02*
X056178Y044366D01*
X056163Y044308D02*
X057612Y044308D01*
X057596Y044249D02*
X056147Y044249D01*
X056131Y044191D02*
X057581Y044191D01*
X057565Y044132D02*
X056116Y044132D01*
X056100Y044074D02*
X057549Y044074D01*
X057534Y044015D02*
X056085Y044015D01*
X056069Y043957D02*
X057518Y043957D01*
X057503Y043898D02*
X056053Y043898D01*
X056038Y043840D02*
X057487Y043840D01*
X057471Y043781D02*
X056022Y043781D01*
X056007Y043723D02*
X057456Y043723D01*
X057440Y043664D02*
X055991Y043664D01*
X055975Y043606D02*
X057425Y043606D01*
X057409Y043547D02*
X055960Y043547D01*
X055944Y043489D02*
X057393Y043489D01*
X057378Y043430D02*
X055928Y043430D01*
X055913Y043372D02*
X057362Y043372D01*
X057347Y043313D02*
X055897Y043313D01*
X055882Y043255D02*
X057331Y043255D01*
X057315Y043196D02*
X055866Y043196D01*
X055850Y043138D02*
X057300Y043138D01*
X057284Y043079D02*
X055835Y043079D01*
X055819Y043021D02*
X057269Y043021D01*
X057253Y042962D02*
X055803Y042962D01*
X055788Y042904D02*
X057237Y042904D01*
X057222Y042845D02*
X055772Y042845D01*
X055757Y042787D02*
X057206Y042787D01*
X057191Y042728D02*
X055741Y042728D01*
X055725Y042670D02*
X057175Y042670D01*
X057160Y042611D02*
X055710Y042611D01*
X055694Y042553D02*
X057144Y042553D01*
X057128Y042494D02*
X055678Y042494D01*
X055663Y042436D02*
X057113Y042436D01*
X057097Y042377D02*
X055647Y042377D01*
X055632Y042319D02*
X057082Y042319D01*
X057066Y042260D02*
X055616Y042260D01*
X055600Y042202D02*
X057050Y042202D01*
X057035Y042143D02*
X055585Y042143D01*
X054842Y042319D02*
X053393Y042319D01*
X053408Y042377D02*
X054857Y042377D01*
X054873Y042436D02*
X053424Y042436D01*
X053440Y042494D02*
X054888Y042494D01*
X054904Y042553D02*
X053455Y042553D01*
X053471Y042611D02*
X054920Y042611D01*
X054935Y042670D02*
X053486Y042670D01*
X053502Y042728D02*
X054951Y042728D01*
X054966Y042787D02*
X053518Y042787D01*
X053533Y042845D02*
X054982Y042845D01*
X054997Y042904D02*
X053549Y042904D01*
X053564Y042962D02*
X055013Y042962D01*
X055029Y043021D02*
X053580Y043021D01*
X053596Y043079D02*
X055044Y043079D01*
X055060Y043138D02*
X053611Y043138D01*
X053627Y043196D02*
X055075Y043196D01*
X055091Y043255D02*
X053642Y043255D01*
X053658Y043313D02*
X055107Y043313D01*
X055122Y043372D02*
X053674Y043372D01*
X053689Y043430D02*
X055138Y043430D01*
X055153Y043489D02*
X053705Y043489D01*
X053720Y043547D02*
X055169Y043547D01*
X055185Y043606D02*
X053736Y043606D01*
X053751Y043664D02*
X055200Y043664D01*
X055216Y043723D02*
X053767Y043723D01*
X053783Y043781D02*
X055231Y043781D01*
X055247Y043840D02*
X053798Y043840D01*
X053814Y043898D02*
X055263Y043898D01*
X055278Y043957D02*
X053829Y043957D01*
X053845Y044015D02*
X055294Y044015D01*
X055309Y044074D02*
X053861Y044074D01*
X053876Y044132D02*
X055325Y044132D01*
X055341Y044191D02*
X053892Y044191D01*
X053907Y044249D02*
X055356Y044249D01*
X055372Y044308D02*
X053923Y044308D01*
X053939Y044366D02*
X055387Y044366D01*
X055403Y044425D02*
X053954Y044425D01*
X053970Y044483D02*
X055419Y044483D01*
X055434Y044542D02*
X053985Y044542D01*
X054001Y044600D02*
X055450Y044600D01*
X055465Y044659D02*
X054017Y044659D01*
X054032Y044717D02*
X055481Y044717D01*
X055497Y044776D02*
X054048Y044776D01*
X054063Y044834D02*
X055512Y044834D01*
X055528Y044893D02*
X054079Y044893D01*
X054095Y044951D02*
X055543Y044951D01*
X055555Y044995D02*
X054791Y042130D01*
X053343Y042130D01*
X054106Y044995D01*
X055555Y044995D01*
X055590Y045125D02*
X054141Y045125D01*
X054203Y045360D01*
X055653Y045360D01*
X055590Y045125D01*
X055590Y045127D02*
X054142Y045127D01*
X054157Y045185D02*
X055606Y045185D01*
X055622Y045244D02*
X054172Y045244D01*
X054187Y045302D02*
X055637Y045302D01*
X055693Y045510D02*
X054243Y045510D01*
X054294Y045700D01*
X055744Y045700D01*
X055693Y045510D01*
X055700Y045536D02*
X054250Y045536D01*
X054265Y045595D02*
X055715Y045595D01*
X055731Y045653D02*
X054281Y045653D01*
X052794Y045700D02*
X052743Y045510D01*
X051293Y045510D01*
X051344Y045700D01*
X052794Y045700D01*
X052781Y045653D02*
X051331Y045653D01*
X051315Y045595D02*
X052765Y045595D01*
X052750Y045536D02*
X051300Y045536D01*
X051253Y045360D02*
X052703Y045360D01*
X052640Y045125D01*
X051190Y045125D01*
X051253Y045360D01*
X051237Y045302D02*
X052687Y045302D01*
X052672Y045244D02*
X051222Y045244D01*
X051206Y045185D02*
X052656Y045185D01*
X052640Y045127D02*
X051190Y045127D01*
X051156Y044995D02*
X052605Y044995D01*
X051841Y042130D01*
X050391Y042130D01*
X051156Y044995D01*
X051145Y044951D02*
X052593Y044951D01*
X052578Y044893D02*
X051129Y044893D01*
X051113Y044834D02*
X052562Y044834D01*
X052547Y044776D02*
X051098Y044776D01*
X051082Y044717D02*
X052531Y044717D01*
X052515Y044659D02*
X051066Y044659D01*
X051051Y044600D02*
X052500Y044600D01*
X052484Y044542D02*
X051035Y044542D01*
X051020Y044483D02*
X052469Y044483D01*
X052453Y044425D02*
X051004Y044425D01*
X050988Y044366D02*
X052437Y044366D01*
X052422Y044308D02*
X050973Y044308D01*
X050957Y044249D02*
X052406Y044249D01*
X052391Y044191D02*
X050941Y044191D01*
X050926Y044132D02*
X052375Y044132D01*
X052359Y044074D02*
X050910Y044074D01*
X050895Y044015D02*
X052344Y044015D01*
X052328Y043957D02*
X050879Y043957D01*
X050863Y043898D02*
X052313Y043898D01*
X052297Y043840D02*
X050848Y043840D01*
X050832Y043781D02*
X052281Y043781D01*
X052266Y043723D02*
X050817Y043723D01*
X050801Y043664D02*
X052250Y043664D01*
X052235Y043606D02*
X050785Y043606D01*
X050770Y043547D02*
X052219Y043547D01*
X052203Y043489D02*
X050754Y043489D01*
X050738Y043430D02*
X052188Y043430D01*
X052172Y043372D02*
X050723Y043372D01*
X050707Y043313D02*
X052157Y043313D01*
X052141Y043255D02*
X050692Y043255D01*
X050676Y043196D02*
X052125Y043196D01*
X052110Y043138D02*
X050660Y043138D01*
X050645Y043079D02*
X052094Y043079D01*
X052079Y043021D02*
X050629Y043021D01*
X050613Y042962D02*
X052063Y042962D01*
X052047Y042904D02*
X050598Y042904D01*
X050582Y042845D02*
X052032Y042845D01*
X052016Y042787D02*
X050567Y042787D01*
X050551Y042728D02*
X052001Y042728D01*
X051985Y042670D02*
X050535Y042670D01*
X050520Y042611D02*
X051970Y042611D01*
X051954Y042553D02*
X050504Y042553D01*
X050488Y042494D02*
X051938Y042494D01*
X051923Y042436D02*
X050473Y042436D01*
X050457Y042377D02*
X051907Y042377D01*
X051892Y042319D02*
X050442Y042319D01*
X050426Y042260D02*
X051876Y042260D01*
X051860Y042202D02*
X050410Y042202D01*
X050395Y042143D02*
X051845Y042143D01*
X053346Y042143D02*
X054795Y042143D01*
X054810Y042202D02*
X053362Y042202D01*
X053377Y042260D02*
X054826Y042260D01*
X058093Y042801D02*
X058116Y042686D01*
X058128Y042645D01*
X058161Y042557D01*
X058179Y042519D01*
X058226Y042441D01*
X058256Y042400D01*
X058327Y042322D01*
X058353Y042297D01*
X058419Y042243D01*
X058479Y042206D01*
X058561Y042171D01*
X058613Y042155D01*
X058699Y042139D01*
X058792Y042130D01*
X063621Y042130D01*
X063936Y043310D01*
X059565Y043310D01*
X060015Y044995D01*
X058566Y044995D01*
X058120Y043323D01*
X058095Y043191D01*
X058088Y043138D01*
X063890Y043138D01*
X063906Y043196D02*
X058096Y043196D01*
X058088Y043138D02*
X058081Y043053D01*
X058080Y043032D01*
X058080Y042941D01*
X058081Y042919D01*
X058089Y042829D01*
X058093Y042801D01*
X058096Y042787D02*
X063797Y042787D01*
X063812Y042845D02*
X058087Y042845D01*
X058082Y042904D02*
X063828Y042904D01*
X063843Y042962D02*
X058080Y042962D01*
X058080Y043021D02*
X063859Y043021D01*
X063875Y043079D02*
X058083Y043079D01*
X058107Y043255D02*
X063921Y043255D01*
X063781Y042728D02*
X058107Y042728D01*
X058120Y042670D02*
X063765Y042670D01*
X063750Y042611D02*
X058141Y042611D01*
X058163Y042553D02*
X063734Y042553D01*
X063718Y042494D02*
X058194Y042494D01*
X058230Y042436D02*
X063703Y042436D01*
X063687Y042377D02*
X058277Y042377D01*
X058330Y042319D02*
X063672Y042319D01*
X063656Y042260D02*
X058398Y042260D01*
X058489Y042202D02*
X063640Y042202D01*
X063625Y042143D02*
X058675Y042143D01*
X058118Y043313D02*
X059566Y043313D01*
X059581Y043372D02*
X058133Y043372D01*
X058149Y043430D02*
X059597Y043430D01*
X059613Y043489D02*
X058164Y043489D01*
X058180Y043547D02*
X059628Y043547D01*
X059644Y043606D02*
X058196Y043606D01*
X058211Y043664D02*
X059660Y043664D01*
X059675Y043723D02*
X058227Y043723D01*
X058242Y043781D02*
X059691Y043781D01*
X059706Y043840D02*
X058258Y043840D01*
X058274Y043898D02*
X059722Y043898D01*
X059738Y043957D02*
X058289Y043957D01*
X058305Y044015D02*
X059753Y044015D01*
X059769Y044074D02*
X058320Y044074D01*
X058336Y044132D02*
X059785Y044132D01*
X059800Y044191D02*
X058352Y044191D01*
X058367Y044249D02*
X059816Y044249D01*
X059831Y044308D02*
X058383Y044308D01*
X058398Y044366D02*
X059847Y044366D01*
X059863Y044425D02*
X058414Y044425D01*
X058430Y044483D02*
X059878Y044483D01*
X059894Y044542D02*
X058445Y044542D01*
X058461Y044600D02*
X059910Y044600D01*
X059925Y044659D02*
X058477Y044659D01*
X058492Y044717D02*
X059941Y044717D01*
X059956Y044776D02*
X058508Y044776D01*
X058523Y044834D02*
X059972Y044834D01*
X059988Y044893D02*
X058539Y044893D01*
X058555Y044951D02*
X060003Y044951D01*
X060050Y045125D02*
X058600Y045125D01*
X058663Y045360D01*
X060113Y045360D01*
X060050Y045125D01*
X060050Y045127D02*
X058600Y045127D01*
X058616Y045185D02*
X060066Y045185D01*
X060082Y045244D02*
X058632Y045244D01*
X058647Y045302D02*
X060097Y045302D01*
X060153Y045510D02*
X058703Y045510D01*
X058754Y045700D01*
X060204Y045700D01*
X060153Y045510D01*
X060160Y045536D02*
X058710Y045536D01*
X058725Y045595D02*
X060175Y045595D01*
X060191Y045653D02*
X058741Y045653D01*
X058810Y045910D02*
X058861Y046040D01*
X064664Y046040D01*
X064629Y045910D01*
X058810Y045910D01*
X058824Y045946D02*
X064638Y045946D01*
X064654Y046004D02*
X058847Y046004D01*
X058995Y046300D02*
X059053Y046380D01*
X064755Y046380D01*
X064734Y046300D01*
X058995Y046300D01*
X059035Y046355D02*
X064748Y046355D01*
X064838Y046690D02*
X059314Y046690D01*
X059356Y046730D01*
X064848Y046730D01*
X064838Y046690D01*
X064842Y046706D02*
X059331Y046706D01*
X060010Y047070D02*
X064941Y047070D01*
X065609Y046730D02*
X071063Y046730D01*
X071090Y046690D01*
X065598Y046690D01*
X065609Y046730D01*
X065602Y046706D02*
X071079Y046706D01*
X071211Y046380D02*
X071224Y046300D01*
X065494Y046300D01*
X065515Y046380D01*
X071211Y046380D01*
X071215Y046355D02*
X065508Y046355D01*
X065424Y046040D02*
X065390Y045910D01*
X071209Y045910D01*
X071229Y046040D01*
X065424Y046040D01*
X065414Y046004D02*
X071223Y046004D01*
X071214Y045946D02*
X065399Y045946D01*
X065334Y045700D02*
X066784Y045700D01*
X066733Y045510D01*
X065283Y045510D01*
X065334Y045700D01*
X065321Y045653D02*
X066771Y045653D01*
X066755Y045595D02*
X065305Y045595D01*
X065290Y045536D02*
X066740Y045536D01*
X066693Y045360D02*
X066631Y045125D01*
X065180Y045125D01*
X065243Y045360D01*
X066693Y045360D01*
X066677Y045302D02*
X065227Y045302D01*
X065212Y045244D02*
X066662Y045244D01*
X066647Y045185D02*
X065196Y045185D01*
X065180Y045127D02*
X066632Y045127D01*
X066306Y043910D02*
X065831Y042130D01*
X064381Y042130D01*
X065146Y044995D01*
X070951Y044995D01*
X070883Y044860D01*
X070858Y044816D01*
X070795Y044718D01*
X070766Y044678D01*
X070650Y044532D01*
X070612Y044490D01*
X070489Y044367D01*
X070449Y044330D01*
X070341Y044244D01*
X070305Y044217D01*
X070187Y044139D01*
X070155Y044120D01*
X070035Y044052D01*
X069986Y044028D01*
X069848Y043969D01*
X069756Y043940D01*
X069701Y043928D01*
X069626Y043918D01*
X069498Y043910D01*
X070118Y042130D01*
X068669Y042130D01*
X068049Y043910D01*
X066306Y043910D01*
X066303Y043898D02*
X064853Y043898D01*
X064838Y043840D02*
X066287Y043840D01*
X066272Y043781D02*
X064822Y043781D01*
X064807Y043723D02*
X066256Y043723D01*
X066241Y043664D02*
X064791Y043664D01*
X064775Y043606D02*
X066225Y043606D01*
X066209Y043547D02*
X064760Y043547D01*
X064744Y043489D02*
X066194Y043489D01*
X066178Y043430D02*
X064728Y043430D01*
X064713Y043372D02*
X066163Y043372D01*
X066147Y043313D02*
X064697Y043313D01*
X064682Y043255D02*
X066131Y043255D01*
X066116Y043196D02*
X064666Y043196D01*
X064650Y043138D02*
X066100Y043138D01*
X066085Y043079D02*
X064635Y043079D01*
X064619Y043021D02*
X066069Y043021D01*
X066053Y042962D02*
X064603Y042962D01*
X064588Y042904D02*
X066038Y042904D01*
X066022Y042845D02*
X064572Y042845D01*
X064557Y042787D02*
X066006Y042787D01*
X065991Y042728D02*
X064541Y042728D01*
X064525Y042670D02*
X065975Y042670D01*
X065960Y042611D02*
X064510Y042611D01*
X064494Y042553D02*
X065944Y042553D01*
X065928Y042494D02*
X064478Y042494D01*
X064463Y042436D02*
X065913Y042436D01*
X065897Y042377D02*
X064447Y042377D01*
X064432Y042319D02*
X065882Y042319D01*
X065866Y042260D02*
X064416Y042260D01*
X064400Y042202D02*
X065850Y042202D01*
X065835Y042143D02*
X064385Y042143D01*
X064869Y043957D02*
X069809Y043957D01*
X069956Y044015D02*
X064885Y044015D01*
X064900Y044074D02*
X070073Y044074D01*
X070176Y044132D02*
X064916Y044132D01*
X064931Y044191D02*
X070265Y044191D01*
X070348Y044249D02*
X064947Y044249D01*
X064963Y044308D02*
X070420Y044308D01*
X070489Y044366D02*
X064978Y044366D01*
X064994Y044425D02*
X070547Y044425D01*
X070606Y044483D02*
X065010Y044483D01*
X065025Y044542D02*
X070658Y044542D01*
X070704Y044600D02*
X065041Y044600D01*
X065056Y044659D02*
X070750Y044659D01*
X070794Y044717D02*
X065072Y044717D01*
X065088Y044776D02*
X070832Y044776D01*
X070868Y044834D02*
X065103Y044834D01*
X065119Y044893D02*
X070899Y044893D01*
X070929Y044951D02*
X065135Y044951D01*
X068053Y043898D02*
X069502Y043898D01*
X069522Y043840D02*
X068073Y043840D01*
X068094Y043781D02*
X069542Y043781D01*
X069563Y043723D02*
X068114Y043723D01*
X068134Y043664D02*
X069583Y043664D01*
X069603Y043606D02*
X068155Y043606D01*
X068175Y043547D02*
X069624Y043547D01*
X069644Y043489D02*
X068196Y043489D01*
X068216Y043430D02*
X069665Y043430D01*
X069685Y043372D02*
X068236Y043372D01*
X068257Y043313D02*
X069705Y043313D01*
X069726Y043255D02*
X068277Y043255D01*
X068297Y043196D02*
X069746Y043196D01*
X069767Y043138D02*
X068318Y043138D01*
X068338Y043079D02*
X069787Y043079D01*
X069807Y043021D02*
X068359Y043021D01*
X068379Y042962D02*
X069828Y042962D01*
X069848Y042904D02*
X068399Y042904D01*
X068420Y042845D02*
X069868Y042845D01*
X069889Y042787D02*
X068440Y042787D01*
X068460Y042728D02*
X069909Y042728D01*
X069930Y042670D02*
X068481Y042670D01*
X068501Y042611D02*
X069950Y042611D01*
X069970Y042553D02*
X068522Y042553D01*
X068542Y042494D02*
X069991Y042494D01*
X070011Y042436D02*
X068562Y042436D01*
X068583Y042377D02*
X070031Y042377D01*
X070052Y042319D02*
X068603Y042319D01*
X068623Y042260D02*
X070072Y042260D01*
X070093Y042202D02*
X068644Y042202D01*
X068664Y042143D02*
X070113Y042143D01*
X071311Y042611D02*
X076684Y042611D01*
X076723Y042651D02*
X076622Y042550D01*
X076597Y042526D01*
X076483Y042427D01*
X076445Y042397D01*
X076350Y042329D01*
X076298Y042296D01*
X076198Y042243D01*
X076145Y042218D01*
X076065Y042186D01*
X075983Y042161D01*
X075884Y042141D01*
X075782Y042130D01*
X071962Y042130D01*
X071869Y042139D01*
X071783Y042155D01*
X071732Y042170D01*
X071651Y042204D01*
X071589Y042242D01*
X071522Y042298D01*
X071497Y042321D01*
X071427Y042397D01*
X071395Y042441D01*
X071348Y042522D01*
X071332Y042557D01*
X071298Y042645D01*
X071286Y042686D01*
X071263Y042801D01*
X071259Y042829D01*
X071251Y042925D01*
X071250Y042945D01*
X071250Y043024D01*
X071252Y043064D01*
X071258Y043140D01*
X071265Y043194D01*
X071287Y043306D01*
X071295Y043341D01*
X071736Y044995D01*
X073185Y044995D01*
X072736Y043310D01*
X075646Y043310D01*
X076096Y044995D01*
X077555Y044995D01*
X077116Y043348D01*
X077102Y043302D01*
X077058Y043186D01*
X077043Y043150D01*
X076993Y043041D01*
X076930Y042928D01*
X076875Y042841D01*
X076842Y042794D01*
X076760Y042691D01*
X076723Y042651D01*
X076740Y042670D02*
X071291Y042670D01*
X071277Y042728D02*
X076789Y042728D01*
X076836Y042787D02*
X071266Y042787D01*
X071257Y042845D02*
X076878Y042845D01*
X076915Y042904D02*
X071253Y042904D01*
X071250Y042962D02*
X076949Y042962D01*
X076981Y043021D02*
X071250Y043021D01*
X071253Y043079D02*
X077010Y043079D01*
X077037Y043138D02*
X071258Y043138D01*
X071266Y043196D02*
X077062Y043196D01*
X077084Y043255D02*
X071277Y043255D01*
X071288Y043313D02*
X072737Y043313D01*
X072753Y043372D02*
X071303Y043372D01*
X071318Y043430D02*
X072768Y043430D01*
X072784Y043489D02*
X071334Y043489D01*
X071350Y043547D02*
X072799Y043547D01*
X072815Y043606D02*
X071365Y043606D01*
X071381Y043664D02*
X072831Y043664D01*
X072846Y043723D02*
X071397Y043723D01*
X071412Y043781D02*
X072862Y043781D01*
X072877Y043840D02*
X071428Y043840D01*
X071443Y043898D02*
X072893Y043898D01*
X072908Y043957D02*
X071459Y043957D01*
X071475Y044015D02*
X072924Y044015D01*
X072940Y044074D02*
X071490Y044074D01*
X071506Y044132D02*
X072955Y044132D01*
X072971Y044191D02*
X071521Y044191D01*
X071537Y044249D02*
X072986Y044249D01*
X073002Y044308D02*
X071553Y044308D01*
X071568Y044366D02*
X073018Y044366D01*
X073033Y044425D02*
X071584Y044425D01*
X071600Y044483D02*
X073049Y044483D01*
X073064Y044542D02*
X071615Y044542D01*
X071631Y044600D02*
X073080Y044600D01*
X073095Y044659D02*
X071646Y044659D01*
X071662Y044717D02*
X073111Y044717D01*
X073127Y044776D02*
X071678Y044776D01*
X071693Y044834D02*
X073142Y044834D01*
X073158Y044893D02*
X071709Y044893D01*
X071725Y044951D02*
X073173Y044951D01*
X073221Y045125D02*
X071770Y045125D01*
X071833Y045360D01*
X073283Y045360D01*
X073221Y045125D01*
X073222Y045127D02*
X071770Y045127D01*
X071786Y045185D02*
X073237Y045185D01*
X073252Y045244D02*
X071802Y045244D01*
X071817Y045302D02*
X073267Y045302D01*
X073323Y045510D02*
X071873Y045510D01*
X071924Y045700D01*
X073374Y045700D01*
X073323Y045510D01*
X073330Y045536D02*
X071880Y045536D01*
X071895Y045595D02*
X073345Y045595D01*
X073361Y045653D02*
X071911Y045653D01*
X071980Y045910D02*
X072033Y046040D01*
X077819Y046040D01*
X077796Y045910D01*
X071980Y045910D01*
X071994Y045946D02*
X077802Y045946D01*
X077813Y046004D02*
X072018Y046004D01*
X072175Y046300D02*
X072233Y046380D01*
X077801Y046380D01*
X077814Y046300D01*
X072175Y046300D01*
X072215Y046355D02*
X077805Y046355D01*
X077700Y046690D02*
X072485Y046690D01*
X072536Y046730D01*
X077673Y046730D01*
X077700Y046690D01*
X077689Y046706D02*
X072506Y046706D01*
X073184Y047070D02*
X077216Y047070D01*
X077743Y045700D02*
X076284Y045700D01*
X076234Y045510D01*
X077693Y045510D01*
X077743Y045700D01*
X077730Y045653D02*
X076271Y045653D01*
X076256Y045595D02*
X077715Y045595D01*
X077699Y045536D02*
X076241Y045536D01*
X076193Y045360D02*
X077653Y045360D01*
X077590Y045125D01*
X076130Y045125D01*
X076193Y045360D01*
X076177Y045302D02*
X077637Y045302D01*
X077622Y045244D02*
X076162Y045244D01*
X076146Y045185D02*
X077606Y045185D01*
X077590Y045127D02*
X076130Y045127D01*
X076085Y044951D02*
X077543Y044951D01*
X077528Y044893D02*
X076069Y044893D01*
X076053Y044834D02*
X077512Y044834D01*
X077497Y044776D02*
X076038Y044776D01*
X076022Y044717D02*
X077481Y044717D01*
X077465Y044659D02*
X076006Y044659D01*
X075991Y044600D02*
X077450Y044600D01*
X077434Y044542D02*
X075975Y044542D01*
X075960Y044483D02*
X077419Y044483D01*
X077403Y044425D02*
X075944Y044425D01*
X075928Y044366D02*
X077387Y044366D01*
X077372Y044308D02*
X075913Y044308D01*
X075897Y044249D02*
X077356Y044249D01*
X077341Y044191D02*
X075881Y044191D01*
X075866Y044132D02*
X077325Y044132D01*
X077310Y044074D02*
X075850Y044074D01*
X075835Y044015D02*
X077294Y044015D01*
X077278Y043957D02*
X075819Y043957D01*
X075803Y043898D02*
X077263Y043898D01*
X077247Y043840D02*
X075788Y043840D01*
X075772Y043781D02*
X077232Y043781D01*
X077216Y043723D02*
X075756Y043723D01*
X075741Y043664D02*
X077200Y043664D01*
X077185Y043606D02*
X075725Y043606D01*
X075710Y043547D02*
X077169Y043547D01*
X077154Y043489D02*
X075694Y043489D01*
X075678Y043430D02*
X077138Y043430D01*
X077122Y043372D02*
X075663Y043372D01*
X075647Y043313D02*
X077105Y043313D01*
X076625Y042553D02*
X071334Y042553D01*
X071364Y042494D02*
X076560Y042494D01*
X076493Y042436D02*
X071399Y042436D01*
X071446Y042377D02*
X076417Y042377D01*
X076333Y042319D02*
X071500Y042319D01*
X071567Y042260D02*
X076231Y042260D01*
X076105Y042202D02*
X071658Y042202D01*
X071845Y042143D02*
X075897Y042143D01*
X071000Y045125D02*
X069550Y045125D01*
X069613Y045360D01*
X071063Y045360D01*
X071000Y045125D01*
X071000Y045127D02*
X069550Y045127D01*
X069566Y045185D02*
X071016Y045185D01*
X071032Y045244D02*
X069582Y045244D01*
X069597Y045302D02*
X071047Y045302D01*
X071103Y045510D02*
X069653Y045510D01*
X069704Y045700D01*
X071153Y045700D01*
X071103Y045510D01*
X071109Y045536D02*
X069660Y045536D01*
X069675Y045595D02*
X071125Y045595D01*
X071140Y045653D02*
X069691Y045653D01*
X070558Y047070D02*
X065696Y047070D01*
X058351Y047070D02*
X056896Y047070D01*
X048136Y047070D02*
X046465Y047070D01*
X046096Y046730D02*
X046053Y046690D01*
X047718Y046690D01*
X047761Y046730D01*
X046096Y046730D01*
X046070Y046706D02*
X047735Y046706D01*
X047379Y046380D02*
X047290Y046300D01*
X045626Y046300D01*
X045713Y046380D01*
X047379Y046380D01*
X047351Y046355D02*
X045686Y046355D01*
X045341Y046040D02*
X045199Y045910D01*
X046865Y045910D01*
X047006Y046040D01*
X045341Y046040D01*
X045302Y046004D02*
X046967Y046004D01*
X046904Y045946D02*
X045238Y045946D01*
X044970Y045700D02*
X044875Y045613D01*
X044826Y045700D01*
X043140Y045700D01*
X043248Y045510D01*
X046428Y045510D01*
X046635Y045700D01*
X044970Y045700D01*
X044919Y045653D02*
X046584Y045653D01*
X046520Y045595D02*
X043200Y045595D01*
X043166Y045653D02*
X044852Y045653D01*
X044709Y045910D02*
X043023Y045910D01*
X042950Y046040D01*
X044636Y046040D01*
X044709Y045910D01*
X044689Y045946D02*
X043003Y045946D01*
X042970Y046004D02*
X044656Y046004D01*
X044491Y046300D02*
X042805Y046300D01*
X042760Y046380D01*
X044448Y046380D01*
X044491Y046300D01*
X044461Y046355D02*
X042774Y046355D01*
X042586Y046690D02*
X042564Y046730D01*
X044253Y046730D01*
X044274Y046690D01*
X042586Y046690D01*
X042577Y046706D02*
X044265Y046706D01*
X044065Y047070D02*
X042371Y047070D01*
X043233Y045536D02*
X046456Y045536D01*
X046264Y045360D02*
X046006Y045125D01*
X043463Y045125D01*
X043330Y045360D01*
X046264Y045360D01*
X046200Y045302D02*
X043363Y045302D01*
X043396Y045244D02*
X046136Y045244D01*
X046072Y045185D02*
X043429Y045185D01*
X043462Y045127D02*
X046008Y045127D01*
X045817Y044951D02*
X043559Y044951D01*
X043592Y044893D02*
X045753Y044893D01*
X045689Y044834D02*
X043625Y044834D01*
X043658Y044776D02*
X045625Y044776D01*
X045561Y044717D02*
X043690Y044717D01*
X043723Y044659D02*
X045498Y044659D01*
X045439Y044600D02*
X043756Y044600D01*
X043704Y044542D02*
X045472Y044542D01*
X045505Y044483D02*
X043640Y044483D01*
X043577Y044425D02*
X045537Y044425D01*
X045570Y044366D02*
X043513Y044366D01*
X043449Y044308D02*
X045603Y044308D01*
X045635Y044249D02*
X043385Y044249D01*
X043321Y044191D02*
X045668Y044191D01*
X045701Y044132D02*
X043257Y044132D01*
X043193Y044074D02*
X045733Y044074D01*
X045766Y044015D02*
X043129Y044015D01*
X043065Y043957D02*
X045798Y043957D01*
X045831Y043898D02*
X043001Y043898D01*
X042937Y043840D02*
X045864Y043840D01*
X045896Y043781D02*
X042873Y043781D01*
X042809Y043723D02*
X045929Y043723D01*
X045962Y043664D02*
X042745Y043664D01*
X042681Y043606D02*
X045994Y043606D01*
D11*
X030575Y037095D02*
X082850Y037095D01*
X082850Y036095D01*
X030175Y036095D01*
X027425Y038845D01*
X001100Y038845D01*
X001100Y039845D01*
X027825Y039845D01*
X030575Y037095D01*
X030570Y037100D02*
X029170Y037100D01*
X029218Y037052D02*
X082850Y037052D01*
X082850Y037003D02*
X029267Y037003D01*
X029315Y036955D02*
X082850Y036955D01*
X082850Y036906D02*
X029364Y036906D01*
X029412Y036858D02*
X082850Y036858D01*
X082850Y036809D02*
X029461Y036809D01*
X029509Y036761D02*
X082850Y036761D01*
X082850Y036712D02*
X029558Y036712D01*
X029606Y036664D02*
X082850Y036664D01*
X082850Y036615D02*
X029655Y036615D01*
X029703Y036567D02*
X082850Y036567D01*
X082850Y036518D02*
X029752Y036518D01*
X029800Y036470D02*
X082850Y036470D01*
X082850Y036421D02*
X029849Y036421D01*
X029897Y036373D02*
X082850Y036373D01*
X082850Y036324D02*
X029946Y036324D01*
X029994Y036276D02*
X082850Y036276D01*
X082850Y036227D02*
X030043Y036227D01*
X030091Y036179D02*
X082850Y036179D01*
X082850Y036130D02*
X030140Y036130D01*
X029984Y035936D02*
X028584Y035936D01*
X028632Y035888D02*
X030032Y035888D01*
X030075Y035845D02*
X082850Y035845D01*
X082850Y034845D01*
X029675Y034845D01*
X026925Y037595D01*
X001100Y037595D01*
X001100Y038595D01*
X027325Y038595D01*
X030075Y035845D01*
X029935Y035985D02*
X028535Y035985D01*
X028487Y036033D02*
X029887Y036033D01*
X029838Y036082D02*
X028438Y036082D01*
X028390Y036130D02*
X029790Y036130D01*
X029741Y036179D02*
X028341Y036179D01*
X028293Y036227D02*
X029693Y036227D01*
X029644Y036276D02*
X028244Y036276D01*
X028196Y036324D02*
X029596Y036324D01*
X029547Y036373D02*
X028147Y036373D01*
X028099Y036421D02*
X029499Y036421D01*
X029450Y036470D02*
X028050Y036470D01*
X028002Y036518D02*
X029402Y036518D01*
X029353Y036567D02*
X027953Y036567D01*
X027905Y036615D02*
X029305Y036615D01*
X029256Y036664D02*
X027856Y036664D01*
X027808Y036712D02*
X029208Y036712D01*
X029159Y036761D02*
X027759Y036761D01*
X027711Y036809D02*
X029111Y036809D01*
X029062Y036858D02*
X027662Y036858D01*
X027614Y036906D02*
X029014Y036906D01*
X028965Y036955D02*
X027565Y036955D01*
X027517Y037003D02*
X028917Y037003D01*
X028868Y037052D02*
X027468Y037052D01*
X027420Y037100D02*
X028820Y037100D01*
X028771Y037149D02*
X027371Y037149D01*
X027323Y037197D02*
X028723Y037197D01*
X028674Y037246D02*
X027274Y037246D01*
X027226Y037294D02*
X028626Y037294D01*
X028577Y037343D02*
X027177Y037343D01*
X027129Y037391D02*
X028529Y037391D01*
X028480Y037440D02*
X027080Y037440D01*
X027032Y037488D02*
X028432Y037488D01*
X028383Y037537D02*
X026983Y037537D01*
X026935Y037585D02*
X028335Y037585D01*
X028286Y037634D02*
X001100Y037634D01*
X001100Y037682D02*
X028238Y037682D01*
X028189Y037731D02*
X001100Y037731D01*
X001100Y037779D02*
X028141Y037779D01*
X028092Y037828D02*
X001100Y037828D01*
X001100Y037876D02*
X028044Y037876D01*
X027995Y037925D02*
X001100Y037925D01*
X001100Y037973D02*
X027947Y037973D01*
X027898Y038022D02*
X001100Y038022D01*
X001100Y038070D02*
X027850Y038070D01*
X027801Y038119D02*
X001100Y038119D01*
X001100Y038167D02*
X027753Y038167D01*
X027704Y038216D02*
X001100Y038216D01*
X001100Y038264D02*
X027656Y038264D01*
X027607Y038313D02*
X001100Y038313D01*
X001100Y038361D02*
X027559Y038361D01*
X027510Y038410D02*
X001100Y038410D01*
X001100Y038458D02*
X027462Y038458D01*
X027413Y038507D02*
X001100Y038507D01*
X001100Y038555D02*
X027365Y038555D01*
X027521Y038749D02*
X028921Y038749D01*
X028969Y038701D02*
X027569Y038701D01*
X027618Y038652D02*
X029018Y038652D01*
X029066Y038604D02*
X027666Y038604D01*
X027715Y038555D02*
X029115Y038555D01*
X029163Y038507D02*
X027763Y038507D01*
X027812Y038458D02*
X029212Y038458D01*
X029260Y038410D02*
X027860Y038410D01*
X027909Y038361D02*
X029309Y038361D01*
X029357Y038313D02*
X027957Y038313D01*
X028006Y038264D02*
X029406Y038264D01*
X029454Y038216D02*
X028054Y038216D01*
X028103Y038167D02*
X029503Y038167D01*
X029551Y038119D02*
X028151Y038119D01*
X028200Y038070D02*
X029600Y038070D01*
X029648Y038022D02*
X028248Y038022D01*
X028297Y037973D02*
X029697Y037973D01*
X029745Y037925D02*
X028345Y037925D01*
X028394Y037876D02*
X029794Y037876D01*
X029842Y037828D02*
X028442Y037828D01*
X028491Y037779D02*
X029891Y037779D01*
X029939Y037731D02*
X028539Y037731D01*
X028588Y037682D02*
X029988Y037682D01*
X030036Y037634D02*
X028636Y037634D01*
X028685Y037585D02*
X030085Y037585D01*
X030133Y037537D02*
X028733Y037537D01*
X028782Y037488D02*
X030182Y037488D01*
X030230Y037440D02*
X028830Y037440D01*
X028879Y037391D02*
X030279Y037391D01*
X030327Y037343D02*
X028927Y037343D01*
X028976Y037294D02*
X030376Y037294D01*
X030424Y037246D02*
X029024Y037246D01*
X029073Y037197D02*
X030473Y037197D01*
X030521Y037149D02*
X029121Y037149D01*
X028681Y035839D02*
X082850Y035839D01*
X082850Y035791D02*
X028729Y035791D01*
X028778Y035742D02*
X082850Y035742D01*
X082850Y035694D02*
X028826Y035694D01*
X028875Y035645D02*
X082850Y035645D01*
X082850Y035597D02*
X028923Y035597D01*
X028972Y035548D02*
X082850Y035548D01*
X082850Y035500D02*
X029020Y035500D01*
X029069Y035451D02*
X082850Y035451D01*
X082850Y035403D02*
X029117Y035403D01*
X029166Y035354D02*
X082850Y035354D01*
X082850Y035306D02*
X029214Y035306D01*
X029263Y035257D02*
X082850Y035257D01*
X082850Y035209D02*
X029311Y035209D01*
X029360Y035160D02*
X082850Y035160D01*
X082850Y035112D02*
X029408Y035112D01*
X029457Y035063D02*
X082850Y035063D01*
X082850Y035015D02*
X029505Y035015D01*
X029554Y034966D02*
X082850Y034966D01*
X082850Y034918D02*
X029602Y034918D01*
X029651Y034869D02*
X082850Y034869D01*
X028872Y038798D02*
X027472Y038798D01*
X028193Y039477D02*
X001100Y039477D01*
X001100Y039525D02*
X028145Y039525D01*
X028096Y039574D02*
X001100Y039574D01*
X001100Y039622D02*
X028048Y039622D01*
X027999Y039671D02*
X001100Y039671D01*
X001100Y039719D02*
X027951Y039719D01*
X027902Y039768D02*
X001100Y039768D01*
X001100Y039816D02*
X027854Y039816D01*
X028242Y039428D02*
X001100Y039428D01*
X001100Y039380D02*
X028290Y039380D01*
X028339Y039331D02*
X001100Y039331D01*
X001100Y039283D02*
X028387Y039283D01*
X028436Y039234D02*
X001100Y039234D01*
X001100Y039186D02*
X028484Y039186D01*
X028533Y039137D02*
X001100Y039137D01*
X001100Y039089D02*
X028581Y039089D01*
X028630Y039040D02*
X001100Y039040D01*
X001100Y038992D02*
X028678Y038992D01*
X028727Y038943D02*
X001100Y038943D01*
X001100Y038895D02*
X028775Y038895D01*
X028824Y038846D02*
X001100Y038846D01*
M02*
