G75*
G70*
%OFA0B0*%
%FSLAX24Y24*%
%IPPOS*%
%LPD*%
%AMOC8*
5,1,8,0,0,1.08239X$1,22.5*
%
%ADD10C,0.0050*%
D10*
X027475Y029345D02*
X024725Y032095D01*
X009298Y032095D01*
X009888Y034345D01*
X025625Y034345D01*
X028375Y031595D01*
X074088Y031595D01*
X073498Y029345D01*
X027475Y029345D01*
X027431Y029389D02*
X073509Y029389D01*
X073522Y029437D02*
X027383Y029437D01*
X027334Y029486D02*
X073534Y029486D01*
X073547Y029534D02*
X027286Y029534D01*
X027237Y029583D02*
X073560Y029583D01*
X073573Y029631D02*
X027189Y029631D01*
X027140Y029680D02*
X073585Y029680D01*
X073598Y029728D02*
X027092Y029728D01*
X027043Y029777D02*
X073611Y029777D01*
X073623Y029825D02*
X026995Y029825D01*
X026946Y029874D02*
X073636Y029874D01*
X073649Y029922D02*
X026898Y029922D01*
X026849Y029971D02*
X073662Y029971D01*
X073674Y030019D02*
X026801Y030019D01*
X026752Y030068D02*
X073687Y030068D01*
X073700Y030116D02*
X026704Y030116D01*
X026655Y030165D02*
X073712Y030165D01*
X073725Y030213D02*
X026607Y030213D01*
X026558Y030262D02*
X073738Y030262D01*
X073751Y030310D02*
X026510Y030310D01*
X026461Y030359D02*
X073763Y030359D01*
X073776Y030407D02*
X026413Y030407D01*
X026364Y030456D02*
X073789Y030456D01*
X073801Y030504D02*
X026316Y030504D01*
X026267Y030553D02*
X073814Y030553D01*
X073827Y030601D02*
X026219Y030601D01*
X026170Y030650D02*
X073840Y030650D01*
X073852Y030698D02*
X026122Y030698D01*
X026073Y030747D02*
X073865Y030747D01*
X073878Y030795D02*
X026025Y030795D01*
X025976Y030844D02*
X073890Y030844D01*
X073903Y030892D02*
X025928Y030892D01*
X025879Y030941D02*
X073916Y030941D01*
X073929Y030989D02*
X025831Y030989D01*
X025782Y031038D02*
X073941Y031038D01*
X073954Y031086D02*
X025734Y031086D01*
X025685Y031135D02*
X073967Y031135D01*
X073980Y031183D02*
X025637Y031183D01*
X025588Y031232D02*
X073992Y031232D01*
X074005Y031280D02*
X025540Y031280D01*
X025491Y031329D02*
X074018Y031329D01*
X074030Y031377D02*
X025443Y031377D01*
X025394Y031426D02*
X074043Y031426D01*
X074056Y031474D02*
X025346Y031474D01*
X025297Y031523D02*
X074069Y031523D01*
X074081Y031571D02*
X025249Y031571D01*
X025200Y031620D02*
X028350Y031620D01*
X028302Y031668D02*
X025152Y031668D01*
X025103Y031717D02*
X028253Y031717D01*
X028205Y031765D02*
X025055Y031765D01*
X025006Y031814D02*
X028156Y031814D01*
X028108Y031862D02*
X024958Y031862D01*
X024909Y031911D02*
X028059Y031911D01*
X028011Y031959D02*
X024861Y031959D01*
X024812Y032008D02*
X027962Y032008D01*
X027914Y032056D02*
X024764Y032056D01*
X026604Y033366D02*
X009631Y033366D01*
X009643Y033414D02*
X026556Y033414D01*
X026507Y033463D02*
X009656Y033463D01*
X009669Y033511D02*
X026459Y033511D01*
X026410Y033560D02*
X009682Y033560D01*
X009694Y033608D02*
X026362Y033608D01*
X026313Y033657D02*
X009707Y033657D01*
X009720Y033705D02*
X026265Y033705D01*
X026216Y033754D02*
X009732Y033754D01*
X009745Y033802D02*
X026168Y033802D01*
X026119Y033851D02*
X009758Y033851D01*
X009771Y033899D02*
X026071Y033899D01*
X026022Y033948D02*
X009783Y033948D01*
X009796Y033996D02*
X025974Y033996D01*
X025925Y034045D02*
X009809Y034045D01*
X009821Y034093D02*
X025877Y034093D01*
X025828Y034142D02*
X009834Y034142D01*
X009847Y034190D02*
X025780Y034190D01*
X025731Y034239D02*
X009860Y034239D01*
X009872Y034287D02*
X025683Y034287D01*
X025634Y034336D02*
X009885Y034336D01*
X010023Y034845D02*
X010613Y037095D01*
X026725Y037095D01*
X029475Y034345D01*
X074813Y034345D01*
X074223Y032095D01*
X028575Y032095D01*
X025825Y034845D01*
X010023Y034845D01*
X010029Y034869D02*
X028951Y034869D01*
X028999Y034821D02*
X025849Y034821D01*
X025898Y034772D02*
X029048Y034772D01*
X029096Y034724D02*
X025946Y034724D01*
X025995Y034675D02*
X029145Y034675D01*
X029193Y034627D02*
X026043Y034627D01*
X026092Y034578D02*
X029242Y034578D01*
X029290Y034530D02*
X026140Y034530D01*
X026189Y034481D02*
X029339Y034481D01*
X029387Y034433D02*
X026237Y034433D01*
X026286Y034384D02*
X029436Y034384D01*
X029675Y034845D02*
X026925Y037595D01*
X001243Y037595D01*
X001243Y039845D01*
X027825Y039845D01*
X030575Y037095D01*
X082707Y037095D01*
X082707Y034845D01*
X029675Y034845D01*
X029651Y034869D02*
X082707Y034869D01*
X082707Y034918D02*
X029602Y034918D01*
X029554Y034966D02*
X082707Y034966D01*
X082707Y035015D02*
X029505Y035015D01*
X029457Y035063D02*
X082707Y035063D01*
X082707Y035112D02*
X029408Y035112D01*
X029360Y035160D02*
X082707Y035160D01*
X082707Y035209D02*
X029311Y035209D01*
X029263Y035257D02*
X082707Y035257D01*
X082707Y035306D02*
X029214Y035306D01*
X029166Y035354D02*
X082707Y035354D01*
X082707Y035403D02*
X029117Y035403D01*
X029069Y035451D02*
X082707Y035451D01*
X082707Y035500D02*
X029020Y035500D01*
X028972Y035548D02*
X082707Y035548D01*
X082707Y035597D02*
X028923Y035597D01*
X028875Y035645D02*
X082707Y035645D01*
X082707Y035694D02*
X028826Y035694D01*
X028778Y035742D02*
X082707Y035742D01*
X082707Y035791D02*
X028729Y035791D01*
X028681Y035839D02*
X082707Y035839D01*
X082707Y035888D02*
X028632Y035888D01*
X028584Y035936D02*
X082707Y035936D01*
X082707Y035985D02*
X028535Y035985D01*
X028487Y036033D02*
X082707Y036033D01*
X082707Y036082D02*
X028438Y036082D01*
X028390Y036130D02*
X082707Y036130D01*
X082707Y036179D02*
X028341Y036179D01*
X028293Y036227D02*
X082707Y036227D01*
X082707Y036276D02*
X028244Y036276D01*
X028196Y036324D02*
X082707Y036324D01*
X082707Y036373D02*
X028147Y036373D01*
X028099Y036421D02*
X082707Y036421D01*
X082707Y036470D02*
X028050Y036470D01*
X028002Y036518D02*
X082707Y036518D01*
X082707Y036567D02*
X027953Y036567D01*
X027905Y036615D02*
X082707Y036615D01*
X082707Y036664D02*
X027856Y036664D01*
X027808Y036712D02*
X082707Y036712D01*
X082707Y036761D02*
X027759Y036761D01*
X027711Y036809D02*
X082707Y036809D01*
X082707Y036858D02*
X027662Y036858D01*
X027614Y036906D02*
X082707Y036906D01*
X082707Y036955D02*
X027565Y036955D01*
X027517Y037003D02*
X082707Y037003D01*
X082707Y037052D02*
X027468Y037052D01*
X027420Y037100D02*
X030570Y037100D01*
X030521Y037149D02*
X027371Y037149D01*
X027323Y037197D02*
X030473Y037197D01*
X030424Y037246D02*
X027274Y037246D01*
X027226Y037294D02*
X030376Y037294D01*
X030327Y037343D02*
X027177Y037343D01*
X027129Y037391D02*
X030279Y037391D01*
X030230Y037440D02*
X027080Y037440D01*
X027032Y037488D02*
X030182Y037488D01*
X030133Y037537D02*
X026983Y037537D01*
X026935Y037585D02*
X030085Y037585D01*
X030036Y037634D02*
X001243Y037634D01*
X001243Y037682D02*
X029988Y037682D01*
X029939Y037731D02*
X001243Y037731D01*
X001243Y037779D02*
X029891Y037779D01*
X029842Y037828D02*
X001243Y037828D01*
X001243Y037876D02*
X029794Y037876D01*
X029745Y037925D02*
X001243Y037925D01*
X001243Y037973D02*
X029697Y037973D01*
X029648Y038022D02*
X001243Y038022D01*
X001243Y038070D02*
X029600Y038070D01*
X029551Y038119D02*
X001243Y038119D01*
X001243Y038167D02*
X029503Y038167D01*
X029454Y038216D02*
X001243Y038216D01*
X001243Y038264D02*
X029406Y038264D01*
X029357Y038313D02*
X001243Y038313D01*
X001243Y038361D02*
X029309Y038361D01*
X029260Y038410D02*
X001243Y038410D01*
X001243Y038458D02*
X029212Y038458D01*
X029163Y038507D02*
X001243Y038507D01*
X001243Y038555D02*
X029115Y038555D01*
X029066Y038604D02*
X001243Y038604D01*
X001243Y038652D02*
X029018Y038652D01*
X028969Y038701D02*
X001243Y038701D01*
X001243Y038749D02*
X028921Y038749D01*
X028872Y038798D02*
X001243Y038798D01*
X001243Y038846D02*
X028824Y038846D01*
X028775Y038895D02*
X001243Y038895D01*
X001243Y038943D02*
X028727Y038943D01*
X028678Y038992D02*
X001243Y038992D01*
X001243Y039040D02*
X028630Y039040D01*
X028581Y039089D02*
X001243Y039089D01*
X001243Y039137D02*
X028533Y039137D01*
X028484Y039186D02*
X001243Y039186D01*
X001243Y039234D02*
X028436Y039234D01*
X028387Y039283D02*
X001243Y039283D01*
X001243Y039331D02*
X028339Y039331D01*
X028290Y039380D02*
X001243Y039380D01*
X001243Y039428D02*
X028242Y039428D01*
X028193Y039477D02*
X001243Y039477D01*
X001243Y039525D02*
X028145Y039525D01*
X028096Y039574D02*
X001243Y039574D01*
X001243Y039622D02*
X028048Y039622D01*
X027999Y039671D02*
X001243Y039671D01*
X001243Y039719D02*
X027951Y039719D01*
X027902Y039768D02*
X001243Y039768D01*
X001243Y039816D02*
X027854Y039816D01*
X028214Y040156D02*
X031364Y040156D01*
X031316Y040204D02*
X028166Y040204D01*
X028117Y040253D02*
X031267Y040253D01*
X031219Y040301D02*
X028069Y040301D01*
X028025Y040345D02*
X001243Y040345D01*
X001243Y042595D01*
X028925Y042595D01*
X031675Y039845D01*
X082707Y039845D01*
X082707Y037595D01*
X030775Y037595D01*
X028025Y040345D01*
X028263Y040107D02*
X031413Y040107D01*
X031461Y040059D02*
X028311Y040059D01*
X028360Y040010D02*
X031510Y040010D01*
X031558Y039962D02*
X028408Y039962D01*
X028457Y039913D02*
X031607Y039913D01*
X031655Y039865D02*
X028505Y039865D01*
X028554Y039816D02*
X082707Y039816D01*
X082707Y039768D02*
X028602Y039768D01*
X028651Y039719D02*
X082707Y039719D01*
X082707Y039671D02*
X028699Y039671D01*
X028748Y039622D02*
X082707Y039622D01*
X082707Y039574D02*
X028796Y039574D01*
X028845Y039525D02*
X082707Y039525D01*
X082707Y039477D02*
X028893Y039477D01*
X028942Y039428D02*
X082707Y039428D01*
X082707Y039380D02*
X028990Y039380D01*
X029039Y039331D02*
X082707Y039331D01*
X082707Y039283D02*
X029087Y039283D01*
X029136Y039234D02*
X082707Y039234D01*
X082707Y039186D02*
X029184Y039186D01*
X029233Y039137D02*
X082707Y039137D01*
X082707Y039089D02*
X029281Y039089D01*
X029330Y039040D02*
X082707Y039040D01*
X082707Y038992D02*
X029378Y038992D01*
X029427Y038943D02*
X082707Y038943D01*
X082707Y038895D02*
X029475Y038895D01*
X029524Y038846D02*
X082707Y038846D01*
X082707Y038798D02*
X029572Y038798D01*
X029621Y038749D02*
X082707Y038749D01*
X082707Y038701D02*
X029669Y038701D01*
X029718Y038652D02*
X082707Y038652D01*
X082707Y038604D02*
X029766Y038604D01*
X029815Y038555D02*
X082707Y038555D01*
X082707Y038507D02*
X029863Y038507D01*
X029912Y038458D02*
X082707Y038458D01*
X082707Y038410D02*
X029960Y038410D01*
X030009Y038361D02*
X082707Y038361D01*
X082707Y038313D02*
X030057Y038313D01*
X030106Y038264D02*
X082707Y038264D01*
X082707Y038216D02*
X030154Y038216D01*
X030203Y038167D02*
X082707Y038167D01*
X082707Y038119D02*
X030251Y038119D01*
X030300Y038070D02*
X082707Y038070D01*
X082707Y038022D02*
X030348Y038022D01*
X030397Y037973D02*
X082707Y037973D01*
X082707Y037925D02*
X030445Y037925D01*
X030494Y037876D02*
X082707Y037876D01*
X082707Y037828D02*
X030542Y037828D01*
X030591Y037779D02*
X082707Y037779D01*
X082707Y037731D02*
X030639Y037731D01*
X030688Y037682D02*
X082707Y037682D01*
X082707Y037634D02*
X030736Y037634D01*
X027787Y036033D02*
X010334Y036033D01*
X010321Y035985D02*
X027835Y035985D01*
X027884Y035936D02*
X010309Y035936D01*
X010296Y035888D02*
X027932Y035888D01*
X027981Y035839D02*
X010283Y035839D01*
X010270Y035791D02*
X028029Y035791D01*
X028078Y035742D02*
X010258Y035742D01*
X010245Y035694D02*
X028126Y035694D01*
X028175Y035645D02*
X010232Y035645D01*
X010220Y035597D02*
X028223Y035597D01*
X028272Y035548D02*
X010207Y035548D01*
X010194Y035500D02*
X028320Y035500D01*
X028369Y035451D02*
X010181Y035451D01*
X010169Y035403D02*
X028417Y035403D01*
X028466Y035354D02*
X010156Y035354D01*
X010143Y035306D02*
X028514Y035306D01*
X028563Y035257D02*
X010131Y035257D01*
X010118Y035209D02*
X028611Y035209D01*
X028660Y035160D02*
X010105Y035160D01*
X010092Y035112D02*
X028708Y035112D01*
X028757Y035063D02*
X010080Y035063D01*
X010067Y035015D02*
X028805Y035015D01*
X028854Y034966D02*
X010054Y034966D01*
X010042Y034918D02*
X028902Y034918D01*
X027256Y033414D02*
X074568Y033414D01*
X074556Y033366D02*
X027304Y033366D01*
X027353Y033317D02*
X074543Y033317D01*
X074530Y033269D02*
X027401Y033269D01*
X027450Y033220D02*
X074518Y033220D01*
X074505Y033172D02*
X027498Y033172D01*
X027547Y033123D02*
X074492Y033123D01*
X074479Y033075D02*
X027595Y033075D01*
X027644Y033026D02*
X074467Y033026D01*
X074454Y032978D02*
X027692Y032978D01*
X027741Y032929D02*
X074441Y032929D01*
X074429Y032881D02*
X027789Y032881D01*
X027838Y032832D02*
X074416Y032832D01*
X074403Y032784D02*
X027886Y032784D01*
X027935Y032735D02*
X074390Y032735D01*
X074378Y032687D02*
X027983Y032687D01*
X028032Y032638D02*
X074365Y032638D01*
X074352Y032590D02*
X028080Y032590D01*
X028129Y032541D02*
X074339Y032541D01*
X074327Y032493D02*
X028177Y032493D01*
X028226Y032444D02*
X074314Y032444D01*
X074301Y032396D02*
X028274Y032396D01*
X028323Y032347D02*
X074289Y032347D01*
X074276Y032299D02*
X028371Y032299D01*
X028420Y032250D02*
X074263Y032250D01*
X074250Y032202D02*
X028468Y032202D01*
X028517Y032153D02*
X074238Y032153D01*
X074225Y032105D02*
X028565Y032105D01*
X027865Y032105D02*
X009300Y032105D01*
X009313Y032153D02*
X027817Y032153D01*
X027768Y032202D02*
X009325Y032202D01*
X009338Y032250D02*
X027720Y032250D01*
X027671Y032299D02*
X009351Y032299D01*
X009364Y032347D02*
X027623Y032347D01*
X027574Y032396D02*
X009376Y032396D01*
X009389Y032444D02*
X027526Y032444D01*
X027477Y032493D02*
X009402Y032493D01*
X009414Y032541D02*
X027429Y032541D01*
X027380Y032590D02*
X009427Y032590D01*
X009440Y032638D02*
X027332Y032638D01*
X027283Y032687D02*
X009453Y032687D01*
X009465Y032735D02*
X027235Y032735D01*
X027186Y032784D02*
X009478Y032784D01*
X009491Y032832D02*
X027138Y032832D01*
X027089Y032881D02*
X009504Y032881D01*
X009516Y032929D02*
X027041Y032929D01*
X026992Y032978D02*
X009529Y032978D01*
X009542Y033026D02*
X026944Y033026D01*
X026895Y033075D02*
X009554Y033075D01*
X009567Y033123D02*
X026847Y033123D01*
X026798Y033172D02*
X009580Y033172D01*
X009593Y033220D02*
X026750Y033220D01*
X026701Y033269D02*
X009605Y033269D01*
X009618Y033317D02*
X026653Y033317D01*
X027013Y033657D02*
X074632Y033657D01*
X074645Y033705D02*
X026965Y033705D01*
X026916Y033754D02*
X074657Y033754D01*
X074670Y033802D02*
X026868Y033802D01*
X026819Y033851D02*
X074683Y033851D01*
X074696Y033899D02*
X026771Y033899D01*
X026722Y033948D02*
X074708Y033948D01*
X074721Y033996D02*
X026674Y033996D01*
X026625Y034045D02*
X074734Y034045D01*
X074746Y034093D02*
X026577Y034093D01*
X026528Y034142D02*
X074759Y034142D01*
X074772Y034190D02*
X026480Y034190D01*
X026431Y034239D02*
X074785Y034239D01*
X074797Y034287D02*
X026383Y034287D01*
X026334Y034336D02*
X074810Y034336D01*
X074619Y033608D02*
X027062Y033608D01*
X027110Y033560D02*
X074607Y033560D01*
X074594Y033511D02*
X027159Y033511D01*
X027207Y033463D02*
X074581Y033463D01*
X075329Y033269D02*
X076029Y033269D01*
X076042Y033317D02*
X075342Y033317D01*
X075355Y033366D02*
X076055Y033366D01*
X076068Y033414D02*
X075368Y033414D01*
X075380Y033463D02*
X076080Y033463D01*
X076093Y033511D02*
X075393Y033511D01*
X075406Y033560D02*
X076106Y033560D01*
X076119Y033608D02*
X075419Y033608D01*
X075431Y033657D02*
X076131Y033657D01*
X076144Y033705D02*
X075444Y033705D01*
X075457Y033754D02*
X076157Y033754D01*
X076170Y033802D02*
X075470Y033802D01*
X075482Y033851D02*
X076182Y033851D01*
X076195Y033899D02*
X075495Y033899D01*
X075508Y033948D02*
X076208Y033948D01*
X076221Y033996D02*
X075521Y033996D01*
X075534Y034045D02*
X076234Y034045D01*
X076246Y034093D02*
X075546Y034093D01*
X075559Y034142D02*
X076259Y034142D01*
X076272Y034190D02*
X075572Y034190D01*
X075585Y034239D02*
X076285Y034239D01*
X076297Y034287D02*
X075597Y034287D01*
X075610Y034336D02*
X076310Y034336D01*
X076313Y034345D02*
X075613Y034345D01*
X074298Y029345D01*
X074998Y029345D01*
X076313Y034345D01*
X077059Y034142D02*
X077759Y034142D01*
X077772Y034190D02*
X077072Y034190D01*
X077085Y034239D02*
X077785Y034239D01*
X077797Y034287D02*
X077097Y034287D01*
X077110Y034336D02*
X077810Y034336D01*
X077813Y034345D02*
X077113Y034345D01*
X075798Y029345D01*
X076498Y029345D01*
X077813Y034345D01*
X077746Y034093D02*
X077046Y034093D01*
X077034Y034045D02*
X077734Y034045D01*
X077721Y033996D02*
X077021Y033996D01*
X077008Y033948D02*
X077708Y033948D01*
X077695Y033899D02*
X076995Y033899D01*
X076982Y033851D02*
X077682Y033851D01*
X077670Y033802D02*
X076970Y033802D01*
X076957Y033754D02*
X077657Y033754D01*
X077644Y033705D02*
X076944Y033705D01*
X076931Y033657D02*
X077631Y033657D01*
X077619Y033608D02*
X076919Y033608D01*
X076906Y033560D02*
X077606Y033560D01*
X077593Y033511D02*
X076893Y033511D01*
X076880Y033463D02*
X077580Y033463D01*
X077568Y033414D02*
X076868Y033414D01*
X076855Y033366D02*
X077555Y033366D01*
X077542Y033317D02*
X076842Y033317D01*
X076829Y033269D02*
X077529Y033269D01*
X077517Y033220D02*
X076817Y033220D01*
X076804Y033172D02*
X077504Y033172D01*
X077491Y033123D02*
X076791Y033123D01*
X076778Y033075D02*
X077478Y033075D01*
X077466Y033026D02*
X076766Y033026D01*
X076753Y032978D02*
X077453Y032978D01*
X077440Y032929D02*
X076740Y032929D01*
X076727Y032881D02*
X077427Y032881D01*
X077415Y032832D02*
X076715Y032832D01*
X076702Y032784D02*
X077402Y032784D01*
X077389Y032735D02*
X076689Y032735D01*
X076676Y032687D02*
X077376Y032687D01*
X077364Y032638D02*
X076664Y032638D01*
X076651Y032590D02*
X077351Y032590D01*
X077338Y032541D02*
X076638Y032541D01*
X076625Y032493D02*
X077325Y032493D01*
X077313Y032444D02*
X076613Y032444D01*
X076600Y032396D02*
X077300Y032396D01*
X077287Y032347D02*
X076587Y032347D01*
X076574Y032299D02*
X077274Y032299D01*
X077262Y032250D02*
X076562Y032250D01*
X076549Y032202D02*
X077249Y032202D01*
X077236Y032153D02*
X076536Y032153D01*
X076523Y032105D02*
X077223Y032105D01*
X077211Y032056D02*
X076511Y032056D01*
X076498Y032008D02*
X077198Y032008D01*
X077185Y031959D02*
X076485Y031959D01*
X076472Y031911D02*
X077172Y031911D01*
X077160Y031862D02*
X076460Y031862D01*
X076447Y031814D02*
X077147Y031814D01*
X077134Y031765D02*
X076434Y031765D01*
X076421Y031717D02*
X077121Y031717D01*
X077108Y031668D02*
X076408Y031668D01*
X076396Y031620D02*
X077096Y031620D01*
X077083Y031571D02*
X076383Y031571D01*
X076370Y031523D02*
X077070Y031523D01*
X077057Y031474D02*
X076357Y031474D01*
X076345Y031426D02*
X077045Y031426D01*
X077032Y031377D02*
X076332Y031377D01*
X076319Y031329D02*
X077019Y031329D01*
X077006Y031280D02*
X076306Y031280D01*
X076294Y031232D02*
X076994Y031232D01*
X076981Y031183D02*
X076281Y031183D01*
X076268Y031135D02*
X076968Y031135D01*
X076955Y031086D02*
X076255Y031086D01*
X076243Y031038D02*
X076943Y031038D01*
X076930Y030989D02*
X076230Y030989D01*
X076217Y030941D02*
X076917Y030941D01*
X076904Y030892D02*
X076204Y030892D01*
X076192Y030844D02*
X076892Y030844D01*
X076879Y030795D02*
X076179Y030795D01*
X076166Y030747D02*
X076866Y030747D01*
X076853Y030698D02*
X076153Y030698D01*
X076141Y030650D02*
X076841Y030650D01*
X076828Y030601D02*
X076128Y030601D01*
X076115Y030553D02*
X076815Y030553D01*
X076802Y030504D02*
X076102Y030504D01*
X076090Y030456D02*
X076790Y030456D01*
X076777Y030407D02*
X076077Y030407D01*
X076064Y030359D02*
X076764Y030359D01*
X076751Y030310D02*
X076051Y030310D01*
X076039Y030262D02*
X076739Y030262D01*
X076726Y030213D02*
X076026Y030213D01*
X076013Y030165D02*
X076713Y030165D01*
X076700Y030116D02*
X076000Y030116D01*
X075988Y030068D02*
X076688Y030068D01*
X076675Y030019D02*
X075975Y030019D01*
X075962Y029971D02*
X076662Y029971D01*
X076649Y029922D02*
X075949Y029922D01*
X075937Y029874D02*
X076637Y029874D01*
X076624Y029825D02*
X075924Y029825D01*
X075911Y029777D02*
X076611Y029777D01*
X076598Y029728D02*
X075898Y029728D01*
X075886Y029680D02*
X076586Y029680D01*
X076573Y029631D02*
X075873Y029631D01*
X075860Y029583D02*
X076560Y029583D01*
X076547Y029534D02*
X075847Y029534D01*
X075834Y029486D02*
X076534Y029486D01*
X076522Y029437D02*
X075822Y029437D01*
X075809Y029389D02*
X076509Y029389D01*
X077298Y029345D02*
X078613Y034345D01*
X079313Y034345D01*
X077998Y029345D01*
X077298Y029345D01*
X077309Y029389D02*
X078009Y029389D01*
X078022Y029437D02*
X077322Y029437D01*
X077334Y029486D02*
X078034Y029486D01*
X078047Y029534D02*
X077347Y029534D01*
X077360Y029583D02*
X078060Y029583D01*
X078073Y029631D02*
X077373Y029631D01*
X077386Y029680D02*
X078086Y029680D01*
X078098Y029728D02*
X077398Y029728D01*
X077411Y029777D02*
X078111Y029777D01*
X078124Y029825D02*
X077424Y029825D01*
X077437Y029874D02*
X078137Y029874D01*
X078149Y029922D02*
X077449Y029922D01*
X077462Y029971D02*
X078162Y029971D01*
X078175Y030019D02*
X077475Y030019D01*
X077488Y030068D02*
X078188Y030068D01*
X078200Y030116D02*
X077500Y030116D01*
X077513Y030165D02*
X078213Y030165D01*
X078226Y030213D02*
X077526Y030213D01*
X077539Y030262D02*
X078239Y030262D01*
X078251Y030310D02*
X077551Y030310D01*
X077564Y030359D02*
X078264Y030359D01*
X078277Y030407D02*
X077577Y030407D01*
X077590Y030456D02*
X078290Y030456D01*
X078302Y030504D02*
X077602Y030504D01*
X077615Y030553D02*
X078315Y030553D01*
X078328Y030601D02*
X077628Y030601D01*
X077641Y030650D02*
X078341Y030650D01*
X078353Y030698D02*
X077653Y030698D01*
X077666Y030747D02*
X078366Y030747D01*
X078379Y030795D02*
X077679Y030795D01*
X077692Y030844D02*
X078392Y030844D01*
X078404Y030892D02*
X077704Y030892D01*
X077717Y030941D02*
X078417Y030941D01*
X078430Y030989D02*
X077730Y030989D01*
X077743Y031038D02*
X078443Y031038D01*
X078455Y031086D02*
X077755Y031086D01*
X077768Y031135D02*
X078468Y031135D01*
X078481Y031183D02*
X077781Y031183D01*
X077794Y031232D02*
X078494Y031232D01*
X078506Y031280D02*
X077806Y031280D01*
X077819Y031329D02*
X078519Y031329D01*
X078532Y031377D02*
X077832Y031377D01*
X077845Y031426D02*
X078545Y031426D01*
X078557Y031474D02*
X077857Y031474D01*
X077870Y031523D02*
X078570Y031523D01*
X078583Y031571D02*
X077883Y031571D01*
X077896Y031620D02*
X078596Y031620D01*
X078608Y031668D02*
X077908Y031668D01*
X077921Y031717D02*
X078621Y031717D01*
X078634Y031765D02*
X077934Y031765D01*
X077947Y031814D02*
X078647Y031814D01*
X078660Y031862D02*
X077960Y031862D01*
X077972Y031911D02*
X078672Y031911D01*
X078685Y031959D02*
X077985Y031959D01*
X077998Y032008D02*
X078698Y032008D01*
X078711Y032056D02*
X078011Y032056D01*
X078023Y032105D02*
X078723Y032105D01*
X078736Y032153D02*
X078036Y032153D01*
X078049Y032202D02*
X078749Y032202D01*
X078762Y032250D02*
X078062Y032250D01*
X078074Y032299D02*
X078774Y032299D01*
X078787Y032347D02*
X078087Y032347D01*
X078100Y032396D02*
X078800Y032396D01*
X078813Y032444D02*
X078113Y032444D01*
X078125Y032493D02*
X078825Y032493D01*
X078838Y032541D02*
X078138Y032541D01*
X078151Y032590D02*
X078851Y032590D01*
X078864Y032638D02*
X078164Y032638D01*
X078176Y032687D02*
X078876Y032687D01*
X078889Y032735D02*
X078189Y032735D01*
X078202Y032784D02*
X078902Y032784D01*
X078915Y032832D02*
X078215Y032832D01*
X078227Y032881D02*
X078927Y032881D01*
X078940Y032929D02*
X078240Y032929D01*
X078253Y032978D02*
X078953Y032978D01*
X078966Y033026D02*
X078266Y033026D01*
X078278Y033075D02*
X078978Y033075D01*
X078991Y033123D02*
X078291Y033123D01*
X078304Y033172D02*
X079004Y033172D01*
X079017Y033220D02*
X078317Y033220D01*
X078329Y033269D02*
X079029Y033269D01*
X079042Y033317D02*
X078342Y033317D01*
X078355Y033366D02*
X079055Y033366D01*
X079068Y033414D02*
X078368Y033414D01*
X078380Y033463D02*
X079080Y033463D01*
X079093Y033511D02*
X078393Y033511D01*
X078406Y033560D02*
X079106Y033560D01*
X079119Y033608D02*
X078419Y033608D01*
X078431Y033657D02*
X079131Y033657D01*
X079144Y033705D02*
X078444Y033705D01*
X078457Y033754D02*
X079157Y033754D01*
X079170Y033802D02*
X078470Y033802D01*
X078482Y033851D02*
X079182Y033851D01*
X079195Y033899D02*
X078495Y033899D01*
X078508Y033948D02*
X079208Y033948D01*
X079221Y033996D02*
X078521Y033996D01*
X078534Y034045D02*
X079234Y034045D01*
X079246Y034093D02*
X078546Y034093D01*
X078559Y034142D02*
X079259Y034142D01*
X079272Y034190D02*
X078572Y034190D01*
X078585Y034239D02*
X079285Y034239D01*
X079297Y034287D02*
X078597Y034287D01*
X078610Y034336D02*
X079310Y034336D01*
X080059Y034142D02*
X080759Y034142D01*
X080772Y034190D02*
X080072Y034190D01*
X080085Y034239D02*
X080785Y034239D01*
X080797Y034287D02*
X080097Y034287D01*
X080110Y034336D02*
X080810Y034336D01*
X080813Y034345D02*
X080113Y034345D01*
X078798Y029345D01*
X079498Y029345D01*
X080813Y034345D01*
X080746Y034093D02*
X080046Y034093D01*
X080034Y034045D02*
X080734Y034045D01*
X080721Y033996D02*
X080021Y033996D01*
X080008Y033948D02*
X080708Y033948D01*
X080695Y033899D02*
X079995Y033899D01*
X079982Y033851D02*
X080682Y033851D01*
X080670Y033802D02*
X079970Y033802D01*
X079957Y033754D02*
X080657Y033754D01*
X080644Y033705D02*
X079944Y033705D01*
X079931Y033657D02*
X080631Y033657D01*
X080619Y033608D02*
X079919Y033608D01*
X079906Y033560D02*
X080606Y033560D01*
X080593Y033511D02*
X079893Y033511D01*
X079880Y033463D02*
X080580Y033463D01*
X080568Y033414D02*
X079868Y033414D01*
X079855Y033366D02*
X080555Y033366D01*
X080542Y033317D02*
X079842Y033317D01*
X079829Y033269D02*
X080529Y033269D01*
X080517Y033220D02*
X079817Y033220D01*
X079804Y033172D02*
X080504Y033172D01*
X080491Y033123D02*
X079791Y033123D01*
X079778Y033075D02*
X080478Y033075D01*
X080466Y033026D02*
X079766Y033026D01*
X079753Y032978D02*
X080453Y032978D01*
X080440Y032929D02*
X079740Y032929D01*
X079727Y032881D02*
X080427Y032881D01*
X080415Y032832D02*
X079715Y032832D01*
X079702Y032784D02*
X080402Y032784D01*
X080389Y032735D02*
X079689Y032735D01*
X079676Y032687D02*
X080376Y032687D01*
X080364Y032638D02*
X079664Y032638D01*
X079651Y032590D02*
X080351Y032590D01*
X080338Y032541D02*
X079638Y032541D01*
X079625Y032493D02*
X080325Y032493D01*
X080313Y032444D02*
X079613Y032444D01*
X079600Y032396D02*
X080300Y032396D01*
X080287Y032347D02*
X079587Y032347D01*
X079574Y032299D02*
X080274Y032299D01*
X080262Y032250D02*
X079562Y032250D01*
X079549Y032202D02*
X080249Y032202D01*
X080236Y032153D02*
X079536Y032153D01*
X079523Y032105D02*
X080223Y032105D01*
X080211Y032056D02*
X079511Y032056D01*
X079498Y032008D02*
X080198Y032008D01*
X080185Y031959D02*
X079485Y031959D01*
X079472Y031911D02*
X080172Y031911D01*
X080160Y031862D02*
X079460Y031862D01*
X079447Y031814D02*
X080147Y031814D01*
X080134Y031765D02*
X079434Y031765D01*
X079421Y031717D02*
X080121Y031717D01*
X080108Y031668D02*
X079408Y031668D01*
X079396Y031620D02*
X080096Y031620D01*
X080083Y031571D02*
X079383Y031571D01*
X079370Y031523D02*
X080070Y031523D01*
X080057Y031474D02*
X079357Y031474D01*
X079345Y031426D02*
X080045Y031426D01*
X080032Y031377D02*
X079332Y031377D01*
X079319Y031329D02*
X080019Y031329D01*
X080006Y031280D02*
X079306Y031280D01*
X079294Y031232D02*
X079994Y031232D01*
X079981Y031183D02*
X079281Y031183D01*
X079268Y031135D02*
X079968Y031135D01*
X079955Y031086D02*
X079255Y031086D01*
X079243Y031038D02*
X079943Y031038D01*
X079930Y030989D02*
X079230Y030989D01*
X079217Y030941D02*
X079917Y030941D01*
X079904Y030892D02*
X079204Y030892D01*
X079192Y030844D02*
X079892Y030844D01*
X079879Y030795D02*
X079179Y030795D01*
X079166Y030747D02*
X079866Y030747D01*
X079853Y030698D02*
X079153Y030698D01*
X079141Y030650D02*
X079841Y030650D01*
X079828Y030601D02*
X079128Y030601D01*
X079115Y030553D02*
X079815Y030553D01*
X079802Y030504D02*
X079102Y030504D01*
X079090Y030456D02*
X079790Y030456D01*
X079777Y030407D02*
X079077Y030407D01*
X079064Y030359D02*
X079764Y030359D01*
X079751Y030310D02*
X079051Y030310D01*
X079039Y030262D02*
X079739Y030262D01*
X079726Y030213D02*
X079026Y030213D01*
X079013Y030165D02*
X079713Y030165D01*
X079700Y030116D02*
X079000Y030116D01*
X078988Y030068D02*
X079688Y030068D01*
X079675Y030019D02*
X078975Y030019D01*
X078962Y029971D02*
X079662Y029971D01*
X079649Y029922D02*
X078949Y029922D01*
X078937Y029874D02*
X079637Y029874D01*
X079624Y029825D02*
X078924Y029825D01*
X078911Y029777D02*
X079611Y029777D01*
X079598Y029728D02*
X078898Y029728D01*
X078886Y029680D02*
X079586Y029680D01*
X079573Y029631D02*
X078873Y029631D01*
X078860Y029583D02*
X079560Y029583D01*
X079547Y029534D02*
X078847Y029534D01*
X078834Y029486D02*
X079534Y029486D01*
X079522Y029437D02*
X078822Y029437D01*
X078809Y029389D02*
X079509Y029389D01*
X080298Y029345D02*
X081613Y034345D01*
X082313Y034345D01*
X080998Y029345D01*
X080298Y029345D01*
X080309Y029389D02*
X081009Y029389D01*
X081022Y029437D02*
X080322Y029437D01*
X080334Y029486D02*
X081034Y029486D01*
X081047Y029534D02*
X080347Y029534D01*
X080360Y029583D02*
X081060Y029583D01*
X081073Y029631D02*
X080373Y029631D01*
X080386Y029680D02*
X081086Y029680D01*
X081098Y029728D02*
X080398Y029728D01*
X080411Y029777D02*
X081111Y029777D01*
X081124Y029825D02*
X080424Y029825D01*
X080437Y029874D02*
X081137Y029874D01*
X081149Y029922D02*
X080449Y029922D01*
X080462Y029971D02*
X081162Y029971D01*
X081175Y030019D02*
X080475Y030019D01*
X080488Y030068D02*
X081188Y030068D01*
X081200Y030116D02*
X080500Y030116D01*
X080513Y030165D02*
X081213Y030165D01*
X081226Y030213D02*
X080526Y030213D01*
X080539Y030262D02*
X081239Y030262D01*
X081251Y030310D02*
X080551Y030310D01*
X080564Y030359D02*
X081264Y030359D01*
X081277Y030407D02*
X080577Y030407D01*
X080590Y030456D02*
X081290Y030456D01*
X081302Y030504D02*
X080602Y030504D01*
X080615Y030553D02*
X081315Y030553D01*
X081328Y030601D02*
X080628Y030601D01*
X080641Y030650D02*
X081341Y030650D01*
X081353Y030698D02*
X080653Y030698D01*
X080666Y030747D02*
X081366Y030747D01*
X081379Y030795D02*
X080679Y030795D01*
X080692Y030844D02*
X081392Y030844D01*
X081404Y030892D02*
X080704Y030892D01*
X080717Y030941D02*
X081417Y030941D01*
X081430Y030989D02*
X080730Y030989D01*
X080743Y031038D02*
X081443Y031038D01*
X081455Y031086D02*
X080755Y031086D01*
X080768Y031135D02*
X081468Y031135D01*
X081481Y031183D02*
X080781Y031183D01*
X080794Y031232D02*
X081494Y031232D01*
X081506Y031280D02*
X080806Y031280D01*
X080819Y031329D02*
X081519Y031329D01*
X081532Y031377D02*
X080832Y031377D01*
X080845Y031426D02*
X081545Y031426D01*
X081557Y031474D02*
X080857Y031474D01*
X080870Y031523D02*
X081570Y031523D01*
X081583Y031571D02*
X080883Y031571D01*
X080896Y031620D02*
X081596Y031620D01*
X081608Y031668D02*
X080908Y031668D01*
X080921Y031717D02*
X081621Y031717D01*
X081634Y031765D02*
X080934Y031765D01*
X080947Y031814D02*
X081647Y031814D01*
X081660Y031862D02*
X080960Y031862D01*
X080972Y031911D02*
X081672Y031911D01*
X081685Y031959D02*
X080985Y031959D01*
X080998Y032008D02*
X081698Y032008D01*
X081711Y032056D02*
X081011Y032056D01*
X081023Y032105D02*
X081723Y032105D01*
X081736Y032153D02*
X081036Y032153D01*
X081049Y032202D02*
X081749Y032202D01*
X081762Y032250D02*
X081062Y032250D01*
X081074Y032299D02*
X081774Y032299D01*
X081787Y032347D02*
X081087Y032347D01*
X081100Y032396D02*
X081800Y032396D01*
X081813Y032444D02*
X081113Y032444D01*
X081125Y032493D02*
X081825Y032493D01*
X081838Y032541D02*
X081138Y032541D01*
X081151Y032590D02*
X081851Y032590D01*
X081864Y032638D02*
X081164Y032638D01*
X081176Y032687D02*
X081876Y032687D01*
X081889Y032735D02*
X081189Y032735D01*
X081202Y032784D02*
X081902Y032784D01*
X081915Y032832D02*
X081215Y032832D01*
X081227Y032881D02*
X081927Y032881D01*
X081940Y032929D02*
X081240Y032929D01*
X081253Y032978D02*
X081953Y032978D01*
X081966Y033026D02*
X081266Y033026D01*
X081278Y033075D02*
X081978Y033075D01*
X081991Y033123D02*
X081291Y033123D01*
X081304Y033172D02*
X082004Y033172D01*
X082017Y033220D02*
X081317Y033220D01*
X081329Y033269D02*
X082029Y033269D01*
X082042Y033317D02*
X081342Y033317D01*
X081355Y033366D02*
X082055Y033366D01*
X082068Y033414D02*
X081368Y033414D01*
X081380Y033463D02*
X082080Y033463D01*
X082093Y033511D02*
X081393Y033511D01*
X081406Y033560D02*
X082106Y033560D01*
X082119Y033608D02*
X081419Y033608D01*
X081431Y033657D02*
X082131Y033657D01*
X082144Y033705D02*
X081444Y033705D01*
X081457Y033754D02*
X082157Y033754D01*
X082170Y033802D02*
X081470Y033802D01*
X081482Y033851D02*
X082182Y033851D01*
X082195Y033899D02*
X081495Y033899D01*
X081508Y033948D02*
X082208Y033948D01*
X082221Y033996D02*
X081521Y033996D01*
X081534Y034045D02*
X082234Y034045D01*
X082246Y034093D02*
X081546Y034093D01*
X081559Y034142D02*
X082259Y034142D01*
X082272Y034190D02*
X081572Y034190D01*
X081585Y034239D02*
X082285Y034239D01*
X082297Y034287D02*
X081597Y034287D01*
X081610Y034336D02*
X082310Y034336D01*
X082707Y032803D02*
X082707Y030141D01*
X082498Y029345D01*
X081798Y029345D01*
X082707Y032803D01*
X082702Y032784D02*
X082707Y032784D01*
X082707Y032735D02*
X082689Y032735D01*
X082676Y032687D02*
X082707Y032687D01*
X082707Y032638D02*
X082664Y032638D01*
X082651Y032590D02*
X082707Y032590D01*
X082707Y032541D02*
X082638Y032541D01*
X082625Y032493D02*
X082707Y032493D01*
X082707Y032444D02*
X082613Y032444D01*
X082600Y032396D02*
X082707Y032396D01*
X082707Y032347D02*
X082587Y032347D01*
X082574Y032299D02*
X082707Y032299D01*
X082707Y032250D02*
X082562Y032250D01*
X082549Y032202D02*
X082707Y032202D01*
X082707Y032153D02*
X082536Y032153D01*
X082523Y032105D02*
X082707Y032105D01*
X082707Y032056D02*
X082511Y032056D01*
X082498Y032008D02*
X082707Y032008D01*
X082707Y031959D02*
X082485Y031959D01*
X082472Y031911D02*
X082707Y031911D01*
X082707Y031862D02*
X082460Y031862D01*
X082447Y031814D02*
X082707Y031814D01*
X082707Y031765D02*
X082434Y031765D01*
X082421Y031717D02*
X082707Y031717D01*
X082707Y031668D02*
X082408Y031668D01*
X082396Y031620D02*
X082707Y031620D01*
X082707Y031571D02*
X082383Y031571D01*
X082370Y031523D02*
X082707Y031523D01*
X082707Y031474D02*
X082357Y031474D01*
X082345Y031426D02*
X082707Y031426D01*
X082707Y031377D02*
X082332Y031377D01*
X082319Y031329D02*
X082707Y031329D01*
X082707Y031280D02*
X082306Y031280D01*
X082294Y031232D02*
X082707Y031232D01*
X082707Y031183D02*
X082281Y031183D01*
X082268Y031135D02*
X082707Y031135D01*
X082707Y031086D02*
X082255Y031086D01*
X082243Y031038D02*
X082707Y031038D01*
X082707Y030989D02*
X082230Y030989D01*
X082217Y030941D02*
X082707Y030941D01*
X082707Y030892D02*
X082204Y030892D01*
X082192Y030844D02*
X082707Y030844D01*
X082707Y030795D02*
X082179Y030795D01*
X082166Y030747D02*
X082707Y030747D01*
X082707Y030698D02*
X082153Y030698D01*
X082141Y030650D02*
X082707Y030650D01*
X082707Y030601D02*
X082128Y030601D01*
X082115Y030553D02*
X082707Y030553D01*
X082707Y030504D02*
X082102Y030504D01*
X082090Y030456D02*
X082707Y030456D01*
X082707Y030407D02*
X082077Y030407D01*
X082064Y030359D02*
X082707Y030359D01*
X082707Y030310D02*
X082051Y030310D01*
X082039Y030262D02*
X082707Y030262D01*
X082707Y030213D02*
X082026Y030213D01*
X082013Y030165D02*
X082707Y030165D01*
X082700Y030116D02*
X082000Y030116D01*
X081988Y030068D02*
X082688Y030068D01*
X082675Y030019D02*
X081975Y030019D01*
X081962Y029971D02*
X082662Y029971D01*
X082649Y029922D02*
X081949Y029922D01*
X081937Y029874D02*
X082637Y029874D01*
X082624Y029825D02*
X081924Y029825D01*
X081911Y029777D02*
X082611Y029777D01*
X082598Y029728D02*
X081898Y029728D01*
X081886Y029680D02*
X082586Y029680D01*
X082573Y029631D02*
X081873Y029631D01*
X081860Y029583D02*
X082560Y029583D01*
X082547Y029534D02*
X081847Y029534D01*
X081834Y029486D02*
X082534Y029486D01*
X082522Y029437D02*
X081822Y029437D01*
X081809Y029389D02*
X082509Y029389D01*
X075672Y031911D02*
X074972Y031911D01*
X074985Y031959D02*
X075685Y031959D01*
X075698Y032008D02*
X074998Y032008D01*
X075011Y032056D02*
X075711Y032056D01*
X075723Y032105D02*
X075023Y032105D01*
X075036Y032153D02*
X075736Y032153D01*
X075749Y032202D02*
X075049Y032202D01*
X075062Y032250D02*
X075762Y032250D01*
X075774Y032299D02*
X075074Y032299D01*
X075087Y032347D02*
X075787Y032347D01*
X075800Y032396D02*
X075100Y032396D01*
X075113Y032444D02*
X075813Y032444D01*
X075825Y032493D02*
X075125Y032493D01*
X075138Y032541D02*
X075838Y032541D01*
X075851Y032590D02*
X075151Y032590D01*
X075164Y032638D02*
X075864Y032638D01*
X075876Y032687D02*
X075176Y032687D01*
X075189Y032735D02*
X075889Y032735D01*
X075902Y032784D02*
X075202Y032784D01*
X075215Y032832D02*
X075915Y032832D01*
X075927Y032881D02*
X075227Y032881D01*
X075240Y032929D02*
X075940Y032929D01*
X075953Y032978D02*
X075253Y032978D01*
X075266Y033026D02*
X075966Y033026D01*
X075978Y033075D02*
X075278Y033075D01*
X075291Y033123D02*
X075991Y033123D01*
X076004Y033172D02*
X075304Y033172D01*
X075317Y033220D02*
X076017Y033220D01*
X075660Y031862D02*
X074960Y031862D01*
X074947Y031814D02*
X075647Y031814D01*
X075634Y031765D02*
X074934Y031765D01*
X074921Y031717D02*
X075621Y031717D01*
X075608Y031668D02*
X074908Y031668D01*
X074896Y031620D02*
X075596Y031620D01*
X075583Y031571D02*
X074883Y031571D01*
X074870Y031523D02*
X075570Y031523D01*
X075557Y031474D02*
X074857Y031474D01*
X074845Y031426D02*
X075545Y031426D01*
X075532Y031377D02*
X074832Y031377D01*
X074819Y031329D02*
X075519Y031329D01*
X075506Y031280D02*
X074806Y031280D01*
X074794Y031232D02*
X075494Y031232D01*
X075481Y031183D02*
X074781Y031183D01*
X074768Y031135D02*
X075468Y031135D01*
X075455Y031086D02*
X074755Y031086D01*
X074743Y031038D02*
X075443Y031038D01*
X075430Y030989D02*
X074730Y030989D01*
X074717Y030941D02*
X075417Y030941D01*
X075404Y030892D02*
X074704Y030892D01*
X074692Y030844D02*
X075392Y030844D01*
X075379Y030795D02*
X074679Y030795D01*
X074666Y030747D02*
X075366Y030747D01*
X075353Y030698D02*
X074653Y030698D01*
X074641Y030650D02*
X075341Y030650D01*
X075328Y030601D02*
X074628Y030601D01*
X074615Y030553D02*
X075315Y030553D01*
X075302Y030504D02*
X074602Y030504D01*
X074590Y030456D02*
X075290Y030456D01*
X075277Y030407D02*
X074577Y030407D01*
X074564Y030359D02*
X075264Y030359D01*
X075251Y030310D02*
X074551Y030310D01*
X074539Y030262D02*
X075239Y030262D01*
X075226Y030213D02*
X074526Y030213D01*
X074513Y030165D02*
X075213Y030165D01*
X075200Y030116D02*
X074500Y030116D01*
X074488Y030068D02*
X075188Y030068D01*
X075175Y030019D02*
X074475Y030019D01*
X074462Y029971D02*
X075162Y029971D01*
X075149Y029922D02*
X074449Y029922D01*
X074437Y029874D02*
X075137Y029874D01*
X075124Y029825D02*
X074424Y029825D01*
X074411Y029777D02*
X075111Y029777D01*
X075098Y029728D02*
X074398Y029728D01*
X074386Y029680D02*
X075086Y029680D01*
X075073Y029631D02*
X074373Y029631D01*
X074360Y029583D02*
X075060Y029583D01*
X075047Y029534D02*
X074347Y029534D01*
X074334Y029486D02*
X075034Y029486D01*
X075022Y029437D02*
X074322Y029437D01*
X074309Y029389D02*
X075009Y029389D01*
X031170Y040350D02*
X001243Y040350D01*
X001243Y040398D02*
X031122Y040398D01*
X031073Y040447D02*
X001243Y040447D01*
X001243Y040495D02*
X031025Y040495D01*
X030976Y040544D02*
X001243Y040544D01*
X001243Y040592D02*
X030928Y040592D01*
X030879Y040641D02*
X001243Y040641D01*
X001243Y040689D02*
X030831Y040689D01*
X030782Y040738D02*
X001243Y040738D01*
X001243Y040786D02*
X030734Y040786D01*
X030685Y040835D02*
X001243Y040835D01*
X001243Y040883D02*
X030637Y040883D01*
X030588Y040932D02*
X001243Y040932D01*
X001243Y040980D02*
X030540Y040980D01*
X030491Y041029D02*
X001243Y041029D01*
X001243Y041077D02*
X030443Y041077D01*
X030394Y041126D02*
X001243Y041126D01*
X001243Y041174D02*
X030346Y041174D01*
X030297Y041223D02*
X001243Y041223D01*
X001243Y041271D02*
X030249Y041271D01*
X030200Y041320D02*
X001243Y041320D01*
X001243Y041368D02*
X030152Y041368D01*
X030103Y041417D02*
X001243Y041417D01*
X001243Y041465D02*
X030055Y041465D01*
X030006Y041514D02*
X001243Y041514D01*
X001243Y041562D02*
X029958Y041562D01*
X029909Y041611D02*
X001243Y041611D01*
X001243Y041659D02*
X029861Y041659D01*
X029812Y041708D02*
X001243Y041708D01*
X001243Y041756D02*
X029764Y041756D01*
X029715Y041805D02*
X001243Y041805D01*
X001243Y041853D02*
X029667Y041853D01*
X029618Y041902D02*
X001243Y041902D01*
X001243Y041950D02*
X029570Y041950D01*
X029521Y041999D02*
X001243Y041999D01*
X001243Y042047D02*
X029473Y042047D01*
X029424Y042096D02*
X001243Y042096D01*
X001243Y042144D02*
X029376Y042144D01*
X029327Y042193D02*
X001243Y042193D01*
X001243Y042241D02*
X029279Y042241D01*
X029230Y042290D02*
X001243Y042290D01*
X001243Y042338D02*
X029182Y042338D01*
X029133Y042387D02*
X001243Y042387D01*
X001243Y042435D02*
X029085Y042435D01*
X029036Y042484D02*
X001243Y042484D01*
X001243Y042532D02*
X028988Y042532D01*
X028939Y042581D02*
X001243Y042581D01*
X001613Y037095D02*
X002313Y037095D01*
X001243Y033029D01*
X001243Y035690D01*
X001613Y037095D01*
X001601Y037052D02*
X002301Y037052D01*
X002288Y037003D02*
X001588Y037003D01*
X001576Y036955D02*
X002276Y036955D01*
X002263Y036906D02*
X001563Y036906D01*
X001550Y036858D02*
X002250Y036858D01*
X002237Y036809D02*
X001537Y036809D01*
X001525Y036761D02*
X002225Y036761D01*
X002212Y036712D02*
X001512Y036712D01*
X001499Y036664D02*
X002199Y036664D01*
X002186Y036615D02*
X001486Y036615D01*
X001474Y036567D02*
X002174Y036567D01*
X002161Y036518D02*
X001461Y036518D01*
X001448Y036470D02*
X002148Y036470D01*
X002135Y036421D02*
X001435Y036421D01*
X001423Y036373D02*
X002123Y036373D01*
X002110Y036324D02*
X001410Y036324D01*
X001397Y036276D02*
X002097Y036276D01*
X002084Y036227D02*
X001384Y036227D01*
X001372Y036179D02*
X002072Y036179D01*
X002059Y036130D02*
X001359Y036130D01*
X001346Y036082D02*
X002046Y036082D01*
X002033Y036033D02*
X001333Y036033D01*
X001320Y035985D02*
X002020Y035985D01*
X002008Y035936D02*
X001308Y035936D01*
X001295Y035888D02*
X001995Y035888D01*
X001982Y035839D02*
X001282Y035839D01*
X001269Y035791D02*
X001969Y035791D01*
X001957Y035742D02*
X001257Y035742D01*
X001244Y035694D02*
X001944Y035694D01*
X001931Y035645D02*
X001243Y035645D01*
X001243Y035597D02*
X001918Y035597D01*
X001906Y035548D02*
X001243Y035548D01*
X001243Y035500D02*
X001893Y035500D01*
X001880Y035451D02*
X001243Y035451D01*
X001243Y035403D02*
X001867Y035403D01*
X001855Y035354D02*
X001243Y035354D01*
X001243Y035306D02*
X001842Y035306D01*
X001829Y035257D02*
X001243Y035257D01*
X001243Y035209D02*
X001816Y035209D01*
X001804Y035160D02*
X001243Y035160D01*
X001243Y035112D02*
X001791Y035112D01*
X001778Y035063D02*
X001243Y035063D01*
X001243Y035015D02*
X001765Y035015D01*
X001753Y034966D02*
X001243Y034966D01*
X001243Y034918D02*
X001740Y034918D01*
X001727Y034869D02*
X001243Y034869D01*
X001243Y034821D02*
X001714Y034821D01*
X001702Y034772D02*
X001243Y034772D01*
X001243Y034724D02*
X001689Y034724D01*
X001676Y034675D02*
X001243Y034675D01*
X001243Y034627D02*
X001663Y034627D01*
X001651Y034578D02*
X001243Y034578D01*
X001243Y034530D02*
X001638Y034530D01*
X001625Y034481D02*
X001243Y034481D01*
X001243Y034433D02*
X001612Y034433D01*
X001600Y034384D02*
X001243Y034384D01*
X001243Y034336D02*
X001587Y034336D01*
X001574Y034287D02*
X001243Y034287D01*
X001243Y034239D02*
X001561Y034239D01*
X001549Y034190D02*
X001243Y034190D01*
X001243Y034142D02*
X001536Y034142D01*
X001523Y034093D02*
X001243Y034093D01*
X001243Y034045D02*
X001510Y034045D01*
X001498Y033996D02*
X001243Y033996D01*
X001243Y033948D02*
X001485Y033948D01*
X001472Y033899D02*
X001243Y033899D01*
X001243Y033851D02*
X001459Y033851D01*
X001446Y033802D02*
X001243Y033802D01*
X001243Y033754D02*
X001434Y033754D01*
X001421Y033705D02*
X001243Y033705D01*
X001243Y033657D02*
X001408Y033657D01*
X001395Y033608D02*
X001243Y033608D01*
X001243Y033560D02*
X001383Y033560D01*
X001370Y033511D02*
X001243Y033511D01*
X001243Y033463D02*
X001357Y033463D01*
X001344Y033414D02*
X001243Y033414D01*
X001243Y033366D02*
X001332Y033366D01*
X001319Y033317D02*
X001243Y033317D01*
X001243Y033269D02*
X001306Y033269D01*
X001293Y033220D02*
X001243Y033220D01*
X001243Y033172D02*
X001281Y033172D01*
X001268Y033123D02*
X001243Y033123D01*
X001243Y033075D02*
X001255Y033075D01*
X002004Y032881D02*
X002704Y032881D01*
X002717Y032929D02*
X002017Y032929D01*
X002030Y032978D02*
X002730Y032978D01*
X002742Y033026D02*
X002042Y033026D01*
X002055Y033075D02*
X002755Y033075D01*
X002768Y033123D02*
X002068Y033123D01*
X002081Y033172D02*
X002781Y033172D01*
X002793Y033220D02*
X002093Y033220D01*
X002106Y033269D02*
X002806Y033269D01*
X002819Y033317D02*
X002119Y033317D01*
X002132Y033366D02*
X002832Y033366D01*
X002844Y033414D02*
X002144Y033414D01*
X002157Y033463D02*
X002857Y033463D01*
X002870Y033511D02*
X002170Y033511D01*
X002183Y033560D02*
X002883Y033560D01*
X002895Y033608D02*
X002195Y033608D01*
X002208Y033657D02*
X002908Y033657D01*
X002921Y033705D02*
X002221Y033705D01*
X002234Y033754D02*
X002934Y033754D01*
X002946Y033802D02*
X002246Y033802D01*
X002259Y033851D02*
X002959Y033851D01*
X002972Y033899D02*
X002272Y033899D01*
X002285Y033948D02*
X002985Y033948D01*
X002998Y033996D02*
X002298Y033996D01*
X002310Y034045D02*
X003010Y034045D01*
X003023Y034093D02*
X002323Y034093D01*
X002336Y034142D02*
X003036Y034142D01*
X003049Y034190D02*
X002349Y034190D01*
X002361Y034239D02*
X003061Y034239D01*
X003074Y034287D02*
X002374Y034287D01*
X002387Y034336D02*
X003087Y034336D01*
X003100Y034384D02*
X002400Y034384D01*
X002412Y034433D02*
X003112Y034433D01*
X003125Y034481D02*
X002425Y034481D01*
X002438Y034530D02*
X003138Y034530D01*
X003151Y034578D02*
X002451Y034578D01*
X002463Y034627D02*
X003163Y034627D01*
X003176Y034675D02*
X002476Y034675D01*
X002489Y034724D02*
X003189Y034724D01*
X003202Y034772D02*
X002502Y034772D01*
X002514Y034821D02*
X003214Y034821D01*
X003227Y034869D02*
X002527Y034869D01*
X002540Y034918D02*
X003240Y034918D01*
X003253Y034966D02*
X002553Y034966D01*
X002565Y035015D02*
X003265Y035015D01*
X003278Y035063D02*
X002578Y035063D01*
X002591Y035112D02*
X003291Y035112D01*
X003304Y035160D02*
X002604Y035160D01*
X002616Y035209D02*
X003316Y035209D01*
X003329Y035257D02*
X002629Y035257D01*
X002642Y035306D02*
X003342Y035306D01*
X003355Y035354D02*
X002655Y035354D01*
X002667Y035403D02*
X003367Y035403D01*
X003380Y035451D02*
X002680Y035451D01*
X002693Y035500D02*
X003393Y035500D01*
X003406Y035548D02*
X002706Y035548D01*
X002718Y035597D02*
X003418Y035597D01*
X003431Y035645D02*
X002731Y035645D01*
X002744Y035694D02*
X003444Y035694D01*
X003457Y035742D02*
X002757Y035742D01*
X002769Y035791D02*
X003469Y035791D01*
X003482Y035839D02*
X002782Y035839D01*
X002795Y035888D02*
X003495Y035888D01*
X003508Y035936D02*
X002808Y035936D01*
X002820Y035985D02*
X003520Y035985D01*
X003533Y036033D02*
X002833Y036033D01*
X002846Y036082D02*
X003546Y036082D01*
X003559Y036130D02*
X002859Y036130D01*
X002872Y036179D02*
X003572Y036179D01*
X003584Y036227D02*
X002884Y036227D01*
X002897Y036276D02*
X003597Y036276D01*
X003610Y036324D02*
X002910Y036324D01*
X002923Y036373D02*
X003623Y036373D01*
X003635Y036421D02*
X002935Y036421D01*
X002948Y036470D02*
X003648Y036470D01*
X003661Y036518D02*
X002961Y036518D01*
X002974Y036567D02*
X003674Y036567D01*
X003686Y036615D02*
X002986Y036615D01*
X002999Y036664D02*
X003699Y036664D01*
X003712Y036712D02*
X003012Y036712D01*
X003025Y036761D02*
X003725Y036761D01*
X003737Y036809D02*
X003037Y036809D01*
X003050Y036858D02*
X003750Y036858D01*
X003763Y036906D02*
X003063Y036906D01*
X003076Y036955D02*
X003776Y036955D01*
X003788Y037003D02*
X003088Y037003D01*
X003101Y037052D02*
X003801Y037052D01*
X003813Y037095D02*
X003113Y037095D01*
X001798Y032095D01*
X002498Y032095D01*
X003813Y037095D01*
X004563Y036906D02*
X005263Y036906D01*
X005250Y036858D02*
X004550Y036858D01*
X004537Y036809D02*
X005237Y036809D01*
X005225Y036761D02*
X004525Y036761D01*
X004512Y036712D02*
X005212Y036712D01*
X005199Y036664D02*
X004499Y036664D01*
X004486Y036615D02*
X005186Y036615D01*
X005174Y036567D02*
X004474Y036567D01*
X004461Y036518D02*
X005161Y036518D01*
X005148Y036470D02*
X004448Y036470D01*
X004435Y036421D02*
X005135Y036421D01*
X005123Y036373D02*
X004423Y036373D01*
X004410Y036324D02*
X005110Y036324D01*
X005097Y036276D02*
X004397Y036276D01*
X004384Y036227D02*
X005084Y036227D01*
X005072Y036179D02*
X004372Y036179D01*
X004359Y036130D02*
X005059Y036130D01*
X005046Y036082D02*
X004346Y036082D01*
X004333Y036033D02*
X005033Y036033D01*
X005020Y035985D02*
X004320Y035985D01*
X004308Y035936D02*
X005008Y035936D01*
X004995Y035888D02*
X004295Y035888D01*
X004282Y035839D02*
X004982Y035839D01*
X004969Y035791D02*
X004269Y035791D01*
X004257Y035742D02*
X004957Y035742D01*
X004944Y035694D02*
X004244Y035694D01*
X004231Y035645D02*
X004931Y035645D01*
X004918Y035597D02*
X004218Y035597D01*
X004206Y035548D02*
X004906Y035548D01*
X004893Y035500D02*
X004193Y035500D01*
X004180Y035451D02*
X004880Y035451D01*
X004867Y035403D02*
X004167Y035403D01*
X004155Y035354D02*
X004855Y035354D01*
X004842Y035306D02*
X004142Y035306D01*
X004129Y035257D02*
X004829Y035257D01*
X004816Y035209D02*
X004116Y035209D01*
X004104Y035160D02*
X004804Y035160D01*
X004791Y035112D02*
X004091Y035112D01*
X004078Y035063D02*
X004778Y035063D01*
X004765Y035015D02*
X004065Y035015D01*
X004053Y034966D02*
X004753Y034966D01*
X004740Y034918D02*
X004040Y034918D01*
X004027Y034869D02*
X004727Y034869D01*
X004714Y034821D02*
X004014Y034821D01*
X004002Y034772D02*
X004702Y034772D01*
X004689Y034724D02*
X003989Y034724D01*
X003976Y034675D02*
X004676Y034675D01*
X004663Y034627D02*
X003963Y034627D01*
X003951Y034578D02*
X004651Y034578D01*
X004638Y034530D02*
X003938Y034530D01*
X003925Y034481D02*
X004625Y034481D01*
X004612Y034433D02*
X003912Y034433D01*
X003900Y034384D02*
X004600Y034384D01*
X004587Y034336D02*
X003887Y034336D01*
X003874Y034287D02*
X004574Y034287D01*
X004561Y034239D02*
X003861Y034239D01*
X003849Y034190D02*
X004549Y034190D01*
X004536Y034142D02*
X003836Y034142D01*
X003823Y034093D02*
X004523Y034093D01*
X004510Y034045D02*
X003810Y034045D01*
X003798Y033996D02*
X004498Y033996D01*
X004485Y033948D02*
X003785Y033948D01*
X003772Y033899D02*
X004472Y033899D01*
X004459Y033851D02*
X003759Y033851D01*
X003746Y033802D02*
X004446Y033802D01*
X004434Y033754D02*
X003734Y033754D01*
X003721Y033705D02*
X004421Y033705D01*
X004408Y033657D02*
X003708Y033657D01*
X003695Y033608D02*
X004395Y033608D01*
X004383Y033560D02*
X003683Y033560D01*
X003670Y033511D02*
X004370Y033511D01*
X004357Y033463D02*
X003657Y033463D01*
X003644Y033414D02*
X004344Y033414D01*
X004332Y033366D02*
X003632Y033366D01*
X003619Y033317D02*
X004319Y033317D01*
X004306Y033269D02*
X003606Y033269D01*
X003593Y033220D02*
X004293Y033220D01*
X004281Y033172D02*
X003581Y033172D01*
X003568Y033123D02*
X004268Y033123D01*
X004255Y033075D02*
X003555Y033075D01*
X003542Y033026D02*
X004242Y033026D01*
X004230Y032978D02*
X003530Y032978D01*
X003517Y032929D02*
X004217Y032929D01*
X004204Y032881D02*
X003504Y032881D01*
X003491Y032832D02*
X004191Y032832D01*
X004179Y032784D02*
X003479Y032784D01*
X003466Y032735D02*
X004166Y032735D01*
X004153Y032687D02*
X003453Y032687D01*
X003440Y032638D02*
X004140Y032638D01*
X004128Y032590D02*
X003428Y032590D01*
X003415Y032541D02*
X004115Y032541D01*
X004102Y032493D02*
X003402Y032493D01*
X003389Y032444D02*
X004089Y032444D01*
X004077Y032396D02*
X003377Y032396D01*
X003364Y032347D02*
X004064Y032347D01*
X004051Y032299D02*
X003351Y032299D01*
X003338Y032250D02*
X004038Y032250D01*
X004026Y032202D02*
X003326Y032202D01*
X003313Y032153D02*
X004013Y032153D01*
X004000Y032105D02*
X003300Y032105D01*
X003298Y032095D02*
X004613Y037095D01*
X005313Y037095D01*
X003998Y032095D01*
X003298Y032095D01*
X002551Y032299D02*
X001851Y032299D01*
X001864Y032347D02*
X002564Y032347D01*
X002577Y032396D02*
X001877Y032396D01*
X001889Y032444D02*
X002589Y032444D01*
X002602Y032493D02*
X001902Y032493D01*
X001915Y032541D02*
X002615Y032541D01*
X002628Y032590D02*
X001928Y032590D01*
X001940Y032638D02*
X002640Y032638D01*
X002653Y032687D02*
X001953Y032687D01*
X001966Y032735D02*
X002666Y032735D01*
X002679Y032784D02*
X001979Y032784D01*
X001991Y032832D02*
X002691Y032832D01*
X002538Y032250D02*
X001838Y032250D01*
X001826Y032202D02*
X002526Y032202D01*
X002513Y032153D02*
X001813Y032153D01*
X001800Y032105D02*
X002500Y032105D01*
X004798Y032095D02*
X006113Y037095D01*
X006813Y037095D01*
X005498Y032095D01*
X004798Y032095D01*
X004800Y032105D02*
X005500Y032105D01*
X005513Y032153D02*
X004813Y032153D01*
X004826Y032202D02*
X005526Y032202D01*
X005538Y032250D02*
X004838Y032250D01*
X004851Y032299D02*
X005551Y032299D01*
X005564Y032347D02*
X004864Y032347D01*
X004877Y032396D02*
X005577Y032396D01*
X005589Y032444D02*
X004889Y032444D01*
X004902Y032493D02*
X005602Y032493D01*
X005615Y032541D02*
X004915Y032541D01*
X004928Y032590D02*
X005628Y032590D01*
X005640Y032638D02*
X004940Y032638D01*
X004953Y032687D02*
X005653Y032687D01*
X005666Y032735D02*
X004966Y032735D01*
X004979Y032784D02*
X005679Y032784D01*
X005691Y032832D02*
X004991Y032832D01*
X005004Y032881D02*
X005704Y032881D01*
X005717Y032929D02*
X005017Y032929D01*
X005030Y032978D02*
X005730Y032978D01*
X005742Y033026D02*
X005042Y033026D01*
X005055Y033075D02*
X005755Y033075D01*
X005768Y033123D02*
X005068Y033123D01*
X005081Y033172D02*
X005781Y033172D01*
X005793Y033220D02*
X005093Y033220D01*
X005106Y033269D02*
X005806Y033269D01*
X005819Y033317D02*
X005119Y033317D01*
X005132Y033366D02*
X005832Y033366D01*
X005844Y033414D02*
X005144Y033414D01*
X005157Y033463D02*
X005857Y033463D01*
X005870Y033511D02*
X005170Y033511D01*
X005183Y033560D02*
X005883Y033560D01*
X005895Y033608D02*
X005195Y033608D01*
X005208Y033657D02*
X005908Y033657D01*
X005921Y033705D02*
X005221Y033705D01*
X005234Y033754D02*
X005934Y033754D01*
X005946Y033802D02*
X005246Y033802D01*
X005259Y033851D02*
X005959Y033851D01*
X005972Y033899D02*
X005272Y033899D01*
X005285Y033948D02*
X005985Y033948D01*
X005998Y033996D02*
X005298Y033996D01*
X005310Y034045D02*
X006010Y034045D01*
X006023Y034093D02*
X005323Y034093D01*
X005336Y034142D02*
X006036Y034142D01*
X006049Y034190D02*
X005349Y034190D01*
X005361Y034239D02*
X006061Y034239D01*
X006074Y034287D02*
X005374Y034287D01*
X005387Y034336D02*
X006087Y034336D01*
X006100Y034384D02*
X005400Y034384D01*
X005412Y034433D02*
X006112Y034433D01*
X006125Y034481D02*
X005425Y034481D01*
X005438Y034530D02*
X006138Y034530D01*
X006151Y034578D02*
X005451Y034578D01*
X005463Y034627D02*
X006163Y034627D01*
X006176Y034675D02*
X005476Y034675D01*
X005489Y034724D02*
X006189Y034724D01*
X006202Y034772D02*
X005502Y034772D01*
X005514Y034821D02*
X006214Y034821D01*
X006227Y034869D02*
X005527Y034869D01*
X005540Y034918D02*
X006240Y034918D01*
X006253Y034966D02*
X005553Y034966D01*
X005565Y035015D02*
X006265Y035015D01*
X006278Y035063D02*
X005578Y035063D01*
X005591Y035112D02*
X006291Y035112D01*
X006304Y035160D02*
X005604Y035160D01*
X005616Y035209D02*
X006316Y035209D01*
X006329Y035257D02*
X005629Y035257D01*
X005642Y035306D02*
X006342Y035306D01*
X006355Y035354D02*
X005655Y035354D01*
X005667Y035403D02*
X006367Y035403D01*
X006380Y035451D02*
X005680Y035451D01*
X005693Y035500D02*
X006393Y035500D01*
X006406Y035548D02*
X005706Y035548D01*
X005718Y035597D02*
X006418Y035597D01*
X006431Y035645D02*
X005731Y035645D01*
X005744Y035694D02*
X006444Y035694D01*
X006457Y035742D02*
X005757Y035742D01*
X005769Y035791D02*
X006469Y035791D01*
X006482Y035839D02*
X005782Y035839D01*
X005795Y035888D02*
X006495Y035888D01*
X006508Y035936D02*
X005808Y035936D01*
X005820Y035985D02*
X006520Y035985D01*
X006533Y036033D02*
X005833Y036033D01*
X005846Y036082D02*
X006546Y036082D01*
X006559Y036130D02*
X005859Y036130D01*
X005872Y036179D02*
X006572Y036179D01*
X006584Y036227D02*
X005884Y036227D01*
X005897Y036276D02*
X006597Y036276D01*
X006610Y036324D02*
X005910Y036324D01*
X005923Y036373D02*
X006623Y036373D01*
X006635Y036421D02*
X005935Y036421D01*
X005948Y036470D02*
X006648Y036470D01*
X006661Y036518D02*
X005961Y036518D01*
X005974Y036567D02*
X006674Y036567D01*
X006686Y036615D02*
X005986Y036615D01*
X005999Y036664D02*
X006699Y036664D01*
X006712Y036712D02*
X006012Y036712D01*
X006025Y036761D02*
X006725Y036761D01*
X006737Y036809D02*
X006037Y036809D01*
X006050Y036858D02*
X006750Y036858D01*
X006763Y036906D02*
X006063Y036906D01*
X006076Y036955D02*
X006776Y036955D01*
X006788Y037003D02*
X006088Y037003D01*
X006101Y037052D02*
X006801Y037052D01*
X007550Y036858D02*
X008250Y036858D01*
X008263Y036906D02*
X007563Y036906D01*
X007576Y036955D02*
X008276Y036955D01*
X008288Y037003D02*
X007588Y037003D01*
X007601Y037052D02*
X008301Y037052D01*
X008313Y037095D02*
X007613Y037095D01*
X006298Y032095D01*
X006998Y032095D01*
X008313Y037095D01*
X008237Y036809D02*
X007537Y036809D01*
X007525Y036761D02*
X008225Y036761D01*
X008212Y036712D02*
X007512Y036712D01*
X007499Y036664D02*
X008199Y036664D01*
X008186Y036615D02*
X007486Y036615D01*
X007474Y036567D02*
X008174Y036567D01*
X008161Y036518D02*
X007461Y036518D01*
X007448Y036470D02*
X008148Y036470D01*
X008135Y036421D02*
X007435Y036421D01*
X007423Y036373D02*
X008123Y036373D01*
X008110Y036324D02*
X007410Y036324D01*
X007397Y036276D02*
X008097Y036276D01*
X008084Y036227D02*
X007384Y036227D01*
X007372Y036179D02*
X008072Y036179D01*
X008059Y036130D02*
X007359Y036130D01*
X007346Y036082D02*
X008046Y036082D01*
X008033Y036033D02*
X007333Y036033D01*
X007320Y035985D02*
X008020Y035985D01*
X008008Y035936D02*
X007308Y035936D01*
X007295Y035888D02*
X007995Y035888D01*
X007982Y035839D02*
X007282Y035839D01*
X007269Y035791D02*
X007969Y035791D01*
X007957Y035742D02*
X007257Y035742D01*
X007244Y035694D02*
X007944Y035694D01*
X007931Y035645D02*
X007231Y035645D01*
X007218Y035597D02*
X007918Y035597D01*
X007906Y035548D02*
X007206Y035548D01*
X007193Y035500D02*
X007893Y035500D01*
X007880Y035451D02*
X007180Y035451D01*
X007167Y035403D02*
X007867Y035403D01*
X007855Y035354D02*
X007155Y035354D01*
X007142Y035306D02*
X007842Y035306D01*
X007829Y035257D02*
X007129Y035257D01*
X007116Y035209D02*
X007816Y035209D01*
X007804Y035160D02*
X007104Y035160D01*
X007091Y035112D02*
X007791Y035112D01*
X007778Y035063D02*
X007078Y035063D01*
X007065Y035015D02*
X007765Y035015D01*
X007753Y034966D02*
X007053Y034966D01*
X007040Y034918D02*
X007740Y034918D01*
X007727Y034869D02*
X007027Y034869D01*
X007014Y034821D02*
X007714Y034821D01*
X007702Y034772D02*
X007002Y034772D01*
X006989Y034724D02*
X007689Y034724D01*
X007676Y034675D02*
X006976Y034675D01*
X006963Y034627D02*
X007663Y034627D01*
X007651Y034578D02*
X006951Y034578D01*
X006938Y034530D02*
X007638Y034530D01*
X007625Y034481D02*
X006925Y034481D01*
X006912Y034433D02*
X007612Y034433D01*
X007600Y034384D02*
X006900Y034384D01*
X006887Y034336D02*
X007587Y034336D01*
X007574Y034287D02*
X006874Y034287D01*
X006861Y034239D02*
X007561Y034239D01*
X007549Y034190D02*
X006849Y034190D01*
X006836Y034142D02*
X007536Y034142D01*
X007523Y034093D02*
X006823Y034093D01*
X006810Y034045D02*
X007510Y034045D01*
X007498Y033996D02*
X006798Y033996D01*
X006785Y033948D02*
X007485Y033948D01*
X007472Y033899D02*
X006772Y033899D01*
X006759Y033851D02*
X007459Y033851D01*
X007446Y033802D02*
X006746Y033802D01*
X006734Y033754D02*
X007434Y033754D01*
X007421Y033705D02*
X006721Y033705D01*
X006708Y033657D02*
X007408Y033657D01*
X007395Y033608D02*
X006695Y033608D01*
X006683Y033560D02*
X007383Y033560D01*
X007370Y033511D02*
X006670Y033511D01*
X006657Y033463D02*
X007357Y033463D01*
X007344Y033414D02*
X006644Y033414D01*
X006632Y033366D02*
X007332Y033366D01*
X007319Y033317D02*
X006619Y033317D01*
X006606Y033269D02*
X007306Y033269D01*
X007293Y033220D02*
X006593Y033220D01*
X006581Y033172D02*
X007281Y033172D01*
X007268Y033123D02*
X006568Y033123D01*
X006555Y033075D02*
X007255Y033075D01*
X007242Y033026D02*
X006542Y033026D01*
X006530Y032978D02*
X007230Y032978D01*
X007217Y032929D02*
X006517Y032929D01*
X006504Y032881D02*
X007204Y032881D01*
X007191Y032832D02*
X006491Y032832D01*
X006479Y032784D02*
X007179Y032784D01*
X007166Y032735D02*
X006466Y032735D01*
X006453Y032687D02*
X007153Y032687D01*
X007140Y032638D02*
X006440Y032638D01*
X006428Y032590D02*
X007128Y032590D01*
X007115Y032541D02*
X006415Y032541D01*
X006402Y032493D02*
X007102Y032493D01*
X007089Y032444D02*
X006389Y032444D01*
X006377Y032396D02*
X007077Y032396D01*
X007064Y032347D02*
X006364Y032347D01*
X006351Y032299D02*
X007051Y032299D01*
X007038Y032250D02*
X006338Y032250D01*
X006326Y032202D02*
X007026Y032202D01*
X007013Y032153D02*
X006313Y032153D01*
X006300Y032105D02*
X007000Y032105D01*
X007798Y032095D02*
X009113Y037095D01*
X009813Y037095D01*
X008498Y032095D01*
X007798Y032095D01*
X007800Y032105D02*
X008500Y032105D01*
X008513Y032153D02*
X007813Y032153D01*
X007826Y032202D02*
X008526Y032202D01*
X008538Y032250D02*
X007838Y032250D01*
X007851Y032299D02*
X008551Y032299D01*
X008564Y032347D02*
X007864Y032347D01*
X007877Y032396D02*
X008577Y032396D01*
X008589Y032444D02*
X007889Y032444D01*
X007902Y032493D02*
X008602Y032493D01*
X008615Y032541D02*
X007915Y032541D01*
X007928Y032590D02*
X008628Y032590D01*
X008640Y032638D02*
X007940Y032638D01*
X007953Y032687D02*
X008653Y032687D01*
X008666Y032735D02*
X007966Y032735D01*
X007979Y032784D02*
X008679Y032784D01*
X008691Y032832D02*
X007991Y032832D01*
X008004Y032881D02*
X008704Y032881D01*
X008717Y032929D02*
X008017Y032929D01*
X008030Y032978D02*
X008730Y032978D01*
X008742Y033026D02*
X008042Y033026D01*
X008055Y033075D02*
X008755Y033075D01*
X008768Y033123D02*
X008068Y033123D01*
X008081Y033172D02*
X008781Y033172D01*
X008793Y033220D02*
X008093Y033220D01*
X008106Y033269D02*
X008806Y033269D01*
X008819Y033317D02*
X008119Y033317D01*
X008132Y033366D02*
X008832Y033366D01*
X008844Y033414D02*
X008144Y033414D01*
X008157Y033463D02*
X008857Y033463D01*
X008870Y033511D02*
X008170Y033511D01*
X008183Y033560D02*
X008883Y033560D01*
X008895Y033608D02*
X008195Y033608D01*
X008208Y033657D02*
X008908Y033657D01*
X008921Y033705D02*
X008221Y033705D01*
X008234Y033754D02*
X008934Y033754D01*
X008946Y033802D02*
X008246Y033802D01*
X008259Y033851D02*
X008959Y033851D01*
X008972Y033899D02*
X008272Y033899D01*
X008285Y033948D02*
X008985Y033948D01*
X008998Y033996D02*
X008298Y033996D01*
X008310Y034045D02*
X009010Y034045D01*
X009023Y034093D02*
X008323Y034093D01*
X008336Y034142D02*
X009036Y034142D01*
X009049Y034190D02*
X008349Y034190D01*
X008361Y034239D02*
X009061Y034239D01*
X009074Y034287D02*
X008374Y034287D01*
X008387Y034336D02*
X009087Y034336D01*
X009100Y034384D02*
X008400Y034384D01*
X008412Y034433D02*
X009112Y034433D01*
X009125Y034481D02*
X008425Y034481D01*
X008438Y034530D02*
X009138Y034530D01*
X009151Y034578D02*
X008451Y034578D01*
X008463Y034627D02*
X009163Y034627D01*
X009176Y034675D02*
X008476Y034675D01*
X008489Y034724D02*
X009189Y034724D01*
X009202Y034772D02*
X008502Y034772D01*
X008514Y034821D02*
X009214Y034821D01*
X009227Y034869D02*
X008527Y034869D01*
X008540Y034918D02*
X009240Y034918D01*
X009253Y034966D02*
X008553Y034966D01*
X008565Y035015D02*
X009265Y035015D01*
X009278Y035063D02*
X008578Y035063D01*
X008591Y035112D02*
X009291Y035112D01*
X009304Y035160D02*
X008604Y035160D01*
X008616Y035209D02*
X009316Y035209D01*
X009329Y035257D02*
X008629Y035257D01*
X008642Y035306D02*
X009342Y035306D01*
X009355Y035354D02*
X008655Y035354D01*
X008667Y035403D02*
X009367Y035403D01*
X009380Y035451D02*
X008680Y035451D01*
X008693Y035500D02*
X009393Y035500D01*
X009406Y035548D02*
X008706Y035548D01*
X008718Y035597D02*
X009418Y035597D01*
X009431Y035645D02*
X008731Y035645D01*
X008744Y035694D02*
X009444Y035694D01*
X009457Y035742D02*
X008757Y035742D01*
X008769Y035791D02*
X009469Y035791D01*
X009482Y035839D02*
X008782Y035839D01*
X008795Y035888D02*
X009495Y035888D01*
X009508Y035936D02*
X008808Y035936D01*
X008820Y035985D02*
X009520Y035985D01*
X009533Y036033D02*
X008833Y036033D01*
X008846Y036082D02*
X009546Y036082D01*
X009559Y036130D02*
X008859Y036130D01*
X008872Y036179D02*
X009572Y036179D01*
X009584Y036227D02*
X008884Y036227D01*
X008897Y036276D02*
X009597Y036276D01*
X009610Y036324D02*
X008910Y036324D01*
X008923Y036373D02*
X009623Y036373D01*
X009635Y036421D02*
X008935Y036421D01*
X008948Y036470D02*
X009648Y036470D01*
X009661Y036518D02*
X008961Y036518D01*
X008974Y036567D02*
X009674Y036567D01*
X009686Y036615D02*
X008986Y036615D01*
X008999Y036664D02*
X009699Y036664D01*
X009712Y036712D02*
X009012Y036712D01*
X009025Y036761D02*
X009725Y036761D01*
X009737Y036809D02*
X009037Y036809D01*
X009050Y036858D02*
X009750Y036858D01*
X009763Y036906D02*
X009063Y036906D01*
X009076Y036955D02*
X009776Y036955D01*
X009788Y037003D02*
X009088Y037003D01*
X009101Y037052D02*
X009801Y037052D01*
X010550Y036858D02*
X026962Y036858D01*
X026914Y036906D02*
X010563Y036906D01*
X010576Y036955D02*
X026865Y036955D01*
X026817Y037003D02*
X010588Y037003D01*
X010601Y037052D02*
X026768Y037052D01*
X027011Y036809D02*
X010538Y036809D01*
X010525Y036761D02*
X027059Y036761D01*
X027108Y036712D02*
X010512Y036712D01*
X010499Y036664D02*
X027156Y036664D01*
X027205Y036615D02*
X010487Y036615D01*
X010474Y036567D02*
X027253Y036567D01*
X027302Y036518D02*
X010461Y036518D01*
X010449Y036470D02*
X027350Y036470D01*
X027399Y036421D02*
X010436Y036421D01*
X010423Y036373D02*
X027447Y036373D01*
X027496Y036324D02*
X010410Y036324D01*
X010398Y036276D02*
X027544Y036276D01*
X027593Y036227D02*
X010385Y036227D01*
X010372Y036179D02*
X027641Y036179D01*
X027690Y036130D02*
X010360Y036130D01*
X010347Y036082D02*
X027738Y036082D01*
X005301Y037052D02*
X004601Y037052D01*
X004588Y037003D02*
X005288Y037003D01*
X005276Y036955D02*
X004576Y036955D01*
M02*
