G75*
G70*
%OFA0B0*%
%FSLAX24Y24*%
%IPPOS*%
%LPD*%
%AMOC8*
5,1,8,0,0,1.08239X$1,22.5*
%
%ADD10C,0.0100*%
%ADD11R,0.5375X0.8000*%
D10*
X001800Y000800D02*
X001800Y049875D01*
X001800Y051375D01*
X022475Y051375D01*
X022475Y049875D01*
X001800Y049875D01*
X003300Y049875D01*
X003300Y002300D01*
X080650Y002300D01*
X080650Y049875D01*
X082150Y049875D01*
X076600Y049875D01*
X076600Y051375D01*
X082150Y051375D01*
X082150Y049875D01*
X082150Y000800D01*
X001800Y000800D01*
X001800Y000824D02*
X082150Y000824D01*
X082150Y000922D02*
X001800Y000922D01*
X001800Y001021D02*
X082150Y001021D01*
X082150Y001119D02*
X001800Y001119D01*
X001800Y001218D02*
X082150Y001218D01*
X082150Y001316D02*
X001800Y001316D01*
X001800Y001415D02*
X082150Y001415D01*
X082150Y001513D02*
X001800Y001513D01*
X001800Y001612D02*
X082150Y001612D01*
X082150Y001710D02*
X001800Y001710D01*
X001800Y001809D02*
X082150Y001809D01*
X082150Y001907D02*
X001800Y001907D01*
X001800Y002006D02*
X082150Y002006D01*
X082150Y002104D02*
X001800Y002104D01*
X001800Y002203D02*
X082150Y002203D01*
X082150Y002301D02*
X080650Y002301D01*
X080650Y002400D02*
X082150Y002400D01*
X082150Y002498D02*
X080650Y002498D01*
X080650Y002597D02*
X082150Y002597D01*
X082150Y002695D02*
X080650Y002695D01*
X080650Y002794D02*
X082150Y002794D01*
X082150Y002892D02*
X080650Y002892D01*
X080650Y002991D02*
X082150Y002991D01*
X082150Y003089D02*
X080650Y003089D01*
X080650Y003188D02*
X082150Y003188D01*
X082150Y003286D02*
X080650Y003286D01*
X080650Y003385D02*
X082150Y003385D01*
X082150Y003483D02*
X080650Y003483D01*
X080650Y003582D02*
X082150Y003582D01*
X082150Y003680D02*
X080650Y003680D01*
X080650Y003779D02*
X082150Y003779D01*
X082150Y003877D02*
X080650Y003877D01*
X080650Y003976D02*
X082150Y003976D01*
X082150Y004074D02*
X080650Y004074D01*
X080650Y004173D02*
X082150Y004173D01*
X082150Y004271D02*
X080650Y004271D01*
X080650Y004370D02*
X082150Y004370D01*
X082150Y004468D02*
X080650Y004468D01*
X080650Y004567D02*
X082150Y004567D01*
X082150Y004665D02*
X080650Y004665D01*
X080650Y004764D02*
X082150Y004764D01*
X082150Y004862D02*
X080650Y004862D01*
X080650Y004961D02*
X082150Y004961D01*
X082150Y005059D02*
X080650Y005059D01*
X080650Y005158D02*
X082150Y005158D01*
X082150Y005256D02*
X080650Y005256D01*
X080650Y005355D02*
X082150Y005355D01*
X082150Y005453D02*
X080650Y005453D01*
X080650Y005552D02*
X082150Y005552D01*
X082150Y005650D02*
X080650Y005650D01*
X080650Y005749D02*
X082150Y005749D01*
X082150Y005847D02*
X080650Y005847D01*
X080650Y005946D02*
X082150Y005946D01*
X082150Y006044D02*
X080650Y006044D01*
X080650Y006143D02*
X082150Y006143D01*
X082150Y006241D02*
X080650Y006241D01*
X080650Y006340D02*
X082150Y006340D01*
X082150Y006438D02*
X080650Y006438D01*
X080650Y006537D02*
X082150Y006537D01*
X082150Y006635D02*
X080650Y006635D01*
X080650Y006734D02*
X082150Y006734D01*
X082150Y006832D02*
X080650Y006832D01*
X080650Y006931D02*
X082150Y006931D01*
X082150Y007029D02*
X080650Y007029D01*
X080650Y007128D02*
X082150Y007128D01*
X082150Y007226D02*
X080650Y007226D01*
X080650Y007325D02*
X082150Y007325D01*
X082150Y007423D02*
X080650Y007423D01*
X080650Y007522D02*
X082150Y007522D01*
X082150Y007620D02*
X080650Y007620D01*
X080650Y007719D02*
X082150Y007719D01*
X082150Y007817D02*
X080650Y007817D01*
X080650Y007916D02*
X082150Y007916D01*
X082150Y008014D02*
X080650Y008014D01*
X080650Y008113D02*
X082150Y008113D01*
X082150Y008211D02*
X080650Y008211D01*
X080650Y008310D02*
X082150Y008310D01*
X082150Y008408D02*
X080650Y008408D01*
X080650Y008507D02*
X082150Y008507D01*
X082150Y008605D02*
X080650Y008605D01*
X080650Y008704D02*
X082150Y008704D01*
X082150Y008802D02*
X080650Y008802D01*
X080650Y008901D02*
X082150Y008901D01*
X082150Y008999D02*
X080650Y008999D01*
X080650Y009098D02*
X082150Y009098D01*
X082150Y009196D02*
X080650Y009196D01*
X080650Y009295D02*
X082150Y009295D01*
X082150Y009393D02*
X080650Y009393D01*
X080650Y009492D02*
X082150Y009492D01*
X082150Y009590D02*
X080650Y009590D01*
X080650Y009689D02*
X082150Y009689D01*
X082150Y009787D02*
X080650Y009787D01*
X080650Y009886D02*
X082150Y009886D01*
X082150Y009984D02*
X080650Y009984D01*
X080650Y010083D02*
X082150Y010083D01*
X082150Y010181D02*
X080650Y010181D01*
X080650Y010280D02*
X082150Y010280D01*
X082150Y010378D02*
X080650Y010378D01*
X080650Y010477D02*
X082150Y010477D01*
X082150Y010575D02*
X080650Y010575D01*
X080650Y010674D02*
X082150Y010674D01*
X082150Y010772D02*
X080650Y010772D01*
X080650Y010871D02*
X082150Y010871D01*
X082150Y010969D02*
X080650Y010969D01*
X080650Y011068D02*
X082150Y011068D01*
X082150Y011166D02*
X080650Y011166D01*
X080650Y011265D02*
X082150Y011265D01*
X082150Y011363D02*
X080650Y011363D01*
X080650Y011462D02*
X082150Y011462D01*
X082150Y011560D02*
X080650Y011560D01*
X080650Y011659D02*
X082150Y011659D01*
X082150Y011757D02*
X080650Y011757D01*
X080650Y011856D02*
X082150Y011856D01*
X082150Y011954D02*
X080650Y011954D01*
X080650Y012053D02*
X082150Y012053D01*
X082150Y012151D02*
X080650Y012151D01*
X080650Y012250D02*
X082150Y012250D01*
X082150Y012348D02*
X080650Y012348D01*
X080650Y012447D02*
X082150Y012447D01*
X082150Y012545D02*
X080650Y012545D01*
X080650Y012644D02*
X082150Y012644D01*
X082150Y012742D02*
X080650Y012742D01*
X080650Y012841D02*
X082150Y012841D01*
X082150Y012939D02*
X080650Y012939D01*
X080650Y013038D02*
X082150Y013038D01*
X082150Y013136D02*
X080650Y013136D01*
X080650Y013235D02*
X082150Y013235D01*
X082150Y013333D02*
X080650Y013333D01*
X080650Y013432D02*
X082150Y013432D01*
X082150Y013530D02*
X080650Y013530D01*
X080650Y013629D02*
X082150Y013629D01*
X082150Y013727D02*
X080650Y013727D01*
X080650Y013826D02*
X082150Y013826D01*
X082150Y013924D02*
X080650Y013924D01*
X080650Y014023D02*
X082150Y014023D01*
X082150Y014121D02*
X080650Y014121D01*
X080650Y014220D02*
X082150Y014220D01*
X082150Y014318D02*
X080650Y014318D01*
X080650Y014417D02*
X082150Y014417D01*
X082150Y014515D02*
X080650Y014515D01*
X080650Y014614D02*
X082150Y014614D01*
X082150Y014712D02*
X080650Y014712D01*
X080650Y014811D02*
X082150Y014811D01*
X082150Y014909D02*
X080650Y014909D01*
X080650Y015008D02*
X082150Y015008D01*
X082150Y015106D02*
X080650Y015106D01*
X080650Y015205D02*
X082150Y015205D01*
X082150Y015303D02*
X080650Y015303D01*
X080650Y015402D02*
X082150Y015402D01*
X082150Y015500D02*
X080650Y015500D01*
X080650Y015599D02*
X082150Y015599D01*
X082150Y015697D02*
X080650Y015697D01*
X080650Y015796D02*
X082150Y015796D01*
X082150Y015894D02*
X080650Y015894D01*
X080650Y015993D02*
X082150Y015993D01*
X082150Y016091D02*
X080650Y016091D01*
X080650Y016190D02*
X082150Y016190D01*
X082150Y016288D02*
X080650Y016288D01*
X080650Y016387D02*
X082150Y016387D01*
X082150Y016485D02*
X080650Y016485D01*
X080650Y016584D02*
X082150Y016584D01*
X082150Y016682D02*
X080650Y016682D01*
X080650Y016781D02*
X082150Y016781D01*
X082150Y016879D02*
X080650Y016879D01*
X080650Y016978D02*
X082150Y016978D01*
X082150Y017076D02*
X080650Y017076D01*
X080650Y017175D02*
X082150Y017175D01*
X082150Y017273D02*
X080650Y017273D01*
X080650Y017372D02*
X082150Y017372D01*
X082150Y017470D02*
X080650Y017470D01*
X080650Y017569D02*
X082150Y017569D01*
X082150Y017667D02*
X080650Y017667D01*
X080650Y017766D02*
X082150Y017766D01*
X082150Y017864D02*
X080650Y017864D01*
X080650Y017963D02*
X082150Y017963D01*
X082150Y018061D02*
X080650Y018061D01*
X080650Y018160D02*
X082150Y018160D01*
X082150Y018258D02*
X080650Y018258D01*
X080650Y018357D02*
X082150Y018357D01*
X082150Y018455D02*
X080650Y018455D01*
X080650Y018554D02*
X082150Y018554D01*
X082150Y018652D02*
X080650Y018652D01*
X080650Y018751D02*
X082150Y018751D01*
X082150Y018849D02*
X080650Y018849D01*
X080650Y018948D02*
X082150Y018948D01*
X082150Y019046D02*
X080650Y019046D01*
X080650Y019145D02*
X082150Y019145D01*
X082150Y019243D02*
X080650Y019243D01*
X080650Y019342D02*
X082150Y019342D01*
X082150Y019440D02*
X080650Y019440D01*
X080650Y019539D02*
X082150Y019539D01*
X082150Y019637D02*
X080650Y019637D01*
X080650Y019736D02*
X082150Y019736D01*
X082150Y019834D02*
X080650Y019834D01*
X080650Y019933D02*
X082150Y019933D01*
X082150Y020031D02*
X080650Y020031D01*
X080650Y020130D02*
X082150Y020130D01*
X082150Y020228D02*
X080650Y020228D01*
X080650Y020327D02*
X082150Y020327D01*
X082150Y020425D02*
X080650Y020425D01*
X080650Y020524D02*
X082150Y020524D01*
X082150Y020622D02*
X080650Y020622D01*
X080650Y020721D02*
X082150Y020721D01*
X082150Y020819D02*
X080650Y020819D01*
X080650Y020918D02*
X082150Y020918D01*
X082150Y021016D02*
X080650Y021016D01*
X080650Y021115D02*
X082150Y021115D01*
X082150Y021213D02*
X080650Y021213D01*
X080650Y021312D02*
X082150Y021312D01*
X082150Y021410D02*
X080650Y021410D01*
X080650Y021509D02*
X082150Y021509D01*
X082150Y021607D02*
X080650Y021607D01*
X080650Y021706D02*
X082150Y021706D01*
X082150Y021804D02*
X080650Y021804D01*
X080650Y021903D02*
X082150Y021903D01*
X082150Y022001D02*
X080650Y022001D01*
X080650Y022100D02*
X082150Y022100D01*
X082150Y022198D02*
X080650Y022198D01*
X080650Y022297D02*
X082150Y022297D01*
X082150Y022395D02*
X080650Y022395D01*
X080650Y022494D02*
X082150Y022494D01*
X082150Y022592D02*
X080650Y022592D01*
X080650Y022691D02*
X082150Y022691D01*
X082150Y022789D02*
X080650Y022789D01*
X080650Y022888D02*
X082150Y022888D01*
X082150Y022986D02*
X080650Y022986D01*
X080650Y023085D02*
X082150Y023085D01*
X082150Y023183D02*
X080650Y023183D01*
X080650Y023282D02*
X082150Y023282D01*
X082150Y023380D02*
X080650Y023380D01*
X080650Y023479D02*
X082150Y023479D01*
X082150Y023577D02*
X080650Y023577D01*
X080650Y023676D02*
X082150Y023676D01*
X082150Y023774D02*
X080650Y023774D01*
X080650Y023873D02*
X082150Y023873D01*
X082150Y023971D02*
X080650Y023971D01*
X080650Y024070D02*
X082150Y024070D01*
X082150Y024168D02*
X080650Y024168D01*
X080650Y024267D02*
X082150Y024267D01*
X082150Y024365D02*
X080650Y024365D01*
X080650Y024464D02*
X082150Y024464D01*
X082150Y024562D02*
X080650Y024562D01*
X080650Y024661D02*
X082150Y024661D01*
X082150Y024759D02*
X080650Y024759D01*
X080650Y024858D02*
X082150Y024858D01*
X082150Y024956D02*
X080650Y024956D01*
X080650Y025055D02*
X082150Y025055D01*
X082150Y025153D02*
X080650Y025153D01*
X080650Y025252D02*
X082150Y025252D01*
X082150Y025350D02*
X080650Y025350D01*
X080650Y025449D02*
X082150Y025449D01*
X082150Y025547D02*
X080650Y025547D01*
X080650Y025646D02*
X082150Y025646D01*
X082150Y025744D02*
X080650Y025744D01*
X080650Y025843D02*
X082150Y025843D01*
X082150Y025941D02*
X080650Y025941D01*
X080650Y026040D02*
X082150Y026040D01*
X082150Y026138D02*
X080650Y026138D01*
X080650Y026237D02*
X082150Y026237D01*
X082150Y026335D02*
X080650Y026335D01*
X080650Y026434D02*
X082150Y026434D01*
X082150Y026532D02*
X080650Y026532D01*
X080650Y026631D02*
X082150Y026631D01*
X082150Y026729D02*
X080650Y026729D01*
X080650Y026828D02*
X082150Y026828D01*
X082150Y026926D02*
X080650Y026926D01*
X080650Y027025D02*
X082150Y027025D01*
X082150Y027123D02*
X080650Y027123D01*
X080650Y027222D02*
X082150Y027222D01*
X082150Y027320D02*
X080650Y027320D01*
X080650Y027419D02*
X082150Y027419D01*
X082150Y027517D02*
X080650Y027517D01*
X080650Y027616D02*
X082150Y027616D01*
X082150Y027714D02*
X080650Y027714D01*
X080650Y027813D02*
X082150Y027813D01*
X082150Y027911D02*
X080650Y027911D01*
X080650Y028010D02*
X082150Y028010D01*
X082150Y028108D02*
X080650Y028108D01*
X080650Y028207D02*
X082150Y028207D01*
X082150Y028305D02*
X080650Y028305D01*
X080650Y028404D02*
X082150Y028404D01*
X082150Y028502D02*
X080650Y028502D01*
X080650Y028601D02*
X082150Y028601D01*
X082150Y028699D02*
X080650Y028699D01*
X080650Y028798D02*
X082150Y028798D01*
X082150Y028896D02*
X080650Y028896D01*
X080650Y028995D02*
X082150Y028995D01*
X082150Y029093D02*
X080650Y029093D01*
X080650Y029192D02*
X082150Y029192D01*
X082150Y029290D02*
X080650Y029290D01*
X080650Y029389D02*
X082150Y029389D01*
X082150Y029487D02*
X080650Y029487D01*
X080650Y029586D02*
X082150Y029586D01*
X082150Y029684D02*
X080650Y029684D01*
X080650Y029783D02*
X082150Y029783D01*
X082150Y029881D02*
X080650Y029881D01*
X080650Y029980D02*
X082150Y029980D01*
X082150Y030078D02*
X080650Y030078D01*
X080650Y030177D02*
X082150Y030177D01*
X082150Y030275D02*
X080650Y030275D01*
X080650Y030374D02*
X082150Y030374D01*
X082150Y030472D02*
X080650Y030472D01*
X080650Y030571D02*
X082150Y030571D01*
X082150Y030669D02*
X080650Y030669D01*
X080650Y030768D02*
X082150Y030768D01*
X082150Y030866D02*
X080650Y030866D01*
X080650Y030965D02*
X082150Y030965D01*
X082150Y031063D02*
X080650Y031063D01*
X080650Y031162D02*
X082150Y031162D01*
X082150Y031260D02*
X080650Y031260D01*
X080650Y031359D02*
X082150Y031359D01*
X082150Y031457D02*
X080650Y031457D01*
X080650Y031556D02*
X082150Y031556D01*
X082150Y031654D02*
X080650Y031654D01*
X080650Y031753D02*
X082150Y031753D01*
X082150Y031851D02*
X080650Y031851D01*
X080650Y031950D02*
X082150Y031950D01*
X082150Y032048D02*
X080650Y032048D01*
X080650Y032147D02*
X082150Y032147D01*
X082150Y032245D02*
X080650Y032245D01*
X080650Y032344D02*
X082150Y032344D01*
X082150Y032442D02*
X080650Y032442D01*
X080650Y032541D02*
X082150Y032541D01*
X082150Y032639D02*
X080650Y032639D01*
X080650Y032738D02*
X082150Y032738D01*
X082150Y032836D02*
X080650Y032836D01*
X080650Y032935D02*
X082150Y032935D01*
X082150Y033033D02*
X080650Y033033D01*
X080650Y033132D02*
X082150Y033132D01*
X082150Y033230D02*
X080650Y033230D01*
X080650Y033329D02*
X082150Y033329D01*
X082150Y033427D02*
X080650Y033427D01*
X080650Y033526D02*
X082150Y033526D01*
X082150Y033624D02*
X080650Y033624D01*
X080650Y033723D02*
X082150Y033723D01*
X082150Y033821D02*
X080650Y033821D01*
X080650Y033920D02*
X082150Y033920D01*
X082150Y034018D02*
X080650Y034018D01*
X080650Y034117D02*
X082150Y034117D01*
X082150Y034215D02*
X080650Y034215D01*
X080650Y034314D02*
X082150Y034314D01*
X082150Y034412D02*
X080650Y034412D01*
X080650Y034511D02*
X082150Y034511D01*
X082150Y034609D02*
X080650Y034609D01*
X080650Y034708D02*
X082150Y034708D01*
X082150Y034806D02*
X080650Y034806D01*
X080650Y034905D02*
X082150Y034905D01*
X082150Y035003D02*
X080650Y035003D01*
X080650Y035102D02*
X082150Y035102D01*
X082150Y035200D02*
X080650Y035200D01*
X080650Y035299D02*
X082150Y035299D01*
X082150Y035397D02*
X080650Y035397D01*
X080650Y035496D02*
X082150Y035496D01*
X082150Y035594D02*
X080650Y035594D01*
X080650Y035693D02*
X082150Y035693D01*
X082150Y035791D02*
X080650Y035791D01*
X080650Y035890D02*
X082150Y035890D01*
X082150Y035988D02*
X080650Y035988D01*
X080650Y036087D02*
X082150Y036087D01*
X082150Y036185D02*
X080650Y036185D01*
X080650Y036284D02*
X082150Y036284D01*
X082150Y036382D02*
X080650Y036382D01*
X080650Y036481D02*
X082150Y036481D01*
X082150Y036579D02*
X080650Y036579D01*
X080650Y036678D02*
X082150Y036678D01*
X082150Y036776D02*
X080650Y036776D01*
X080650Y036875D02*
X082150Y036875D01*
X082150Y036973D02*
X080650Y036973D01*
X080650Y037072D02*
X082150Y037072D01*
X082150Y037170D02*
X080650Y037170D01*
X080650Y037269D02*
X082150Y037269D01*
X082150Y037367D02*
X080650Y037367D01*
X080650Y037466D02*
X082150Y037466D01*
X082150Y037564D02*
X080650Y037564D01*
X080650Y037663D02*
X082150Y037663D01*
X082150Y037761D02*
X080650Y037761D01*
X080650Y037860D02*
X082150Y037860D01*
X082150Y037958D02*
X080650Y037958D01*
X080650Y038057D02*
X082150Y038057D01*
X082150Y038155D02*
X080650Y038155D01*
X080650Y038254D02*
X082150Y038254D01*
X082150Y038352D02*
X080650Y038352D01*
X080650Y038451D02*
X082150Y038451D01*
X082150Y038549D02*
X080650Y038549D01*
X080650Y038648D02*
X082150Y038648D01*
X082150Y038746D02*
X080650Y038746D01*
X080650Y038845D02*
X082150Y038845D01*
X082150Y038943D02*
X080650Y038943D01*
X080650Y039042D02*
X082150Y039042D01*
X082150Y039140D02*
X080650Y039140D01*
X080650Y039239D02*
X082150Y039239D01*
X082150Y039337D02*
X080650Y039337D01*
X080650Y039436D02*
X082150Y039436D01*
X082150Y039534D02*
X080650Y039534D01*
X080650Y039633D02*
X082150Y039633D01*
X082150Y039731D02*
X080650Y039731D01*
X080650Y039830D02*
X082150Y039830D01*
X082150Y039928D02*
X080650Y039928D01*
X080650Y040027D02*
X082150Y040027D01*
X082150Y040125D02*
X080650Y040125D01*
X080650Y040224D02*
X082150Y040224D01*
X082150Y040322D02*
X080650Y040322D01*
X080650Y040421D02*
X082150Y040421D01*
X082150Y040519D02*
X080650Y040519D01*
X080650Y040618D02*
X082150Y040618D01*
X082150Y040716D02*
X080650Y040716D01*
X080650Y040815D02*
X082150Y040815D01*
X082150Y040913D02*
X080650Y040913D01*
X080650Y041012D02*
X082150Y041012D01*
X082150Y041110D02*
X080650Y041110D01*
X080650Y041209D02*
X082150Y041209D01*
X082150Y041307D02*
X080650Y041307D01*
X080650Y041406D02*
X082150Y041406D01*
X082150Y041504D02*
X080650Y041504D01*
X080650Y041603D02*
X082150Y041603D01*
X082150Y041701D02*
X080650Y041701D01*
X080650Y041800D02*
X082150Y041800D01*
X082150Y041898D02*
X080650Y041898D01*
X080650Y041997D02*
X082150Y041997D01*
X082150Y042095D02*
X080650Y042095D01*
X080650Y042194D02*
X082150Y042194D01*
X082150Y042292D02*
X080650Y042292D01*
X080650Y042391D02*
X082150Y042391D01*
X082150Y042489D02*
X080650Y042489D01*
X080650Y042588D02*
X082150Y042588D01*
X082150Y042686D02*
X080650Y042686D01*
X080650Y042785D02*
X082150Y042785D01*
X082150Y042883D02*
X080650Y042883D01*
X080650Y042982D02*
X082150Y042982D01*
X082150Y043080D02*
X080650Y043080D01*
X080650Y043179D02*
X082150Y043179D01*
X082150Y043277D02*
X080650Y043277D01*
X080650Y043376D02*
X082150Y043376D01*
X082150Y043474D02*
X080650Y043474D01*
X080650Y043573D02*
X082150Y043573D01*
X082150Y043671D02*
X080650Y043671D01*
X080650Y043770D02*
X082150Y043770D01*
X082150Y043868D02*
X080650Y043868D01*
X080650Y043967D02*
X082150Y043967D01*
X082150Y044065D02*
X080650Y044065D01*
X080650Y044164D02*
X082150Y044164D01*
X082150Y044262D02*
X080650Y044262D01*
X080650Y044361D02*
X082150Y044361D01*
X082150Y044459D02*
X080650Y044459D01*
X080650Y044558D02*
X082150Y044558D01*
X082150Y044656D02*
X080650Y044656D01*
X080650Y044755D02*
X082150Y044755D01*
X082150Y044853D02*
X080650Y044853D01*
X080650Y044952D02*
X082150Y044952D01*
X082150Y045050D02*
X080650Y045050D01*
X080650Y045149D02*
X082150Y045149D01*
X082150Y045247D02*
X080650Y045247D01*
X080650Y045346D02*
X082150Y045346D01*
X082150Y045444D02*
X080650Y045444D01*
X080650Y045543D02*
X082150Y045543D01*
X082150Y045641D02*
X080650Y045641D01*
X080650Y045740D02*
X082150Y045740D01*
X082150Y045838D02*
X080650Y045838D01*
X080650Y045937D02*
X082150Y045937D01*
X082150Y046035D02*
X080650Y046035D01*
X080650Y046134D02*
X082150Y046134D01*
X082150Y046232D02*
X080650Y046232D01*
X080650Y046331D02*
X082150Y046331D01*
X082150Y046429D02*
X080650Y046429D01*
X080650Y046528D02*
X082150Y046528D01*
X082150Y046626D02*
X080650Y046626D01*
X080650Y046725D02*
X082150Y046725D01*
X082150Y046823D02*
X080650Y046823D01*
X080650Y046922D02*
X082150Y046922D01*
X082150Y047020D02*
X080650Y047020D01*
X080650Y047119D02*
X082150Y047119D01*
X082150Y047217D02*
X080650Y047217D01*
X080650Y047316D02*
X082150Y047316D01*
X082150Y047414D02*
X080650Y047414D01*
X080650Y047513D02*
X082150Y047513D01*
X082150Y047611D02*
X080650Y047611D01*
X080650Y047710D02*
X082150Y047710D01*
X082150Y047808D02*
X080650Y047808D01*
X080650Y047907D02*
X082150Y047907D01*
X082150Y048005D02*
X080650Y048005D01*
X080650Y048104D02*
X082150Y048104D01*
X082150Y048202D02*
X080650Y048202D01*
X080650Y048301D02*
X082150Y048301D01*
X082150Y048399D02*
X080650Y048399D01*
X080650Y048498D02*
X082150Y048498D01*
X082150Y048596D02*
X080650Y048596D01*
X080650Y048695D02*
X082150Y048695D01*
X082150Y048793D02*
X080650Y048793D01*
X080650Y048892D02*
X082150Y048892D01*
X082150Y048990D02*
X080650Y048990D01*
X080650Y049089D02*
X082150Y049089D01*
X082150Y049187D02*
X080650Y049187D01*
X080650Y049286D02*
X082150Y049286D01*
X082150Y049384D02*
X080650Y049384D01*
X080650Y049483D02*
X082150Y049483D01*
X082150Y049581D02*
X080650Y049581D01*
X080650Y049680D02*
X082150Y049680D01*
X082150Y049778D02*
X080650Y049778D01*
X082150Y049877D02*
X076600Y049877D01*
X076600Y049975D02*
X082150Y049975D01*
X082150Y050074D02*
X076600Y050074D01*
X076600Y050172D02*
X082150Y050172D01*
X082150Y050271D02*
X076600Y050271D01*
X076600Y050369D02*
X082150Y050369D01*
X082150Y050468D02*
X076600Y050468D01*
X076600Y050566D02*
X082150Y050566D01*
X082150Y050665D02*
X076600Y050665D01*
X076600Y050763D02*
X082150Y050763D01*
X082150Y050862D02*
X076600Y050862D01*
X076600Y050960D02*
X082150Y050960D01*
X082150Y051059D02*
X076600Y051059D01*
X076600Y051157D02*
X082150Y051157D01*
X082150Y051256D02*
X076600Y051256D01*
X076600Y051354D02*
X082150Y051354D01*
X074975Y051354D02*
X069100Y051354D01*
X069100Y051375D02*
X069100Y049875D01*
X074975Y049875D01*
X074975Y051375D01*
X069100Y051375D01*
X069100Y051256D02*
X074975Y051256D01*
X074975Y051157D02*
X069100Y051157D01*
X069100Y051059D02*
X074975Y051059D01*
X074975Y050960D02*
X069100Y050960D01*
X069100Y050862D02*
X074975Y050862D01*
X074975Y050763D02*
X069100Y050763D01*
X069100Y050665D02*
X074975Y050665D01*
X074975Y050566D02*
X069100Y050566D01*
X069100Y050468D02*
X074975Y050468D01*
X074975Y050369D02*
X069100Y050369D01*
X069100Y050271D02*
X074975Y050271D01*
X074975Y050172D02*
X069100Y050172D01*
X069100Y050074D02*
X074975Y050074D01*
X074975Y049975D02*
X069100Y049975D01*
X069100Y049877D02*
X074975Y049877D01*
X067475Y049877D02*
X061600Y049877D01*
X061600Y049875D02*
X061600Y051375D01*
X067475Y051375D01*
X067475Y049875D01*
X061600Y049875D01*
X061600Y049975D02*
X067475Y049975D01*
X067475Y050074D02*
X061600Y050074D01*
X061600Y050172D02*
X067475Y050172D01*
X067475Y050271D02*
X061600Y050271D01*
X061600Y050369D02*
X067475Y050369D01*
X067475Y050468D02*
X061600Y050468D01*
X061600Y050566D02*
X067475Y050566D01*
X067475Y050665D02*
X061600Y050665D01*
X061600Y050763D02*
X067475Y050763D01*
X067475Y050862D02*
X061600Y050862D01*
X061600Y050960D02*
X067475Y050960D01*
X067475Y051059D02*
X061600Y051059D01*
X061600Y051157D02*
X067475Y051157D01*
X067475Y051256D02*
X061600Y051256D01*
X061600Y051354D02*
X067475Y051354D01*
X059975Y051354D02*
X054100Y051354D01*
X054100Y051375D02*
X054100Y049875D01*
X059975Y049875D01*
X059975Y051375D01*
X054100Y051375D01*
X054100Y051256D02*
X059975Y051256D01*
X059975Y051157D02*
X054100Y051157D01*
X054100Y051059D02*
X059975Y051059D01*
X059975Y050960D02*
X054100Y050960D01*
X054100Y050862D02*
X059975Y050862D01*
X059975Y050763D02*
X054100Y050763D01*
X054100Y050665D02*
X059975Y050665D01*
X059975Y050566D02*
X054100Y050566D01*
X054100Y050468D02*
X059975Y050468D01*
X059975Y050369D02*
X054100Y050369D01*
X054100Y050271D02*
X059975Y050271D01*
X059975Y050172D02*
X054100Y050172D01*
X054100Y050074D02*
X059975Y050074D01*
X059975Y049975D02*
X054100Y049975D01*
X054100Y049877D02*
X059975Y049877D01*
X052475Y049877D02*
X046600Y049877D01*
X046600Y049875D02*
X046600Y051375D01*
X052475Y051375D01*
X052475Y049875D01*
X046600Y049875D01*
X046600Y049975D02*
X052475Y049975D01*
X052475Y050074D02*
X046600Y050074D01*
X046600Y050172D02*
X052475Y050172D01*
X052475Y050271D02*
X046600Y050271D01*
X046600Y050369D02*
X052475Y050369D01*
X052475Y050468D02*
X046600Y050468D01*
X046600Y050566D02*
X052475Y050566D01*
X052475Y050665D02*
X046600Y050665D01*
X046600Y050763D02*
X052475Y050763D01*
X052475Y050862D02*
X046600Y050862D01*
X046600Y050960D02*
X052475Y050960D01*
X052475Y051059D02*
X046600Y051059D01*
X046600Y051157D02*
X052475Y051157D01*
X052475Y051256D02*
X046600Y051256D01*
X046600Y051354D02*
X052475Y051354D01*
X044975Y051354D02*
X039100Y051354D01*
X039100Y051375D02*
X039100Y049875D01*
X044975Y049875D01*
X044975Y051375D01*
X039100Y051375D01*
X039100Y051256D02*
X044975Y051256D01*
X044975Y051157D02*
X039100Y051157D01*
X039100Y051059D02*
X044975Y051059D01*
X044975Y050960D02*
X039100Y050960D01*
X039100Y050862D02*
X044975Y050862D01*
X044975Y050763D02*
X039100Y050763D01*
X039100Y050665D02*
X044975Y050665D01*
X044975Y050566D02*
X039100Y050566D01*
X039100Y050468D02*
X044975Y050468D01*
X044975Y050369D02*
X039100Y050369D01*
X039100Y050271D02*
X044975Y050271D01*
X044975Y050172D02*
X039100Y050172D01*
X039100Y050074D02*
X044975Y050074D01*
X044975Y049975D02*
X039100Y049975D01*
X039100Y049877D02*
X044975Y049877D01*
X037475Y049877D02*
X031600Y049877D01*
X031600Y049875D02*
X031600Y051375D01*
X037475Y051375D01*
X037475Y049875D01*
X031600Y049875D01*
X031600Y049975D02*
X037475Y049975D01*
X037475Y050074D02*
X031600Y050074D01*
X031600Y050172D02*
X037475Y050172D01*
X037475Y050271D02*
X031600Y050271D01*
X031600Y050369D02*
X037475Y050369D01*
X037475Y050468D02*
X031600Y050468D01*
X031600Y050566D02*
X037475Y050566D01*
X037475Y050665D02*
X031600Y050665D01*
X031600Y050763D02*
X037475Y050763D01*
X037475Y050862D02*
X031600Y050862D01*
X031600Y050960D02*
X037475Y050960D01*
X037475Y051059D02*
X031600Y051059D01*
X031600Y051157D02*
X037475Y051157D01*
X037475Y051256D02*
X031600Y051256D01*
X031600Y051354D02*
X037475Y051354D01*
X029975Y051354D02*
X024100Y051354D01*
X024100Y051375D02*
X024100Y049875D01*
X029975Y049875D01*
X029975Y051375D01*
X024100Y051375D01*
X024100Y051256D02*
X029975Y051256D01*
X029975Y051157D02*
X024100Y051157D01*
X024100Y051059D02*
X029975Y051059D01*
X029975Y050960D02*
X024100Y050960D01*
X024100Y050862D02*
X029975Y050862D01*
X029975Y050763D02*
X024100Y050763D01*
X024100Y050665D02*
X029975Y050665D01*
X029975Y050566D02*
X024100Y050566D01*
X024100Y050468D02*
X029975Y050468D01*
X029975Y050369D02*
X024100Y050369D01*
X024100Y050271D02*
X029975Y050271D01*
X029975Y050172D02*
X024100Y050172D01*
X024100Y050074D02*
X029975Y050074D01*
X029975Y049975D02*
X024100Y049975D01*
X024100Y049877D02*
X029975Y049877D01*
X022475Y049877D02*
X001800Y049877D01*
X001800Y049975D02*
X022475Y049975D01*
X022475Y050074D02*
X001800Y050074D01*
X001800Y050172D02*
X022475Y050172D01*
X022475Y050271D02*
X001800Y050271D01*
X001800Y050369D02*
X022475Y050369D01*
X022475Y050468D02*
X001800Y050468D01*
X001800Y050566D02*
X022475Y050566D01*
X022475Y050665D02*
X001800Y050665D01*
X001800Y050763D02*
X022475Y050763D01*
X022475Y050862D02*
X001800Y050862D01*
X001800Y050960D02*
X022475Y050960D01*
X022475Y051059D02*
X001800Y051059D01*
X001800Y051157D02*
X022475Y051157D01*
X022475Y051256D02*
X001800Y051256D01*
X001800Y051354D02*
X022475Y051354D01*
X003300Y049778D02*
X001800Y049778D01*
X001800Y049680D02*
X003300Y049680D01*
X003300Y049581D02*
X001800Y049581D01*
X001800Y049483D02*
X003300Y049483D01*
X003300Y049384D02*
X001800Y049384D01*
X001800Y049286D02*
X003300Y049286D01*
X003300Y049187D02*
X001800Y049187D01*
X001800Y049089D02*
X003300Y049089D01*
X003300Y048990D02*
X001800Y048990D01*
X001800Y048892D02*
X003300Y048892D01*
X003300Y048793D02*
X001800Y048793D01*
X001800Y048695D02*
X003300Y048695D01*
X003300Y048596D02*
X001800Y048596D01*
X001800Y048498D02*
X003300Y048498D01*
X003300Y048399D02*
X001800Y048399D01*
X001800Y048301D02*
X003300Y048301D01*
X003300Y048202D02*
X001800Y048202D01*
X001800Y048104D02*
X003300Y048104D01*
X003300Y048005D02*
X001800Y048005D01*
X001800Y047907D02*
X003300Y047907D01*
X003300Y047808D02*
X001800Y047808D01*
X001800Y047710D02*
X003300Y047710D01*
X003300Y047611D02*
X001800Y047611D01*
X001800Y047513D02*
X003300Y047513D01*
X003300Y047414D02*
X001800Y047414D01*
X001800Y047316D02*
X003300Y047316D01*
X003300Y047217D02*
X001800Y047217D01*
X001800Y047119D02*
X003300Y047119D01*
X003300Y047020D02*
X001800Y047020D01*
X001800Y046922D02*
X003300Y046922D01*
X003300Y046823D02*
X001800Y046823D01*
X001800Y046725D02*
X003300Y046725D01*
X003300Y046626D02*
X001800Y046626D01*
X001800Y046528D02*
X003300Y046528D01*
X003300Y046429D02*
X001800Y046429D01*
X001800Y046331D02*
X003300Y046331D01*
X003300Y046232D02*
X001800Y046232D01*
X001800Y046134D02*
X003300Y046134D01*
X003300Y046035D02*
X001800Y046035D01*
X001800Y045937D02*
X003300Y045937D01*
X003300Y045838D02*
X001800Y045838D01*
X001800Y045740D02*
X003300Y045740D01*
X003300Y045641D02*
X001800Y045641D01*
X001800Y045543D02*
X003300Y045543D01*
X003300Y045444D02*
X001800Y045444D01*
X001800Y045346D02*
X003300Y045346D01*
X003300Y045247D02*
X001800Y045247D01*
X001800Y045149D02*
X003300Y045149D01*
X003300Y045050D02*
X001800Y045050D01*
X001800Y044952D02*
X003300Y044952D01*
X003300Y044853D02*
X001800Y044853D01*
X001800Y044755D02*
X003300Y044755D01*
X003300Y044656D02*
X001800Y044656D01*
X001800Y044558D02*
X003300Y044558D01*
X003300Y044459D02*
X001800Y044459D01*
X001800Y044361D02*
X003300Y044361D01*
X003300Y044262D02*
X001800Y044262D01*
X001800Y044164D02*
X003300Y044164D01*
X003300Y044065D02*
X001800Y044065D01*
X001800Y043967D02*
X003300Y043967D01*
X003300Y043868D02*
X001800Y043868D01*
X001800Y043770D02*
X003300Y043770D01*
X003300Y043671D02*
X001800Y043671D01*
X001800Y043573D02*
X003300Y043573D01*
X003300Y043474D02*
X001800Y043474D01*
X001800Y043376D02*
X003300Y043376D01*
X003300Y043277D02*
X001800Y043277D01*
X001800Y043179D02*
X003300Y043179D01*
X003300Y043080D02*
X001800Y043080D01*
X001800Y042982D02*
X003300Y042982D01*
X003300Y042883D02*
X001800Y042883D01*
X001800Y042785D02*
X003300Y042785D01*
X003300Y042686D02*
X001800Y042686D01*
X001800Y042588D02*
X003300Y042588D01*
X003300Y042489D02*
X001800Y042489D01*
X001800Y042391D02*
X003300Y042391D01*
X003300Y042292D02*
X001800Y042292D01*
X001800Y042194D02*
X003300Y042194D01*
X003300Y042095D02*
X001800Y042095D01*
X001800Y041997D02*
X003300Y041997D01*
X003300Y041898D02*
X001800Y041898D01*
X001800Y041800D02*
X003300Y041800D01*
X003300Y041701D02*
X001800Y041701D01*
X001800Y041603D02*
X003300Y041603D01*
X003300Y041504D02*
X001800Y041504D01*
X001800Y041406D02*
X003300Y041406D01*
X003300Y041307D02*
X001800Y041307D01*
X001800Y041209D02*
X003300Y041209D01*
X003300Y041110D02*
X001800Y041110D01*
X001800Y041012D02*
X003300Y041012D01*
X003300Y040913D02*
X001800Y040913D01*
X001800Y040815D02*
X003300Y040815D01*
X003300Y040716D02*
X001800Y040716D01*
X001800Y040618D02*
X003300Y040618D01*
X003300Y040519D02*
X001800Y040519D01*
X001800Y040421D02*
X003300Y040421D01*
X003300Y040322D02*
X001800Y040322D01*
X001800Y040224D02*
X003300Y040224D01*
X003300Y040125D02*
X001800Y040125D01*
X001800Y040027D02*
X003300Y040027D01*
X003300Y039928D02*
X001800Y039928D01*
X001800Y039830D02*
X003300Y039830D01*
X003300Y039731D02*
X001800Y039731D01*
X001800Y039633D02*
X003300Y039633D01*
X003300Y039534D02*
X001800Y039534D01*
X001800Y039436D02*
X003300Y039436D01*
X003300Y039337D02*
X001800Y039337D01*
X001800Y039239D02*
X003300Y039239D01*
X003300Y039140D02*
X001800Y039140D01*
X001800Y039042D02*
X003300Y039042D01*
X003300Y038943D02*
X001800Y038943D01*
X001800Y038845D02*
X003300Y038845D01*
X003300Y038746D02*
X001800Y038746D01*
X001800Y038648D02*
X003300Y038648D01*
X003300Y038549D02*
X001800Y038549D01*
X001800Y038451D02*
X003300Y038451D01*
X003300Y038352D02*
X001800Y038352D01*
X001800Y038254D02*
X003300Y038254D01*
X003300Y038155D02*
X001800Y038155D01*
X001800Y038057D02*
X003300Y038057D01*
X003300Y037958D02*
X001800Y037958D01*
X001800Y037860D02*
X003300Y037860D01*
X003300Y037761D02*
X001800Y037761D01*
X001800Y037663D02*
X003300Y037663D01*
X003300Y037564D02*
X001800Y037564D01*
X001800Y037466D02*
X003300Y037466D01*
X003300Y037367D02*
X001800Y037367D01*
X001800Y037269D02*
X003300Y037269D01*
X003300Y037170D02*
X001800Y037170D01*
X001800Y037072D02*
X003300Y037072D01*
X003300Y036973D02*
X001800Y036973D01*
X001800Y036875D02*
X003300Y036875D01*
X003300Y036776D02*
X001800Y036776D01*
X001800Y036678D02*
X003300Y036678D01*
X003300Y036579D02*
X001800Y036579D01*
X001800Y036481D02*
X003300Y036481D01*
X003300Y036382D02*
X001800Y036382D01*
X001800Y036284D02*
X003300Y036284D01*
X003300Y036185D02*
X001800Y036185D01*
X001800Y036087D02*
X003300Y036087D01*
X003300Y035988D02*
X001800Y035988D01*
X001800Y035890D02*
X003300Y035890D01*
X003300Y035791D02*
X001800Y035791D01*
X001800Y035693D02*
X003300Y035693D01*
X003300Y035594D02*
X001800Y035594D01*
X001800Y035496D02*
X003300Y035496D01*
X003300Y035397D02*
X001800Y035397D01*
X001800Y035299D02*
X003300Y035299D01*
X003300Y035200D02*
X001800Y035200D01*
X001800Y035102D02*
X003300Y035102D01*
X003300Y035003D02*
X001800Y035003D01*
X001800Y034905D02*
X003300Y034905D01*
X003300Y034806D02*
X001800Y034806D01*
X001800Y034708D02*
X003300Y034708D01*
X003300Y034609D02*
X001800Y034609D01*
X001800Y034511D02*
X003300Y034511D01*
X003300Y034412D02*
X001800Y034412D01*
X001800Y034314D02*
X003300Y034314D01*
X003300Y034215D02*
X001800Y034215D01*
X001800Y034117D02*
X003300Y034117D01*
X003300Y034018D02*
X001800Y034018D01*
X001800Y033920D02*
X003300Y033920D01*
X003300Y033821D02*
X001800Y033821D01*
X001800Y033723D02*
X003300Y033723D01*
X003300Y033624D02*
X001800Y033624D01*
X001800Y033526D02*
X003300Y033526D01*
X003300Y033427D02*
X001800Y033427D01*
X001800Y033329D02*
X003300Y033329D01*
X003300Y033230D02*
X001800Y033230D01*
X001800Y033132D02*
X003300Y033132D01*
X003300Y033033D02*
X001800Y033033D01*
X001800Y032935D02*
X003300Y032935D01*
X003300Y032836D02*
X001800Y032836D01*
X001800Y032738D02*
X003300Y032738D01*
X003300Y032639D02*
X001800Y032639D01*
X001800Y032541D02*
X003300Y032541D01*
X003300Y032442D02*
X001800Y032442D01*
X001800Y032344D02*
X003300Y032344D01*
X003300Y032245D02*
X001800Y032245D01*
X001800Y032147D02*
X003300Y032147D01*
X003300Y032048D02*
X001800Y032048D01*
X001800Y031950D02*
X003300Y031950D01*
X003300Y031851D02*
X001800Y031851D01*
X001800Y031753D02*
X003300Y031753D01*
X003300Y031654D02*
X001800Y031654D01*
X001800Y031556D02*
X003300Y031556D01*
X003300Y031457D02*
X001800Y031457D01*
X001800Y031359D02*
X003300Y031359D01*
X003300Y031260D02*
X001800Y031260D01*
X001800Y031162D02*
X003300Y031162D01*
X003300Y031063D02*
X001800Y031063D01*
X001800Y030965D02*
X003300Y030965D01*
X003300Y030866D02*
X001800Y030866D01*
X001800Y030768D02*
X003300Y030768D01*
X003300Y030669D02*
X001800Y030669D01*
X001800Y030571D02*
X003300Y030571D01*
X003300Y030472D02*
X001800Y030472D01*
X001800Y030374D02*
X003300Y030374D01*
X003300Y030275D02*
X001800Y030275D01*
X001800Y030177D02*
X003300Y030177D01*
X003300Y030078D02*
X001800Y030078D01*
X001800Y029980D02*
X003300Y029980D01*
X003300Y029881D02*
X001800Y029881D01*
X001800Y029783D02*
X003300Y029783D01*
X003300Y029684D02*
X001800Y029684D01*
X001800Y029586D02*
X003300Y029586D01*
X003300Y029487D02*
X001800Y029487D01*
X001800Y029389D02*
X003300Y029389D01*
X003300Y029290D02*
X001800Y029290D01*
X001800Y029192D02*
X003300Y029192D01*
X003300Y029093D02*
X001800Y029093D01*
X001800Y028995D02*
X003300Y028995D01*
X003300Y028896D02*
X001800Y028896D01*
X001800Y028798D02*
X003300Y028798D01*
X003300Y028699D02*
X001800Y028699D01*
X001800Y028601D02*
X003300Y028601D01*
X003300Y028502D02*
X001800Y028502D01*
X001800Y028404D02*
X003300Y028404D01*
X003300Y028305D02*
X001800Y028305D01*
X001800Y028207D02*
X003300Y028207D01*
X003300Y028108D02*
X001800Y028108D01*
X001800Y028010D02*
X003300Y028010D01*
X003300Y027911D02*
X001800Y027911D01*
X001800Y027813D02*
X003300Y027813D01*
X003300Y027714D02*
X001800Y027714D01*
X001800Y027616D02*
X003300Y027616D01*
X003300Y027517D02*
X001800Y027517D01*
X001800Y027419D02*
X003300Y027419D01*
X003300Y027320D02*
X001800Y027320D01*
X001800Y027222D02*
X003300Y027222D01*
X003300Y027123D02*
X001800Y027123D01*
X001800Y027025D02*
X003300Y027025D01*
X003300Y026926D02*
X001800Y026926D01*
X001800Y026828D02*
X003300Y026828D01*
X003300Y026729D02*
X001800Y026729D01*
X001800Y026631D02*
X003300Y026631D01*
X003300Y026532D02*
X001800Y026532D01*
X001800Y026434D02*
X003300Y026434D01*
X003300Y026335D02*
X001800Y026335D01*
X001800Y026237D02*
X003300Y026237D01*
X003300Y026138D02*
X001800Y026138D01*
X001800Y026040D02*
X003300Y026040D01*
X003300Y025941D02*
X001800Y025941D01*
X001800Y025843D02*
X003300Y025843D01*
X003300Y025744D02*
X001800Y025744D01*
X001800Y025646D02*
X003300Y025646D01*
X003300Y025547D02*
X001800Y025547D01*
X001800Y025449D02*
X003300Y025449D01*
X003300Y025350D02*
X001800Y025350D01*
X001800Y025252D02*
X003300Y025252D01*
X003300Y025153D02*
X001800Y025153D01*
X001800Y025055D02*
X003300Y025055D01*
X003300Y024956D02*
X001800Y024956D01*
X001800Y024858D02*
X003300Y024858D01*
X003300Y024759D02*
X001800Y024759D01*
X001800Y024661D02*
X003300Y024661D01*
X003300Y024562D02*
X001800Y024562D01*
X001800Y024464D02*
X003300Y024464D01*
X003300Y024365D02*
X001800Y024365D01*
X001800Y024267D02*
X003300Y024267D01*
X003300Y024168D02*
X001800Y024168D01*
X001800Y024070D02*
X003300Y024070D01*
X003300Y023971D02*
X001800Y023971D01*
X001800Y023873D02*
X003300Y023873D01*
X003300Y023774D02*
X001800Y023774D01*
X001800Y023676D02*
X003300Y023676D01*
X003300Y023577D02*
X001800Y023577D01*
X001800Y023479D02*
X003300Y023479D01*
X003300Y023380D02*
X001800Y023380D01*
X001800Y023282D02*
X003300Y023282D01*
X003300Y023183D02*
X001800Y023183D01*
X001800Y023085D02*
X003300Y023085D01*
X003300Y022986D02*
X001800Y022986D01*
X001800Y022888D02*
X003300Y022888D01*
X003300Y022789D02*
X001800Y022789D01*
X001800Y022691D02*
X003300Y022691D01*
X003300Y022592D02*
X001800Y022592D01*
X001800Y022494D02*
X003300Y022494D01*
X003300Y022395D02*
X001800Y022395D01*
X001800Y022297D02*
X003300Y022297D01*
X003300Y022198D02*
X001800Y022198D01*
X001800Y022100D02*
X003300Y022100D01*
X003300Y022001D02*
X001800Y022001D01*
X001800Y021903D02*
X003300Y021903D01*
X003300Y021804D02*
X001800Y021804D01*
X001800Y021706D02*
X003300Y021706D01*
X003300Y021607D02*
X001800Y021607D01*
X001800Y021509D02*
X003300Y021509D01*
X003300Y021410D02*
X001800Y021410D01*
X001800Y021312D02*
X003300Y021312D01*
X003300Y021213D02*
X001800Y021213D01*
X001800Y021115D02*
X003300Y021115D01*
X003300Y021016D02*
X001800Y021016D01*
X001800Y020918D02*
X003300Y020918D01*
X003300Y020819D02*
X001800Y020819D01*
X001800Y020721D02*
X003300Y020721D01*
X003300Y020622D02*
X001800Y020622D01*
X001800Y020524D02*
X003300Y020524D01*
X003300Y020425D02*
X001800Y020425D01*
X001800Y020327D02*
X003300Y020327D01*
X003300Y020228D02*
X001800Y020228D01*
X001800Y020130D02*
X003300Y020130D01*
X003300Y020031D02*
X001800Y020031D01*
X001800Y019933D02*
X003300Y019933D01*
X003300Y019834D02*
X001800Y019834D01*
X001800Y019736D02*
X003300Y019736D01*
X003300Y019637D02*
X001800Y019637D01*
X001800Y019539D02*
X003300Y019539D01*
X003300Y019440D02*
X001800Y019440D01*
X001800Y019342D02*
X003300Y019342D01*
X003300Y019243D02*
X001800Y019243D01*
X001800Y019145D02*
X003300Y019145D01*
X003300Y019046D02*
X001800Y019046D01*
X001800Y018948D02*
X003300Y018948D01*
X003300Y018849D02*
X001800Y018849D01*
X001800Y018751D02*
X003300Y018751D01*
X003300Y018652D02*
X001800Y018652D01*
X001800Y018554D02*
X003300Y018554D01*
X003300Y018455D02*
X001800Y018455D01*
X001800Y018357D02*
X003300Y018357D01*
X003300Y018258D02*
X001800Y018258D01*
X001800Y018160D02*
X003300Y018160D01*
X003300Y018061D02*
X001800Y018061D01*
X001800Y017963D02*
X003300Y017963D01*
X003300Y017864D02*
X001800Y017864D01*
X001800Y017766D02*
X003300Y017766D01*
X003300Y017667D02*
X001800Y017667D01*
X001800Y017569D02*
X003300Y017569D01*
X003300Y017470D02*
X001800Y017470D01*
X001800Y017372D02*
X003300Y017372D01*
X003300Y017273D02*
X001800Y017273D01*
X001800Y017175D02*
X003300Y017175D01*
X003300Y017076D02*
X001800Y017076D01*
X001800Y016978D02*
X003300Y016978D01*
X003300Y016879D02*
X001800Y016879D01*
X001800Y016781D02*
X003300Y016781D01*
X003300Y016682D02*
X001800Y016682D01*
X001800Y016584D02*
X003300Y016584D01*
X003300Y016485D02*
X001800Y016485D01*
X001800Y016387D02*
X003300Y016387D01*
X003300Y016288D02*
X001800Y016288D01*
X001800Y016190D02*
X003300Y016190D01*
X003300Y016091D02*
X001800Y016091D01*
X001800Y015993D02*
X003300Y015993D01*
X003300Y015894D02*
X001800Y015894D01*
X001800Y015796D02*
X003300Y015796D01*
X003300Y015697D02*
X001800Y015697D01*
X001800Y015599D02*
X003300Y015599D01*
X003300Y015500D02*
X001800Y015500D01*
X001800Y015402D02*
X003300Y015402D01*
X003300Y015303D02*
X001800Y015303D01*
X001800Y015205D02*
X003300Y015205D01*
X003300Y015106D02*
X001800Y015106D01*
X001800Y015008D02*
X003300Y015008D01*
X003300Y014909D02*
X001800Y014909D01*
X001800Y014811D02*
X003300Y014811D01*
X003300Y014712D02*
X001800Y014712D01*
X001800Y014614D02*
X003300Y014614D01*
X003300Y014515D02*
X001800Y014515D01*
X001800Y014417D02*
X003300Y014417D01*
X003300Y014318D02*
X001800Y014318D01*
X001800Y014220D02*
X003300Y014220D01*
X003300Y014121D02*
X001800Y014121D01*
X001800Y014023D02*
X003300Y014023D01*
X003300Y013924D02*
X001800Y013924D01*
X001800Y013826D02*
X003300Y013826D01*
X003300Y013727D02*
X001800Y013727D01*
X001800Y013629D02*
X003300Y013629D01*
X003300Y013530D02*
X001800Y013530D01*
X001800Y013432D02*
X003300Y013432D01*
X003300Y013333D02*
X001800Y013333D01*
X001800Y013235D02*
X003300Y013235D01*
X003300Y013136D02*
X001800Y013136D01*
X001800Y013038D02*
X003300Y013038D01*
X003300Y012939D02*
X001800Y012939D01*
X001800Y012841D02*
X003300Y012841D01*
X003300Y012742D02*
X001800Y012742D01*
X001800Y012644D02*
X003300Y012644D01*
X003300Y012545D02*
X001800Y012545D01*
X001800Y012447D02*
X003300Y012447D01*
X003300Y012348D02*
X001800Y012348D01*
X001800Y012250D02*
X003300Y012250D01*
X003300Y012151D02*
X001800Y012151D01*
X001800Y012053D02*
X003300Y012053D01*
X003300Y011954D02*
X001800Y011954D01*
X001800Y011856D02*
X003300Y011856D01*
X003300Y011757D02*
X001800Y011757D01*
X001800Y011659D02*
X003300Y011659D01*
X003300Y011560D02*
X001800Y011560D01*
X001800Y011462D02*
X003300Y011462D01*
X003300Y011363D02*
X001800Y011363D01*
X001800Y011265D02*
X003300Y011265D01*
X003300Y011166D02*
X001800Y011166D01*
X001800Y011068D02*
X003300Y011068D01*
X003300Y010969D02*
X001800Y010969D01*
X001800Y010871D02*
X003300Y010871D01*
X003300Y010772D02*
X001800Y010772D01*
X001800Y010674D02*
X003300Y010674D01*
X003300Y010575D02*
X001800Y010575D01*
X001800Y010477D02*
X003300Y010477D01*
X003300Y010378D02*
X001800Y010378D01*
X001800Y010280D02*
X003300Y010280D01*
X003300Y010181D02*
X001800Y010181D01*
X001800Y010083D02*
X003300Y010083D01*
X003300Y009984D02*
X001800Y009984D01*
X001800Y009886D02*
X003300Y009886D01*
X003300Y009787D02*
X001800Y009787D01*
X001800Y009689D02*
X003300Y009689D01*
X003300Y009590D02*
X001800Y009590D01*
X001800Y009492D02*
X003300Y009492D01*
X003300Y009393D02*
X001800Y009393D01*
X001800Y009295D02*
X003300Y009295D01*
X003300Y009196D02*
X001800Y009196D01*
X001800Y009098D02*
X003300Y009098D01*
X003300Y008999D02*
X001800Y008999D01*
X001800Y008901D02*
X003300Y008901D01*
X003300Y008802D02*
X001800Y008802D01*
X001800Y008704D02*
X003300Y008704D01*
X003300Y008605D02*
X001800Y008605D01*
X001800Y008507D02*
X003300Y008507D01*
X003300Y008408D02*
X001800Y008408D01*
X001800Y008310D02*
X003300Y008310D01*
X003300Y008211D02*
X001800Y008211D01*
X001800Y008113D02*
X003300Y008113D01*
X003300Y008014D02*
X001800Y008014D01*
X001800Y007916D02*
X003300Y007916D01*
X003300Y007817D02*
X001800Y007817D01*
X001800Y007719D02*
X003300Y007719D01*
X003300Y007620D02*
X001800Y007620D01*
X001800Y007522D02*
X003300Y007522D01*
X003300Y007423D02*
X001800Y007423D01*
X001800Y007325D02*
X003300Y007325D01*
X003300Y007226D02*
X001800Y007226D01*
X001800Y007128D02*
X003300Y007128D01*
X003300Y007029D02*
X001800Y007029D01*
X001800Y006931D02*
X003300Y006931D01*
X003300Y006832D02*
X001800Y006832D01*
X001800Y006734D02*
X003300Y006734D01*
X003300Y006635D02*
X001800Y006635D01*
X001800Y006537D02*
X003300Y006537D01*
X003300Y006438D02*
X001800Y006438D01*
X001800Y006340D02*
X003300Y006340D01*
X003300Y006241D02*
X001800Y006241D01*
X001800Y006143D02*
X003300Y006143D01*
X003300Y006044D02*
X001800Y006044D01*
X001800Y005946D02*
X003300Y005946D01*
X003300Y005847D02*
X001800Y005847D01*
X001800Y005749D02*
X003300Y005749D01*
X003300Y005650D02*
X001800Y005650D01*
X001800Y005552D02*
X003300Y005552D01*
X003300Y005453D02*
X001800Y005453D01*
X001800Y005355D02*
X003300Y005355D01*
X003300Y005256D02*
X001800Y005256D01*
X001800Y005158D02*
X003300Y005158D01*
X003300Y005059D02*
X001800Y005059D01*
X001800Y004961D02*
X003300Y004961D01*
X003300Y004862D02*
X001800Y004862D01*
X001800Y004764D02*
X003300Y004764D01*
X003300Y004665D02*
X001800Y004665D01*
X001800Y004567D02*
X003300Y004567D01*
X003300Y004468D02*
X001800Y004468D01*
X001800Y004370D02*
X003300Y004370D01*
X003300Y004271D02*
X001800Y004271D01*
X001800Y004173D02*
X003300Y004173D01*
X003300Y004074D02*
X001800Y004074D01*
X001800Y003976D02*
X003300Y003976D01*
X003300Y003877D02*
X001800Y003877D01*
X001800Y003779D02*
X003300Y003779D01*
X003300Y003680D02*
X001800Y003680D01*
X001800Y003582D02*
X003300Y003582D01*
X003300Y003483D02*
X001800Y003483D01*
X001800Y003385D02*
X003300Y003385D01*
X003300Y003286D02*
X001800Y003286D01*
X001800Y003188D02*
X003300Y003188D01*
X003300Y003089D02*
X001800Y003089D01*
X001800Y002991D02*
X003300Y002991D01*
X003300Y002892D02*
X001800Y002892D01*
X001800Y002794D02*
X003300Y002794D01*
X003300Y002695D02*
X001800Y002695D01*
X001800Y002597D02*
X003300Y002597D01*
X003300Y002498D02*
X001800Y002498D01*
X001800Y002400D02*
X003300Y002400D01*
X003300Y002301D02*
X001800Y002301D01*
D11*
X011663Y011350D03*
M02*
