G75*
G70*
%OFA0B0*%
%FSLAX24Y24*%
%IPPOS*%
%LPD*%
%AMOC8*
5,1,8,0,0,1.08239X$1,22.5*
%
%ADD10C,0.0100*%
D10*
X000318Y003313D02*
X000318Y043177D01*
X007382Y043177D01*
X007382Y003313D01*
X000318Y003313D01*
X000318Y003342D02*
X007382Y003342D01*
X007382Y003441D02*
X000318Y003441D01*
X000318Y003539D02*
X007382Y003539D01*
X007382Y003638D02*
X000318Y003638D01*
X000318Y003736D02*
X007382Y003736D01*
X007382Y003835D02*
X000318Y003835D01*
X000318Y003933D02*
X007382Y003933D01*
X007382Y004032D02*
X000318Y004032D01*
X000318Y004130D02*
X007382Y004130D01*
X007382Y004229D02*
X000318Y004229D01*
X000318Y004327D02*
X007382Y004327D01*
X007382Y004426D02*
X000318Y004426D01*
X000318Y004524D02*
X007382Y004524D01*
X007382Y004623D02*
X000318Y004623D01*
X000318Y004721D02*
X007382Y004721D01*
X007382Y004820D02*
X000318Y004820D01*
X000318Y004918D02*
X007382Y004918D01*
X007382Y005017D02*
X000318Y005017D01*
X000318Y005115D02*
X007382Y005115D01*
X007382Y005214D02*
X000318Y005214D01*
X000318Y005312D02*
X007382Y005312D01*
X007382Y005411D02*
X000318Y005411D01*
X000318Y005509D02*
X007382Y005509D01*
X007382Y005608D02*
X000318Y005608D01*
X000318Y005706D02*
X007382Y005706D01*
X007382Y005805D02*
X000318Y005805D01*
X000318Y005903D02*
X007382Y005903D01*
X007382Y006002D02*
X000318Y006002D01*
X000318Y006100D02*
X007382Y006100D01*
X007382Y006199D02*
X000318Y006199D01*
X000318Y006297D02*
X007382Y006297D01*
X007382Y006396D02*
X000318Y006396D01*
X000318Y006494D02*
X007382Y006494D01*
X007382Y006593D02*
X000318Y006593D01*
X000318Y006691D02*
X007382Y006691D01*
X007382Y006790D02*
X000318Y006790D01*
X000318Y006888D02*
X007382Y006888D01*
X007382Y006987D02*
X000318Y006987D01*
X000318Y007085D02*
X007382Y007085D01*
X007382Y007184D02*
X000318Y007184D01*
X000318Y007282D02*
X007382Y007282D01*
X007382Y007381D02*
X000318Y007381D01*
X000318Y007479D02*
X007382Y007479D01*
X007382Y007578D02*
X000318Y007578D01*
X000318Y007676D02*
X007382Y007676D01*
X007382Y007775D02*
X000318Y007775D01*
X000318Y007873D02*
X007382Y007873D01*
X007382Y007972D02*
X000318Y007972D01*
X000318Y008070D02*
X007382Y008070D01*
X007382Y008169D02*
X000318Y008169D01*
X000318Y008267D02*
X007382Y008267D01*
X007382Y008366D02*
X000318Y008366D01*
X000318Y008464D02*
X007382Y008464D01*
X007382Y008563D02*
X000318Y008563D01*
X000318Y008661D02*
X007382Y008661D01*
X007382Y008760D02*
X000318Y008760D01*
X000318Y008858D02*
X007382Y008858D01*
X007382Y008957D02*
X000318Y008957D01*
X000318Y009055D02*
X007382Y009055D01*
X007382Y009154D02*
X000318Y009154D01*
X000318Y009252D02*
X007382Y009252D01*
X007382Y009351D02*
X000318Y009351D01*
X000318Y009449D02*
X007382Y009449D01*
X007382Y009548D02*
X000318Y009548D01*
X000318Y009646D02*
X007382Y009646D01*
X007382Y009745D02*
X000318Y009745D01*
X000318Y009843D02*
X007382Y009843D01*
X007382Y009942D02*
X000318Y009942D01*
X000318Y010040D02*
X007382Y010040D01*
X007382Y010139D02*
X000318Y010139D01*
X000318Y010237D02*
X007382Y010237D01*
X007382Y010336D02*
X000318Y010336D01*
X000318Y010434D02*
X007382Y010434D01*
X007382Y010533D02*
X000318Y010533D01*
X000318Y010631D02*
X007382Y010631D01*
X007382Y010730D02*
X000318Y010730D01*
X000318Y010828D02*
X007382Y010828D01*
X007382Y010927D02*
X000318Y010927D01*
X000318Y011025D02*
X007382Y011025D01*
X007382Y011124D02*
X000318Y011124D01*
X000318Y011222D02*
X007382Y011222D01*
X007382Y011321D02*
X000318Y011321D01*
X000318Y011419D02*
X007382Y011419D01*
X007382Y011518D02*
X000318Y011518D01*
X000318Y011616D02*
X007382Y011616D01*
X007382Y011715D02*
X000318Y011715D01*
X000318Y011813D02*
X007382Y011813D01*
X007382Y011912D02*
X000318Y011912D01*
X000318Y012010D02*
X007382Y012010D01*
X007382Y012109D02*
X000318Y012109D01*
X000318Y012207D02*
X007382Y012207D01*
X007382Y012306D02*
X000318Y012306D01*
X000318Y012404D02*
X007382Y012404D01*
X007382Y012503D02*
X000318Y012503D01*
X000318Y012601D02*
X007382Y012601D01*
X007382Y012700D02*
X000318Y012700D01*
X000318Y012798D02*
X007382Y012798D01*
X007382Y012897D02*
X000318Y012897D01*
X000318Y012995D02*
X007382Y012995D01*
X007382Y013094D02*
X000318Y013094D01*
X000318Y013192D02*
X007382Y013192D01*
X007382Y013291D02*
X000318Y013291D01*
X000318Y013389D02*
X007382Y013389D01*
X007382Y013488D02*
X000318Y013488D01*
X000318Y013586D02*
X007382Y013586D01*
X007382Y013685D02*
X000318Y013685D01*
X000318Y013783D02*
X007382Y013783D01*
X007382Y013882D02*
X000318Y013882D01*
X000318Y013980D02*
X007382Y013980D01*
X007382Y014079D02*
X000318Y014079D01*
X000318Y014177D02*
X007382Y014177D01*
X007382Y014276D02*
X000318Y014276D01*
X000318Y014374D02*
X007382Y014374D01*
X007382Y014473D02*
X000318Y014473D01*
X000318Y014571D02*
X007382Y014571D01*
X007382Y014670D02*
X000318Y014670D01*
X000318Y014768D02*
X007382Y014768D01*
X007382Y014867D02*
X000318Y014867D01*
X000318Y014965D02*
X007382Y014965D01*
X007382Y015064D02*
X000318Y015064D01*
X000318Y015162D02*
X007382Y015162D01*
X007382Y015261D02*
X000318Y015261D01*
X000318Y015359D02*
X007382Y015359D01*
X007382Y015458D02*
X000318Y015458D01*
X000318Y015556D02*
X007382Y015556D01*
X007382Y015655D02*
X000318Y015655D01*
X000318Y015753D02*
X007382Y015753D01*
X007382Y015852D02*
X000318Y015852D01*
X000318Y015950D02*
X007382Y015950D01*
X007382Y016049D02*
X000318Y016049D01*
X000318Y016147D02*
X007382Y016147D01*
X007382Y016246D02*
X000318Y016246D01*
X000318Y016344D02*
X007382Y016344D01*
X007382Y016443D02*
X000318Y016443D01*
X000318Y016541D02*
X007382Y016541D01*
X007382Y016640D02*
X000318Y016640D01*
X000318Y016738D02*
X007382Y016738D01*
X007382Y016837D02*
X000318Y016837D01*
X000318Y016935D02*
X007382Y016935D01*
X007382Y017034D02*
X000318Y017034D01*
X000318Y017132D02*
X007382Y017132D01*
X007382Y017231D02*
X000318Y017231D01*
X000318Y017329D02*
X007382Y017329D01*
X007382Y017428D02*
X000318Y017428D01*
X000318Y017526D02*
X007382Y017526D01*
X007382Y017625D02*
X000318Y017625D01*
X000318Y017723D02*
X007382Y017723D01*
X007382Y017822D02*
X000318Y017822D01*
X000318Y017920D02*
X007382Y017920D01*
X007382Y018019D02*
X000318Y018019D01*
X000318Y018117D02*
X007382Y018117D01*
X007382Y018216D02*
X000318Y018216D01*
X000318Y018314D02*
X007382Y018314D01*
X007382Y018413D02*
X000318Y018413D01*
X000318Y018511D02*
X007382Y018511D01*
X007382Y018610D02*
X000318Y018610D01*
X000318Y018708D02*
X007382Y018708D01*
X007382Y018807D02*
X000318Y018807D01*
X000318Y018905D02*
X007382Y018905D01*
X007382Y019004D02*
X000318Y019004D01*
X000318Y019102D02*
X007382Y019102D01*
X007382Y019201D02*
X000318Y019201D01*
X000318Y019299D02*
X007382Y019299D01*
X007382Y019398D02*
X000318Y019398D01*
X000318Y019496D02*
X007382Y019496D01*
X007382Y019595D02*
X000318Y019595D01*
X000318Y019693D02*
X007382Y019693D01*
X007382Y019792D02*
X000318Y019792D01*
X000318Y019890D02*
X007382Y019890D01*
X007382Y019989D02*
X000318Y019989D01*
X000318Y020087D02*
X007382Y020087D01*
X007382Y020186D02*
X000318Y020186D01*
X000318Y020284D02*
X007382Y020284D01*
X007382Y020383D02*
X000318Y020383D01*
X000318Y020481D02*
X007382Y020481D01*
X007382Y020580D02*
X000318Y020580D01*
X000318Y020678D02*
X007382Y020678D01*
X007382Y020777D02*
X000318Y020777D01*
X000318Y020875D02*
X007382Y020875D01*
X007382Y020974D02*
X000318Y020974D01*
X000318Y021072D02*
X007382Y021072D01*
X007382Y021171D02*
X000318Y021171D01*
X000318Y021269D02*
X007382Y021269D01*
X007382Y021368D02*
X000318Y021368D01*
X000318Y021466D02*
X007382Y021466D01*
X007382Y021565D02*
X000318Y021565D01*
X000318Y021663D02*
X007382Y021663D01*
X007382Y021762D02*
X000318Y021762D01*
X000318Y021860D02*
X007382Y021860D01*
X007382Y021959D02*
X000318Y021959D01*
X000318Y022057D02*
X007382Y022057D01*
X007382Y022156D02*
X000318Y022156D01*
X000318Y022254D02*
X007382Y022254D01*
X007382Y022353D02*
X000318Y022353D01*
X000318Y022451D02*
X007382Y022451D01*
X007382Y022550D02*
X000318Y022550D01*
X000318Y022648D02*
X007382Y022648D01*
X007382Y022747D02*
X000318Y022747D01*
X000318Y022845D02*
X007382Y022845D01*
X007382Y022944D02*
X000318Y022944D01*
X000318Y023042D02*
X007382Y023042D01*
X007382Y023141D02*
X000318Y023141D01*
X000318Y023239D02*
X007382Y023239D01*
X007382Y023338D02*
X000318Y023338D01*
X000318Y023436D02*
X007382Y023436D01*
X007382Y023535D02*
X000318Y023535D01*
X000318Y023633D02*
X007382Y023633D01*
X007382Y023732D02*
X000318Y023732D01*
X000318Y023830D02*
X007382Y023830D01*
X007382Y023929D02*
X000318Y023929D01*
X000318Y024027D02*
X007382Y024027D01*
X007382Y024126D02*
X000318Y024126D01*
X000318Y024224D02*
X007382Y024224D01*
X007382Y024323D02*
X000318Y024323D01*
X000318Y024421D02*
X007382Y024421D01*
X007382Y024520D02*
X000318Y024520D01*
X000318Y024618D02*
X007382Y024618D01*
X007382Y024717D02*
X000318Y024717D01*
X000318Y024815D02*
X007382Y024815D01*
X007382Y024914D02*
X000318Y024914D01*
X000318Y025012D02*
X007382Y025012D01*
X007382Y025111D02*
X000318Y025111D01*
X000318Y025209D02*
X007382Y025209D01*
X007382Y025308D02*
X000318Y025308D01*
X000318Y025406D02*
X007382Y025406D01*
X007382Y025505D02*
X000318Y025505D01*
X000318Y025603D02*
X007382Y025603D01*
X007382Y025702D02*
X000318Y025702D01*
X000318Y025800D02*
X007382Y025800D01*
X007382Y025899D02*
X000318Y025899D01*
X000318Y025997D02*
X007382Y025997D01*
X007382Y026096D02*
X000318Y026096D01*
X000318Y026194D02*
X007382Y026194D01*
X007382Y026293D02*
X000318Y026293D01*
X000318Y026391D02*
X007382Y026391D01*
X007382Y026490D02*
X000318Y026490D01*
X000318Y026588D02*
X007382Y026588D01*
X007382Y026687D02*
X000318Y026687D01*
X000318Y026785D02*
X007382Y026785D01*
X007382Y026884D02*
X000318Y026884D01*
X000318Y026982D02*
X007382Y026982D01*
X007382Y027081D02*
X000318Y027081D01*
X000318Y027179D02*
X007382Y027179D01*
X007382Y027278D02*
X000318Y027278D01*
X000318Y027376D02*
X007382Y027376D01*
X007382Y027475D02*
X000318Y027475D01*
X000318Y027573D02*
X007382Y027573D01*
X007382Y027672D02*
X000318Y027672D01*
X000318Y027770D02*
X007382Y027770D01*
X007382Y027869D02*
X000318Y027869D01*
X000318Y027967D02*
X007382Y027967D01*
X007382Y028066D02*
X000318Y028066D01*
X000318Y028164D02*
X007382Y028164D01*
X007382Y028263D02*
X000318Y028263D01*
X000318Y028361D02*
X007382Y028361D01*
X007382Y028460D02*
X000318Y028460D01*
X000318Y028558D02*
X007382Y028558D01*
X007382Y028657D02*
X000318Y028657D01*
X000318Y028755D02*
X007382Y028755D01*
X007382Y028854D02*
X000318Y028854D01*
X000318Y028952D02*
X007382Y028952D01*
X007382Y029051D02*
X000318Y029051D01*
X000318Y029149D02*
X007382Y029149D01*
X007382Y029248D02*
X000318Y029248D01*
X000318Y029346D02*
X007382Y029346D01*
X007382Y029445D02*
X000318Y029445D01*
X000318Y029543D02*
X007382Y029543D01*
X007382Y029642D02*
X000318Y029642D01*
X000318Y029740D02*
X007382Y029740D01*
X007382Y029839D02*
X000318Y029839D01*
X000318Y029937D02*
X007382Y029937D01*
X007382Y030036D02*
X000318Y030036D01*
X000318Y030134D02*
X007382Y030134D01*
X007382Y030233D02*
X000318Y030233D01*
X000318Y030331D02*
X007382Y030331D01*
X007382Y030430D02*
X000318Y030430D01*
X000318Y030528D02*
X007382Y030528D01*
X007382Y030627D02*
X000318Y030627D01*
X000318Y030725D02*
X007382Y030725D01*
X007382Y030824D02*
X000318Y030824D01*
X000318Y030922D02*
X007382Y030922D01*
X007382Y031021D02*
X000318Y031021D01*
X000318Y031119D02*
X007382Y031119D01*
X007382Y031218D02*
X000318Y031218D01*
X000318Y031316D02*
X007382Y031316D01*
X007382Y031415D02*
X000318Y031415D01*
X000318Y031513D02*
X007382Y031513D01*
X007382Y031612D02*
X000318Y031612D01*
X000318Y031710D02*
X007382Y031710D01*
X007382Y031809D02*
X000318Y031809D01*
X000318Y031907D02*
X007382Y031907D01*
X007382Y032006D02*
X000318Y032006D01*
X000318Y032104D02*
X007382Y032104D01*
X007382Y032203D02*
X000318Y032203D01*
X000318Y032301D02*
X007382Y032301D01*
X007382Y032400D02*
X000318Y032400D01*
X000318Y032498D02*
X007382Y032498D01*
X007382Y032597D02*
X000318Y032597D01*
X000318Y032695D02*
X007382Y032695D01*
X007382Y032794D02*
X000318Y032794D01*
X000318Y032892D02*
X007382Y032892D01*
X007382Y032991D02*
X000318Y032991D01*
X000318Y033089D02*
X007382Y033089D01*
X007382Y033188D02*
X000318Y033188D01*
X000318Y033286D02*
X007382Y033286D01*
X007382Y033385D02*
X000318Y033385D01*
X000318Y033483D02*
X007382Y033483D01*
X007382Y033582D02*
X000318Y033582D01*
X000318Y033680D02*
X007382Y033680D01*
X007382Y033779D02*
X000318Y033779D01*
X000318Y033877D02*
X007382Y033877D01*
X007382Y033976D02*
X000318Y033976D01*
X000318Y034074D02*
X007382Y034074D01*
X007382Y034173D02*
X000318Y034173D01*
X000318Y034271D02*
X007382Y034271D01*
X007382Y034370D02*
X000318Y034370D01*
X000318Y034468D02*
X007382Y034468D01*
X007382Y034567D02*
X000318Y034567D01*
X000318Y034665D02*
X007382Y034665D01*
X007382Y034764D02*
X000318Y034764D01*
X000318Y034862D02*
X007382Y034862D01*
X007382Y034961D02*
X000318Y034961D01*
X000318Y035059D02*
X007382Y035059D01*
X007382Y035158D02*
X000318Y035158D01*
X000318Y035256D02*
X007382Y035256D01*
X007382Y035355D02*
X000318Y035355D01*
X000318Y035453D02*
X007382Y035453D01*
X007382Y035552D02*
X000318Y035552D01*
X000318Y035650D02*
X007382Y035650D01*
X007382Y035749D02*
X000318Y035749D01*
X000318Y035847D02*
X007382Y035847D01*
X007382Y035946D02*
X000318Y035946D01*
X000318Y036044D02*
X007382Y036044D01*
X007382Y036143D02*
X000318Y036143D01*
X000318Y036241D02*
X007382Y036241D01*
X007382Y036340D02*
X000318Y036340D01*
X000318Y036438D02*
X007382Y036438D01*
X007382Y036537D02*
X000318Y036537D01*
X000318Y036635D02*
X007382Y036635D01*
X007382Y036734D02*
X000318Y036734D01*
X000318Y036832D02*
X007382Y036832D01*
X007382Y036931D02*
X000318Y036931D01*
X000318Y037029D02*
X007382Y037029D01*
X007382Y037128D02*
X000318Y037128D01*
X000318Y037226D02*
X007382Y037226D01*
X007382Y037325D02*
X000318Y037325D01*
X000318Y037423D02*
X007382Y037423D01*
X007382Y037522D02*
X000318Y037522D01*
X000318Y037620D02*
X007382Y037620D01*
X007382Y037719D02*
X000318Y037719D01*
X000318Y037817D02*
X007382Y037817D01*
X007382Y037916D02*
X000318Y037916D01*
X000318Y038014D02*
X007382Y038014D01*
X007382Y038113D02*
X000318Y038113D01*
X000318Y038211D02*
X007382Y038211D01*
X007382Y038310D02*
X000318Y038310D01*
X000318Y038408D02*
X007382Y038408D01*
X007382Y038507D02*
X000318Y038507D01*
X000318Y038605D02*
X007382Y038605D01*
X007382Y038704D02*
X000318Y038704D01*
X000318Y038802D02*
X007382Y038802D01*
X007382Y038901D02*
X000318Y038901D01*
X000318Y038999D02*
X007382Y038999D01*
X007382Y039098D02*
X000318Y039098D01*
X000318Y039196D02*
X007382Y039196D01*
X007382Y039295D02*
X000318Y039295D01*
X000318Y039393D02*
X007382Y039393D01*
X007382Y039492D02*
X000318Y039492D01*
X000318Y039590D02*
X007382Y039590D01*
X007382Y039689D02*
X000318Y039689D01*
X000318Y039787D02*
X007382Y039787D01*
X007382Y039886D02*
X000318Y039886D01*
X000318Y039984D02*
X007382Y039984D01*
X007382Y040083D02*
X000318Y040083D01*
X000318Y040181D02*
X007382Y040181D01*
X007382Y040280D02*
X000318Y040280D01*
X000318Y040378D02*
X007382Y040378D01*
X007382Y040477D02*
X000318Y040477D01*
X000318Y040575D02*
X007382Y040575D01*
X007382Y040674D02*
X000318Y040674D01*
X000318Y040772D02*
X007382Y040772D01*
X007382Y040871D02*
X000318Y040871D01*
X000318Y040969D02*
X007382Y040969D01*
X007382Y041068D02*
X000318Y041068D01*
X000318Y041166D02*
X007382Y041166D01*
X007382Y041265D02*
X000318Y041265D01*
X000318Y041363D02*
X007382Y041363D01*
X007382Y041462D02*
X000318Y041462D01*
X000318Y041560D02*
X007382Y041560D01*
X007382Y041659D02*
X000318Y041659D01*
X000318Y041757D02*
X007382Y041757D01*
X007382Y041856D02*
X000318Y041856D01*
X000318Y041954D02*
X007382Y041954D01*
X007382Y042053D02*
X000318Y042053D01*
X000318Y042151D02*
X007382Y042151D01*
X007382Y042250D02*
X000318Y042250D01*
X000318Y042348D02*
X007382Y042348D01*
X007382Y042447D02*
X000318Y042447D01*
X000318Y042545D02*
X007382Y042545D01*
X007382Y042644D02*
X000318Y042644D01*
X000318Y042742D02*
X007382Y042742D01*
X007382Y042841D02*
X000318Y042841D01*
X000318Y042939D02*
X007382Y042939D01*
X007382Y043038D02*
X000318Y043038D01*
X000318Y043136D02*
X007382Y043136D01*
M02*
