G75*
G70*
%OFA0B0*%
%FSLAX24Y24*%
%IPPOS*%
%LPD*%
%AMOC8*
5,1,8,0,0,1.08239X$1,22.5*
%
%ADD10C,0.0100*%
D10*
X000200Y003195D02*
X000200Y043295D01*
X007500Y043295D01*
X007500Y026245D01*
X006650Y026245D01*
X006650Y020245D01*
X007500Y020245D01*
X007500Y003195D01*
X000200Y003195D01*
X000200Y003244D02*
X007500Y003244D01*
X007500Y003342D02*
X000200Y003342D01*
X000200Y003441D02*
X007500Y003441D01*
X007500Y003539D02*
X000200Y003539D01*
X000200Y003638D02*
X007500Y003638D01*
X007500Y003736D02*
X000200Y003736D01*
X000200Y003835D02*
X007500Y003835D01*
X007500Y003933D02*
X000200Y003933D01*
X000200Y004032D02*
X007500Y004032D01*
X007500Y004130D02*
X000200Y004130D01*
X000200Y004229D02*
X007500Y004229D01*
X007500Y004327D02*
X000200Y004327D01*
X000200Y004426D02*
X007500Y004426D01*
X007500Y004524D02*
X000200Y004524D01*
X000200Y004623D02*
X007500Y004623D01*
X007500Y004721D02*
X000200Y004721D01*
X000200Y004820D02*
X007500Y004820D01*
X007500Y004918D02*
X000200Y004918D01*
X000200Y005017D02*
X007500Y005017D01*
X007500Y005115D02*
X000200Y005115D01*
X000200Y005214D02*
X007500Y005214D01*
X007500Y005312D02*
X000200Y005312D01*
X000200Y005411D02*
X007500Y005411D01*
X007500Y005509D02*
X000200Y005509D01*
X000200Y005608D02*
X007500Y005608D01*
X007500Y005706D02*
X000200Y005706D01*
X000200Y005805D02*
X007500Y005805D01*
X007500Y005903D02*
X000200Y005903D01*
X000200Y006002D02*
X007500Y006002D01*
X007500Y006100D02*
X000200Y006100D01*
X000200Y006199D02*
X007500Y006199D01*
X007500Y006297D02*
X000200Y006297D01*
X000200Y006396D02*
X007500Y006396D01*
X007500Y006494D02*
X000200Y006494D01*
X000200Y006593D02*
X007500Y006593D01*
X007500Y006691D02*
X000200Y006691D01*
X000200Y006790D02*
X007500Y006790D01*
X007500Y006888D02*
X000200Y006888D01*
X000200Y006987D02*
X007500Y006987D01*
X007500Y007085D02*
X000200Y007085D01*
X000200Y007184D02*
X007500Y007184D01*
X007500Y007282D02*
X000200Y007282D01*
X000200Y007381D02*
X007500Y007381D01*
X007500Y007479D02*
X000200Y007479D01*
X000200Y007578D02*
X007500Y007578D01*
X007500Y007676D02*
X000200Y007676D01*
X000200Y007775D02*
X007500Y007775D01*
X007500Y007873D02*
X000200Y007873D01*
X000200Y007972D02*
X007500Y007972D01*
X007500Y008070D02*
X000200Y008070D01*
X000200Y008169D02*
X007500Y008169D01*
X007500Y008267D02*
X000200Y008267D01*
X000200Y008366D02*
X007500Y008366D01*
X007500Y008464D02*
X000200Y008464D01*
X000200Y008563D02*
X007500Y008563D01*
X007500Y008661D02*
X000200Y008661D01*
X000200Y008760D02*
X007500Y008760D01*
X007500Y008858D02*
X000200Y008858D01*
X000200Y008957D02*
X007500Y008957D01*
X007500Y009055D02*
X000200Y009055D01*
X000200Y009154D02*
X007500Y009154D01*
X007500Y009252D02*
X000200Y009252D01*
X000200Y009351D02*
X007500Y009351D01*
X007500Y009449D02*
X000200Y009449D01*
X000200Y009548D02*
X007500Y009548D01*
X007500Y009646D02*
X000200Y009646D01*
X000200Y009745D02*
X007500Y009745D01*
X007500Y009843D02*
X000200Y009843D01*
X000200Y009942D02*
X007500Y009942D01*
X007500Y010040D02*
X000200Y010040D01*
X000200Y010139D02*
X007500Y010139D01*
X007500Y010237D02*
X000200Y010237D01*
X000200Y010336D02*
X007500Y010336D01*
X007500Y010434D02*
X000200Y010434D01*
X000200Y010533D02*
X007500Y010533D01*
X007500Y010631D02*
X000200Y010631D01*
X000200Y010730D02*
X007500Y010730D01*
X007500Y010828D02*
X000200Y010828D01*
X000200Y010927D02*
X007500Y010927D01*
X007500Y011025D02*
X000200Y011025D01*
X000200Y011124D02*
X007500Y011124D01*
X007500Y011222D02*
X000200Y011222D01*
X000200Y011321D02*
X007500Y011321D01*
X007500Y011419D02*
X000200Y011419D01*
X000200Y011518D02*
X007500Y011518D01*
X007500Y011616D02*
X000200Y011616D01*
X000200Y011715D02*
X007500Y011715D01*
X007500Y011813D02*
X000200Y011813D01*
X000200Y011912D02*
X007500Y011912D01*
X007500Y012010D02*
X000200Y012010D01*
X000200Y012109D02*
X007500Y012109D01*
X007500Y012207D02*
X000200Y012207D01*
X000200Y012306D02*
X007500Y012306D01*
X007500Y012404D02*
X000200Y012404D01*
X000200Y012503D02*
X007500Y012503D01*
X007500Y012601D02*
X000200Y012601D01*
X000200Y012700D02*
X007500Y012700D01*
X007500Y012798D02*
X000200Y012798D01*
X000200Y012897D02*
X007500Y012897D01*
X007500Y012995D02*
X000200Y012995D01*
X000200Y013094D02*
X007500Y013094D01*
X007500Y013192D02*
X000200Y013192D01*
X000200Y013291D02*
X007500Y013291D01*
X007500Y013389D02*
X000200Y013389D01*
X000200Y013488D02*
X007500Y013488D01*
X007500Y013586D02*
X000200Y013586D01*
X000200Y013685D02*
X007500Y013685D01*
X007500Y013783D02*
X000200Y013783D01*
X000200Y013882D02*
X007500Y013882D01*
X007500Y013980D02*
X000200Y013980D01*
X000200Y014079D02*
X007500Y014079D01*
X007500Y014177D02*
X000200Y014177D01*
X000200Y014276D02*
X007500Y014276D01*
X007500Y014374D02*
X000200Y014374D01*
X000200Y014473D02*
X007500Y014473D01*
X007500Y014571D02*
X000200Y014571D01*
X000200Y014670D02*
X007500Y014670D01*
X007500Y014768D02*
X000200Y014768D01*
X000200Y014867D02*
X007500Y014867D01*
X007500Y014965D02*
X000200Y014965D01*
X000200Y015064D02*
X007500Y015064D01*
X007500Y015162D02*
X000200Y015162D01*
X000200Y015261D02*
X007500Y015261D01*
X007500Y015359D02*
X000200Y015359D01*
X000200Y015458D02*
X007500Y015458D01*
X007500Y015556D02*
X000200Y015556D01*
X000200Y015655D02*
X007500Y015655D01*
X007500Y015753D02*
X000200Y015753D01*
X000200Y015852D02*
X007500Y015852D01*
X007500Y015950D02*
X000200Y015950D01*
X000200Y016049D02*
X007500Y016049D01*
X007500Y016147D02*
X000200Y016147D01*
X000200Y016246D02*
X007500Y016246D01*
X007500Y016344D02*
X000200Y016344D01*
X000200Y016443D02*
X007500Y016443D01*
X007500Y016541D02*
X000200Y016541D01*
X000200Y016640D02*
X007500Y016640D01*
X007500Y016738D02*
X000200Y016738D01*
X000200Y016837D02*
X007500Y016837D01*
X007500Y016935D02*
X000200Y016935D01*
X000200Y017034D02*
X007500Y017034D01*
X007500Y017132D02*
X000200Y017132D01*
X000200Y017231D02*
X007500Y017231D01*
X007500Y017329D02*
X000200Y017329D01*
X000200Y017428D02*
X007500Y017428D01*
X007500Y017526D02*
X000200Y017526D01*
X000200Y017625D02*
X007500Y017625D01*
X007500Y017723D02*
X000200Y017723D01*
X000200Y017822D02*
X007500Y017822D01*
X007500Y017920D02*
X000200Y017920D01*
X000200Y018019D02*
X007500Y018019D01*
X007500Y018117D02*
X000200Y018117D01*
X000200Y018216D02*
X007500Y018216D01*
X007500Y018314D02*
X000200Y018314D01*
X000200Y018413D02*
X007500Y018413D01*
X007500Y018511D02*
X000200Y018511D01*
X000200Y018610D02*
X007500Y018610D01*
X007500Y018708D02*
X000200Y018708D01*
X000200Y018807D02*
X007500Y018807D01*
X007500Y018905D02*
X000200Y018905D01*
X000200Y019004D02*
X007500Y019004D01*
X007500Y019102D02*
X000200Y019102D01*
X000200Y019201D02*
X007500Y019201D01*
X007500Y019299D02*
X000200Y019299D01*
X000200Y019398D02*
X007500Y019398D01*
X007500Y019496D02*
X000200Y019496D01*
X000200Y019595D02*
X007500Y019595D01*
X007500Y019693D02*
X000200Y019693D01*
X000200Y019792D02*
X007500Y019792D01*
X007500Y019890D02*
X000200Y019890D01*
X000200Y019989D02*
X007500Y019989D01*
X007500Y020087D02*
X000200Y020087D01*
X000200Y020186D02*
X007500Y020186D01*
X006650Y020284D02*
X000200Y020284D01*
X000200Y020383D02*
X006650Y020383D01*
X006650Y020481D02*
X000200Y020481D01*
X000200Y020580D02*
X006650Y020580D01*
X006650Y020678D02*
X000200Y020678D01*
X000200Y020777D02*
X006650Y020777D01*
X006650Y020875D02*
X000200Y020875D01*
X000200Y020974D02*
X006650Y020974D01*
X006650Y021072D02*
X000200Y021072D01*
X000200Y021171D02*
X006650Y021171D01*
X006650Y021269D02*
X000200Y021269D01*
X000200Y021368D02*
X006650Y021368D01*
X006650Y021466D02*
X000200Y021466D01*
X000200Y021565D02*
X006650Y021565D01*
X006650Y021663D02*
X000200Y021663D01*
X000200Y021762D02*
X006650Y021762D01*
X006650Y021860D02*
X000200Y021860D01*
X000200Y021959D02*
X006650Y021959D01*
X006650Y022057D02*
X000200Y022057D01*
X000200Y022156D02*
X006650Y022156D01*
X006650Y022254D02*
X000200Y022254D01*
X000200Y022353D02*
X006650Y022353D01*
X006650Y022451D02*
X000200Y022451D01*
X000200Y022550D02*
X006650Y022550D01*
X006650Y022648D02*
X000200Y022648D01*
X000200Y022747D02*
X006650Y022747D01*
X006650Y022845D02*
X000200Y022845D01*
X000200Y022944D02*
X006650Y022944D01*
X006650Y023042D02*
X000200Y023042D01*
X000200Y023141D02*
X006650Y023141D01*
X006650Y023239D02*
X000200Y023239D01*
X000200Y023338D02*
X006650Y023338D01*
X006650Y023436D02*
X000200Y023436D01*
X000200Y023535D02*
X006650Y023535D01*
X006650Y023633D02*
X000200Y023633D01*
X000200Y023732D02*
X006650Y023732D01*
X006650Y023830D02*
X000200Y023830D01*
X000200Y023929D02*
X006650Y023929D01*
X006650Y024027D02*
X000200Y024027D01*
X000200Y024126D02*
X006650Y024126D01*
X006650Y024224D02*
X000200Y024224D01*
X000200Y024323D02*
X006650Y024323D01*
X006650Y024421D02*
X000200Y024421D01*
X000200Y024520D02*
X006650Y024520D01*
X006650Y024618D02*
X000200Y024618D01*
X000200Y024717D02*
X006650Y024717D01*
X006650Y024815D02*
X000200Y024815D01*
X000200Y024914D02*
X006650Y024914D01*
X006650Y025012D02*
X000200Y025012D01*
X000200Y025111D02*
X006650Y025111D01*
X006650Y025209D02*
X000200Y025209D01*
X000200Y025308D02*
X006650Y025308D01*
X006650Y025406D02*
X000200Y025406D01*
X000200Y025505D02*
X006650Y025505D01*
X006650Y025603D02*
X000200Y025603D01*
X000200Y025702D02*
X006650Y025702D01*
X006650Y025800D02*
X000200Y025800D01*
X000200Y025899D02*
X006650Y025899D01*
X006650Y025997D02*
X000200Y025997D01*
X000200Y026096D02*
X006650Y026096D01*
X006650Y026194D02*
X000200Y026194D01*
X000200Y026293D02*
X007500Y026293D01*
X007500Y026391D02*
X000200Y026391D01*
X000200Y026490D02*
X007500Y026490D01*
X007500Y026588D02*
X000200Y026588D01*
X000200Y026687D02*
X007500Y026687D01*
X007500Y026785D02*
X000200Y026785D01*
X000200Y026884D02*
X007500Y026884D01*
X007500Y026982D02*
X000200Y026982D01*
X000200Y027081D02*
X007500Y027081D01*
X007500Y027179D02*
X000200Y027179D01*
X000200Y027278D02*
X007500Y027278D01*
X007500Y027376D02*
X000200Y027376D01*
X000200Y027475D02*
X007500Y027475D01*
X007500Y027573D02*
X000200Y027573D01*
X000200Y027672D02*
X007500Y027672D01*
X007500Y027770D02*
X000200Y027770D01*
X000200Y027869D02*
X007500Y027869D01*
X007500Y027967D02*
X000200Y027967D01*
X000200Y028066D02*
X007500Y028066D01*
X007500Y028164D02*
X000200Y028164D01*
X000200Y028263D02*
X007500Y028263D01*
X007500Y028361D02*
X000200Y028361D01*
X000200Y028460D02*
X007500Y028460D01*
X007500Y028558D02*
X000200Y028558D01*
X000200Y028657D02*
X007500Y028657D01*
X007500Y028755D02*
X000200Y028755D01*
X000200Y028854D02*
X007500Y028854D01*
X007500Y028952D02*
X000200Y028952D01*
X000200Y029051D02*
X007500Y029051D01*
X007500Y029149D02*
X000200Y029149D01*
X000200Y029248D02*
X007500Y029248D01*
X007500Y029346D02*
X000200Y029346D01*
X000200Y029445D02*
X007500Y029445D01*
X007500Y029543D02*
X000200Y029543D01*
X000200Y029642D02*
X007500Y029642D01*
X007500Y029740D02*
X000200Y029740D01*
X000200Y029839D02*
X007500Y029839D01*
X007500Y029937D02*
X000200Y029937D01*
X000200Y030036D02*
X007500Y030036D01*
X007500Y030134D02*
X000200Y030134D01*
X000200Y030233D02*
X007500Y030233D01*
X007500Y030331D02*
X000200Y030331D01*
X000200Y030430D02*
X007500Y030430D01*
X007500Y030528D02*
X000200Y030528D01*
X000200Y030627D02*
X007500Y030627D01*
X007500Y030725D02*
X000200Y030725D01*
X000200Y030824D02*
X007500Y030824D01*
X007500Y030922D02*
X000200Y030922D01*
X000200Y031021D02*
X007500Y031021D01*
X007500Y031119D02*
X000200Y031119D01*
X000200Y031218D02*
X007500Y031218D01*
X007500Y031316D02*
X000200Y031316D01*
X000200Y031415D02*
X007500Y031415D01*
X007500Y031513D02*
X000200Y031513D01*
X000200Y031612D02*
X007500Y031612D01*
X007500Y031710D02*
X000200Y031710D01*
X000200Y031809D02*
X007500Y031809D01*
X007500Y031907D02*
X000200Y031907D01*
X000200Y032006D02*
X007500Y032006D01*
X007500Y032104D02*
X000200Y032104D01*
X000200Y032203D02*
X007500Y032203D01*
X007500Y032301D02*
X000200Y032301D01*
X000200Y032400D02*
X007500Y032400D01*
X007500Y032498D02*
X000200Y032498D01*
X000200Y032597D02*
X007500Y032597D01*
X007500Y032695D02*
X000200Y032695D01*
X000200Y032794D02*
X007500Y032794D01*
X007500Y032892D02*
X000200Y032892D01*
X000200Y032991D02*
X007500Y032991D01*
X007500Y033089D02*
X000200Y033089D01*
X000200Y033188D02*
X007500Y033188D01*
X007500Y033286D02*
X000200Y033286D01*
X000200Y033385D02*
X007500Y033385D01*
X007500Y033483D02*
X000200Y033483D01*
X000200Y033582D02*
X007500Y033582D01*
X007500Y033680D02*
X000200Y033680D01*
X000200Y033779D02*
X007500Y033779D01*
X007500Y033877D02*
X000200Y033877D01*
X000200Y033976D02*
X007500Y033976D01*
X007500Y034074D02*
X000200Y034074D01*
X000200Y034173D02*
X007500Y034173D01*
X007500Y034271D02*
X000200Y034271D01*
X000200Y034370D02*
X007500Y034370D01*
X007500Y034468D02*
X000200Y034468D01*
X000200Y034567D02*
X007500Y034567D01*
X007500Y034665D02*
X000200Y034665D01*
X000200Y034764D02*
X007500Y034764D01*
X007500Y034862D02*
X000200Y034862D01*
X000200Y034961D02*
X007500Y034961D01*
X007500Y035059D02*
X000200Y035059D01*
X000200Y035158D02*
X007500Y035158D01*
X007500Y035256D02*
X000200Y035256D01*
X000200Y035355D02*
X007500Y035355D01*
X007500Y035453D02*
X000200Y035453D01*
X000200Y035552D02*
X007500Y035552D01*
X007500Y035650D02*
X000200Y035650D01*
X000200Y035749D02*
X007500Y035749D01*
X007500Y035847D02*
X000200Y035847D01*
X000200Y035946D02*
X007500Y035946D01*
X007500Y036044D02*
X000200Y036044D01*
X000200Y036143D02*
X007500Y036143D01*
X007500Y036241D02*
X000200Y036241D01*
X000200Y036340D02*
X007500Y036340D01*
X007500Y036438D02*
X000200Y036438D01*
X000200Y036537D02*
X007500Y036537D01*
X007500Y036635D02*
X000200Y036635D01*
X000200Y036734D02*
X007500Y036734D01*
X007500Y036832D02*
X000200Y036832D01*
X000200Y036931D02*
X007500Y036931D01*
X007500Y037029D02*
X000200Y037029D01*
X000200Y037128D02*
X007500Y037128D01*
X007500Y037226D02*
X000200Y037226D01*
X000200Y037325D02*
X007500Y037325D01*
X007500Y037423D02*
X000200Y037423D01*
X000200Y037522D02*
X007500Y037522D01*
X007500Y037620D02*
X000200Y037620D01*
X000200Y037719D02*
X007500Y037719D01*
X007500Y037817D02*
X000200Y037817D01*
X000200Y037916D02*
X007500Y037916D01*
X007500Y038014D02*
X000200Y038014D01*
X000200Y038113D02*
X007500Y038113D01*
X007500Y038211D02*
X000200Y038211D01*
X000200Y038310D02*
X007500Y038310D01*
X007500Y038408D02*
X000200Y038408D01*
X000200Y038507D02*
X007500Y038507D01*
X007500Y038605D02*
X000200Y038605D01*
X000200Y038704D02*
X007500Y038704D01*
X007500Y038802D02*
X000200Y038802D01*
X000200Y038901D02*
X007500Y038901D01*
X007500Y038999D02*
X000200Y038999D01*
X000200Y039098D02*
X007500Y039098D01*
X007500Y039196D02*
X000200Y039196D01*
X000200Y039295D02*
X007500Y039295D01*
X007500Y039393D02*
X000200Y039393D01*
X000200Y039492D02*
X007500Y039492D01*
X007500Y039590D02*
X000200Y039590D01*
X000200Y039689D02*
X007500Y039689D01*
X007500Y039787D02*
X000200Y039787D01*
X000200Y039886D02*
X007500Y039886D01*
X007500Y039984D02*
X000200Y039984D01*
X000200Y040083D02*
X007500Y040083D01*
X007500Y040181D02*
X000200Y040181D01*
X000200Y040280D02*
X007500Y040280D01*
X007500Y040378D02*
X000200Y040378D01*
X000200Y040477D02*
X007500Y040477D01*
X007500Y040575D02*
X000200Y040575D01*
X000200Y040674D02*
X007500Y040674D01*
X007500Y040772D02*
X000200Y040772D01*
X000200Y040871D02*
X007500Y040871D01*
X007500Y040969D02*
X000200Y040969D01*
X000200Y041068D02*
X007500Y041068D01*
X007500Y041166D02*
X000200Y041166D01*
X000200Y041265D02*
X007500Y041265D01*
X007500Y041363D02*
X000200Y041363D01*
X000200Y041462D02*
X007500Y041462D01*
X007500Y041560D02*
X000200Y041560D01*
X000200Y041659D02*
X007500Y041659D01*
X007500Y041757D02*
X000200Y041757D01*
X000200Y041856D02*
X007500Y041856D01*
X007500Y041954D02*
X000200Y041954D01*
X000200Y042053D02*
X007500Y042053D01*
X007500Y042151D02*
X000200Y042151D01*
X000200Y042250D02*
X007500Y042250D01*
X007500Y042348D02*
X000200Y042348D01*
X000200Y042447D02*
X007500Y042447D01*
X007500Y042545D02*
X000200Y042545D01*
X000200Y042644D02*
X007500Y042644D01*
X007500Y042742D02*
X000200Y042742D01*
X000200Y042841D02*
X007500Y042841D01*
X007500Y042939D02*
X000200Y042939D01*
X000200Y043038D02*
X007500Y043038D01*
X007500Y043136D02*
X000200Y043136D01*
X000200Y043235D02*
X007500Y043235D01*
M02*
