G75*
G70*
%OFA0B0*%
%FSLAX24Y24*%
%IPPOS*%
%LPD*%
%AMOC8*
5,1,8,0,0,1.08239X$1,22.5*
%
%ADD10C,0.0000*%
D10*
X000100Y000100D02*
X000100Y081225D01*
X081850Y081225D01*
X081850Y000100D01*
X000100Y000100D01*
X023413Y043600D02*
X023413Y070100D01*
X023913Y070100D01*
X023913Y043600D01*
X023413Y043600D01*
X027163Y043600D02*
X027163Y070100D01*
X027663Y070100D01*
X027663Y043600D01*
X027163Y043600D01*
X030913Y043600D02*
X030913Y070100D01*
X031413Y070100D01*
X031413Y043600D01*
X030913Y043600D01*
X034663Y043600D02*
X034663Y070100D01*
X035163Y070100D01*
X035163Y043600D01*
X034663Y043600D01*
X038413Y043600D02*
X038413Y070100D01*
X038913Y070100D01*
X038913Y043600D01*
X038413Y043600D01*
X042163Y043600D02*
X042163Y070100D01*
X042663Y070100D01*
X042663Y043600D01*
X042163Y043600D01*
X045913Y043600D02*
X045913Y070100D01*
X046413Y070100D01*
X046413Y043600D01*
X045913Y043600D01*
X049663Y043600D02*
X049663Y070100D01*
X050163Y070100D01*
X050163Y043600D01*
X049663Y043600D01*
X053413Y043600D02*
X053413Y070100D01*
X053913Y070100D01*
X053913Y043600D01*
X053413Y043600D01*
X057163Y043600D02*
X057163Y070100D01*
X057663Y070100D01*
X057663Y043600D01*
X057163Y043600D01*
X060913Y043600D02*
X060913Y070100D01*
X061413Y070100D01*
X061413Y043600D01*
X060913Y043600D01*
X064663Y043600D02*
X064663Y070100D01*
X065163Y070100D01*
X065163Y043600D01*
X064663Y043600D01*
X068413Y043600D02*
X068413Y070100D01*
X068913Y070100D01*
X068913Y043600D01*
X068413Y043600D01*
X072163Y043600D02*
X072163Y070100D01*
X072663Y070100D01*
X072663Y043600D01*
X072163Y043600D01*
X075913Y043600D02*
X075913Y070100D01*
X076413Y070100D01*
X076413Y043600D01*
X075913Y043600D01*
X079663Y043600D02*
X079663Y070100D01*
X080163Y070100D01*
X080163Y043600D01*
X079663Y043600D01*
M02*
