G75*
G70*
%OFA0B0*%
%FSLAX24Y24*%
%IPPOS*%
%LPD*%
%AMOC8*
5,1,8,0,0,1.08239X$1,22.5*
%
%ADD10C,0.0060*%
D10*
X004953Y035993D02*
X004880Y036066D01*
X004880Y036139D01*
X004953Y036213D01*
X005320Y036213D01*
X005320Y036286D02*
X005320Y036139D01*
X005320Y036453D02*
X004880Y036453D01*
X004880Y036747D01*
X004953Y036913D02*
X004880Y036987D01*
X004880Y037134D01*
X004953Y037207D01*
X004953Y037374D02*
X004880Y037447D01*
X004880Y037521D01*
X004953Y037594D01*
X005320Y037594D01*
X005320Y037521D02*
X005320Y037667D01*
X005320Y037834D02*
X004880Y037834D01*
X004880Y038128D01*
X004953Y038295D02*
X004880Y038368D01*
X004880Y038515D01*
X004953Y038588D01*
X004953Y038755D02*
X004880Y038828D01*
X004880Y038902D01*
X004953Y038975D01*
X005320Y038975D01*
X005320Y038902D02*
X005320Y039049D01*
X005320Y039215D02*
X004880Y039215D01*
X004880Y039509D01*
X004953Y039676D02*
X004880Y039749D01*
X004880Y039896D01*
X004953Y039969D01*
X004953Y040136D02*
X004880Y040210D01*
X004880Y040283D01*
X004953Y040356D01*
X005320Y040356D01*
X005320Y040283D02*
X005320Y040430D01*
X005320Y040597D02*
X004880Y040597D01*
X004880Y040890D01*
X004953Y041057D02*
X004880Y041130D01*
X004880Y041277D01*
X004953Y041351D01*
X005247Y041351D02*
X005320Y041277D01*
X005320Y041130D01*
X005247Y041057D01*
X004953Y041057D01*
X005247Y039969D02*
X005320Y039896D01*
X005320Y039749D01*
X005247Y039676D01*
X004953Y039676D01*
X005247Y038588D02*
X005320Y038515D01*
X005320Y038368D01*
X005247Y038295D01*
X004953Y038295D01*
X005247Y037207D02*
X005320Y037134D01*
X005320Y036987D01*
X005247Y036913D01*
X004953Y036913D01*
M02*
